<svg width="575" height="340" viewBox="0 0 575 340" fill="none" xmlns="http://www.w3.org/2000/svg">
<g clip-path="url(#clip0_3259_49592)">
<g opacity="0.5">
<path d="M269.32 209.64C269.32 221.773 270.413 233.658 272.514 245.201C277.559 272.894 288.379 298.571 303.694 320.947C339.269 372.946 399.085 407.072 466.873 407.072C547.511 407.072 616.87 358.792 647.563 289.567C651.615 280.448 654.993 270.965 657.626 261.176C662.072 244.747 664.438 227.464 664.438 209.64C664.438 195.219 662.89 181.157 659.951 167.626C659.923 167.466 659.883 167.319 659.855 167.163C651.643 129.737 632.815 96.3039 606.68 70.1451C599.27 62.7196 591.265 55.8839 582.743 49.71C578.683 46.7645 574.495 43.9664 570.208 41.3398C540.152 22.8537 504.765 12.1957 466.873 12.1957C461.847 12.1957 456.87 12.383 451.945 12.7577C444.985 13.2679 438.137 14.1447 431.405 15.3684C403.065 20.4981 376.842 31.6783 354.098 47.5138H354.09C339.919 57.3707 327.109 69.0331 315.982 82.1783C310.139 89.0817 304.759 96.3916 299.898 104.064C296.874 108.839 294.047 113.742 291.423 118.788C285.129 130.901 280.064 143.751 276.367 157.175C271.773 173.879 269.32 191.477 269.32 209.64Z" fill="#DCE8FF"/>
<path d="M494.273 112.5C495.629 112.313 497.009 112.217 498.417 112.213L638.719 112.165C629.941 96.7441 619.141 82.6185 606.681 70.1469C599.271 62.7214 591.267 55.8857 582.744 49.7118C578.684 46.7663 574.496 43.9682 570.209 41.3416C564.051 41.5648 556.689 43.9005 550.411 51.6608C536.616 68.7399 527.419 60.1984 530.702 79.8962C533.713 97.916 529.565 101.651 520.288 101.651C519.423 101.651 518.518 101.619 517.564 101.563C515.136 101.419 512.615 101.308 510.138 101.308C501.241 101.308 492.969 102.763 491.944 109.443C491.717 110.93 492.606 111.882 494.273 112.5Z" fill="#B1CAFF"/>
<path d="M468.322 322.049L468.314 303.583C465.746 307.668 463.285 311.845 463.696 315.277C464.063 318.326 465.945 320.239 468.322 322.049ZM454.878 291.338C457.426 291.338 459.967 290.545 462.352 289.752C464.494 289.038 466.516 288.325 468.31 288.185L468.29 239.292C465.949 240.372 463.313 240.723 460.86 240.723C456.194 240.723 452.202 239.443 452.202 239.443C450.124 237.159 446.467 236.091 442.746 236.091C434.69 236.091 426.306 241.089 432.819 249.623C442.347 262.094 436.105 272.601 445.302 285.734C448.313 290.031 451.604 291.338 454.878 291.338Z" fill="#B1CAFF"/>
<path d="M311.105 322.172C313.909 322.172 316.713 321.642 319.493 320.526C344.132 310.677 325.902 284.088 316.047 270.791C306.192 257.498 331.322 263.405 349.552 251.097C366.418 239.706 350.389 210.613 362.721 210.613C363.718 210.613 364.902 210.805 366.302 211.207C375.858 213.973 386.439 217.122 395.951 217.122C405.08 217.122 413.224 214.225 418.532 205.3C429.372 187.081 408.677 184.128 418.038 168.862C427.402 153.597 412.618 144.732 393.897 143.254C375.172 141.779 377.637 128.482 354.477 126.513C353.731 126.449 353.006 126.418 352.308 126.418C342.166 126.418 336.845 132.867 331.258 139.316C325.67 145.765 319.812 152.214 308.593 152.214C307.819 152.214 307.017 152.182 306.192 152.118C302.531 151.839 299.416 151.715 296.768 151.715C280.874 151.715 281.724 156.056 281.724 156.056C281.616 156.056 281.513 156.056 281.409 156.056C279.678 156.056 277.987 156.439 276.372 157.18C271.777 173.884 269.325 191.482 269.325 209.645C269.325 221.778 270.417 233.663 272.519 245.206C277.564 272.899 288.384 298.576 303.699 320.952C306.152 321.757 308.629 322.172 311.105 322.172Z" fill="#B1CAFF"/>
<path d="M300.721 121.111C307.018 121.111 312.167 117.791 317.16 114.471C322.15 111.151 326.983 107.831 332.647 107.831C334.792 107.831 337.061 108.309 339.498 109.445C343.072 111.103 345.824 111.82 348.053 111.82C357.278 111.82 357.457 99.5203 369.095 91.0584C372.597 88.5115 376.948 87.7024 381.514 87.7024C385.506 87.7024 389.666 88.3242 393.563 88.942C397.455 89.5637 401.088 90.1855 404.032 90.1855C408.658 90.1855 411.578 88.651 411.143 83.1785C409.831 66.769 388.151 71.3606 383.548 58.2314C380.481 49.4786 370.112 48.0198 363.543 48.0198C360.261 48.0198 357.928 48.3825 357.928 48.3825C356.735 47.9321 355.455 47.6332 354.103 47.5176H354.095C339.925 57.3745 327.115 69.0369 315.988 82.1821C310.145 89.0855 304.765 96.3954 299.903 104.068C296.88 108.843 294.052 113.746 291.428 118.792C294.818 120.438 297.889 121.111 300.721 121.111Z" fill="#B1CAFF"/>
<path d="M495.01 87.666C502.281 87.666 509.296 71.4917 517.572 62.1689C527.275 51.2398 523.111 41.1797 511.178 41.1797C510.389 41.1797 509.559 41.2236 508.702 41.3152C507.182 41.4747 505.834 41.5464 504.614 41.5464C501.272 41.5464 498.891 41.0322 496.59 40.5181C494.292 40.0079 492.071 39.4937 489.04 39.4937C486.168 39.4937 482.571 39.9561 477.498 41.3152C459.758 46.0663 470.925 62.1689 470.925 62.1689C481.929 63.3168 480.122 72.3446 489.487 84.2661C491.361 86.6536 493.192 87.666 495.01 87.666Z" fill="#B1CAFF"/>
</g>
<path d="M348.869 189.803C348.869 179.006 340.063 170.209 329.263 170.209C318.411 170.209 309.657 179.006 309.657 189.803C309.657 200.649 318.411 209.397 329.263 209.397C340.063 209.397 348.869 200.649 348.869 189.803ZM362.537 191.9C362.537 211.645 329.263 243.213 329.263 243.213C329.263 243.213 295.99 211.645 295.99 191.9C295.99 172.15 310.886 156.139 329.263 156.139C347.641 156.139 362.537 172.15 362.537 191.9Z" fill="#F78E48"/>
<path d="M463.029 64.195C463.029 53.8239 454.57 45.374 444.197 45.374C433.771 45.374 425.364 53.8239 425.364 64.195C425.364 74.6138 433.771 83.0159 444.197 83.0159C454.57 83.0159 463.029 74.6138 463.029 64.195ZM476.158 66.2078C476.158 85.1762 444.197 115.496 444.197 115.496C444.197 115.496 412.235 85.1762 412.235 66.2078C412.235 47.2394 426.545 31.8622 444.197 31.8622C461.848 31.8622 476.158 47.2394 476.158 66.2078Z" fill="#F78E48"/>
<path d="M757.59 532.084H475.076V327.696H757.59V532.084Z" fill="#F78E48"/>
<path d="M393.512 -21.2753L393.58 -21.2792C395.004 -21.3869 396.407 -21.3948 397.767 -21.3071C398.262 -21.2752 398.689 -21.6459 398.721 -22.1402C398.753 -22.6304 398.382 -23.0569 397.887 -23.0928C396.439 -23.1884 394.952 -23.1765 393.444 -23.0649C392.95 -23.025 392.583 -22.5945 392.619 -22.1043C392.655 -21.6339 393.045 -21.2753 393.512 -21.2753ZM385.061 -19.5813C385.165 -19.5813 385.268 -19.6012 385.368 -19.6371C386.03 -19.8763 386.708 -20.0835 387.382 -20.2509C388.064 -20.4183 388.746 -20.5737 389.408 -20.7013C389.891 -20.797 390.206 -21.2673 390.11 -21.7536C390.014 -22.2358 389.548 -22.5507 389.061 -22.455C388.375 -22.3235 387.665 -22.1641 386.951 -21.9887C386.218 -21.8054 385.48 -21.5822 384.754 -21.3151C384.291 -21.1477 384.052 -20.6335 384.219 -20.1712C384.351 -19.8084 384.694 -19.5813 385.061 -19.5813ZM406.219 -19.4099C406.573 -19.4099 406.912 -19.6252 407.052 -19.9759C407.232 -20.4343 407.008 -20.9564 406.55 -21.1358C405.162 -21.6858 403.73 -22.1282 402.294 -22.455C401.815 -22.5627 401.333 -22.2597 401.225 -21.7775C401.118 -21.2952 401.421 -20.8168 401.899 -20.7092C403.243 -20.4063 404.587 -19.9878 405.887 -19.4736C405.995 -19.4298 406.107 -19.4099 406.219 -19.4099ZM377.671 -15.2926C377.87 -15.2926 378.066 -15.3564 378.233 -15.4919C379.354 -16.3927 380.502 -17.1938 381.643 -17.8674C382.07 -18.1185 382.209 -18.6645 381.958 -19.091C381.711 -19.5175 381.16 -19.661 380.734 -19.4099C379.517 -18.6924 378.297 -17.8434 377.108 -16.8829C376.726 -16.572 376.662 -16.01 376.973 -15.6273C377.152 -15.4081 377.412 -15.2926 377.671 -15.2926ZM413.704 -15.165C413.98 -15.165 414.247 -15.2886 414.422 -15.5237C414.721 -15.9183 414.638 -16.4803 414.243 -16.7753C413.034 -17.6801 411.79 -18.4971 410.546 -19.2066C410.119 -19.4537 409.573 -19.3022 409.325 -18.8758C409.082 -18.4453 409.23 -17.8993 409.66 -17.6561C410.837 -16.9825 412.017 -16.2053 413.17 -15.3444C413.33 -15.2248 413.521 -15.165 413.704 -15.165ZM420.066 -9.34575C420.281 -9.34575 420.5 -9.42151 420.672 -9.57697C421.035 -9.91176 421.059 -10.4777 420.728 -10.8444C419.711 -11.9485 418.67 -12.9968 417.629 -13.9574C417.266 -14.2922 416.7 -14.2682 416.365 -13.9055C416.03 -13.5428 416.053 -12.9769 416.416 -12.642C417.417 -11.7173 418.422 -10.705 419.408 -9.63278C419.583 -9.44145 419.822 -9.34575 420.066 -9.34575ZM371.609 -9.19029C371.868 -9.19029 372.123 -9.30194 372.303 -9.51717C373.232 -10.6452 374.181 -11.7054 375.126 -12.666C375.473 -13.0167 375.469 -13.5827 375.118 -13.9294C374.763 -14.2762 374.197 -14.2722 373.85 -13.9215C372.869 -12.925 371.884 -11.825 370.919 -10.6531C370.604 -10.2705 370.659 -9.70851 371.042 -9.39363C371.206 -9.25812 371.409 -9.19029 371.609 -9.19029ZM425.45 -2.60182C425.629 -2.60182 425.809 -2.65363 425.964 -2.76523C426.371 -3.04822 426.467 -3.60626 426.184 -4.0128C425.322 -5.23245 424.441 -6.41222 423.567 -7.50832C423.256 -7.89893 422.694 -7.96268 422.307 -7.65179C421.92 -7.34488 421.856 -6.78288 422.163 -6.39627C423.017 -5.32408 423.878 -4.17621 424.72 -2.98047C424.891 -2.73335 425.171 -2.60182 425.45 -2.60182ZM366.595 -2.16338C366.895 -2.16338 367.186 -2.31085 367.353 -2.58189C368.131 -3.82147 368.929 -5.0172 369.722 -6.13322C370.009 -6.53578 369.914 -7.09781 369.511 -7.3808C369.104 -7.66779 368.546 -7.57208 368.263 -7.16953C367.449 -6.0256 366.631 -4.80193 365.838 -3.53046C365.574 -3.11195 365.702 -2.56198 366.121 -2.29892C366.268 -2.20724 366.432 -2.16338 366.595 -2.16338ZM430.08 4.68425C430.232 4.68425 430.387 4.64438 430.527 4.56467C430.953 4.31755 431.101 3.76747 430.854 3.34099C430.112 2.05756 429.354 0.802032 428.604 -0.385727C428.337 -0.804245 427.787 -0.927734 427.368 -0.66069C426.949 -0.397629 426.826 0.156342 427.089 0.570862C427.831 1.73869 428.577 2.97032 429.302 4.23381C429.47 4.5208 429.769 4.68425 430.08 4.68425ZM362.34 5.36183C362.667 5.36183 362.982 5.1864 363.138 4.87552C363.804 3.57614 364.486 2.30472 365.168 1.09703C365.411 0.666565 365.259 0.120514 364.829 -0.118637C364.398 -0.361771 363.852 -0.210312 363.608 0.220154C362.914 1.44778 362.22 2.73914 361.546 4.05843C361.319 4.50085 361.495 5.03897 361.933 5.26616C362.065 5.32993 362.204 5.36183 362.34 5.36183ZM434.132 12.3051C434.264 12.3051 434.399 12.2772 434.527 12.2134C434.97 11.9942 435.153 11.4601 434.934 11.0177C434.284 9.69041 433.618 8.39099 432.96 7.14742C432.728 6.70898 432.186 6.54561 431.751 6.77678C431.312 7.00797 431.145 7.54999 431.376 7.98444C432.03 9.21207 432.684 10.4955 433.326 11.8068C433.486 12.1217 433.801 12.3051 434.132 12.3051ZM358.651 13.1859C358.994 13.1859 359.325 12.9826 359.473 12.6478C360.059 11.3006 360.657 9.98535 361.247 8.72983C361.455 8.28342 361.263 7.74928 360.817 7.54202C360.37 7.33078 359.835 7.52214 359.628 7.96855C359.03 9.24002 358.424 10.5712 357.829 11.9304C357.634 12.3848 357.841 12.9109 358.292 13.1102C358.408 13.162 358.531 13.1859 358.651 13.1859ZM437.733 20.1531C437.853 20.1531 437.973 20.1292 438.088 20.0813C438.543 19.886 438.751 19.3599 438.555 18.9055C437.977 17.5543 437.382 16.2191 436.796 14.9397C436.589 14.4893 436.058 14.294 435.612 14.4972C435.161 14.7045 434.962 15.2346 435.169 15.685C435.751 16.9525 436.338 18.2718 436.912 19.611C437.059 19.9498 437.386 20.1531 437.733 20.1531ZM355.389 21.1973C355.751 21.1973 356.09 20.9741 356.226 20.6194C356.745 19.2563 357.275 17.9091 357.801 16.6137C357.989 16.1553 357.77 15.6332 357.311 15.4459C356.852 15.2586 356.33 15.4818 356.142 15.9401C355.612 17.2475 355.077 18.6066 354.551 19.9817C354.376 20.444 354.611 20.9622 355.069 21.1376C355.177 21.1774 355.285 21.1973 355.389 21.1973ZM440.322 26.4586C440.43 26.4586 440.541 26.4387 440.649 26.3988C441.108 26.2155 441.335 25.6973 441.155 25.239C440.844 24.4498 440.537 23.6725 440.226 22.9073C440.043 22.4489 439.52 22.2297 439.062 22.413C438.603 22.6003 438.384 23.1225 438.567 23.5809C438.874 24.3382 439.181 25.1075 439.488 25.8887C439.624 26.2434 439.963 26.4586 440.322 26.4586ZM352.469 29.3364C352.84 29.3364 353.191 29.1012 353.315 28.7305C353.781 27.3594 354.256 25.9923 354.734 24.661C354.902 24.1947 354.659 23.6845 354.192 23.5171C353.729 23.3497 353.215 23.5928 353.048 24.0552C352.569 25.3984 352.086 26.7775 351.62 28.1566C351.46 28.6229 351.711 29.1331 352.182 29.2885C352.278 29.3244 352.373 29.3364 352.469 29.3364ZM349.825 37.575C350.208 37.575 350.563 37.3279 350.678 36.9413C351.101 35.5622 351.532 34.1751 351.967 32.824C352.118 32.3536 351.859 31.8514 351.388 31.6999C350.918 31.5485 350.411 31.8075 350.26 32.2778C349.825 33.637 349.39 35.0321 348.968 36.4191C348.824 36.8934 349.091 37.3916 349.562 37.5351C349.65 37.563 349.737 37.575 349.825 37.575ZM347.412 45.8814C347.803 45.8814 348.162 45.6223 348.274 45.2277C348.656 43.8367 349.051 42.4496 349.45 41.0745C349.586 40.6002 349.315 40.106 348.84 39.9665C348.365 39.827 347.867 40.102 347.731 40.5763C347.328 41.9594 346.934 43.3504 346.547 44.7494C346.415 45.2237 346.694 45.718 347.173 45.8495C347.253 45.8734 347.332 45.8814 347.412 45.8814ZM345.195 54.2436C345.593 54.2436 345.96 53.9766 346.06 53.57C346.415 52.175 346.778 50.7799 347.145 49.3929C347.273 48.9146 346.985 48.4243 346.507 48.2968C346.032 48.1732 345.542 48.4562 345.414 48.9345C345.043 50.3295 344.68 51.7286 344.325 53.1316C344.206 53.6099 344.493 54.0961 344.975 54.2157C345.047 54.2356 345.123 54.2436 345.195 54.2436ZM343.149 62.6616C343.551 62.6616 343.922 62.3826 344.018 61.9721C344.345 60.5651 344.68 59.1621 345.019 57.7591C345.139 57.2808 344.844 56.7945 344.361 56.6789C343.883 56.5594 343.4 56.8583 343.28 57.3366C342.937 58.7436 342.602 60.1545 342.275 61.5655C342.164 62.0438 342.463 62.5261 342.941 62.6377C343.013 62.6536 343.081 62.6616 343.149 62.6616ZM341.254 71.0955C341.669 71.0955 342.04 70.8046 342.128 70.3861C342.431 68.987 342.738 67.584 343.053 66.181C343.161 65.6988 342.858 65.2205 342.375 65.1129C341.892 65.0052 341.414 65.3082 341.306 65.7904C340.991 67.1974 340.684 68.6044 340.377 70.0114C340.273 70.4937 340.58 70.968 341.067 71.0716C341.131 71.0876 341.19 71.0955 341.254 71.0955ZM339.495 79.5653C339.914 79.5653 340.289 79.2704 340.373 78.8439C340.652 77.4409 340.939 76.0299 341.234 74.611C341.334 74.1287 341.023 73.6544 340.54 73.5548C340.054 73.4511 339.583 73.766 339.483 74.2483C339.188 75.6672 338.897 77.0862 338.618 78.4932C338.518 78.9794 338.833 79.4497 339.32 79.5454C339.38 79.5574 339.436 79.5653 339.495 79.5653ZM337.856 88.0591C338.279 88.0591 338.658 87.7602 338.738 87.3297C338.997 85.9227 339.264 84.5077 339.539 83.0848C339.635 82.5985 339.316 82.1322 338.829 82.0365C338.343 81.9448 337.876 82.2598 337.781 82.746C337.505 84.1729 337.238 85.5919 336.975 87.0028C336.887 87.4891 337.206 87.9555 337.693 88.0471C337.749 88.0551 337.804 88.0591 337.856 88.0591ZM336.333 96.5807C336.76 96.5807 337.138 96.2698 337.214 95.8354C337.458 94.4324 337.705 93.0134 337.96 91.5785C338.048 91.0923 337.725 90.6299 337.238 90.5422C336.752 90.4545 336.285 90.7774 336.201 91.2636C335.942 92.7025 335.691 94.1255 335.447 95.5324C335.364 96.0187 335.691 96.481 336.181 96.5647C336.229 96.5727 336.281 96.5807 336.333 96.5807ZM334.913 105.114C335.344 105.114 335.723 104.803 335.794 104.361C336.018 102.962 336.253 101.539 336.492 100.096C336.572 99.6099 336.241 99.1476 335.754 99.0679C335.272 98.9881 334.805 99.315 334.726 99.8052C334.486 101.248 334.251 102.675 334.028 104.078C333.948 104.568 334.279 105.027 334.769 105.106C334.817 105.114 334.865 105.114 334.913 105.114ZM333.589 113.672C334.024 113.672 334.406 113.353 334.474 112.906C334.682 111.511 334.897 110.085 335.12 108.634C335.196 108.144 334.861 107.689 334.375 107.613C333.892 107.542 333.429 107.872 333.354 108.363C333.126 109.818 332.911 111.244 332.703 112.643C332.632 113.134 332.967 113.588 333.457 113.66C333.501 113.668 333.545 113.672 333.589 113.672ZM332.361 122.245C332.799 122.245 333.186 121.918 333.246 121.472C333.437 120.085 333.637 118.654 333.848 117.187C333.916 116.697 333.577 116.247 333.086 116.175C332.6 116.103 332.145 116.446 332.077 116.932C331.866 118.403 331.667 119.838 331.471 121.225C331.407 121.715 331.746 122.169 332.237 122.233C332.281 122.241 332.321 122.245 332.361 122.245ZM331.228 130.835C331.671 130.835 332.057 130.504 332.113 130.049C332.285 128.686 332.472 127.251 332.668 125.761C332.731 125.27 332.388 124.82 331.898 124.756C331.407 124.689 330.957 125.035 330.893 125.526C330.697 127.02 330.51 128.459 330.339 129.826C330.275 130.316 330.622 130.763 331.112 130.827C331.152 130.831 331.188 130.835 331.228 130.835ZM330.191 139.448C330.642 139.448 331.028 139.113 331.08 138.655C331.228 137.347 331.395 135.909 331.583 134.35C331.643 133.86 331.292 133.413 330.801 133.354C330.315 133.298 329.864 133.645 329.808 134.135C329.617 135.697 329.449 137.14 329.302 138.451C329.246 138.942 329.597 139.384 330.087 139.44L330.191 139.448ZM329.274 148.125C329.728 148.125 330.119 147.778 330.163 147.312C330.163 147.296 330.307 145.734 330.602 142.967C330.654 142.477 330.299 142.039 329.808 141.983C329.318 141.931 328.875 142.286 328.823 142.78C328.528 145.558 328.38 147.133 328.38 147.148C328.332 147.643 328.695 148.077 329.19 148.121L329.274 148.125Z" fill="#F78E48"/>
<path d="M757.47 246.764C757.47 246.764 745.274 245.919 742.618 255.481C742.618 255.481 733.226 236.357 713.384 237.931C693.547 239.51 689.882 251.168 689.882 251.168C689.882 251.168 678.515 247.27 669.075 252.471C659.639 257.673 660.245 267.211 660.245 267.211C660.245 267.211 651.591 255.07 634.194 259.407C634.194 259.407 637.664 241.853 616.746 237.839C595.827 233.826 586.942 240.765 586.942 240.765C586.942 240.765 563.251 225.515 542.277 244.631C542.277 244.631 526.911 241.646 519.397 251.108C519.397 251.108 504.002 232.514 475.04 235.779V327.699H757.59L757.47 246.764Z" fill="#D7E2FF"/>
<path d="M601.91 327.699C601.91 327.699 600.873 307.129 579.381 302.206C579.381 302.206 590.512 297.288 584.9 285.063C579.289 272.839 565.661 271.942 565.661 271.942C565.661 271.942 564.237 249.825 525.595 253.643C514.747 254.715 503.265 261.208 501.467 272.54C501.467 272.54 497.279 265.648 488.597 266.111C488.597 266.111 487.524 253.536 475.041 253.643V327.699H601.91Z" fill="#EBF3FA"/>
</g>
<defs>
<clipPath id="clip0_3259_49592">
<rect width="703" height="340" rx="10" fill="white"/>
</clipPath>
</defs>
</svg>
