<svg width="40" height="30" viewBox="0 0 40 30" fill="none" xmlns="http://www.w3.org/2000/svg">
<g clip-path="url(#clip0_3775_6387)">
<path fill-rule="evenodd" clip-rule="evenodd" d="M0 0H40V3.33125H0V0Z" fill="#0D5EAF"/>
<path fill-rule="evenodd" clip-rule="evenodd" d="M0 3.33203H40V6.66953H0V3.33203Z" fill="white"/>
<path fill-rule="evenodd" clip-rule="evenodd" d="M0 6.66797H40V9.99922H0V6.66797Z" fill="#0D5EAF"/>
<path fill-rule="evenodd" clip-rule="evenodd" d="M0 10H40V13.3313H0V10Z" fill="white"/>
<path d="M0 0H16.6688V16.6688H0V0Z" fill="#0D5EAF"/>
<path fill-rule="evenodd" clip-rule="evenodd" d="M0 13.332H40V16.6695H0V13.332Z" fill="#0D5EAF"/>
<path fill-rule="evenodd" clip-rule="evenodd" d="M0 16.668H40V19.9992H0V16.668Z" fill="white"/>
<path fill-rule="evenodd" clip-rule="evenodd" d="M0 20H40V23.3312H0V20Z" fill="#0D5EAF"/>
<path fill-rule="evenodd" clip-rule="evenodd" d="M0 23.332H40V26.6695H0V23.332Z" fill="white"/>
<path fill-rule="evenodd" clip-rule="evenodd" d="M6.66797 0H9.99922V16.6688H6.66797V0Z" fill="white"/>
<path fill-rule="evenodd" clip-rule="evenodd" d="M0 6.66797H16.6688V9.99922H0V6.66797Z" fill="white"/>
<path d="M0 26.668H40V29.9992H0V26.668Z" fill="#0D5EAF"/>
</g>
<rect x="0.5" y="0.5" width="39" height="29" rx="4.5" stroke="#DADBDF"/>
<defs>
<clipPath id="clip0_3775_6387">
<rect width="40" height="30" rx="5" fill="white"/>
</clipPath>
</defs>
</svg>
