<svg width="40" height="30" viewBox="0 0 40 30" fill="none" xmlns="http://www.w3.org/2000/svg">
<g clip-path="url(#clip0_3775_13341)">
<path d="M0 0H40V30H0V0Z" fill="white"/>
<path d="M19.2392 24.9127C19.2343 24.9093 19.23 24.9051 19.2267 24.9002H19.2204L19.1392 24.8127L18.9017 24.5315L18.5954 24.1377L18.5579 24.0815L18.1704 23.9627L17.8829 23.8315L18.0329 23.6627L18.5579 23.8815L18.9454 23.9627L19.6642 24.494L19.4579 24.6752C19.3845 24.7436 19.3156 24.8167 19.2517 24.894L19.2954 24.8627L19.3454 24.9002L19.2454 24.9127H19.2392ZM16.5767 24.1127C16.2242 24.1096 15.879 24.0125 15.5767 23.8315C15.5767 23.8315 15.6204 23.7502 15.7204 23.6815C15.8204 23.6065 15.9954 23.5252 16.2829 23.519C16.6204 23.519 17.0329 23.6377 17.5017 23.8565C17.2216 24.0219 16.9019 24.1083 16.5767 24.1065V24.1127ZM15.1079 23.7877C15.0454 23.7877 14.9829 23.7627 14.9454 23.7252C14.91 23.682 14.8863 23.6303 14.8767 23.5752C14.86 23.5057 14.8537 23.4341 14.8579 23.3627C14.884 23.3535 14.9115 23.3492 14.9392 23.3502C15.0642 23.3502 15.1642 23.4565 15.2079 23.5627C15.2329 23.6252 15.2392 23.6752 15.2204 23.719C15.2079 23.7565 15.1579 23.7815 15.1079 23.7815V23.7877ZM17.6892 23.4877C16.8204 23.3627 16.4517 23.0502 16.2954 22.8065C16.1329 22.5502 16.1704 22.3065 16.1704 22.3065C16.1704 22.3065 16.2204 22.294 16.2954 22.294C16.5329 22.294 17.1204 22.4127 17.6892 23.4815V23.4877ZM15.9079 23.3127C15.5392 23.3127 15.2579 23.2502 15.0704 23.1252C14.9903 23.0749 14.9254 23.0035 14.8829 22.919C14.8695 22.8871 14.8611 22.8534 14.8579 22.819C15.0004 22.7596 15.1535 22.7298 15.3079 22.7315C15.531 22.7395 15.7502 22.7917 15.953 22.885C16.1558 22.9783 16.338 23.111 16.4892 23.2752C16.2767 23.3002 16.0829 23.3127 15.9079 23.3127V23.3127ZM14.1142 23.2502C13.7267 23.2502 13.1892 23.1252 12.8517 22.794C12.8517 22.794 13.2204 22.7002 13.6267 22.6877H13.7017C14.0704 22.6877 14.3517 22.7565 14.5392 22.9002C14.6017 22.9502 14.6392 22.994 14.6454 23.0377C14.6517 23.0752 14.6329 23.1127 14.5954 23.144C14.5079 23.2065 14.3579 23.244 14.1454 23.244H14.1142V23.2502ZM12.8454 22.594C12.8212 22.5935 12.7975 22.5877 12.7758 22.5769C12.7542 22.566 12.7353 22.5505 12.7204 22.5315C12.6943 22.4942 12.6772 22.4515 12.6704 22.4065C12.6516 22.319 12.6579 22.2315 12.6579 22.2252C12.6776 22.2166 12.6989 22.2124 12.7204 22.2127C12.7767 22.2127 12.8204 22.244 12.8454 22.2752C12.8834 22.31 12.9133 22.3526 12.9329 22.4002C12.9454 22.4565 12.9516 22.5002 12.9329 22.5377C12.9329 22.5627 12.8954 22.6002 12.8517 22.6002L12.8454 22.594ZM15.7767 22.5315C15.7142 22.5315 15.6517 22.5065 15.6142 22.469C15.5787 22.4257 15.555 22.3741 15.5454 22.319C15.5288 22.2494 15.5225 22.1778 15.5267 22.1065C15.5527 22.0972 15.5803 22.093 15.6079 22.094C15.7329 22.094 15.8392 22.2002 15.8767 22.3065C15.9017 22.369 15.9079 22.419 15.8954 22.4627C15.8767 22.5002 15.8329 22.5252 15.7704 22.5252L15.7767 22.5315ZM14.3517 22.469C13.5642 22.444 13.1517 22.219 12.9517 22.0315C12.8645 21.9561 12.7924 21.8649 12.7392 21.7627C12.7079 21.7002 12.6954 21.6502 12.6954 21.6377C12.6954 21.6252 12.7704 21.6127 12.8829 21.6127H12.9079C13.1704 21.6127 13.7142 21.7252 14.3454 22.469H14.3517ZM15.2017 22.394C14.7518 22.3451 14.3336 22.1393 14.0204 21.8127C13.9051 21.6866 13.8178 21.5375 13.7642 21.3752C13.7642 21.3752 13.8392 21.3565 13.9517 21.3502C13.9725 21.3495 13.9933 21.3495 14.0142 21.3502C14.3267 21.3565 14.9079 21.5002 15.2017 22.394ZM11.9516 22.0815C11.752 22.0833 11.5528 22.0623 11.3579 22.019C11.0266 21.9315 10.8829 21.8065 10.8204 21.7127C10.7948 21.6752 10.7778 21.6325 10.7704 21.5877C10.7684 21.5711 10.7684 21.5543 10.7704 21.5377C10.7704 21.5377 10.9891 21.4752 11.2954 21.469C11.4505 21.465 11.6055 21.4776 11.7579 21.5065C12.0767 21.5737 12.3607 21.7534 12.5579 22.0127C12.5579 22.0127 12.3079 22.0877 11.9516 22.0877V22.0815ZM13.4204 21.5565C13.3915 21.5572 13.3627 21.5521 13.3358 21.5414C13.309 21.5306 13.2846 21.5145 13.2642 21.494C13.2287 21.4507 13.205 21.3991 13.1954 21.344C13.1704 21.244 13.1767 21.144 13.1767 21.1315C13.2003 21.1208 13.2257 21.1145 13.2517 21.1127H13.2579C13.3829 21.1127 13.4829 21.2252 13.5266 21.3315C13.5516 21.394 13.5517 21.444 13.5392 21.4815C13.5204 21.5252 13.4767 21.5502 13.4204 21.5502V21.5565ZM12.3204 21.4002C12.1094 21.3404 11.9075 21.2521 11.7204 21.1377C11.4454 20.969 11.1016 20.669 11.0641 20.2002L11.1266 20.194H11.1454C11.2266 20.194 11.3954 20.2127 11.6017 20.369C11.8642 20.569 12.1017 20.919 12.3204 21.4002V21.4002ZM13.0392 21.3752C12.8668 21.2968 12.7068 21.1936 12.5642 21.069C12.1984 20.7533 11.9134 20.3547 11.7329 19.9065C11.7329 19.9065 11.7891 19.8752 11.8766 19.869C11.8808 19.8689 11.885 19.8689 11.8891 19.869H11.9142C12.0392 19.869 12.2204 19.9252 12.4204 20.144C12.6579 20.394 12.8641 20.8065 13.0454 21.3752H13.0392ZM11.1704 21.319C10.9266 21.319 10.8454 21.194 10.8204 21.1315C10.7962 21.0721 10.7876 21.0076 10.7954 20.944C10.8364 20.9349 10.8784 20.9307 10.9204 20.9315C10.998 20.929 11.0752 20.9447 11.1457 20.9773C11.2162 21.0098 11.2781 21.0583 11.3266 21.119C11.3391 21.144 11.3766 21.2065 11.3454 21.2627C11.3204 21.3002 11.2641 21.3252 11.1704 21.3252V21.319ZM10.6391 20.644C10.4507 20.646 10.2625 20.6314 10.0766 20.6002C9.86415 20.5627 9.7454 20.3815 9.67665 20.2315C9.61415 20.0752 9.58915 19.919 9.58915 19.919C10.2516 19.9377 10.5704 20.1315 10.7141 20.294C10.8049 20.3874 10.8621 20.5083 10.8766 20.6377C10.8766 20.6377 10.7766 20.6502 10.6391 20.6502V20.644ZM11.3266 19.9565C11.2732 19.8881 11.2232 19.8172 11.1766 19.744C11.0954 19.619 11.0266 19.494 11.0266 19.394C11.0266 19.2877 11.0016 19.0815 10.9891 18.9565L10.9516 18.6752C10.9704 18.6752 11.3641 18.8252 11.3641 19.2002C11.3641 19.5752 11.3266 19.9502 11.3266 19.9502V19.9565ZM10.8141 19.919H10.8016C10.3729 19.7906 9.98228 19.5588 9.66415 19.244C9.5579 19.119 9.48915 18.919 9.4704 18.6565C9.4579 18.469 9.4704 18.3127 9.4704 18.294C9.4928 18.288 9.51604 18.2859 9.53915 18.2877C9.62665 18.2877 9.72665 18.3252 9.85165 18.4127C9.96768 18.4949 10.0764 18.5869 10.1766 18.6877C10.3766 18.8877 10.5329 19.0877 10.5329 19.0877C10.5516 19.1127 10.6579 19.319 10.7516 19.519C10.7955 19.6108 10.8291 19.7072 10.8516 19.8065C10.8579 19.844 10.8641 19.869 10.8516 19.894C10.8487 19.9043 10.842 19.9132 10.8329 19.919C10.8247 19.9209 10.8161 19.9209 10.8079 19.919H10.8141Z" fill="#435125"/>
<path d="M32.4383 4.77539L32.3258 4.81914L32.2758 4.83789L32.1383 4.83164L32.0008 4.89414L31.7633 5.05664L31.757 5.06289L31.6633 5.08789L31.582 5.05039L31.5383 5.07539L31.5195 5.16914L31.4758 5.23789L31.4195 5.27539L31.232 5.29414L31.0758 5.38164L30.8633 5.31914L30.7695 5.36289L30.5633 5.55039L30.457 5.59414H30.4258L30.282 5.58789L30.2258 5.60664L30.1383 5.68789L29.9758 5.70039L29.9195 5.73789L29.8383 5.90039L29.7508 6.00039L29.7008 6.00664L29.6508 5.98789L29.607 5.99414L29.5883 6.10039L29.5508 6.14414L29.4383 6.18164L29.3508 6.25664L29.2695 6.29414H29.1445L29.0383 6.35664L28.8445 6.36914L28.7633 6.44414L28.7445 6.46289L28.707 6.48164L28.6445 6.51914L28.632 6.53164L28.557 6.51914L28.4695 6.55039L28.432 6.50039L28.3695 6.53164L28.2945 6.53789L28.1945 6.49414L28.1133 6.45664L28.057 6.46914L28.0383 6.56289V6.57539L27.9758 6.65039L27.8695 6.71914L27.857 6.73789L27.732 6.90039L27.4945 7.15039L27.2945 7.25039L27.0883 7.31289L26.9445 7.43164L26.5695 7.61914L25.9633 7.91914L25.8383 7.95664L25.6633 7.98164L25.3508 8.10039L25.0758 8.18164L25.057 8.18789L25.007 8.20664L24.6133 8.32539L24.432 8.30039L24.3258 8.34414L24.0445 8.31289H23.8508L23.7258 8.33789L23.4945 8.45039L23.1008 8.63789L22.9758 8.76289L22.7758 8.86289L22.5383 8.93789V8.83789L22.457 8.86289L22.3945 8.88164L22.207 8.90664H22.1008L22.032 8.88789H22.0195L21.632 9.01914L21.1945 9.06289L20.9758 9.13164H20.8133L20.7133 9.16289L20.5133 9.18789L20.4383 9.16914L20.4258 9.16289L19.8383 9.18789L19.5695 9.15664L19.4445 9.18789L19.2258 9.11289L18.9133 9.07539L18.8383 9.05664L18.6758 9.00664L18.6008 9.05039L18.5383 9.05664L18.4133 9.00664H18.3633L18.2508 9.04414L18.1883 9.03164L18.1258 8.98164L17.9945 8.96289L17.907 8.89414L17.4383 8.95664L17.3133 8.91914L16.882 8.79414H16.8195L16.732 8.85664L16.607 8.90664L16.4883 8.93164L16.3383 8.93789L16.1633 8.89414L15.9883 8.80664L15.9195 8.78789L15.7695 8.80664H15.7258L15.4508 8.66289L15.1008 8.44414L14.8633 8.32539L14.7695 8.31289L14.757 8.35664L14.8008 8.49414L14.8195 8.63789V8.76289L14.8133 8.84414L14.832 8.91289L14.9195 9.01289L14.957 9.10664L14.982 9.36914V9.63789L14.9383 10.0629L14.9258 10.1254L14.8758 10.3504L14.832 10.5566L14.6508 11.1004L14.607 11.1629L14.482 11.2441L14.2133 11.4316L14.0133 11.5441L13.9508 11.5691L13.7883 11.5816H13.6883L13.5633 11.5129L13.4383 11.4816L13.2758 11.3629L13.1008 11.3254L12.9008 11.2129L12.8508 11.1504L12.7445 11.1379L12.5945 11.0941L12.5383 11.0754L12.5008 11.0691L12.3133 11.0629L12.132 10.9816L12.0383 10.9566H11.9133L11.782 11.0191L11.7133 11.0441L11.6258 11.0129H11.5633L11.5008 11.1191L11.4883 11.1379L11.4383 11.1629H11.332L11.282 11.1816L11.2133 11.2129L11.1508 11.2379L11.1195 11.2504H11.1008L11.0695 11.2629H11.032L10.957 11.2254L10.9195 11.2066L10.857 11.1941L10.8258 11.2129L10.8195 11.3316L10.7883 11.4004L10.6883 11.4879L10.5883 11.5754L10.5258 11.6754L10.3383 12.0941L10.2195 12.2629L10.1883 12.3066L10.0633 12.4379L9.95703 12.5191L9.71328 12.7066L9.48203 12.8004L9.28203 12.8379H9.18203L8.99453 12.8129L8.83203 12.7629L8.64453 12.6504L8.45078 12.4879L8.15703 12.2066L8.11953 12.1816L8.10703 12.1754L8.01953 12.1129H7.95078L7.92578 12.1629L7.90703 12.2254L7.89453 12.2816L7.86328 12.5941V12.6129L7.88203 12.7441L8.10703 13.0566L8.16953 13.2191L8.18203 13.2379L8.22578 13.3129L8.26328 13.3754L8.34453 13.6004L8.28828 13.7254L8.31328 13.8129L8.25078 13.8629L8.23828 13.9379L8.43203 14.1879L8.47578 14.2941L8.43203 14.4441L8.35078 14.5316L8.33203 14.5504L8.34453 14.6129L8.43203 14.7004L8.58828 14.8379L8.66953 15.0379L8.73203 15.1004L8.80703 15.0816L8.84453 15.1129H8.90703L8.96953 15.1754L9.00703 15.1879L9.06953 15.2191L9.11953 15.2816L9.12578 15.4816L9.21953 15.7191V15.8754L9.28203 15.9691L9.29453 16.0441L9.26328 16.2504L9.33828 16.3129L9.41328 16.3004L9.46328 16.3066L9.54453 16.3754L9.64453 16.5254L9.74453 16.5129L9.80703 16.5379L10.1008 16.8066L10.1633 16.8441L10.2195 16.8691L10.282 16.9316L10.3695 16.8691H10.382L10.482 16.8566L10.5258 16.8879L10.6133 16.9441H10.7195L10.9695 17.0191L11.0695 17.0441L11.282 17.1754L11.3758 17.2316L11.4258 17.2754L11.5008 17.3379L11.6383 17.4004L11.7633 17.4254L11.8258 17.4379L11.882 17.4566L12.1445 17.5629L12.2883 17.5941L12.4133 17.6441L12.5133 17.6754H12.5883L12.6883 17.5941H12.782L12.8633 17.6066L12.9445 17.5941L13.0695 17.5191L13.0883 17.4816L13.1758 17.4441L13.4758 17.4066L13.5633 17.4316L13.7883 17.3379L13.9383 17.3754L14.0633 17.3316L14.357 17.3941L14.432 17.4504L14.5195 17.5441H14.6258L14.582 17.6129L14.707 17.7504L14.8258 17.9191L14.832 17.9441L14.9133 18.1879L14.9758 18.2754L15.0195 18.3941V18.4691L14.957 18.5254L14.9445 18.5504V18.5629L14.957 18.5941L14.982 18.5816L15.0258 18.5566L15.0883 18.5441L15.1883 18.5566L15.257 18.5629L15.3633 18.5129L15.4383 18.4754L15.5508 18.5254H15.6758L15.732 18.5441L15.882 18.6129L15.957 18.6191L15.982 18.6004L16.0008 18.5629L15.9945 18.5129L15.932 18.4441L15.807 18.2941L15.757 18.2191L15.7195 18.1129L15.707 17.9754L15.6945 17.8816L15.7133 17.7566L15.7445 17.7129L15.7695 17.6129L15.7758 17.5879L15.8508 17.4941L16.0383 17.3691L16.2383 17.1941L16.3945 17.0879L16.557 17.0191V17.0004L16.582 17.0066L16.9945 16.8629L17.182 16.8316L18.432 16.9191L18.4758 16.9066L18.5195 16.7879L18.5383 16.7691L18.557 16.7566L18.6945 16.6941L18.757 16.6816L18.932 16.7254L19.007 16.7441L19.1258 16.6816H19.207L19.3758 16.5879H19.482L19.5258 16.5754L19.732 16.4254L19.9258 16.3691L19.9758 16.3441L19.9945 16.3316L20.2008 16.2254L20.3258 16.1254L20.4383 16.0629L20.5633 16.0379L20.8758 16.0129L20.9445 15.9066L21.082 15.8879L21.1633 15.7941L21.257 15.7566L21.3258 15.6566L21.3883 15.5754L21.4633 15.5316L21.7195 15.5129L22.0195 15.5504L22.0633 15.5254L22.1258 15.2816L22.2008 15.2379L22.3883 14.9566V14.8566L22.3945 14.7691L22.4258 14.6441L22.407 14.4316L22.432 14.2066L22.5508 13.9254L22.657 13.8129L22.8258 13.6941L22.9133 13.6566L23.0383 13.6379H23.0508L23.082 13.6254H23.657L23.8008 13.6191L24.157 13.6816H24.182L24.3008 13.7254L24.4383 13.8316L24.5883 13.9754L24.6133 14.0004L24.707 14.0441L24.7383 14.0566L24.8133 14.0441L24.9258 13.9816L25.0133 13.9191L25.1258 13.8566V13.8441L25.1945 13.7504L25.2195 13.7066L25.4445 13.6191L25.707 13.6066L25.7383 13.5879H25.7508L25.8195 13.5004H25.882L26.0445 13.5629L26.1508 13.5379L26.2383 13.5691L26.307 13.5629L26.432 13.5441L26.5758 13.6441L26.657 13.6566L26.9383 13.8191H26.9633L26.9758 13.8254L27.007 13.8129L27.057 13.8004H27.0633L27.0695 13.8066L27.107 13.8504L27.1508 13.8566L27.2008 13.7941L27.182 13.7566L27.1758 13.7441L27.0695 13.7254L26.982 13.5691L27.0695 13.4754L26.932 13.3129L26.907 13.2816V13.2754L26.857 13.2004L26.6195 12.8379L26.307 12.5879L26.2008 12.5066L26.1633 12.4754L25.9945 12.3066L25.8758 12.1504L25.8633 12.1191L25.8383 12.0629L25.7695 11.9129L25.6445 11.8191L25.5445 11.7066L25.332 11.4191L25.3008 11.3754L25.2508 11.3441H25.1445L25.1383 11.3316H25.132V11.3254L25.182 11.2754L25.2445 11.2629L25.2633 11.2066L25.157 10.9004V10.8879L25.1508 10.7941L25.232 10.3504L25.2445 10.2941L25.3945 10.0004L25.482 9.92539L25.582 9.73164L25.6695 9.60664L25.7508 9.52539L25.7633 9.51914L25.907 9.43164L26.032 9.41289L26.1508 9.39414L26.357 9.45664H26.5445L26.5883 9.45039L26.6758 9.43789L26.8195 9.39414L26.8883 9.35039L26.9258 9.30039L27.0008 9.05039L27.0258 8.96914L27.0695 8.88164L27.3383 8.57539L27.5383 8.38789L27.9883 8.06289L28.207 7.93164L28.3195 7.86289L29.3258 7.41289L29.5883 7.15039L29.7258 7.01289L29.9633 6.85039L30.2445 6.73164L30.4945 6.54414L30.5445 6.47539L30.607 6.25664L30.6695 6.24414L30.7133 6.13789L30.732 6.10664L30.9258 5.96914L30.9508 5.95664L31.7195 5.56914L31.832 5.58789L31.8945 5.49414L32.1133 5.45664H32.157L32.2133 5.42539L32.257 5.34414V5.32539L32.2633 5.11289L32.3133 5.05664L32.3383 4.91914L32.3633 4.88164L32.3883 4.85039L32.4508 4.80664L32.4383 4.78164V4.77539Z" fill="#D47600"/>
</g>
<rect x="0.5" y="0.5" width="39" height="29" rx="4.5" stroke="#DADBDF"/>
<defs>
<clipPath id="clip0_3775_13341">
<rect width="40" height="30" rx="5" fill="white"/>
</clipPath>
</defs>
</svg>
