<svg width="40" height="30" viewBox="0 0 40 30" fill="none" xmlns="http://www.w3.org/2000/svg">
<g clip-path="url(#clip0_3775_20337)">
<path d="M16 0H40V30H16V0Z" fill="#FF0000"/>
<path d="M0 0H16V30H0V0Z" fill="#006600"/>
<path fill-rule="evenodd" clip-rule="evenodd" d="M21.2188 19.1367C19.2 19.0742 9.96875 13.3117 9.90625 12.3867L10.4125 11.543C11.3313 12.8742 20.7688 18.4805 21.7 18.2805L21.2188 19.1367Z" fill="#FFFF00"/>
<path fill-rule="evenodd" clip-rule="evenodd" d="M10.4111 11.5254C10.4175 11.5252 10.4235 11.5282 10.4272 11.5335C10.5403 11.6974 10.7862 11.9291 11.1341 12.2095C11.4814 12.4894 11.9286 12.8165 12.4427 13.1712C13.4708 13.8806 14.7653 14.6997 16.0604 15.471C17.3555 16.2423 18.6508 16.9657 19.6803 17.4837C20.1951 17.7428 20.6432 17.9503 20.9914 18.0867C21.1655 18.1549 21.3142 18.2053 21.4337 18.2354C21.554 18.2657 21.6417 18.2748 21.6953 18.2633C21.7025 18.2618 21.7099 18.2646 21.7143 18.2705C21.7187 18.2765 21.7192 18.2844 21.7156 18.2908L21.2343 19.1471C21.2309 19.1532 21.2244 19.1568 21.2174 19.1566C20.9618 19.1487 20.5943 19.0509 20.1483 18.8854C19.7018 18.7198 19.1747 18.4856 18.5993 18.2038C17.4483 17.64 16.1027 16.8846 14.8184 16.1023C13.5341 15.3201 12.3107 14.5108 11.4044 13.8391C10.9512 13.5033 10.577 13.2016 10.3139 12.9546C10.1823 12.8312 10.0782 12.721 10.0058 12.6269C9.93403 12.5336 9.89107 12.453 9.88676 12.3892C9.8865 12.3853 9.88742 12.3815 9.88939 12.3782L10.3956 11.5345C10.3989 11.529 10.4048 11.5256 10.4111 11.5254ZM10.4131 11.5783L9.92468 12.3923C9.93035 12.4437 9.96674 12.5146 10.0355 12.604C10.1062 12.6959 10.2087 12.8045 10.3395 12.9273C10.6011 13.1728 10.9741 13.4735 11.4267 13.809C12.3319 14.4798 13.5542 15.2885 14.8379 16.0703C16.1215 16.8521 17.4661 17.6069 18.6158 18.1701C19.1906 18.4517 19.7164 18.6852 20.1614 18.8503C20.6001 19.013 20.9585 19.1085 21.2072 19.1187L21.6646 18.305C21.6039 18.3086 21.5226 18.2965 21.4245 18.2717C21.3029 18.2411 21.1525 18.1901 20.9777 18.1216C20.6279 17.9846 20.1787 17.7765 19.6634 17.5172C18.6328 16.9987 17.3367 16.2748 16.0412 15.5032C14.7456 14.7316 13.4503 13.912 12.4214 13.2021C11.9069 12.8471 11.4589 12.5194 11.1105 12.2387C10.7787 11.9712 10.5359 11.7452 10.4131 11.5783Z" fill="black"/>
<path fill-rule="evenodd" clip-rule="evenodd" d="M10.3069 11.4258C10.1257 11.9133 12.7194 13.5133 15.8319 15.4133C18.9507 17.307 21.6382 18.4758 21.8319 18.3133L21.9257 18.1383C21.8882 18.2008 21.8007 18.2195 21.6569 18.1758C20.8132 17.932 18.6194 16.9258 15.9007 15.2758C13.1757 13.6258 10.8132 12.107 10.4444 11.4633C10.4157 11.4029 10.4028 11.3363 10.4069 11.2695H10.3944L10.3194 11.407L10.3069 11.4258V11.4258ZM21.2632 19.1633C21.2319 19.2258 21.1632 19.2258 21.0444 19.2133C20.2944 19.132 18.0069 18.0195 15.3007 16.4008C12.1507 14.5133 9.55067 12.8008 9.83817 12.3508L9.91317 12.2133L9.92567 12.2195C9.67567 12.982 15.0569 16.057 15.3757 16.257C18.4882 18.182 21.1132 19.3133 21.3444 19.0195L21.2632 19.1633V19.1633Z" fill="#FFFF00"/>
<path fill-rule="evenodd" clip-rule="evenodd" d="M10.3772 11.2598C10.3805 11.2537 10.3868 11.25 10.3937 11.25H10.4062C10.4113 11.25 10.4163 11.2521 10.4198 11.2559C10.4234 11.2597 10.4252 11.2647 10.4249 11.2699C10.4209 11.3332 10.4331 11.3965 10.4603 11.4538C10.5508 11.6113 10.7649 11.8248 11.0804 12.0832C11.3958 12.3414 11.8103 12.6428 12.2988 12.9759C13.2757 13.642 14.5472 14.434 15.9096 15.259L15.9096 15.259C18.6281 16.9088 20.8201 17.9139 21.6614 18.157L21.6616 18.1571C21.7321 18.1785 21.7868 18.184 21.8275 18.1776C21.8674 18.1713 21.8934 18.1536 21.9088 18.1279C21.9141 18.1191 21.9253 18.1162 21.9342 18.1212C21.943 18.1262 21.9462 18.1374 21.9414 18.1464L21.8477 18.3214C21.8466 18.3235 21.845 18.3253 21.8432 18.3269C21.8257 18.3416 21.7978 18.3464 21.7661 18.3463C21.7332 18.3462 21.6915 18.3408 21.6419 18.3306C21.5425 18.3102 21.4085 18.2702 21.2442 18.2119C20.9155 18.0953 20.4633 17.905 19.9201 17.6506C18.8335 17.1417 17.3813 16.3757 15.8214 15.4285L15.8214 15.4285C14.2653 14.4786 12.8382 13.6033 11.8229 12.9045C11.3153 12.5552 10.9099 12.2495 10.6425 12.0002C10.5089 11.8757 10.4089 11.7645 10.348 11.6684C10.2877 11.5732 10.2627 11.4881 10.2886 11.4185L10.3062 11.425L10.2906 11.4146L10.3026 11.3965L10.3772 11.2598ZM10.323 11.4335C10.3047 11.4856 10.3215 11.5565 10.3797 11.6483C10.4381 11.7405 10.5354 11.8491 10.6681 11.9728C10.9333 12.2201 11.3369 12.5245 11.8441 12.8736C12.8585 13.5717 14.2845 14.4464 15.8409 15.3965C17.3997 16.343 18.8507 17.1083 19.936 17.6166C20.4787 17.8708 20.9296 18.0605 21.2568 18.1766C21.4204 18.2346 21.5525 18.274 21.6494 18.2939C21.6979 18.3038 21.7369 18.3087 21.7662 18.3088C21.7933 18.3089 21.8089 18.3048 21.8166 18.2999L21.8668 18.2063C21.8564 18.21 21.8452 18.2127 21.8333 18.2146C21.7849 18.2223 21.7241 18.2153 21.6509 18.193C20.8046 17.9485 18.6092 16.9412 15.8902 15.291C14.5276 14.466 13.2554 13.6736 12.2776 13.0069C11.7888 12.6736 11.3732 12.3715 11.0567 12.1123C10.7408 11.8536 10.5215 11.6361 10.4274 11.4718C10.4272 11.4714 10.4269 11.471 10.4267 11.4706C10.4041 11.4229 10.3908 11.3716 10.3875 11.3192L10.3351 11.4152C10.3349 11.4157 10.3346 11.4162 10.3343 11.4167L10.323 11.4335ZM9.89595 12.2035C9.90079 12.1947 9.91177 12.1912 9.9208 12.1957L9.9333 12.202C9.94161 12.2061 9.94563 12.2158 9.94273 12.2246C9.929 12.2665 9.93395 12.3183 9.95883 12.3806C9.98366 12.4427 10.0276 12.5134 10.089 12.5914C10.2116 12.7473 10.4014 12.9298 10.6382 13.1288C11.1117 13.5267 11.7701 13.9883 12.4469 14.4328C13.5239 15.14 14.6446 15.8019 15.1391 16.094C15.2662 16.1691 15.352 16.2197 15.3849 16.2404C16.9405 17.2025 18.3742 17.9661 19.4475 18.4525C19.9843 18.6957 20.4304 18.8693 20.7564 18.9637C20.9195 19.011 21.0517 19.0382 21.1497 19.0446C21.1987 19.0479 21.2383 19.0458 21.2686 19.039C21.299 19.0321 21.3181 19.0209 21.3289 19.0072C21.335 18.9995 21.346 18.9977 21.3541 19.0032C21.3622 19.0086 21.3648 19.0194 21.36 19.028L21.279 19.1713C21.2601 19.2087 21.2294 19.2271 21.1891 19.2341C21.1502 19.2409 21.1007 19.2374 21.0417 19.2311L21.0416 19.2311C20.8515 19.2105 20.566 19.125 20.2036 18.9839C19.8407 18.8426 19.3994 18.6451 18.8972 18.3997C17.8927 17.9087 16.6437 17.2257 15.2903 16.4161L15.2903 16.4161C13.7152 15.4723 12.2772 14.572 11.2687 13.8512C10.7646 13.4909 10.3671 13.1749 10.1134 12.9205C9.98667 12.7934 9.89486 12.6806 9.84383 12.5846C9.7933 12.4895 9.78012 12.4055 9.82125 12.3405L9.89595 12.2035ZM21.2624 19.1625L21.2461 19.1533L21.2923 19.0715C21.2873 19.073 21.2822 19.0744 21.2768 19.0756C21.2417 19.0835 21.1982 19.0854 21.1472 19.0821C21.0453 19.0753 20.9101 19.0473 20.746 18.9997C20.4175 18.9046 19.9695 18.7301 19.432 18.4866C18.3569 17.9995 16.9218 17.235 15.3651 16.2722L15.3649 16.2721C15.3328 16.252 15.2483 16.202 15.1226 16.1278C14.6299 15.8368 13.5049 15.1724 12.4263 14.4641C11.7492 14.0195 11.0893 13.5569 10.6141 13.1575C10.3766 12.9579 10.1845 12.7735 10.0595 12.6145C9.99701 12.5351 9.95069 12.4613 9.92401 12.3945C9.90769 12.3537 9.89845 12.3148 9.89776 12.2785L9.85387 12.359C9.85367 12.3594 9.85345 12.3597 9.85321 12.3601C9.8229 12.4075 9.82816 12.4752 9.87694 12.567C9.92538 12.6581 10.0141 12.7678 10.1399 12.894C10.3913 13.1462 10.7868 13.4607 11.2905 13.8207C12.2977 14.5405 13.7346 15.4402 15.3096 16.3839C16.6623 17.1931 17.9103 17.8756 18.9136 18.366C19.4153 18.6111 19.8556 18.8082 20.2172 18.9489C20.5791 19.0899 20.8608 19.1738 21.0456 19.1939C21.1054 19.2001 21.1497 19.2029 21.1826 19.1972C21.214 19.1917 21.2332 19.179 21.2456 19.1541L21.2624 19.1625Z" fill="black"/>
<path fill-rule="evenodd" clip-rule="evenodd" d="M16.0133 12.95C18.0258 12.9312 20.5133 12.675 21.9508 12.1L21.6383 11.6C20.7945 12.0688 18.2945 12.3813 15.9945 12.425C13.282 12.4 11.3633 12.1438 10.4008 11.5L10.1133 12.0375C11.8758 12.7875 13.6883 12.9437 16.0133 12.95" fill="#FFFF00"/>
<path fill-rule="evenodd" clip-rule="evenodd" d="M10.3955 11.481C10.4006 11.4797 10.406 11.4807 10.4104 11.4836C10.8883 11.8032 11.6054 12.0277 12.5435 12.1752C13.4813 12.3227 14.638 12.393 15.9937 12.4055C17.1429 12.3836 18.3421 12.2946 19.3591 12.1525C19.8677 12.0815 20.3305 11.9972 20.7187 11.9015C21.1071 11.8057 21.4197 11.6988 21.6284 11.5828C21.6371 11.578 21.6481 11.5808 21.6534 11.5893L21.9659 12.0893C21.9688 12.094 21.9696 12.0998 21.9678 12.105C21.9661 12.1103 21.9621 12.1146 21.957 12.1166C20.516 12.693 18.0256 12.9492 16.0127 12.968C16.0126 12.968 16.0125 12.968 16.0125 12.968C16.0022 12.9679 15.9938 12.9597 15.9938 12.9494C15.9937 12.939 16.002 12.9306 16.0123 12.9305C16.0124 12.9305 16.0124 12.9305 16.0124 12.9305C13.6964 12.9242 11.8917 12.769 10.1387 12.0275L10.4068 11.5262C10.8913 11.8443 11.6088 12.0662 12.5377 12.2123C13.4781 12.3601 14.6369 12.4305 15.9936 12.443L15.9936 12.443L15.9941 12.443C17.1447 12.4211 18.3455 12.332 19.3643 12.1897C19.8737 12.1185 20.3379 12.034 20.7276 11.9379C21.1077 11.8442 21.4182 11.7392 21.631 11.6242L21.9222 12.0901C20.485 12.6579 18.0148 12.9118 16.0124 12.9305M10.3955 11.481C10.3903 11.4823 10.386 11.4857 10.3835 11.4904ZM10.3835 11.4904L10.096 12.0279ZM16.0125 12.968C13.6869 12.9617 11.8712 12.8055 10.1052 12.054C10.1003 12.0519 10.0966 12.0479 10.0948 12.0429C10.0931 12.038 10.0935 12.0325 10.096 12.0279" fill="black"/>
<path fill-rule="evenodd" clip-rule="evenodd" d="M22.0305 12.1121C21.9805 12.1934 21.043 12.5121 19.668 12.7496C18.4559 12.9333 17.2314 13.0231 16.0055 13.0184C14.8309 13.0228 13.6574 12.9476 12.493 12.7934C11.0492 12.5684 10.3055 12.2559 10.0242 12.1434L10.093 12.0059C10.8867 12.3184 11.6367 12.5059 12.5117 12.6434C13.6676 12.7994 14.8328 12.8767 15.9992 12.8746C17.2188 12.8759 18.4368 12.7861 19.643 12.6059C21.0492 12.3746 21.818 12.0809 21.9305 11.9496L22.0305 12.1184V12.1121ZM21.7555 11.6059C21.6055 11.7309 20.843 11.9996 19.5055 12.2121C18.3505 12.3792 17.185 12.4628 16.018 12.4621C14.643 12.4621 13.5117 12.3621 12.6555 12.2371C11.293 12.0621 10.568 11.7371 10.3055 11.6496L10.3867 11.5121C10.593 11.6184 11.2867 11.8996 12.668 12.0934C13.7783 12.2421 14.8977 12.3131 16.018 12.3059C17.1767 12.3062 18.3339 12.2227 19.4805 12.0559C20.8242 11.8684 21.5492 11.5309 21.6617 11.4434L21.7555 11.6059V11.6059ZM9.39297 15.3746C10.6305 16.0434 13.3867 16.3746 15.993 16.3996C18.368 16.4059 21.4555 16.0371 22.6117 15.4246L22.5805 14.7559C22.218 15.3184 18.9055 15.8621 15.968 15.8434C13.0305 15.8184 10.2992 15.3684 9.38672 14.7809V15.3746" fill="#FFFF00"/>
<path fill-rule="evenodd" clip-rule="evenodd" d="M21.6645 11.4261C21.6699 11.4272 21.6745 11.4305 21.6772 11.4352L21.7709 11.5977L21.7547 11.607L21.7667 11.6214C21.7268 11.6547 21.6486 11.6958 21.535 11.742C21.4208 11.7884 21.2689 11.8405 21.0802 11.8953C20.7028 12.005 20.177 12.1254 19.5076 12.2318L19.5074 12.2318C18.3515 12.3991 17.1851 12.4827 16.0172 12.482L16.0172 12.4633V12.482C16.0172 12.482 16.0172 12.482 16.0172 12.482C14.6414 12.482 13.5093 12.382 12.6521 12.2569C12.6522 12.2569 12.6522 12.2569 12.6523 12.2569L12.6547 12.2383L12.652 12.2568C12.652 12.2568 12.6521 12.2569 12.6521 12.2569C11.487 12.1072 10.7866 11.8478 10.4439 11.7209C10.3852 11.6992 10.337 11.6813 10.2988 11.6686C10.2934 11.6668 10.2891 11.6627 10.2871 11.6573C10.2851 11.652 10.2857 11.6461 10.2885 11.6412L10.3698 11.5037C10.3748 11.4952 10.3857 11.4921 10.3945 11.4966C10.5984 11.6016 11.2899 11.8824 12.6697 12.076C12.6697 12.076 12.6697 12.0759 12.6697 12.0759L12.6672 12.0945L12.6698 12.076C12.6698 12.076 12.6698 12.076 12.6697 12.076C13.7792 12.2246 14.8977 12.2955 16.0171 12.2883L16.0172 12.2883C17.175 12.2886 18.3313 12.2052 19.477 12.0385L19.4771 12.0385C20.1479 11.9449 20.664 11.8139 21.0262 11.6955C21.2073 11.6363 21.3499 11.5802 21.454 11.5337C21.5586 11.4869 21.6232 11.4501 21.6494 11.4297C21.6537 11.4264 21.6592 11.4251 21.6645 11.4261ZM21.7303 11.6022L21.655 11.4717C21.6195 11.4952 21.5573 11.5285 21.4693 11.5679C21.3638 11.6151 21.22 11.6716 21.0379 11.7311C20.6735 11.8502 20.1552 11.9817 19.4823 12.0756C18.3349 12.2425 17.1768 12.3261 16.0172 12.3258C14.8961 12.333 13.7759 12.262 12.6647 12.1131L12.6646 12.1131C11.315 11.9238 10.6196 11.6508 10.3931 11.5379L10.3326 11.6405C10.3672 11.6525 10.4085 11.6678 10.4568 11.6857C10.7998 11.8127 11.4964 12.0706 12.6571 12.2197L12.6574 12.2197L12.6574 12.2197C13.5127 12.3446 14.6431 12.4445 16.0172 12.4445H16.0172C17.1833 12.4452 18.3478 12.3617 19.5019 12.1947C20.1699 12.0886 20.6941 11.9684 21.0698 11.8593C21.2576 11.8048 21.4082 11.753 21.5209 11.7072C21.6222 11.6661 21.6916 11.6303 21.7303 11.6022ZM21.9313 11.9321C21.9373 11.9326 21.9427 11.936 21.9458 11.9412L22.0377 12.0963C22.0442 12.0994 22.0484 12.106 22.0484 12.1133V12.1195C22.0484 12.128 22.0428 12.1354 22.0346 12.1376C22.0338 12.1379 22.0329 12.138 22.032 12.1381C22.0285 12.1411 22.0246 12.1439 22.0207 12.1467C22.0098 12.1542 21.9957 12.1623 21.9788 12.1709C21.9448 12.1883 21.8981 12.2086 21.8396 12.2313C21.7225 12.2765 21.5571 12.3316 21.3505 12.3914C20.9373 12.5112 20.3585 12.6504 19.6704 12.7693L19.67 12.7693C18.457 12.9531 17.2316 13.0431 16.0047 13.0383C14.8293 13.0427 13.655 12.9675 12.4897 12.8131L12.4893 12.8131L12.4893 12.8131C11.0968 12.596 10.3542 12.2976 10.0495 12.1752C10.0378 12.1705 10.0268 12.1661 10.0165 12.1619C10.0116 12.16 10.0078 12.1561 10.0059 12.1512C10.004 12.1463 10.0043 12.1408 10.0067 12.1361L10.0754 11.9986C10.0798 11.99 10.09 11.986 10.0991 11.9896C10.8912 12.3015 11.6398 12.4886 12.5136 12.626C13.6687 12.7819 14.8329 12.8591 15.9984 12.857H15.9985C17.2171 12.8583 18.4341 12.7686 19.6393 12.5885C20.3417 12.473 20.8845 12.3419 21.2655 12.2235C21.4561 12.1643 21.6059 12.1083 21.7148 12.0591C21.7693 12.0345 21.8133 12.0117 21.847 11.9912C21.881 11.9705 21.9033 11.9527 21.9155 11.9386C21.9194 11.934 21.9253 11.9316 21.9313 11.9321ZM22.0038 12.1126L21.9258 11.981C21.9105 11.9944 21.8906 12.0085 21.8665 12.0232C21.8311 12.0448 21.7857 12.0683 21.7303 12.0933C21.6195 12.1433 21.4681 12.1998 21.2767 12.2593C20.8936 12.3784 20.349 12.5098 19.6452 12.6255L19.645 12.6256C18.4379 12.8059 17.219 12.8958 15.9985 12.8945C14.8312 12.8966 13.6652 12.8193 12.5084 12.6631L12.508 12.6631L12.508 12.6631C11.6378 12.5263 10.8907 12.3401 10.1013 12.0308L10.0493 12.1347C10.0539 12.1366 10.0587 12.1385 10.0635 12.1404C10.3669 12.2623 11.1066 12.5596 12.4949 12.776C13.6584 12.9301 14.831 13.0052 16.0046 13.0008H16.0048C17.2297 13.0056 18.4531 12.9158 19.6642 12.7323C20.351 12.6136 20.9283 12.4747 21.3401 12.3554C21.546 12.2958 21.7103 12.241 21.8261 12.1963C21.884 12.1739 21.9294 12.1541 21.9617 12.1376C21.9778 12.1293 21.9904 12.122 21.9994 12.1158C22.001 12.1147 22.0025 12.1136 22.0038 12.1126ZM22.5846 14.7389C22.5924 14.741 22.598 14.748 22.5984 14.7562L22.6297 15.4249C22.63 15.4322 22.6261 15.439 22.6197 15.4423C22.0384 15.7503 20.9745 15.9959 19.7612 16.1639C18.547 16.332 17.1805 16.4227 15.9921 16.4195L15.992 16.4195C14.6882 16.407 13.3467 16.3179 12.1762 16.1482C11.0088 15.979 10.0095 15.7294 9.38736 15.3945C9.38689 15.3945 9.38641 15.3945 9.38594 15.3945C9.37558 15.3945 9.36719 15.3861 9.36719 15.3758V14.782C9.36719 14.7752 9.37094 14.7689 9.37696 14.7656C9.38298 14.7623 9.39032 14.7626 9.39609 14.7663C9.84874 15.0577 10.7562 15.3167 11.9202 15.5057C13.0832 15.6946 14.4994 15.8133 15.9673 15.8258C17.435 15.8351 18.9964 15.704 20.236 15.5002C20.8559 15.3984 21.3947 15.2784 21.801 15.149C22.0041 15.0843 22.1736 15.0174 22.3033 14.9494C22.4335 14.8812 22.5213 14.813 22.5639 14.7469C22.5683 14.74 22.5767 14.7368 22.5846 14.7389ZM9.40469 15.3612C10.0207 15.693 11.0147 15.942 12.1816 16.1111C13.3501 16.2805 14.6899 16.3695 15.9923 16.382M9.40469 15.3612V14.816Z" fill="black"/>
<path fill-rule="evenodd" clip-rule="evenodd" d="M22.675 15.2809V15.4371C22.5 15.6496 21.4125 15.9621 20.05 16.1871C18.6964 16.3817 17.33 16.4736 15.9625 16.4621C14.6658 16.4732 13.3702 16.3833 12.0875 16.1934C11.1303 16.0828 10.1951 15.83 9.3125 15.4434V15.2621C9.91875 15.6621 11.5563 15.9621 12.1063 16.0496C13.0938 16.1996 14.3625 16.3121 15.9625 16.3121C17.6438 16.3121 18.9875 16.1934 20.025 16.0371C21.0063 15.8934 22.4 15.5246 22.675 15.2809V15.2809ZM22.675 14.7184V14.8746C22.5 15.0809 21.4125 15.3934 20.05 15.6184C18.6965 15.815 17.3301 15.909 15.9625 15.8996C14.6659 15.9072 13.3706 15.8174 12.0875 15.6309C11.1303 15.5203 10.1951 15.2675 9.3125 14.8809V14.6934C9.91875 15.0996 11.5625 15.3934 12.1063 15.4809C13.383 15.6679 14.6721 15.7577 15.9625 15.7496C17.6438 15.7496 18.9938 15.6246 20.025 15.4684C21.0063 15.3309 22.4 14.9621 22.675 14.7184V14.7184ZM15.9875 19.0184C13.1375 19.0059 10.6938 18.2434 10.175 18.1184L10.55 18.7059C12.3031 19.3267 14.153 19.6294 16.0125 19.5996C18.1813 19.5371 20.075 19.3684 21.4063 18.7184L21.7938 18.1059C20.8875 18.5371 17.7938 19.0184 15.9813 19.0184" fill="#FFFF00"/>
<path fill-rule="evenodd" clip-rule="evenodd" d="M9.30289 14.678C9.309 14.6747 9.31641 14.6751 9.32216 14.679C9.62214 14.88 10.1815 15.0544 10.7365 15.1896C11.2904 15.3246 11.8366 15.4198 12.1083 15.4635C13.3841 15.6504 14.6722 15.7401 15.9616 15.732L15.9617 15.732C17.642 15.732 18.9911 15.6071 20.0214 15.451L20.0216 15.451C20.5113 15.3823 21.1043 15.256 21.6091 15.1163C21.8614 15.0465 22.0915 14.9734 22.2754 14.9027C22.4602 14.8317 22.5959 14.7639 22.6618 14.7055L22.6742 14.7195H22.693V14.8758C22.693 14.8802 22.6914 14.8845 22.6885 14.8879C22.6646 14.9161 22.6264 14.9448 22.5765 14.9739C22.5264 15.0032 22.4635 15.0336 22.3891 15.0647C22.2403 15.1269 22.0446 15.1925 21.8122 15.2587C21.3473 15.3909 20.734 15.5254 20.0523 15.638L20.0519 15.6381C18.6976 15.8349 17.3303 15.929 15.9617 15.9195C14.6643 15.9272 13.3682 15.8373 12.0843 15.6506C11.1254 15.5398 10.1884 15.2865 9.3042 14.8992C9.29737 14.8962 9.29297 14.8895 9.29297 14.882V14.6945C9.29297 14.6876 9.29678 14.6812 9.30289 14.678ZM22.6555 14.7585C22.5778 14.815 22.4496 14.8759 22.2889 14.9377C22.1034 15.009 21.8721 15.0824 21.6191 15.1524C21.1129 15.2925 20.5184 15.4192 20.0269 15.4881C18.9948 15.6445 17.6439 15.7695 15.9618 15.7695C15.9618 15.7695 15.9617 15.7695 15.9617 15.7695V15.7508L15.9618 15.7695C15.9618 15.7695 15.9618 15.7695 15.9618 15.7695C14.6705 15.7776 13.3804 15.6877 12.1028 15.5006L12.1025 15.5005L12.1025 15.5005C11.8304 15.4568 11.283 15.3614 10.7276 15.226C10.1904 15.0951 9.64257 14.9262 9.33047 14.7291V14.6945H9.31172L9.30128 14.7101C9.31076 14.7165 9.3205 14.7228 9.33047 14.7291V14.8698C9.32673 14.8681 9.32298 14.8665 9.31924 14.8649L9.31172 14.882H9.33047V14.8698C10.208 15.2529 11.1376 15.5035 12.0889 15.6134L12.0894 15.6135L12.0894 15.6135C13.3716 15.7999 14.666 15.8897 15.9616 15.882L15.9618 15.882C17.3285 15.8915 18.6939 15.7975 20.0463 15.601C20.0463 15.601 20.0462 15.601 20.0462 15.601L20.0492 15.6195L20.0465 15.601C20.0465 15.601 20.0464 15.601 20.0463 15.601C20.727 15.4886 21.3387 15.3544 21.8019 15.2226C22.0335 15.1567 22.2277 15.0915 22.3746 15.0301C22.4481 14.9993 22.5094 14.9697 22.5576 14.9415C22.6026 14.9152 22.6352 14.8908 22.6555 14.8687V14.8758H22.6742L22.6599 14.8637C22.6585 14.8653 22.657 14.867 22.6555 14.8687V14.7585ZM9.30283 15.2468C9.30891 15.2435 9.31629 15.2438 9.32204 15.2476C9.6221 15.4456 10.18 15.62 10.7342 15.756C11.2873 15.8918 11.8336 15.9885 12.1083 16.0323C13.0948 16.1821 14.3626 16.2945 15.9617 16.2945C17.6421 16.2945 18.9849 16.1758 20.0214 16.0197L20.0215 16.0197C20.5113 15.948 21.1043 15.82 21.609 15.6796C21.8614 15.6094 22.0915 15.5361 22.2754 15.4653C22.4602 15.3942 22.5959 15.3264 22.6618 15.268L22.6742 15.282H22.693V15.4383C22.693 15.4426 22.6915 15.4468 22.6887 15.4502C22.6648 15.4792 22.6265 15.5086 22.5767 15.5384C22.5266 15.5683 22.4636 15.5992 22.3892 15.6307C22.2403 15.6938 22.0446 15.7601 21.8122 15.8266C21.3473 15.9597 20.734 16.0942 20.0523 16.2068L20.0519 16.2068C18.6974 16.4015 17.3301 16.4935 15.9617 16.482C14.6642 16.4931 13.3678 16.4032 12.0843 16.2131C11.1254 16.1023 10.1884 15.849 9.3042 15.4617C9.29737 15.4587 9.29297 15.452 9.29297 15.4445V15.2633C9.29297 15.2564 9.29676 15.25 9.30283 15.2468ZM22.6555 15.321C22.5778 15.3775 22.4496 15.4384 22.2889 15.5003C22.1034 15.5717 21.8722 15.6453 21.6191 15.7157C21.1129 15.8565 20.5184 15.9848 20.027 16.0568C18.9885 16.2132 17.6438 16.332 15.9617 16.332C14.3608 16.332 13.0911 16.2195 12.1027 16.0693L12.1025 16.0693C11.8272 16.0255 11.2798 15.9285 10.7252 15.7924C10.1887 15.6608 9.64239 15.4918 9.33047 15.2976V15.4323C10.208 15.8154 11.1376 16.066 12.0889 16.1759L12.0895 16.176L12.0895 16.176C13.3712 16.3658 14.6658 16.4556 15.9616 16.4445H15.9619C17.3283 16.456 18.6937 16.3642 20.0464 16.1697C20.727 16.0573 21.3387 15.9231 21.8019 15.7906C22.0335 15.7243 22.2276 15.6585 22.3745 15.5962C22.448 15.5651 22.5093 15.5349 22.5575 15.5062C22.6026 15.4793 22.6352 15.4542 22.6555 15.4314V15.321ZM21.807 18.0946C21.8125 18.1008 21.8133 18.11 21.8088 18.1171L21.4213 18.7296C21.4195 18.7325 21.4168 18.7349 21.4137 18.7364C20.0783 19.3884 18.1806 19.557 16.0123 19.6195L16.012 19.6195C14.1503 19.6494 12.2981 19.3463 10.543 18.7247C10.539 18.7233 10.5357 18.7206 10.5334 18.7171L10.1584 18.1296C10.1543 18.1232 10.1545 18.1149 10.159 18.1086C10.1634 18.1024 10.1712 18.0995 10.1786 18.1013C10.2421 18.1166 10.3344 18.1414 10.4525 18.1732C11.3012 18.4016 13.4872 18.9897 15.9863 19.0008C16.8907 19.0003 18.1133 18.8802 19.2237 18.7065C20.3372 18.5322 21.3346 18.3044 21.7849 18.0901C21.7925 18.0865 21.8015 18.0883 21.807 18.0946ZM15.9793 19.0382C15.9797 19.0383 15.9801 19.0383 15.9805 19.0383C15.9824 19.0383 15.9844 19.0383 15.9864 19.0383M15.9793 19.0382C13.4776 19.0261 11.2894 18.4373 10.4425 18.2094C10.3505 18.1846 10.2743 18.1641 10.2153 18.1491L10.5616 18.6915C12.3107 19.3102 14.1562 19.6118 16.0113 19.582C18.1778 19.5196 20.0656 19.351 21.3925 18.705L21.7435 18.1501C21.2644 18.3592 20.2978 18.5763 19.2295 18.7435C18.1183 18.9174 16.8939 19.0377 15.987 19.0383" fill="black"/>
<path fill-rule="evenodd" clip-rule="evenodd" d="M21.5563 18.5816C21.4993 18.666 21.441 18.7493 21.3813 18.8316C20.7563 19.0566 19.7563 19.2941 19.3438 19.3566C18.2369 19.5629 17.1134 19.6675 15.9875 19.6691C13.4625 19.6316 11.3938 19.1379 10.425 18.7129L10.3438 18.5816L10.3562 18.5566L10.4875 18.6129C12.2663 19.2015 14.1264 19.5073 16 19.5191C17.175 19.5191 18.3438 19.3879 19.2875 19.2191C20.7375 18.9254 21.325 18.7066 21.5063 18.6066L21.55 18.5816H21.5563ZM21.8875 18.0316C21.8463 18.1048 21.8047 18.1778 21.7625 18.2504C21.425 18.3754 20.5125 18.6379 19.1813 18.8254C18.3063 18.9441 17.7625 19.0629 16.0187 19.0941C14.0254 19.0741 12.0443 18.7797 10.1313 18.2191L10.0625 18.0629C12.0062 18.6001 14.009 18.894 16.025 18.9379C17.6188 18.9066 18.3 18.7879 19.1688 18.6691C20.7188 18.4316 21.5 18.1691 21.7313 18.1004C21.7314 18.0962 21.7314 18.0921 21.7313 18.0879L21.8938 18.0254L21.8875 18.0316Z" fill="#FFFF00"/>
<path fill-rule="evenodd" clip-rule="evenodd" d="M21.9087 18.0144C21.9135 18.0218 21.9125 18.0316 21.9062 18.0379L21.9018 18.0423C21.861 18.1148 21.8197 18.1871 21.7779 18.259C21.7757 18.2628 21.7723 18.2657 21.7682 18.2672C21.4292 18.3928 20.5153 18.6555 19.1831 18.8432L19.183 18.8432C19.0475 18.8616 18.9199 18.88 18.7946 18.898C18.1106 18.9967 17.4931 19.0857 16.0183 19.1121L16.0178 19.1121C14.0227 19.0921 12.0399 18.7974 10.1252 18.2364C10.1199 18.2348 10.1155 18.231 10.1133 18.2259L10.0446 18.0697C10.0416 18.063 10.0428 18.0553 10.0475 18.0498C10.0523 18.0444 10.0597 18.0421 10.0667 18.044C12.0087 18.5808 14.0099 18.8745 16.0242 18.9184C17.4434 18.8905 18.1381 18.7933 18.8874 18.6884C18.9787 18.6756 19.0709 18.6627 19.1653 18.6498C20.5782 18.4333 21.3515 18.1961 21.6516 18.104C21.6744 18.097 21.6944 18.0909 21.7118 18.0856C21.7123 18.0785 21.7169 18.0722 21.7237 18.0696L21.8862 18.0071C21.8945 18.0039 21.9039 18.007 21.9087 18.0144ZM21.8475 18.0622L21.7492 18.1C21.7492 18.1001 21.7492 18.1002 21.7492 18.1003C21.7489 18.1083 21.7435 18.1153 21.7358 18.1176C21.7156 18.1236 21.6911 18.1311 21.6623 18.14C21.3616 18.2322 20.5864 18.47 19.1708 18.6869L19.1705 18.6869C19.0761 18.6998 18.9839 18.7127 18.8925 18.7255C18.1427 18.8305 17.4462 18.928 16.0246 18.9559L16.0238 18.9559L16.0238 18.9559C14.0194 18.9122 12.028 18.6216 10.0948 18.0907L10.1441 18.2028C12.0528 18.7613 14.0292 19.0546 16.0179 19.0746C17.4901 19.0482 18.1058 18.9595 18.7893 18.8609C18.9147 18.8428 19.0423 18.8244 19.1779 18.806C20.4999 18.6198 21.4079 18.3597 21.7489 18.2344C21.7821 18.1771 21.815 18.1197 21.8475 18.0622ZM10.3387 18.5475C10.3431 18.5386 10.3537 18.5347 10.3629 18.5386L10.4934 18.5946C12.27 19.1824 14.1279 19.4878 15.9993 19.4996C17.1729 19.4996 18.3404 19.3685 19.2832 19.1999C20.7328 18.9063 21.3177 18.688 21.4963 18.5895C21.4963 18.5895 21.4964 18.5895 21.4964 18.5894L21.5399 18.5646C21.5427 18.563 21.546 18.5621 21.5492 18.5621H21.5555C21.5624 18.5621 21.5688 18.5659 21.572 18.5721C21.5753 18.5782 21.5749 18.5856 21.571 18.5913C21.514 18.6758 21.4555 18.7594 21.3956 18.8419C21.3934 18.8449 21.3904 18.8472 21.3868 18.8485C20.7608 19.0739 19.7599 19.3116 19.3461 19.3744C18.2382 19.5808 17.1137 19.6855 15.9867 19.6871L15.9864 19.6871C13.4597 19.6496 11.3883 19.1555 10.4167 18.7293C10.4132 18.7278 10.4103 18.7252 10.4083 18.722L10.327 18.5907C10.3236 18.5852 10.3233 18.5783 10.3262 18.5725L10.3387 18.5475ZM10.3646 18.5802L10.4371 18.6973C11.4052 19.1205 13.4683 19.6122 15.9868 19.6496C17.1116 19.648 18.2338 19.5435 19.3395 19.3374L19.3402 19.3373L19.3402 19.3373C19.7503 19.2752 20.7445 19.0392 21.3687 18.8152C21.4129 18.7542 21.4563 18.6927 21.4989 18.6307C21.2983 18.7356 20.7016 18.9509 19.2904 19.2367L19.29 19.2368C18.3454 19.4057 17.1755 19.5371 15.9992 19.5371L15.9991 19.5371C14.1235 19.5253 12.2615 19.2192 10.4808 18.6299C10.4803 18.6297 10.4798 18.6296 10.4793 18.6293L10.3646 18.5802Z" fill="black"/>
<path fill-rule="evenodd" clip-rule="evenodd" d="M21.9242 14.85C21.9305 16.725 20.968 18.4125 20.1992 19.15C19.0638 20.2574 17.5475 20.888 15.9617 20.9125C14.068 20.9438 12.2867 19.7125 11.8055 19.1688C10.7289 18.027 10.1161 16.5252 10.0867 14.9563C10.1992 12.9063 11.0055 11.4812 12.168 10.5C13.2973 9.57036 14.7178 9.06807 16.1805 9.08125C17.0343 9.12265 17.8701 9.34195 18.6342 9.7251C19.3984 10.1082 20.0741 10.6468 20.618 11.3062C21.3992 12.2562 21.743 13.2875 21.9242 14.85V14.85ZM15.9742 8.4375C17.7227 8.43745 19.4002 9.12857 20.6412 10.3602C21.8822 11.5918 22.586 13.2641 22.5992 15.0125C22.5992 15.88 22.4284 16.7391 22.0964 17.5406C21.7644 18.3421 21.2778 19.0704 20.6643 19.6838C20.0509 20.2973 19.3226 20.7839 18.5211 21.1159C17.7196 21.4479 16.8605 21.6187 15.993 21.6187C15.1254 21.6187 14.2664 21.4479 13.4649 21.1159C12.6634 20.7839 11.9351 20.2973 11.3217 19.6838C10.7082 19.0704 10.2216 18.3421 9.8896 17.5406C9.5576 16.7391 9.38673 15.88 9.38673 15.0125C9.38048 11.3875 12.343 8.4375 15.9742 8.4375" fill="#FFFF00"/>
<path fill-rule="evenodd" clip-rule="evenodd" d="M20.6272 10.3727C19.3897 9.14458 17.7169 8.45542 15.9735 8.45547C12.3525 8.45547 9.39847 11.3971 9.4047 15.0117L9.4047 15.0117C9.4047 15.8768 9.57509 16.7334 9.90614 17.5326C10.2372 18.3319 10.7224 19.0581 11.3341 19.6698C11.9458 20.2815 12.672 20.7667 13.4713 21.0978C14.2705 21.4288 15.1271 21.5992 15.9922 21.5992C16.8573 21.5992 17.7139 21.4288 18.5131 21.0978C19.3124 20.7667 20.0386 20.2815 20.6503 19.6698C21.262 19.0581 21.7472 18.3319 22.0783 17.5326C22.4093 16.7334 22.5797 15.8768 22.5797 15.0117C22.5665 13.2683 21.8647 11.6009 20.6272 10.3727ZM15.9734 8.41797C17.7268 8.41792 19.4091 9.111 20.6537 10.3461C21.8982 11.5812 22.604 13.2582 22.6172 15.0116L22.6172 15.0117C22.6172 15.8817 22.4458 16.7432 22.1129 17.547C21.78 18.3508 21.292 19.0811 20.6768 19.6963C20.0616 20.3115 19.3313 20.7995 18.5275 21.1324C17.7237 21.4654 16.8622 21.6367 15.9922 21.6367C15.1222 21.6367 14.2607 21.4654 13.4569 21.1324C12.6531 20.7995 11.9228 20.3115 11.3076 19.6963C10.6924 19.0811 10.2044 18.3508 9.8715 17.547C9.53856 16.7432 9.3672 15.8817 9.3672 15.0117C9.36094 11.3763 12.3319 8.41797 15.9734 8.41797ZM16.1792 9.09921C14.7211 9.08616 13.305 9.5869 12.1792 10.5136C11.021 11.4913 10.2171 12.9112 10.1047 14.9558C10.1342 16.5199 10.7451 18.0169 11.8183 19.1551L11.8187 19.1555L11.8187 19.1555C12.0573 19.4251 12.6208 19.8676 13.3615 20.2387C14.102 20.6097 15.0177 20.9085 15.9606 20.893H15.9607C17.5417 20.8686 19.0534 20.2398 20.1854 19.1358L20.1855 19.1357C20.9508 18.4015 21.9106 16.7192 21.9047 14.8503C21.7237 13.2904 21.3807 12.2634 20.6027 11.3174C20.0605 10.66 19.3868 10.1231 18.625 9.74108C17.8633 9.35915 17.0302 9.14053 16.1792 9.09921ZM21.9234 14.8492L21.9421 14.8471C21.7606 13.2826 21.4161 12.2474 20.6317 11.2936L20.6317 11.2935C20.0861 10.6321 19.4083 10.0919 18.6418 9.70755C17.8754 9.32323 17.037 9.10326 16.1806 9.06174L16.1806 9.06173L16.1799 9.06172C14.7128 9.0485 13.288 9.5523 12.1553 10.4847L12.1551 10.4849C10.9885 11.4696 10.18 12.8994 10.0672 14.9544C10.0672 14.9549 10.0672 14.9554 10.0672 14.9558C10.0967 16.5294 10.7112 18.0355 11.7909 19.1806C12.0336 19.4548 12.6013 19.8997 13.3447 20.2722C14.0886 20.645 15.0104 20.9462 15.9613 20.9305C17.5518 20.9059 19.0726 20.2734 20.2114 19.1627C20.2114 19.1627 20.2114 19.1627 20.2114 19.1628L20.1985 19.1492L20.2115 19.1626C20.2115 19.1627 20.2115 19.1627 20.2114 19.1627" fill="black"/>
<path fill-rule="evenodd" clip-rule="evenodd" d="M15.9922 8.40625C19.6297 8.40625 22.5922 11.3688 22.5922 15.0063C22.5922 18.6438 19.6297 21.6063 15.9984 21.6063C12.3672 21.6063 9.39844 18.6438 9.39844 15.0063C9.39844 11.3688 12.3609 8.40625 15.9984 8.40625H15.9922ZM9.53594 15C9.53594 18.55 12.4547 21.4562 15.9922 21.4562C19.5297 21.4562 22.4484 18.55 22.4484 15C22.4484 11.45 19.5297 8.54375 15.9922 8.54375C12.4547 8.54375 9.53594 11.45 9.53594 15Z" fill="#FFFF00"/>
<path fill-rule="evenodd" clip-rule="evenodd" d="M15.9945 8.42422C12.3688 8.42592 9.41641 11.3794 9.41641 15.0055C9.41641 18.6326 12.3768 21.5867 15.9977 21.5867C19.6185 21.5867 22.5727 18.6326 22.5727 15.0055C22.5727 11.3794 19.6203 8.42592 15.9945 8.42422ZM15.998 8.38672C19.6428 8.3903 22.6102 11.3598 22.6102 15.0055C22.6102 18.6533 19.6393 21.6242 15.9977 21.6242C12.3561 21.6242 9.37891 18.6533 9.37891 15.0055C9.37891 11.3598 12.3462 8.3903 15.9911 8.38672C15.9912 8.38672 15.9913 8.38672 15.9914 8.38672H15.9977C15.9978 8.38672 15.9979 8.38672 15.998 8.38672ZM9.51641 14.9992C9.51641 11.4388 12.4436 8.52422 15.9914 8.52422C19.5392 8.52422 22.4664 11.4388 22.4664 14.9992C22.4664 18.5596 19.5392 21.4742 15.9914 21.4742C12.4436 21.4742 9.51641 18.5596 9.51641 14.9992ZM15.9914 8.56172C12.4642 8.56172 9.55391 11.4596 9.55391 14.9992C9.55391 18.5388 12.4642 21.4367 15.9914 21.4367C19.5186 21.4367 22.4289 18.5388 22.4289 14.9992C22.4289 11.4596 19.5186 8.56172 15.9914 8.56172Z" fill="black"/>
<path fill-rule="evenodd" clip-rule="evenodd" d="M16.0008 8.95703C17.6022 8.96198 19.1365 9.60031 20.2689 10.7327C21.4012 11.865 22.0396 13.3994 22.0445 15.0008C22.0396 16.6027 21.4015 18.1378 20.2693 19.2711C19.1371 20.4045 17.6027 21.0442 16.0008 21.0508C12.6883 21.0508 9.95703 18.3258 9.95703 15.0008C9.96361 13.3999 10.6025 11.8665 11.7345 10.7345C12.8665 9.60248 14.3999 8.96361 16.0008 8.95703V8.95703ZM10.1008 15.0008C10.1008 18.2508 12.7633 20.9008 16.0008 20.9008C19.2383 20.9008 21.9008 18.2445 21.9008 15.0008C21.9008 11.7508 19.2383 9.10078 16.0008 9.10078C14.438 9.10736 12.9412 9.73108 11.8361 10.8361C10.7311 11.9412 10.1074 13.438 10.1008 15.0008V15.0008Z" fill="#FFFF00"/>
<path fill-rule="evenodd" clip-rule="evenodd" d="M20.2549 10.7451C19.126 9.61631 17.5964 8.97995 16 8.975C14.4041 8.98158 12.8754 9.61847 11.747 10.747C10.6185 11.8754 9.98157 13.4041 9.975 15C9.97502 18.3146 12.6978 21.0312 15.9999 21.0313C17.5969 21.0247 19.1266 20.3869 20.2552 19.2571C21.3839 18.1273 22.0201 16.597 22.025 15C22.0201 13.4036 21.3837 11.874 20.2549 10.7451ZM16 8.95625L16.0001 8.9375C17.6064 8.94246 19.1455 9.58277 20.2814 10.7186C21.4172 11.8545 22.0575 13.3936 22.0625 14.9999V15.0001C22.0576 16.607 21.4174 18.1467 20.2818 19.2836C19.1461 20.4204 17.607 21.0621 16.0001 21.0688H16C12.6771 21.0688 9.9375 18.3354 9.9375 15L9.9375 14.9999C9.9441 13.3941 10.5849 11.8559 11.7204 10.7204C12.8559 9.58494 14.3941 8.9441 15.9999 8.9375L16 8.95625ZM16 9.08125C19.2478 9.08125 21.9188 11.7396 21.9188 15C21.9188 18.2541 19.2478 20.9188 16 20.9188C12.7522 20.9188 10.0813 18.2604 10.0813 15H10.1L10.0813 14.9999C10.0879 13.4322 10.7135 11.9306 11.8221 10.8221C12.9306 9.71354 14.4322 9.08785 15.9999 9.08125L16 9.08125ZM10.1188 15C10.1188 18.2396 12.7728 20.8813 16 20.8813C19.2272 20.8813 21.8813 18.2334 21.8813 15C21.8813 11.7604 19.2272 9.11877 16 9.11875C14.4422 9.12532 12.9501 9.74706 11.8486 10.8486C10.7471 11.9501 10.1253 13.4422 10.1188 15Z" fill="black"/>
<path fill-rule="evenodd" clip-rule="evenodd" d="M16.268 8.375H15.6992V21.6437H16.2617L16.268 8.375Z" fill="#FFFF00"/>
<path fill-rule="evenodd" clip-rule="evenodd" d="M15.6797 8.37422C15.6797 8.36386 15.6881 8.35547 15.6984 8.35547H16.2672C16.2722 8.35547 16.2769 8.35745 16.2804 8.36096C16.284 8.36448 16.2859 8.36925 16.2859 8.37423L16.2797 21.643C16.2797 21.6533 16.2713 21.6617 16.2609 21.6617H15.6984C15.6881 21.6617 15.6797 21.6533 15.6797 21.643V8.37422ZM15.7172 8.39297V21.6242H16.2422L16.2484 8.39297H15.7172Z" fill="black"/>
<path fill-rule="evenodd" clip-rule="evenodd" d="M16.207 8.30078H16.3508V21.7195H16.2133V8.30078H16.207ZM15.6445 8.30078H15.7945V21.7195H15.6508V8.30078H15.6445Z" fill="#FFFF00"/>
<path fill-rule="evenodd" clip-rule="evenodd" d="M15.625 8.3C15.625 8.28964 15.6334 8.28125 15.6438 8.28125H15.7937C15.8041 8.28125 15.8125 8.28964 15.8125 8.3V21.7188C15.8125 21.7291 15.8041 21.7375 15.7937 21.7375H15.65C15.6396 21.7375 15.6312 21.7291 15.6312 21.7188V8.31398C15.6274 8.31054 15.625 8.30555 15.625 8.3ZM15.6687 8.31875V21.7H15.775V8.31875H15.6687ZM16.1875 8.3C16.1875 8.28964 16.1959 8.28125 16.2062 8.28125H16.35C16.3604 8.28125 16.3688 8.28964 16.3688 8.3V21.7188C16.3688 21.7291 16.3604 21.7375 16.35 21.7375H16.2125C16.2021 21.7375 16.1937 21.7291 16.1937 21.7188V8.31398C16.1899 8.31054 16.1875 8.30555 16.1875 8.3ZM16.2312 8.31875V21.7H16.3313V8.31875H16.2312Z" fill="black"/>
<path fill-rule="evenodd" clip-rule="evenodd" d="M22.5984 15.2625V14.775L22.1984 14.4L19.9297 13.8L16.6672 13.4688L12.7297 13.6687L9.92969 14.3313L9.36719 14.75V15.2437L10.7984 14.6L14.1984 14.0688H17.4672L19.8672 14.3313L21.5297 14.7312L22.5984 15.2625Z" fill="#FFFF00"/>
<path fill-rule="evenodd" clip-rule="evenodd" d="M16.6655 13.4492C16.6664 13.4492 16.6674 13.4492 16.6683 13.4493L19.9308 13.7806C19.9318 13.7807 19.9328 13.7808 19.9337 13.7811L22.2025 14.3811C22.2055 14.3819 22.2082 14.3834 22.2105 14.3855L22.6105 14.7605C22.6143 14.7641 22.6164 14.769 22.6164 14.7742V15.2617C22.6164 15.2682 22.6131 15.2742 22.6075 15.2777C22.602 15.2811 22.5951 15.2814 22.5893 15.2785L21.5225 14.7482L19.8632 14.349L17.4654 14.0867H14.1991L10.803 14.6174L9.3741 15.2601C9.3683 15.2627 9.36157 15.2622 9.35622 15.2587C9.35088 15.2553 9.34766 15.2493 9.34766 15.243V14.7492C9.34766 14.7433 9.35046 14.7377 9.35521 14.7342L9.91771 14.3154C9.91976 14.3139 9.9221 14.3128 9.92459 14.3122L12.7246 13.6497C12.7257 13.6495 12.7268 13.6493 12.728 13.6492L16.6655 13.4492ZM12.7316 13.6866L9.93699 14.3478L9.38516 14.7586V15.214L10.79 14.5821C10.7915 14.5814 10.7931 14.581 10.7948 14.5807L14.1948 14.0494C14.1957 14.0493 14.1967 14.0492 14.1977 14.0492H17.4664C17.4667 14.0492 17.4669 14.0492 17.4672 14.0492C17.4676 14.0493 17.468 14.0493 17.4684 14.0493L19.8684 14.3118C19.8692 14.3119 19.87 14.3121 19.8708 14.3122L21.5333 14.7122C21.5347 14.7126 21.536 14.7131 21.5373 14.7137L22.5789 15.2315V14.7823L22.1883 14.4161L19.9255 13.8177L16.6659 13.4868L12.7316 13.6866Z" fill="black"/>
<path fill-rule="evenodd" clip-rule="evenodd" d="M16 13.9878C17.5563 13.9878 19.0625 14.1316 20.2688 14.3628C21.5063 14.6128 22.375 14.9253 22.675 15.2691V15.4441C22.3125 15.0066 21.1438 14.6941 20.2375 14.5066C19.05 14.2816 17.55 14.1316 15.9938 14.1316C14.3625 14.1316 12.8375 14.2941 11.6625 14.5191C10.725 14.7066 9.46875 15.0816 9.3125 15.4441V15.2628C9.39375 15.0128 10.3313 14.6378 11.6438 14.3691C12.825 14.1378 14.35 13.9878 15.9938 13.9878H16ZM16 13.4191C17.4313 13.4162 18.8599 13.5417 20.2688 13.7941C21.5063 14.0441 22.375 14.3566 22.675 14.7066V14.8753C22.3125 14.4441 21.1438 14.1253 20.2375 13.9441C19.05 13.7128 17.55 13.5691 15.9938 13.5691C14.5432 13.5645 13.0954 13.6942 11.6688 13.9566C10.7625 14.1253 9.45625 14.5128 9.3125 14.8753V14.7003C9.4 14.4503 10.35 14.0566 11.6438 13.8066C12.8313 13.5753 14.35 13.4191 16 13.4191V13.4191ZM15.9625 10.5316C18.4188 10.5191 20.5625 10.8753 21.5438 11.3753L21.9 12.0003C21.05 11.5378 18.7375 11.0628 15.9688 11.1253C13.7125 11.1441 11.3 11.3753 10.0938 12.0253L10.5188 11.3128C11.5125 10.7941 13.85 10.5316 15.9625 10.5316" fill="#FFFF00"/>
<path fill-rule="evenodd" clip-rule="evenodd" d="M19.3026 10.779C18.3381 10.6292 17.1891 10.5433 15.9618 10.5495C15.9618 10.5495 15.9618 10.5495 15.9617 10.5495M19.3026 10.779C20.2643 10.9284 21.0412 11.1411 21.5295 11.3887ZM21.5295 11.3887L21.8512 11.9531C21.412 11.7303 20.643 11.5083 19.6562 11.3467C18.6246 11.1777 17.3531 11.0745 15.9677 11.1058C14.8391 11.1152 13.6711 11.1777 12.6342 11.3192C11.6308 11.4562 10.7484 11.6673 10.1431 11.977L10.5313 11.3262C11.0257 11.0697 11.8535 10.8755 12.8228 10.7455C13.7945 10.6151 14.9061 10.5495 15.9616 10.5495M15.9617 10.512C14.9047 10.512 13.7914 10.5777 12.8178 10.7083C11.8449 10.8388 11.0093 11.0344 10.5093 11.2954C10.5062 11.297 10.5036 11.2995 10.5019 11.3024L10.0769 12.0149C10.0725 12.0222 10.0736 12.0314 10.0794 12.0375C10.0853 12.0436 10.0944 12.045 10.1019 12.041C10.7019 11.7177 11.6039 11.4977 12.6393 11.3564C13.6742 11.2151 14.8405 11.1527 15.9681 11.1433L15.9684 11.1433C17.3516 11.1121 18.6208 11.2151 19.6501 11.3837C20.68 11.5523 21.4681 11.7863 21.8903 12.016C21.8976 12.02 21.9067 12.0186 21.9126 12.0127C21.9185 12.0067 21.9197 11.9975 21.9155 11.9903L21.5593 11.3653C21.5574 11.3621 21.5547 11.3595 21.5515 11.3578C21.0582 11.1065 20.2747 10.8921 19.3083 10.7419C18.3416 10.5918 17.1907 10.5058 15.9617 10.512ZM20.2645 13.8117C18.8568 13.5596 17.4293 13.4342 15.9993 13.437L15.9992 13.4183V13.437C14.3503 13.437 12.8328 13.5932 11.6466 13.8242L11.6465 13.8242C11.0005 13.949 10.4407 14.1097 10.0318 14.2701C9.82736 14.3504 9.66114 14.4303 9.54089 14.5055C9.48077 14.5431 9.43255 14.5792 9.39689 14.6132C9.3623 14.6462 9.34053 14.6763 9.33047 14.7028V14.8036C9.3502 14.7767 9.37521 14.7501 9.4046 14.7239C9.45713 14.6771 9.52466 14.6309 9.60376 14.5855C9.76196 14.4948 9.96819 14.4067 10.1976 14.3248C10.6565 14.1612 11.2107 14.0219 11.6645 13.9374L11.6646 13.9373C13.0923 13.6748 14.5413 13.5449 15.993 13.5495C17.5503 13.5495 19.0515 13.6934 20.2403 13.9249L20.2404 13.9249C20.6939 14.0156 21.2136 14.1408 21.6655 14.2974C21.8915 14.3758 22.1008 14.4621 22.2767 14.556C22.4327 14.6394 22.5632 14.7292 22.6555 14.8256V14.7128C22.5074 14.5435 22.2208 14.381 21.8161 14.2296C21.408 14.077 20.8826 13.9366 20.2645 13.8117ZM15.9992 13.3995C17.4316 13.3967 18.8613 13.5223 20.2713 13.7748L20.2717 13.7749C20.891 13.9 21.4186 14.0409 21.8292 14.1945C22.2391 14.3478 22.5352 14.5148 22.6885 14.6936C22.6914 14.697 22.693 14.7013 22.693 14.7058V14.8745C22.693 14.8824 22.688 14.8895 22.6806 14.8922C22.6732 14.8949 22.6649 14.8926 22.6599 14.8866C22.5715 14.7814 22.4328 14.682 22.259 14.5891C22.0855 14.4964 21.8781 14.4108 21.6532 14.3329C21.2036 14.177 20.6858 14.0522 20.2331 13.9617C19.0469 13.7307 17.5481 13.587 15.993 13.587H15.9929C14.5435 13.5825 13.0968 13.7121 11.6714 13.9742C11.219 14.0585 10.6669 14.1973 10.2102 14.3602C9.98181 14.4416 9.77789 14.5289 9.62241 14.618C9.54468 14.6626 9.4795 14.7074 9.42953 14.7519C9.37943 14.7965 9.34562 14.8399 9.32915 14.8814C9.32583 14.8898 9.31704 14.8946 9.3082 14.893C9.29936 14.8913 9.29297 14.8835 9.29297 14.8745V14.6995C9.29297 14.6974 9.29332 14.6953 9.29402 14.6933C9.30635 14.6581 9.3331 14.6222 9.37101 14.586C9.4091 14.5497 9.45957 14.5121 9.52102 14.4737C9.64394 14.3969 9.81248 14.3159 10.0182 14.2352C10.4296 14.0738 10.9917 13.9125 11.6394 13.7874C12.8282 13.5559 14.3481 13.3995 15.9992 13.3995ZM15.993 14.0058C14.3503 14.0058 12.8266 14.1557 11.6467 14.3867C10.9911 14.5209 10.4297 14.6816 10.0224 14.8397C9.81868 14.9188 9.65404 14.997 9.53558 15.0706C9.47635 15.1075 9.42911 15.1429 9.3944 15.1764C9.36067 15.2089 9.33979 15.2387 9.33047 15.2651V15.3745C9.38604 15.2994 9.48182 15.2262 9.60362 15.156C9.75937 15.0661 9.96149 14.979 10.1874 14.8975C10.6393 14.7346 11.1887 14.5938 11.658 14.4999L11.6582 14.4999C12.8344 14.2746 14.3606 14.112 15.993 14.112C17.5503 14.112 19.0515 14.2621 20.2402 14.4874L20.2405 14.4874C20.694 14.5812 21.2136 14.7064 21.6655 14.8631C21.8915 14.9414 22.1009 15.0277 22.2767 15.1221C22.4327 15.2057 22.5632 15.2962 22.6555 15.3939V15.2754C22.5074 15.1091 22.2208 14.9482 21.8161 14.7976C21.408 14.6457 20.8825 14.5053 20.2644 14.3804C19.0594 14.1494 17.5544 14.0058 15.9992 14.0058H15.993ZM11.6394 14.3499C12.822 14.1184 14.3482 13.9683 15.993 13.9683H15.9992C17.5565 13.9683 19.064 14.1121 20.2715 14.3436L20.2717 14.3437C20.891 14.4688 21.4186 14.6096 21.8292 14.7624C22.2391 14.915 22.5351 15.0803 22.6883 15.256C22.6913 15.2594 22.693 15.2638 22.693 15.2683V15.4433C22.693 15.4512 22.688 15.4582 22.6806 15.4609C22.6731 15.4636 22.6648 15.4613 22.6598 15.4553C22.5714 15.3486 22.4328 15.2484 22.259 15.1551C22.0855 15.062 21.8781 14.9764 21.6532 14.8985C21.2036 14.7427 20.6858 14.6179 20.2331 14.5242C19.0468 14.2994 17.548 14.1495 15.993 14.1495C14.3629 14.1495 12.8391 14.3119 11.6653 14.5367C11.1972 14.6303 10.6497 14.7707 10.2001 14.9328C9.97523 15.0139 9.7754 15.1002 9.62236 15.1884C9.46828 15.2773 9.36539 15.3661 9.32894 15.4507C9.32542 15.4589 9.31664 15.4634 9.30793 15.4617C9.29922 15.4599 9.29297 15.4522 9.29297 15.4433V15.262C9.29297 15.2601 9.29328 15.2581 9.29389 15.2562C9.30538 15.2209 9.33131 15.1851 9.36837 15.1494C9.4056 15.1135 9.45519 15.0765 9.51578 15.0388C9.63698 14.9634 9.80398 14.8842 10.0088 14.8047C10.4187 14.6456 10.9823 14.4844 11.6392 14.3499L11.6394 14.3499Z" fill="black"/>
<path fill-rule="evenodd" clip-rule="evenodd" d="M16.0008 11.0447C17.2832 11.023 18.5652 11.113 19.832 11.3134C20.832 11.5009 21.7883 11.7759 21.9258 11.9259L22.032 12.1134C21.7008 11.9009 20.8695 11.6572 19.807 11.4572C18.7445 11.2572 17.3883 11.1884 15.9945 11.1947C14.4133 11.1884 13.182 11.2697 12.132 11.4572C11.4082 11.5586 10.7055 11.776 10.0508 12.1009L10.157 11.9072C10.532 11.7197 11.1133 11.4884 12.1008 11.3072C13.1945 11.1072 14.4383 11.0509 16.0008 11.0447V11.0447ZM16.0008 10.4822C17.3383 10.4697 18.6633 10.5447 19.6945 10.7322C20.3627 10.8314 21.0093 11.0427 21.607 11.3572L21.7633 11.6072C21.5008 11.3134 20.5133 11.0322 19.632 10.8822C18.607 10.7009 17.3383 10.6322 16.0008 10.6197C14.7557 10.6086 13.5119 10.7006 12.282 10.8947C11.639 10.9843 11.0144 11.1763 10.432 11.4634L10.5695 11.2572C10.932 11.0697 11.5195 10.8947 12.257 10.7509C13.495 10.5543 14.7474 10.4623 16.0008 10.4759V10.4822ZM19.2758 17.7509C18.1925 17.5634 17.0937 17.4797 15.9945 17.5009C11.9008 17.5509 10.582 18.3447 10.4195 18.5822L10.107 18.0822C11.157 17.3322 13.382 16.9072 16.0195 16.9447C17.3883 16.9697 18.5695 17.0634 19.557 17.2572L19.2758 17.7572" fill="#FFFF00"/>
<path fill-rule="evenodd" clip-rule="evenodd" d="M12.2595 10.7686C11.5256 10.9117 10.942 11.0855 10.5817 11.2708L10.4851 11.4156C11.0514 11.1443 11.6563 10.9621 12.2785 10.8754C13.5093 10.6811 14.7541 10.589 16.0002 10.6002L16.0002 10.6002C17.338 10.6127 18.6079 10.6814 19.6344 10.8629C20.0757 10.938 20.5438 11.046 20.9347 11.1722C21.1301 11.2352 21.3066 11.3029 21.4509 11.3734C21.5392 11.4166 21.6161 11.4611 21.6781 11.5067L21.593 11.3706C20.9984 11.0584 20.3554 10.8486 19.691 10.7499L19.6904 10.7499L19.6904 10.7498C18.6608 10.5626 17.3371 10.4877 16.0002 10.5002C15.9952 10.5002 15.9904 10.4982 15.9868 10.4947C15.9865 10.4944 15.9862 10.4941 15.9859 10.4938C14.7383 10.4809 13.4918 10.5729 12.2595 10.7686ZM16.0139 10.4625C16.0105 10.4588 16.0056 10.4565 16.0002 10.4564C14.7457 10.4427 13.4923 10.5348 12.2533 10.7316L12.2533 10.7316L12.2527 10.7317C11.5147 10.8756 10.9251 11.051 10.5601 11.2397C10.5573 11.2412 10.5549 11.2434 10.5531 11.246L10.4156 11.4523C10.4109 11.4593 10.4116 11.4686 10.4172 11.475C10.4228 11.4814 10.4319 11.4832 10.4395 11.4795C11.0201 11.1932 11.6427 11.0018 12.2838 10.9125L12.2838 10.9125L12.2842 10.9124C13.513 10.7185 14.7558 10.6266 15.9998 10.6377C17.337 10.6501 18.6045 10.7189 19.628 10.8999L19.6281 10.8999C20.0681 10.9748 20.5344 11.0824 20.9232 11.2078C21.1176 11.2706 21.2923 11.3376 21.4344 11.4071C21.577 11.4768 21.6853 11.5482 21.7485 11.6189C21.755 11.6262 21.766 11.6272 21.7738 11.6214C21.7815 11.6156 21.7836 11.6047 21.7784 11.5965L21.6222 11.3465C21.6204 11.3437 21.6179 11.3414 21.615 11.3398C21.0154 11.0244 20.3669 10.8124 19.6968 10.7129C18.6676 10.5258 17.3471 10.4507 16.0139 10.4625ZM19.8281 11.3311C18.5623 11.1309 17.2816 11.041 16.0003 11.0626L16 11.0439L16.0001 11.0627C14.4378 11.0689 13.1954 11.1252 12.1034 11.3248C11.1221 11.505 10.5434 11.7344 10.1699 11.9206L10.0949 12.0572C10.7361 11.7459 11.4222 11.5369 12.1283 11.4379C13.1797 11.2502 14.4121 11.1689 15.9937 11.1752C17.3879 11.1689 18.7455 11.2377 19.8097 11.438C20.3414 11.5381 20.8155 11.6491 21.1983 11.7619C21.5375 11.8618 21.8064 11.9633 21.98 12.0603L21.9098 11.9363C21.8945 11.9203 21.8672 11.9013 21.8277 11.88C21.7873 11.8582 21.7354 11.8347 21.6735 11.8099C21.5497 11.7605 21.3866 11.7063 21.1963 11.651C20.8158 11.5402 20.3275 11.4248 19.8281 11.3311ZM15.9998 11.0252C14.4372 11.0314 13.1921 11.0876 12.0966 11.288L12.0966 11.288C11.1075 11.4695 10.5245 11.7013 10.1479 11.8896C10.1445 11.8913 10.1416 11.894 10.1398 11.8974L10.0336 12.0911C10.0296 12.0983 10.0308 12.1072 10.0365 12.1131C10.0421 12.119 10.051 12.1206 10.0583 12.1169C10.7112 11.7929 11.412 11.5761 12.1339 11.475L12.1339 11.475L12.1345 11.4749C13.183 11.2876 14.413 11.2064 15.9937 11.2127H15.9938C17.3872 11.2064 18.742 11.2752 19.8028 11.4748C20.3336 11.5747 20.8064 11.6855 21.1877 11.7978C21.5695 11.9103 21.8579 12.0237 22.0211 12.1284C22.0284 12.1331 22.0379 12.1322 22.0441 12.1263C22.0504 12.1203 22.0518 12.1109 22.0476 12.1034L21.9413 11.9159C21.9406 11.9147 21.9398 11.9135 21.9388 11.9125C21.9194 11.8913 21.8872 11.8694 21.8455 11.847C21.8034 11.8243 21.7501 11.8002 21.6874 11.7751C21.562 11.725 21.3977 11.6705 21.2068 11.615C20.8249 11.5038 20.3352 11.3881 19.8347 11.2942L19.8347 11.2942L19.8342 11.2941C18.5663 11.0935 17.2833 11.0035 15.9998 11.0252ZM10.1315 18.0865L10.4204 18.5486C10.4736 18.4861 10.5864 18.3995 10.7741 18.3026C10.986 18.1933 11.2953 18.0698 11.7271 17.9524C12.5908 17.7175 13.9455 17.5064 15.9935 17.4814C15.9935 17.4814 15.9935 17.4814 15.9935 17.4814L15.9938 17.5002L15.9934 17.4814C15.9934 17.4814 15.9935 17.4814 15.9935 17.4814C17.0905 17.4602 18.1871 17.5434 19.2684 17.73L19.2587 17.7472C19.2552 17.7534 19.2556 17.7608 19.2592 17.7664C18.1811 17.5806 17.0879 17.4977 15.9941 17.5189L15.994 17.5189C13.9482 17.5439 12.5967 17.7547 11.737 17.9886C11.3071 18.1055 11.0003 18.2281 10.7913 18.336C10.5814 18.4442 10.4721 18.5366 10.4342 18.592C10.4307 18.5972 10.4247 18.6003 10.4184 18.6001C10.412 18.6 10.4062 18.5967 10.4029 18.5913L10.0904 18.0913C10.0851 18.0829 10.0873 18.0719 10.0954 18.0661C10.6236 17.6888 11.4454 17.3944 12.4637 17.1989C13.4823 17.0033 14.6993 16.9064 16.019 16.9252L16.0191 16.9252C17.3884 16.9502 18.5708 17.044 19.5599 17.238C19.5658 17.2392 19.5708 17.2431 19.5733 17.2485C19.5758 17.254 19.5755 17.2603 19.5726 17.2656L19.2913 17.7656C19.2863 17.7746 19.2748 17.7778 19.2658 17.7727C19.263 17.7712 19.2608 17.769 19.2592 17.7664M19.5272 17.2698L19.2684 17.73ZM19.5272 17.2698C19.5357 17.2715 19.5442 17.2731 19.5526 17.2748L19.5563 17.2564L19.5399 17.2472L19.5272 17.2698ZM19.5272 17.2698C18.5464 17.0797 17.3749 16.9874 16.0185 16.9627L16.0188 16.9439L16.0184 16.9626C16.0184 16.9626 16.0185 16.9627 16.0185 16.9627C14.7007 16.9439 13.4864 17.0407 12.4707 17.2358C11.4639 17.4291 10.6539 17.7186 10.1315 18.0865" fill="black"/>
<path fill-rule="evenodd" clip-rule="evenodd" d="M15.9734 17.4305C17.1109 17.4492 18.2234 17.493 19.3047 17.693L19.2297 17.8305C18.2297 17.643 17.1547 17.5805 15.9797 17.5805C14.4609 17.568 12.9359 17.7117 11.6047 18.093C11.1859 18.2117 10.4922 18.4805 10.4172 18.7055L10.3422 18.5805C10.3672 18.443 10.7797 18.168 11.5672 17.9555C13.0922 17.518 14.5172 17.4367 15.9734 17.4305ZM16.0234 16.8555C17.2241 16.8543 18.4224 16.9588 19.6047 17.168L19.5234 17.3117C18.369 17.1 17.1971 16.9974 16.0234 17.0055C14.5109 17.0055 12.9047 17.118 11.4422 17.543C10.9734 17.6805 10.1547 17.9805 10.1297 18.2117L10.0547 18.0742C10.0672 17.8617 10.7734 17.5805 11.4109 17.3992C12.8797 16.968 14.4922 16.8617 16.0234 16.8555V16.8555Z" fill="#FFFF00"/>
<path fill-rule="evenodd" clip-rule="evenodd" d="M19.5745 17.183C18.4018 16.9771 17.2134 16.8742 16.0227 16.8754C14.492 16.8817 12.8816 16.9879 11.4154 17.4184L11.4153 17.4184C11.0971 17.5089 10.7621 17.6242 10.5055 17.7432C10.3772 17.8027 10.2692 17.8628 10.1928 17.9207C10.1546 17.9497 10.1249 17.9776 10.1045 18.0042C10.0857 18.0288 10.0755 18.0512 10.0731 18.0714L10.1239 18.1645C10.1324 18.1465 10.1443 18.1287 10.1589 18.1114C10.186 18.0791 10.2232 18.0469 10.2677 18.0149C10.3567 17.9511 10.4773 17.8871 10.611 17.8263C10.8785 17.7047 11.2013 17.5951 11.4361 17.5262L11.4362 17.5261C12.9011 17.1004 14.5094 16.9879 16.0226 16.9879C17.193 16.9799 18.3616 17.0817 19.5129 17.2921L19.5745 17.183ZM16.0227 16.8567L16.0226 16.8379C17.2244 16.8367 18.4238 16.9413 19.6072 17.1507C19.6132 17.1517 19.6183 17.1557 19.6209 17.1612C19.6235 17.1667 19.6232 17.1731 19.6202 17.1784L19.539 17.3221C19.535 17.3291 19.5271 17.3328 19.5193 17.3313C18.366 17.1198 17.1953 17.0174 16.0228 17.0254L16.0227 17.0254C14.5109 17.0254 12.9067 17.1379 11.4467 17.5622C11.2128 17.6308 10.8918 17.7398 10.6265 17.8604C10.4938 17.9208 10.3757 17.9837 10.2895 18.0454C10.2465 18.0763 10.2119 18.1065 10.1876 18.1355C10.1632 18.1646 10.1501 18.1911 10.1475 18.2149C10.1467 18.2231 10.1406 18.2297 10.1326 18.2313C10.1245 18.2329 10.1164 18.2291 10.1124 18.2219L10.0374 18.0844C10.0358 18.0813 10.035 18.0778 10.0352 18.0743C10.037 18.0427 10.0517 18.0115 10.0747 17.9814C10.0979 17.9512 10.1304 17.921 10.1701 17.8908C10.2496 17.8306 10.3603 17.7692 10.4898 17.7092C10.7488 17.5891 11.0857 17.4732 11.405 17.3824C12.8762 16.9504 14.4908 16.8442 16.0226 16.8379L16.0227 16.8567ZM15.973 17.4129V17.4129C17.1106 17.4317 18.2244 17.4754 19.3073 17.6757C19.3132 17.6768 19.3183 17.6807 19.3208 17.6861C19.3234 17.6915 19.3232 17.6979 19.3204 17.7031L19.2454 17.8406C19.2415 17.8478 19.2334 17.8516 19.2255 17.8501C18.227 17.6629 17.1533 17.6004 15.9789 17.6004L15.9788 17.6004C14.4611 17.5879 12.938 17.7316 11.6091 18.1122L11.609 18.1122C11.4004 18.1714 11.1233 18.2679 10.8892 18.3775C10.7721 18.4324 10.6664 18.4902 10.5856 18.548C10.5039 18.6064 10.4509 18.6624 10.4342 18.7126C10.4319 18.7195 10.4257 18.7245 10.4185 18.7253C10.4112 18.7261 10.4041 18.7226 10.4003 18.7163L10.3253 18.5913C10.323 18.5874 10.3221 18.5828 10.323 18.5783C10.3304 18.5373 10.3651 18.4908 10.4202 18.4419C10.476 18.3922 10.5558 18.3375 10.6589 18.2808C10.8652 18.1675 11.1666 18.0451 11.5614 17.9386C13.0888 17.5004 14.5157 17.4192 15.9726 17.4129L15.973 17.4129ZM15.9725 17.4504C14.517 17.4567 13.0941 17.5379 11.5716 17.9747L11.5713 17.9748L11.5713 17.9748C11.1786 18.0807 10.8801 18.2021 10.677 18.3137C10.5754 18.3695 10.4982 18.4227 10.4451 18.4699C10.3952 18.5142 10.369 18.5512 10.3614 18.5785L10.4141 18.6664C10.4428 18.6157 10.4964 18.5656 10.5638 18.5175C10.6472 18.4578 10.7552 18.3989 10.8733 18.3436C11.1096 18.2329 11.3887 18.1357 11.5988 18.0761C12.9323 17.6942 14.4591 17.5504 15.979 17.5629C17.1493 17.5629 18.2212 17.6249 19.219 17.8107L19.275 17.7079C18.2035 17.5122 17.1009 17.469 15.9725 17.4504Z" fill="black"/>
<path fill-rule="evenodd" clip-rule="evenodd" d="M21.8383 18.157L21.3508 18.9258L19.932 17.6695L16.2695 15.2008L12.132 12.932L9.98828 12.2008L10.4445 11.3508L10.6008 11.2695L11.932 11.6008L16.332 13.8695L18.8695 15.4695L21.0008 17.0008L21.8695 18.0008L21.8383 18.157Z" fill="#FFFF00"/>
<path fill-rule="evenodd" clip-rule="evenodd" d="M10.5913 11.2521C10.5954 11.25 10.6001 11.2495 10.6045 11.2506L11.9358 11.5818C11.9372 11.5822 11.9386 11.5827 11.9398 11.5833L16.3398 13.8521C16.3403 13.8523 16.3408 13.8526 16.3413 13.8529L18.8788 15.4529C18.8791 15.4531 18.8794 15.4533 18.8797 15.4535L21.0109 16.9848C21.0121 16.9856 21.0132 16.9866 21.0142 16.9877L21.8829 17.9877C21.8867 17.9921 21.8883 17.998 21.8871 18.0037L21.8559 18.1599C21.8554 18.1622 21.8546 18.1643 21.8533 18.1663L21.3658 18.935C21.3629 18.9397 21.3581 18.9428 21.3526 18.9436C21.3472 18.9443 21.3417 18.9427 21.3376 18.939L19.9197 17.6836L16.259 15.216L12.1237 12.9485L9.98145 12.2177C9.97623 12.216 9.97207 12.212 9.97005 12.2069C9.96804 12.2017 9.96837 12.196 9.97098 12.1911L10.4272 11.3411C10.429 11.3378 10.4318 11.3351 10.4351 11.3334L10.5913 11.2521ZM10.6024 11.2887L10.4575 11.364L10.0145 12.1894L12.1373 12.9135C12.1383 12.9139 12.1393 12.9143 12.1403 12.9148L16.2778 15.1836C16.2783 15.1838 16.2788 15.1841 16.2792 15.1845L19.9417 17.6532C19.9424 17.6537 19.9431 17.6542 19.9437 17.6547L21.346 18.8964L21.8198 18.1492L21.8486 18.0053L20.9873 17.014L18.8583 15.4843L16.3219 13.885L11.9246 11.6177L10.6024 11.2887Z" fill="black"/>
<path fill-rule="evenodd" clip-rule="evenodd" d="M9.91328 12.2188C10.2883 11.9688 13.0508 13.1938 15.9508 14.9438C18.832 16.6938 21.5945 18.6688 21.3445 19.0376L21.2633 19.1688L21.2258 19.2001C21.232 19.1938 21.2758 19.1376 21.2258 19.0063C21.1008 18.6001 19.1383 17.0376 15.8945 15.0751C12.7258 13.1938 10.0883 12.0563 9.83203 12.3813L9.91328 12.2188V12.2188ZM21.9383 18.1501C22.1758 17.6751 19.6133 15.7438 16.432 13.8626C13.182 12.0188 10.832 10.9313 10.4008 11.2563L10.3133 11.4376C10.3133 11.4438 10.3133 11.4251 10.3383 11.4063C10.4133 11.3438 10.5445 11.3438 10.6008 11.3438C11.3383 11.3563 13.4445 12.3251 16.4008 14.0188C17.7008 14.7688 21.8758 17.4563 21.857 18.2063C21.857 18.2688 21.8633 18.2813 21.8383 18.3188L21.9445 18.1563L21.9383 18.1501Z" fill="#FFFF00"/>
<path fill-rule="evenodd" clip-rule="evenodd" d="M12.3662 11.7282C13.4147 12.1903 14.8153 12.9235 16.4405 13.8455L16.4408 13.8457C18.0318 14.7865 19.4685 15.7401 20.4779 16.5181C20.9824 16.907 21.3809 17.2524 21.6385 17.5308C21.7672 17.6699 21.8615 17.7931 21.9162 17.8971C21.9672 17.9942 21.986 18.0793 21.9597 18.1456C21.9635 18.1517 21.9635 18.1596 21.9594 18.1658L21.8556 18.3247C21.8548 18.3259 21.854 18.3272 21.8531 18.3285C21.8474 18.3371 21.8358 18.3394 21.8272 18.3337C21.8186 18.328 21.8162 18.3164 21.8218 18.3078L21.8219 18.3077C21.8227 18.3065 21.8234 18.3054 21.8241 18.3044C21.8336 18.2894 21.8365 18.2803 21.8376 18.2693C21.8383 18.2627 21.8383 18.2551 21.8381 18.2446C21.8379 18.2343 21.8375 18.2214 21.8375 18.2056L21.8375 18.2051C21.8386 18.1624 21.8247 18.1111 21.7955 18.0514C21.7664 17.9919 21.7227 17.9254 21.6657 17.8526C21.5518 17.7071 21.3861 17.5385 21.1819 17.3542C20.7736 16.9858 20.2135 16.5566 19.6118 16.1271C18.4084 15.2681 17.0401 14.409 16.3906 14.0343C14.9128 13.1876 13.6477 12.5223 12.6601 12.0671C12.1663 11.8395 11.7421 11.6646 11.3956 11.5459C11.0487 11.427 10.7811 11.3649 10.5998 11.3618C10.5717 11.3618 10.5262 11.3619 10.4787 11.3694C10.4308 11.377 10.3832 11.3919 10.3495 11.42C10.3493 11.4202 10.349 11.4204 10.3488 11.4206C10.3388 11.428 10.3343 11.4351 10.3324 11.4389C10.3314 11.4409 10.331 11.4422 10.3307 11.4431C10.3306 11.4432 10.3304 11.444 10.3301 11.4447C10.3301 11.4449 10.3295 11.4465 10.3284 11.4481C10.328 11.4487 10.326 11.4519 10.322 11.4543C10.3195 11.4557 10.3155 11.4572 10.3104 11.4567C10.3053 11.4561 10.3015 11.4535 10.2993 11.4513C10.2958 11.4477 10.2947 11.4438 10.2945 11.4431C10.2945 11.443 10.2945 11.443 10.2945 11.443C10.2941 11.4417 10.294 11.4407 10.2939 11.4402C10.2938 11.4393 10.2938 11.4385 10.2938 11.4383C10.2938 11.4377 10.2938 11.4371 10.2938 11.4368C10.2938 11.434 10.2944 11.4312 10.2956 11.4287L10.3831 11.2474C10.3844 11.2447 10.3863 11.2424 10.3887 11.2406C10.4476 11.1962 10.5367 11.1776 10.65 11.1799C10.764 11.1821 10.9054 11.2055 11.0719 11.2482C11.4052 11.3337 11.842 11.4972 12.3662 11.7282ZM21.8752 18.2261L21.9204 18.157C21.9181 18.152 21.9182 18.1461 21.9207 18.1409C21.9461 18.0901 21.9359 18.0154 21.883 17.9146C21.8305 17.8148 21.7388 17.6944 21.6109 17.5563C21.3555 17.2802 20.959 16.9362 20.455 16.5478C19.4472 15.7711 18.012 14.8184 16.4219 13.878C14.7971 12.9563 13.3978 12.2239 12.351 11.7626C11.8275 11.5319 11.3929 11.3692 11.0626 11.2846C10.8975 11.2422 10.7591 11.2196 10.6493 11.2174C10.5416 11.2152 10.464 11.2328 10.4149 11.2679L10.3688 11.3634C10.4017 11.3471 10.4385 11.3378 10.4728 11.3324C10.5235 11.3243 10.5716 11.3243 10.5997 11.3243H10.6003C10.7878 11.3275 11.06 11.3912 11.4077 11.5104C11.7559 11.6297 12.1814 11.8052 12.6758 12.0331C13.6648 12.4888 14.9309 13.1548 16.4093 14.0018C17.0598 14.3771 18.4292 15.2368 19.6336 16.0966C20.2357 16.5264 20.7971 16.9566 21.207 17.3264C21.4119 17.5113 21.5794 17.6815 21.6953 17.8295C21.7532 17.9035 21.7986 17.9723 21.8292 18.0349C21.8597 18.0973 21.8762 18.1548 21.875 18.2058C21.875 18.2133 21.8751 18.22 21.8752 18.2261ZM9.92695 12.2311L9.87974 12.3255C9.88681 12.3229 9.89422 12.3205 9.90195 12.3185C9.93853 12.3088 9.98356 12.3052 10.036 12.3071C10.141 12.3109 10.279 12.3364 10.4459 12.3817C10.7801 12.4724 11.2338 12.6433 11.7779 12.8829C12.8662 13.3622 14.3185 14.1173 15.9033 15.0582L15.9035 15.0583C17.5257 16.0398 18.8279 16.9214 19.7402 17.6086C20.1963 17.9521 20.5553 18.2473 20.8082 18.4822C20.9346 18.5996 21.0348 18.7022 21.1074 18.7884C21.1793 18.8738 21.2258 18.9449 21.2427 18.9995C21.2624 19.0512 21.2683 19.0926 21.2673 19.1247L21.3282 19.0263C21.3402 19.0087 21.3442 18.985 21.3377 18.9531C21.3311 18.9209 21.314 18.8821 21.286 18.8367C21.2299 18.7459 21.1326 18.6329 20.9985 18.5011C20.7306 18.2376 20.3195 17.9021 19.8099 17.523C18.791 16.7648 17.3806 15.8339 15.9403 14.9591C14.4908 14.0844 13.0759 13.341 11.9767 12.8477C11.427 12.6009 10.9568 12.4169 10.6009 12.3102C10.4228 12.2569 10.2741 12.223 10.1586 12.2102C10.1008 12.2038 10.052 12.2027 10.0122 12.2069C9.97486 12.2108 9.94674 12.2192 9.92695 12.2311ZM9.9125 12.2181L9.9021 12.2025C9.92904 12.1845 9.96517 12.1741 10.0083 12.1696C10.0516 12.1651 10.1034 12.1664 10.1627 12.173C10.2814 12.1861 10.4326 12.2207 10.6116 12.2743C10.9698 12.3817 11.4417 12.5664 11.9921 12.8135C13.0929 13.3076 14.5092 14.0517 15.9597 14.927C17.4006 15.8022 18.8121 16.7338 19.8323 17.4929C20.3423 17.8723 20.755 18.2091 21.0248 18.4743C21.1595 18.6068 21.2595 18.7223 21.3179 18.817C21.3471 18.8643 21.3666 18.9074 21.3744 18.9455C21.3822 18.9838 21.3786 19.0186 21.3595 19.047L21.2784 19.1779C21.2774 19.1796 21.2761 19.1812 21.2745 19.1825L21.237 19.2137C21.2293 19.2201 21.2179 19.2194 21.2112 19.212C21.2044 19.2046 21.2047 19.1931 21.2117 19.1861C21.2119 19.1859 21.2146 19.1829 21.218 19.1763C21.2213 19.1697 21.2252 19.1598 21.2276 19.1461C21.2324 19.1187 21.2315 19.0753 21.2075 19.0122C21.2073 19.0119 21.2072 19.0115 21.2071 19.0111C21.1926 18.9642 21.1505 18.8978 21.0787 18.8126C21.0075 18.7279 20.9085 18.6265 20.7827 18.5096C20.5311 18.276 20.1732 17.9817 19.7176 17.6385C18.8065 16.9523 17.5056 16.0714 15.8841 15.0904C14.3002 14.1501 12.8494 13.3958 11.7628 12.9173C11.2193 12.6779 10.7676 12.5079 10.4361 12.4179C10.2702 12.3729 10.1354 12.3482 10.0347 12.3446C9.98432 12.3428 9.94331 12.3463 9.91156 12.3547C9.8798 12.3631 9.85866 12.3761 9.84598 12.3922C9.84002 12.3997 9.82932 12.4015 9.8212 12.3964C9.81308 12.3912 9.81018 12.3808 9.81448 12.3722L9.89573 12.2097L9.9125 12.2181Z" fill="black"/>
<path d="M12.0391 15.7359C12.0401 16.2534 12.1437 16.7656 12.3439 17.2428C12.5442 17.72 12.8371 18.1527 13.2057 18.5159C13.5699 18.8856 14.0036 19.1797 14.4818 19.381C14.9601 19.5824 15.4735 19.6872 15.9924 19.6892C17.0426 19.6892 18.0498 19.2719 18.7924 18.5292C19.1597 18.164 19.4513 17.7298 19.6504 17.2516C19.8494 16.7734 19.9521 16.2606 19.9524 15.7426V10.4626L12.0391 10.4492V15.7359V15.7359Z" fill="white"/>
<path fill-rule="evenodd" clip-rule="evenodd" d="M12.0156 10.4258L19.9757 10.4392V15.7425C19.9753 16.2636 19.8721 16.7795 19.6718 17.2605C19.4716 17.7416 19.1783 18.1783 18.8088 18.5457C18.8088 18.5457 18.8088 18.5457 18.8088 18.5457M13.1891 18.5324C13.5554 18.9042 13.9916 19.1999 14.4727 19.4025C14.9538 19.6051 15.4702 19.7104 15.9922 19.7125H15.9923C17.0487 19.7124 18.0618 19.2927 18.8088 18.5457M13.1891 18.5324C12.8184 18.167 12.5237 17.7317 12.3223 17.2517C12.1209 16.7717 12.0166 16.2565 12.0156 15.7359L12.0156 10.4258M12.0623 15.7358C12.0633 16.2502 12.1663 16.7593 12.3653 17.2337C12.5644 17.708 12.8556 18.1382 13.222 18.4992L13.2223 18.4995C13.5842 18.867 14.0153 19.1593 14.4908 19.3595C14.9662 19.5597 15.4765 19.6638 15.9924 19.6658C17.0364 19.6657 18.0376 19.2509 18.7758 18.5127L18.7759 18.5126C19.141 18.1496 19.4308 17.718 19.6287 17.2426C19.8266 16.7672 19.9287 16.2574 19.929 15.7425V10.4858L12.0623 10.4725V15.7358Z" fill="black"/>
<path d="M12.1875 15.7431C12.1889 16.2395 12.2886 16.7307 12.4808 17.1884C12.6731 17.6461 12.954 18.0612 13.3075 18.4097C14.0173 19.1232 14.9811 19.526 15.9875 19.5297C16.9921 19.5303 17.956 19.1323 18.6675 18.4231C19.0198 18.074 19.2995 17.6586 19.4906 17.201C19.6817 16.7433 19.7803 16.2523 19.7809 15.7564V10.623H12.2008V15.7431M18.2675 12.1631V15.4231L18.2609 15.7631C18.2631 16.0609 18.2052 16.3561 18.0907 16.631C17.9761 16.906 17.8072 17.1549 17.5942 17.3631C17.1702 17.7885 16.5948 18.0283 15.9942 18.0297C15.3675 18.0297 14.8142 17.7631 14.4008 17.3497C13.9754 16.9258 13.7356 16.3503 13.7342 15.7497V12.1497L18.2675 12.1631Z" fill="#FF0000"/>
<path fill-rule="evenodd" clip-rule="evenodd" d="M12.1813 10.6055H19.7947V15.7555C19.7941 16.2536 19.695 16.7468 19.5031 17.2065C19.3112 17.6662 19.0302 18.0833 18.6764 18.434C17.9618 19.1463 16.9937 19.5461 15.9846 19.5455C14.9738 19.5418 14.0057 19.1372 13.2929 18.4206C12.9379 18.0705 12.6557 17.6536 12.4626 17.1939C12.2695 16.7342 12.1694 16.2408 12.168 15.7422L12.1846 15.7422H12.1813V10.6055ZM12.2013 15.7422C12.2027 16.2364 12.302 16.7254 12.4933 17.181C12.6847 17.6367 12.9644 18.05 13.3163 18.397L13.3165 18.3971C14.0231 19.1074 14.9827 19.5085 15.9847 19.5122C16.9849 19.5127 17.9445 19.1165 18.6529 18.4104C19.0036 18.0628 19.2821 17.6493 19.4724 17.1936C19.6626 16.738 19.7608 16.2492 19.7613 15.7555V10.6388H12.2146V15.7422H12.2013ZM13.7146 12.1321L18.2813 12.1455V15.4222L18.2813 15.4225L18.2747 15.762C18.2747 15.7621 18.2747 15.7622 18.2747 15.7622C18.2769 16.0622 18.2186 16.3596 18.1032 16.6365C17.9878 16.9135 17.8177 17.1643 17.603 17.374C17.176 17.8025 16.5963 18.044 15.9914 18.0455C15.3597 18.0455 14.8023 17.7767 14.3862 17.3606C13.9577 16.9336 13.7161 16.3539 13.7146 15.7489V12.1321ZM13.748 12.1655V15.7488C13.7494 16.345 13.9874 16.9162 14.4097 17.337C14.8203 17.7476 15.3696 18.0121 15.9913 18.0122C16.5875 18.0107 17.1587 17.7727 17.5795 17.3504L17.5797 17.3502C17.7911 17.1437 17.9587 16.8966 18.0724 16.6237C18.1861 16.3509 18.2436 16.0579 18.2413 15.7623L18.2413 15.7618L18.248 15.4222V12.1788L13.748 12.1655Z" fill="black"/>
<path d="M12.6797 11.9631C12.6864 11.5964 12.9464 11.5098 12.9464 11.5098C12.953 11.5098 13.233 11.6031 13.233 11.9698H12.6797" fill="#FFFF00"/>
<path d="M12.4504 11.5164L12.4038 11.9364H12.6838C12.6838 11.5898 12.9504 11.5364 12.9504 11.5364C12.9571 11.5364 13.2171 11.6098 13.2238 11.9364H13.5038L13.4504 11.5098H12.4504V11.5164ZM12.3838 11.9431H13.5171C13.5371 11.9431 13.5571 11.9631 13.5571 11.9898C13.5571 12.0231 13.5371 12.0431 13.5171 12.0431H12.3838C12.3638 12.0431 12.3438 12.0231 12.3438 11.9898C12.3438 11.9631 12.3637 11.9431 12.3904 11.9431H12.3838Z" fill="#FFFF00"/>
<path fill-rule="evenodd" clip-rule="evenodd" d="M12.4348 11.4941H13.4662L13.5203 11.9275C13.5502 11.9289 13.5748 11.9575 13.5748 11.9908C13.5748 12.0301 13.5503 12.0608 13.5181 12.0608H12.3848C12.3526 12.0608 12.3281 12.0301 12.3281 11.9908C12.3281 11.9572 12.3522 11.931 12.3848 11.9278V11.9275H12.3891L12.4348 11.5166V11.4941ZM12.4671 11.5275L12.4234 11.9208H12.6683C12.6725 11.7526 12.7392 11.6527 12.8073 11.5948C12.8422 11.5651 12.8772 11.5468 12.9034 11.5358C12.9118 11.5323 12.9193 11.5296 12.9257 11.5275H12.4671ZM12.9515 11.5375C12.9506 11.5331 12.9499 11.5298 12.9495 11.5275L12.9515 11.5375ZM12.9758 11.5275C12.9834 11.5302 12.9926 11.534 13.0031 11.539C13.0297 11.5515 13.0645 11.5717 13.0992 11.6025C13.1668 11.6625 13.2335 11.762 13.2409 11.9208H13.4859L13.4367 11.5275H12.9758ZM13.2078 11.9275C13.2021 11.7753 13.1392 11.6825 13.0771 11.6274C13.0451 11.5991 13.0132 11.5806 12.9889 11.5691C12.9768 11.5634 12.9667 11.5595 12.9595 11.557C12.9561 11.5559 12.9534 11.5551 12.9516 11.5546C12.9499 11.555 12.9476 11.5556 12.9447 11.5564C12.9379 11.5584 12.9281 11.5617 12.9162 11.5666C12.8924 11.5765 12.8607 11.5932 12.8289 11.6202C12.7672 11.6726 12.704 11.7653 12.7015 11.9275H13.2078ZM12.3915 11.9608C12.374 11.9608 12.3615 11.9733 12.3615 11.9908C12.3615 12.0182 12.377 12.0275 12.3848 12.0275H13.5181C13.526 12.0275 13.5415 12.0182 13.5415 11.9908C13.5415 11.9717 13.5273 11.9608 13.5181 11.9608H12.3915Z" fill="black"/>
<path d="M12.7978 11.9376C12.7978 11.7176 12.9511 11.6576 12.9511 11.6576C12.9511 11.6576 13.1044 11.7242 13.1044 11.9376H12.7978ZM12.4111 11.3376H13.4978C13.5178 11.3376 13.5378 11.3642 13.5378 11.3909C13.5378 11.4109 13.5178 11.4309 13.4978 11.4309H12.4111C12.3911 11.4309 12.3711 11.4109 12.3711 11.3842C12.3711 11.3642 12.3911 11.3442 12.4111 11.3442V11.3376ZM12.8244 12.0376H13.4644C13.4844 12.0376 13.5044 12.0576 13.5044 12.0842C13.5044 12.1109 13.4844 12.1309 13.4644 12.1309H12.4311C12.4044 12.1309 12.3911 12.1109 12.3911 12.0842C12.3911 12.0576 12.4044 12.0376 12.4311 12.0376H12.8244ZM13.1578 11.3309H13.2378V11.3842H13.2978V11.3309H13.3844V11.3909H13.4444V11.3242H13.5244V11.4576C13.5244 11.4842 13.5111 11.4976 13.4911 11.4976H13.1978C13.1778 11.4976 13.1578 11.4842 13.1578 11.4642V11.3309ZM13.4644 11.5109L13.4844 11.9376H13.1978L13.2178 11.5042H13.4644" fill="#FFFF00"/>
<path fill-rule="evenodd" clip-rule="evenodd" d="M13.4288 11.3066H13.5421V11.3468C13.5502 11.359 13.5555 11.3743 13.5555 11.39C13.5555 11.4032 13.5499 11.4154 13.5421 11.4248V11.4566C13.5421 11.4726 13.5382 11.487 13.5288 11.4976C13.5193 11.5085 13.506 11.5133 13.4921 11.5133H13.4823L13.5029 11.9533H13.1814L13.2017 11.5133H13.1988C13.1853 11.5133 13.1717 11.5089 13.1611 11.5006C13.1503 11.4923 13.1421 11.4794 13.1421 11.4633V11.4466H12.4121C12.3813 11.4466 12.3555 11.4175 12.3555 11.3833C12.3555 11.3679 12.363 11.3539 12.3729 11.344C12.379 11.3379 12.3868 11.3326 12.3955 11.3296V11.32H13.1421V11.3133H13.2555V11.32H13.2821V11.3133H13.4021V11.32H13.4288V11.3066ZM13.4288 11.3533H13.4021V11.3733H13.4288V11.3533ZM13.3688 11.3533V11.4066H13.4621V11.3533H13.4988C13.5008 11.3533 13.5046 11.3546 13.5088 11.3586V11.4102C13.5053 11.4123 13.5018 11.4133 13.4988 11.4133H13.1755V11.3533H13.2221V11.4H13.3155V11.3533H13.3688ZM13.2821 11.3533H13.2555V11.3666H13.2821V11.3533ZM13.1421 11.3533H12.4288V11.36H12.4121C12.4076 11.36 12.4016 11.3624 12.3964 11.3676C12.3913 11.3728 12.3888 11.3787 12.3888 11.3833C12.3888 11.4025 12.4029 11.4133 12.4121 11.4133H13.1421V11.3533ZM13.1755 11.4466V11.4633C13.1755 11.4672 13.1773 11.471 13.1815 11.4743C13.186 11.4778 13.1923 11.48 13.1988 11.48H13.4921C13.4983 11.48 13.5017 11.4781 13.5038 11.4757C13.5061 11.473 13.5088 11.4674 13.5088 11.4566V11.4456C13.5056 11.4463 13.5022 11.4466 13.4988 11.4466H13.1755ZM13.2347 11.52L13.2163 11.92H13.468L13.4493 11.52H13.2347ZM12.9588 11.6414L12.9521 11.6566L12.9461 11.6411L12.9525 11.6386L12.9588 11.6414ZM12.9518 11.6751C12.9482 11.677 12.9431 11.6798 12.9371 11.6836C12.9237 11.6919 12.9058 11.7054 12.8878 11.7253C12.8541 11.7628 12.8194 11.8239 12.8158 11.92H13.0885C13.0848 11.8271 13.0502 11.766 13.0163 11.7277C12.9983 11.7073 12.9803 11.6932 12.9669 11.6843C12.9607 11.6802 12.9555 11.6772 12.9518 11.6751ZM12.9461 11.6411C12.9461 11.6411 12.9461 11.6411 12.9521 11.6566C12.9588 11.6414 12.9588 11.6414 12.9588 11.6414L12.9589 11.6414L12.959 11.6415L12.9595 11.6417C12.9599 11.6419 12.9604 11.6421 12.9611 11.6424C12.9624 11.6431 12.9643 11.644 12.9666 11.6452C12.9712 11.6477 12.9777 11.6514 12.9853 11.6565C13.0007 11.6668 13.021 11.6827 13.0413 11.7056C13.0821 11.7517 13.1221 11.8255 13.1221 11.9366V11.9533H12.7821V11.9366C12.7821 11.8223 12.8221 11.7484 12.8631 11.703C12.8835 11.6804 12.9039 11.6651 12.9193 11.6554C12.927 11.6505 12.9335 11.647 12.9382 11.6447C12.9405 11.6436 12.9424 11.6427 12.9437 11.6421C12.9444 11.6418 12.9449 11.6416 12.9453 11.6414L12.9458 11.6412L12.946 11.6412L12.9461 11.6411ZM12.4151 12.0604C12.4115 12.0649 12.4088 12.0725 12.4088 12.0833C12.4088 12.0941 12.4115 12.1017 12.4151 12.1062C12.4184 12.1103 12.4234 12.1133 12.4321 12.1133H13.4655C13.4747 12.1133 13.4888 12.1025 13.4888 12.0833C13.4888 12.0642 13.4747 12.0533 13.4655 12.0533H12.4321C12.4234 12.0533 12.4184 12.0564 12.4151 12.0604ZM12.3891 12.0396C12.3992 12.0269 12.4142 12.02 12.4321 12.02H13.4655C13.4963 12.02 13.5221 12.0491 13.5221 12.0833C13.5221 12.1175 13.4963 12.1466 13.4655 12.1466H12.4321C12.4142 12.1466 12.3992 12.1397 12.3891 12.1271C12.3794 12.1149 12.3755 12.0992 12.3755 12.0833C12.3755 12.0674 12.3794 12.0517 12.3891 12.0396Z" fill="black"/>
<path d="M12.7315 11.1094V11.336H12.4648V11.1094H12.7315Z" fill="#FFFF00"/>
<path fill-rule="evenodd" clip-rule="evenodd" d="M12.4492 11.0938H12.7492V11.3538H12.4492V11.0938ZM12.4826 11.1271V11.3204H12.7159V11.1271H12.4826Z" fill="black"/>
<path d="M12.418 10.9375H12.498V11.0042H12.558V10.9375H12.638V11.0042H12.698V10.9375H12.778V11.0708C12.778 11.0975 12.7646 11.1108 12.7446 11.1108H12.458C12.4474 11.1108 12.4372 11.1066 12.4297 11.0991C12.4222 11.0916 12.418 11.0814 12.418 11.0708V10.9375V10.9375Z" fill="#FFFF00"/>
<path fill-rule="evenodd" clip-rule="evenodd" d="M12.4357 10.9533V11.0699C12.4357 11.0761 12.4381 11.082 12.4425 11.0864C12.4469 11.0908 12.4528 11.0933 12.459 11.0933H12.7457C12.7518 11.0933 12.7552 11.0914 12.7573 11.0889C12.7597 11.0863 12.7623 11.0807 12.7623 11.0699V10.9533H12.7157V11.0199H12.6223V10.9533H12.5757V11.0199H12.4823V10.9533H12.4357ZM12.419 10.9366V10.9199H12.5157V10.9866H12.5423V10.9199H12.6557V10.9866H12.6823V10.9199H12.7957V11.0699C12.7957 11.0859 12.7917 11.1003 12.7824 11.1109C12.7728 11.1218 12.7596 11.1266 12.7457 11.1266H12.459C12.444 11.1266 12.4296 11.1206 12.4189 11.11C12.4083 11.0994 12.4023 11.085 12.4023 11.0699V10.9366H12.419Z" fill="black"/>
<path d="M12.9258 11.0437C12.9258 11.0037 12.9858 11.0037 12.9858 11.0437V11.1503H12.9258V11.0437Z" fill="black"/>
<path d="M12.5703 11.1902C12.5703 11.1502 12.6236 11.1502 12.6236 11.1902V11.2702H12.5703V11.1902Z" fill="black"/>
<path d="M15.5039 15.1634C15.5027 15.3041 15.5552 15.44 15.6506 15.5434C15.6951 15.5931 15.7495 15.6331 15.8104 15.6606C15.8712 15.6882 15.9371 15.7027 16.0039 15.7034C16.1439 15.7034 16.2706 15.6367 16.3573 15.5434C16.4527 15.44 16.5051 15.3041 16.5039 15.1634V14.4434H15.5039V15.1634Z" fill="#003399"/>
<path d="M15.7367 14.8172C15.7919 14.8172 15.8367 14.7724 15.8367 14.7172C15.8367 14.662 15.7919 14.6172 15.7367 14.6172C15.6815 14.6172 15.6367 14.662 15.6367 14.7172C15.6367 14.7724 15.6815 14.8172 15.7367 14.8172Z" fill="white"/>
<path d="M16.2914 14.8172C16.3466 14.8172 16.3914 14.7724 16.3914 14.7172C16.3914 14.662 16.3466 14.6172 16.2914 14.6172C16.2362 14.6172 16.1914 14.662 16.1914 14.7172C16.1914 14.7724 16.2362 14.8172 16.2914 14.8172Z" fill="white"/>
<path d="M16.0102 15.0828C16.0654 15.0828 16.1102 15.038 16.1102 14.9828C16.1102 14.9276 16.0654 14.8828 16.0102 14.8828C15.9549 14.8828 15.9102 14.9276 15.9102 14.9828C15.9102 15.038 15.9549 15.0828 16.0102 15.0828Z" fill="white"/>
<path d="M15.7367 15.3641C15.7919 15.3641 15.8367 15.3193 15.8367 15.2641C15.8367 15.2088 15.7919 15.1641 15.7367 15.1641C15.6815 15.1641 15.6367 15.2088 15.6367 15.2641C15.6367 15.3193 15.6815 15.3641 15.7367 15.3641Z" fill="white"/>
<path d="M16.2914 15.3641C16.3466 15.3641 16.3914 15.3193 16.3914 15.2641C16.3914 15.2088 16.3466 15.1641 16.2914 15.1641C16.2362 15.1641 16.1914 15.2088 16.1914 15.2641C16.1914 15.3193 16.2362 15.3641 16.2914 15.3641Z" fill="white"/>
</g>
<rect x="0.5" y="0.5" width="39" height="29" rx="4.5" stroke="#DADBDF"/>
<defs>
<clipPath id="clip0_3775_20337">
<rect width="40" height="30" rx="5" fill="white"/>
</clipPath>
</defs>
</svg>
