<svg width="60" height="45" viewBox="0 0 60 45" fill="none" xmlns="http://www.w3.org/2000/svg">
<path fill-rule="evenodd" clip-rule="evenodd" d="M0 0H60V45H0V0Z" fill="#E30A17"/>
<path fill-rule="evenodd" clip-rule="evenodd" d="M38.1562 23.2035C38.1562 29.4098 33.0375 34.4441 26.7188 34.4441C20.4 34.4441 15.2812 29.4098 15.2812 23.1941C15.2812 16.9785 20.4 11.9629 26.7188 11.9629C33.0375 11.9629 38.1562 16.9973 38.1562 23.2035Z" fill="white"/>
<path fill-rule="evenodd" clip-rule="evenodd" d="M38.7184 23.2035C38.7184 28.1723 34.6309 32.1941 29.5777 32.1941C24.5246 32.1941 20.4277 28.1629 20.4277 23.1941C20.4277 18.2254 24.5246 14.2129 29.5777 14.2129C34.6309 14.2129 38.7277 18.2348 38.7277 23.2035H38.7184Z" fill="#E30A17"/>
<path fill-rule="evenodd" clip-rule="evenodd" d="M40.3777 17.9527L40.284 22.1059L36.4121 23.1559L40.2371 24.5152L40.1434 28.3309L42.6277 25.3496L46.3965 26.6621L44.2215 23.4652L46.8746 20.2871L42.7965 21.4121L40.3777 17.9434V17.9527Z" fill="white"/>
</svg>
