<svg width="40" height="30" viewBox="0 0 40 30" fill="none" xmlns="http://www.w3.org/2000/svg">
<g clip-path="url(#clip0_3775_18199)">
<path fill-rule="evenodd" clip-rule="evenodd" d="M0 0H40V30H0V0Z" fill="#E30A17"/>
<path fill-rule="evenodd" clip-rule="evenodd" d="M25.4375 15.4684C25.4375 19.6059 22.025 22.9621 17.8125 22.9621C13.6 22.9621 10.1875 19.6059 10.1875 15.4621C10.1875 11.3184 13.6 7.97461 17.8125 7.97461C22.025 7.97461 25.4375 11.3309 25.4375 15.4684Z" fill="white"/>
<path fill-rule="evenodd" clip-rule="evenodd" d="M25.8109 15.4684C25.8109 18.7809 23.0859 21.4621 19.7172 21.4621C16.3484 21.4621 13.6172 18.7746 13.6172 15.4621C13.6172 12.1496 16.3484 9.47461 19.7172 9.47461C23.0859 9.47461 25.8172 12.1559 25.8172 15.4684H25.8109Z" fill="#E30A17"/>
<path fill-rule="evenodd" clip-rule="evenodd" d="M26.9172 11.9691L26.8547 14.7379L24.2734 15.4379L26.8234 16.3441L26.7609 18.8879L28.4172 16.9004L30.9297 17.7754L29.4797 15.6441L31.2484 13.5254L28.5297 14.2754L26.9172 11.9629V11.9691Z" fill="white"/>
</g>
<path d="M8 0.5H32C36.1421 0.5 39.5 3.85787 39.5 8V22C39.5 26.1421 36.1421 29.5 32 29.5H8C3.85787 29.5 0.5 26.1421 0.5 22V8C0.5 3.85786 3.85786 0.5 8 0.5Z" stroke="#EAEBEF"/>
<defs>
<clipPath id="clip0_3775_18199">
<path d="M0 8C0 3.58172 3.58172 0 8 0H32C36.4183 0 40 3.58172 40 8V22C40 26.4183 36.4183 30 32 30H8C3.58172 30 0 26.4183 0 22V8Z" fill="white"/>
</clipPath>
</defs>
</svg>
