<svg width="32" height="32" viewBox="0 0 32 32" fill="none" xmlns="http://www.w3.org/2000/svg">
<mask id="mask0_3053_157610" style="mask-type:alpha" maskUnits="userSpaceOnUse" x="0" y="0" width="32" height="32">
<circle cx="16" cy="16" r="16" fill="#D9D9D9"/>
</mask>
<g mask="url(#mask0_3053_157610)">
<path fill-rule="evenodd" clip-rule="evenodd" d="M-8 0H52.8V2.46667H-8V0ZM-8 4.92667H52.8V7.39333H-8V4.92667ZM-8 9.84667H52.8V12.3133H-8V9.84667ZM-8 14.7667H52.8V17.2333H-8V14.7667ZM-8 19.7H52.8V22.1533H-8V19.7ZM-8 24.6133H52.8V27.08H-8V24.6133ZM-8 29.5333H52.8V32H-8V29.5333Z" fill="#BD3D44"/>
<path fill-rule="evenodd" clip-rule="evenodd" d="M-8 2.46484H52.8V4.92484H-8V2.46484ZM-8 7.38484H52.8V9.84484H-8V7.38484ZM-8 12.3048H52.8V14.7715H-8V12.3048ZM-8 17.2315H52.8V19.6982H-8V17.2315ZM-8 22.1515H52.8V24.6182H-8V22.1515ZM-8 27.0715H52.8V29.5382H-8V27.0715Z" fill="white"/>
<path fill-rule="evenodd" clip-rule="evenodd" d="M-8 0H16.32V17.2333H-8V0Z" fill="#192F5D"/>
<path fill-rule="evenodd" clip-rule="evenodd" d="M-5.97016 0.734375L-5.74349 1.42104H-5.03682L-5.61016 1.84104L-5.39016 2.52771L-5.97016 2.10104L-6.54349 2.52104L-6.33016 1.84104L-6.91016 1.42104H-6.18349L-5.97016 0.734375ZM-1.91682 0.734375L-1.69682 1.42104H-0.976822L-1.55682 1.84104L-1.34349 2.52771L-1.91682 2.10104L-2.49682 2.52104L-2.27682 1.84104L-2.85016 1.42104H-2.14349L-1.91682 0.734375ZM2.13651 0.734375L2.35651 1.42104H3.06984L2.49651 1.84104L2.71651 2.52771L2.13651 2.10104L1.55651 2.52104L1.77651 1.84104L1.19651 1.42104H1.91651L2.13651 0.734375ZM6.18984 0.734375L6.40984 1.42104H7.12984L6.54984 1.84104L6.76984 2.52771L6.18984 2.10104L5.60984 2.52104L5.83651 1.84104L5.24984 1.42104H5.96318L6.18984 0.734375ZM10.2432 0.734375L10.4632 1.42104H11.1765L10.6032 1.84104L10.8232 2.52771L10.2432 2.10104L9.66318 2.52104L9.88318 1.84104L9.30984 1.42104H10.0232L10.2432 0.734375ZM14.2965 0.734375L14.5165 1.42104H15.2365L14.6498 1.84104L14.8765 2.52771L14.2965 2.10104L13.7165 2.52104L13.9432 1.84104L13.3565 1.42104H14.0765L14.2965 0.734375ZM-3.94349 2.46771L-3.72349 3.14771H-2.99682L-3.57682 3.56104L-3.36349 4.24771L-3.93016 3.82771L-4.51016 4.24771L-4.30349 3.56104L-4.86349 3.14771H-4.15016L-3.94349 2.46771ZM0.109844 2.46771L0.336511 3.14771H1.04984L0.463178 3.56104L0.689844 4.24771L0.109844 3.82771L-0.470156 4.24771L-0.250156 3.56104L-0.830156 3.14771H-0.110156L0.109844 2.46771ZM4.16318 2.46771L4.38318 3.14771H5.10318L4.52318 3.56104L4.74318 4.24771L4.16318 3.82771L3.58318 4.24771L3.80318 3.56104L3.22984 3.14771H3.93651L4.16318 2.46771ZM8.21651 2.46771L8.44318 3.14771H9.15651L8.56984 3.56104L8.79651 4.24771L8.21651 3.82771L7.64318 4.24771L7.85651 3.56104L7.27651 3.14771H8.00318L8.21651 2.46771ZM12.2698 2.46771L12.4898 3.14771H13.2098L12.6298 3.56104L12.8498 4.24771L12.2698 3.82771L11.6898 4.24771L11.9098 3.56104L11.3365 3.14771H12.0498L12.2698 2.46771ZM-5.97016 4.17438L-5.74349 4.86771H-5.03682L-5.61016 5.28771L-5.39016 5.96771L-5.97016 5.54771L-6.54349 5.96771L-6.33016 5.28771L-6.91016 4.86771H-6.18349L-5.97016 4.17438ZM-1.91682 4.17438L-1.69682 4.86771H-0.976822L-1.55682 5.28771L-1.34349 5.96771L-1.91682 5.54771L-2.49682 5.96771L-2.27682 5.28104L-2.85016 4.86104H-2.14349L-1.91682 4.17438ZM2.13651 4.17438L2.35651 4.86104H3.06984L2.49651 5.28104L2.71651 5.96104L2.13651 5.54104L1.55651 5.96104L1.77651 5.27437L1.19651 4.85438H1.91651L2.13651 4.17438ZM6.18984 4.17438L6.40984 4.86104H7.12984L6.54984 5.28104L6.76984 5.96104L6.18984 5.54104L5.60984 5.96104L5.83651 5.27437L5.24984 4.85438H5.96318L6.18984 4.17438ZM10.2432 4.17438L10.4632 4.86104H11.1765L10.6032 5.28104L10.8232 5.96104L10.2432 5.54104L9.66318 5.96104L9.88318 5.27437L9.30984 4.85438H10.0232L10.2432 4.17438ZM14.2965 4.17438L14.5165 4.86104H15.2365L14.6498 5.28104L14.8765 5.96104L14.2965 5.54104L13.7165 5.96104L13.9432 5.27437L13.3565 4.85438H14.0765L14.2965 4.17438ZM-3.94349 5.90771L-3.72349 6.58771H-2.99682L-3.57682 7.00771L-3.35682 7.69438L-3.93682 7.26771L-4.51682 7.68771L-4.29682 7.00771L-4.87016 6.58771H-4.15682L-3.94349 5.90771ZM0.109844 5.90771L0.336511 6.58771H1.04984L0.463178 7.00771L0.689844 7.69438L0.109844 7.26771L-0.470156 7.68771L-0.250156 7.00771L-0.830156 6.58771H-0.110156L0.109844 5.90771ZM4.16318 5.90771L4.38318 6.58771H5.10318L4.52318 7.00771L4.74318 7.69438L4.16318 7.26771L3.58318 7.68771L3.80318 7.00771L3.22984 6.58771H3.93651L4.16318 5.90771ZM8.21651 5.90771L8.44318 6.58771H9.15651L8.57651 7.00771L8.79651 7.69438L8.21651 7.26771L7.64318 7.68771L7.85651 7.00771L7.27651 6.58771H8.00318L8.21651 5.90771ZM12.2698 5.90771L12.4898 6.58771H13.2098L12.6298 7.00771L12.8498 7.69438L12.2698 7.26771L11.6898 7.68771L11.9098 7.00771L11.3365 6.58771H12.0498L12.2698 5.90771ZM-5.97016 7.63438L-5.74349 8.31438H-5.03682L-5.61016 8.73438L-5.39016 9.42104L-5.97016 8.99438L-6.54349 9.41438L-6.33016 8.73438L-6.91016 8.31438H-6.18349L-5.97016 7.63438ZM-1.91682 7.63438L-1.69682 8.31438H-0.976822L-1.55682 8.73438L-1.34349 9.41438L-1.91682 8.99438L-2.49682 9.41438L-2.27682 8.73438L-2.85016 8.31438H-2.14349L-1.91682 7.63438ZM2.13651 7.63438L2.35651 8.31438H3.06984L2.49651 8.73438L2.71651 9.42104L2.13651 8.99438L1.55651 9.41438L1.77651 8.73438L1.19651 8.31438H1.91651L2.13651 7.63438ZM6.18984 7.63438L6.40984 8.31438H7.12984L6.54984 8.73438L6.76984 9.42104L6.18984 8.99438L5.60984 9.41438L5.83651 8.73438L5.24984 8.31438H5.96318L6.18984 7.63438ZM10.2432 7.63438L10.4632 8.31438H11.1765L10.6032 8.73438L10.8232 9.42104L10.2432 8.99438L9.66318 9.41438L9.88318 8.73438L9.30984 8.31438H10.0232L10.2432 7.63438ZM14.2965 7.63438L14.5165 8.31438H15.2365L14.6498 8.73438L14.8765 9.42104L14.2965 8.99438L13.7165 9.41438L13.9365 8.73438L13.3498 8.31438H14.0698L14.2965 7.63438ZM-3.94349 9.35438L-3.72349 10.041H-2.99682L-3.57682 10.4544L-3.35682 11.141L-3.93682 10.7144L-4.51682 11.141L-4.29682 10.4544L-4.87016 10.0344H-4.15682L-3.94349 9.35438ZM0.109844 9.35438L0.336511 10.041H1.04984L0.463178 10.4544L0.689844 11.141L0.109844 10.7144L-0.470156 11.141L-0.250156 10.4544L-0.830156 10.0344H-0.110156L0.109844 9.35438ZM4.16318 9.35438L4.38318 10.041H5.10318L4.52318 10.4544L4.74318 11.141L4.16318 10.7144L3.58318 11.141L3.80318 10.4544L3.22984 10.0344H3.93651L4.16318 9.35438ZM8.21651 9.35438L8.44318 10.041H9.15651L8.57651 10.4544L8.79651 11.141L8.21651 10.7144L7.64318 11.141L7.85651 10.4544L7.27651 10.0344H8.00318L8.21651 9.35438ZM12.2698 9.35438L12.4898 10.041H13.2098L12.6298 10.4544L12.8498 11.141L12.2698 10.7144L11.6898 11.141L11.9098 10.4544L11.3365 10.0344H12.0498L12.2698 9.35438ZM-5.97016 11.0744L-5.74349 11.761H-5.03682L-5.61016 12.181L-5.39016 12.8544L-5.97016 12.441L-6.54349 12.8544L-6.33016 12.1744L-6.91016 11.7544H-6.18349L-5.97016 11.0744ZM-1.91682 11.0744L-1.69682 11.761H-0.976822L-1.55682 12.181L-1.33682 12.8544L-1.91682 12.441L-2.49682 12.8544L-2.27016 12.1744L-2.85016 11.7544H-2.14349L-1.91682 11.0744ZM2.13651 11.0744L2.35651 11.761H3.06984L2.49651 12.181L2.71651 12.8544L2.13651 12.441L1.55651 12.8544L1.77651 12.1744L1.19651 11.7544H1.91651L2.13651 11.0744ZM6.18984 11.0744L6.40984 11.761H7.12984L6.54984 12.181L6.76984 12.8544L6.18984 12.441L5.60984 12.8544L5.83651 12.1744L5.24984 11.7544H5.96318L6.18984 11.0744ZM10.2432 11.0744L10.4632 11.761H11.1765L10.6032 12.181L10.8232 12.8544L10.2432 12.441L9.66318 12.8544L9.88318 12.1744L9.30984 11.7544H10.0232L10.2432 11.0744ZM14.2965 11.0744L14.5165 11.761H15.2365L14.6498 12.181L14.8765 12.8544L14.2965 12.441L13.7165 12.8544L13.9432 12.1744L13.3565 11.7544H14.0765L14.2965 11.0744ZM-3.94349 12.801L-3.72349 13.481H-2.99682L-3.57682 13.901L-3.35682 14.5877L-3.93682 14.161L-4.51682 14.581L-4.29682 13.901L-4.87016 13.481H-4.15682L-3.94349 12.801ZM0.109844 12.801L0.336511 13.481H1.04984L0.463178 13.901L0.689844 14.5877L0.109844 14.161L-0.470156 14.581L-0.250156 13.901L-0.830156 13.481H-0.110156L0.109844 12.801ZM4.16318 12.801L4.38318 13.481H5.10318L4.52318 13.901L4.74318 14.5877L4.16318 14.161L3.58318 14.581L3.80318 13.901L3.22984 13.481H3.93651L4.16318 12.801ZM8.21651 12.801L8.44318 13.481H9.15651L8.57651 13.901L8.79651 14.5877L8.21651 14.161L7.64318 14.581L7.85651 13.901L7.27651 13.481H8.00318L8.21651 12.801ZM12.2698 12.801L12.4898 13.481H13.2098L12.6298 13.901L12.8498 14.5877L12.2698 14.161L11.6898 14.581L11.9098 13.901L11.3365 13.481H12.0498L12.2698 12.801ZM-5.97016 14.5277L-5.74349 15.2077H-5.03682L-5.61016 15.6277L-5.39016 16.3077L-5.97016 15.8877L-6.54349 16.3077L-6.33016 15.621L-6.91016 15.201H-6.18349L-5.97016 14.5277ZM-1.91682 14.5277L-1.69682 15.2077H-0.976822L-1.55682 15.6277L-1.33682 16.3077L-1.91682 15.8877L-2.49682 16.3077L-2.27016 15.621L-2.85016 15.201H-2.14349L-1.91682 14.5277ZM2.13651 14.5277L2.35651 15.2077H3.06984L2.50984 15.6277L2.72984 16.3077L2.14984 15.8877L1.56984 16.3077L1.78984 15.621L1.20984 15.201H1.92984L2.13651 14.5277ZM6.18984 14.5277L6.40984 15.2077H7.12984L6.54984 15.6277L6.76984 16.3077L6.18984 15.8877L5.60984 16.3077L5.83651 15.621L5.24984 15.201H5.96318L6.18984 14.5277ZM10.2432 14.5277L10.4632 15.2077H11.1765L10.6032 15.6277L10.8232 16.3077L10.2432 15.8877L9.66318 16.3077L9.88318 15.621L9.30984 15.201H10.0232L10.2432 14.5277ZM14.2965 14.5277L14.5165 15.2077H15.2365L14.6498 15.6277L14.8765 16.3077L14.2965 15.8877L13.7165 16.3077L13.9432 15.621L13.3565 15.201H14.0765L14.2965 14.5277Z" fill="white"/>
</g>
</svg>
