<svg width="544" height="600" viewBox="0 0 544 600" fill="none" xmlns="http://www.w3.org/2000/svg">
<mask id="mask0_2703_311150" style="mask-type:alpha" maskUnits="userSpaceOnUse" x="0" y="0" width="544" height="600">
<rect width="544" height="600" rx="10" fill="#E0E0E0"/>
</mask>
<g mask="url(#mask0_2703_311150)">
<path fill-rule="evenodd" clip-rule="evenodd" d="M-29.5122 601.078H573.565V-1.99927H-29.5122V601.078Z" fill="#FED7C1"/>
<path fill-rule="evenodd" clip-rule="evenodd" d="M297.572 238.82H299.518V237.014H297.572V238.82Z" fill="white"/>
<path fill-rule="evenodd" clip-rule="evenodd" d="M19.6762 423.298H17.7256V425.109H19.6762V423.298Z" fill="white"/>
<path fill-rule="evenodd" clip-rule="evenodd" d="M16.7479 423.297C16.477 423.043 15.2779 423.737 15.775 424.201C16.0459 424.45 17.2543 423.762 16.7479 423.297Z" fill="white"/>
<path d="M263.21 399.88C263.21 407.859 269.677 414.327 277.654 414.327L397.82 414.332C405.796 414.332 412.263 407.861 412.263 399.885L412.266 354.662C412.266 346.686 405.798 340.22 397.822 340.22L277.655 340.215C269.678 340.215 263.212 346.681 263.212 354.66L263.21 399.88Z" fill="white"/>
<path d="M355.402 352.025C352.829 352.028 350.735 354.121 350.735 356.697V380.426C350.734 381.672 351.219 382.844 352.101 383.726C352.982 384.608 354.153 385.093 355.402 385.093L396.561 385.095C399.135 385.095 401.23 383.002 401.23 380.429V356.699C401.23 354.124 399.135 352.028 396.562 352.028L355.402 352.025ZM396.561 388.375L355.402 388.373C353.279 388.373 351.284 387.545 349.782 386.045C348.281 384.544 347.456 382.547 347.456 380.426L347.457 356.697C347.457 352.315 351.021 348.748 355.402 348.748L396.562 348.75C400.943 348.75 404.509 352.317 404.509 356.699L404.508 380.429C404.508 384.808 400.943 388.375 396.561 388.375Z" fill="white"/>
<path d="M375.477 372.43C375.121 372.43 374.766 372.314 374.469 372.084L350.281 353.213C349.568 352.655 349.439 351.626 349.996 350.912C350.554 350.198 351.583 350.071 352.297 350.627L375.459 368.695L398.638 349.939C399.34 349.369 400.373 349.478 400.943 350.182C401.513 350.887 401.403 351.918 400.7 352.488L376.508 372.064C376.208 372.307 375.843 372.43 375.477 372.43Z" fill="white"/>
<path d="M342.152 362.637H273.456C272.55 362.637 271.815 361.901 271.815 360.996C271.815 360.092 272.551 359.357 273.456 359.357L342.152 359.36C343.058 359.36 343.792 360.092 343.792 360.996C343.792 361.903 343.058 362.637 342.152 362.637Z" fill="white"/>
<path d="M342.152 376.059L306.519 376.056C305.614 376.056 304.881 375.32 304.881 374.416C304.881 373.511 305.614 372.777 306.519 372.777L342.152 372.779C343.058 372.779 343.793 373.514 343.793 374.418C343.793 375.323 343.058 376.059 342.152 376.059Z" fill="white"/>
<path fill-rule="evenodd" clip-rule="evenodd" d="M273.667 77.729C273.667 67.4056 282.407 59.0409 293.186 59.0409H481.964C492.743 59.0409 501.482 67.4056 501.482 77.729V93.4609H273.667V77.729Z" fill="#216CFB"/>
<path fill-rule="evenodd" clip-rule="evenodd" d="M501.482 93.4659V215.631C501.482 225.954 492.743 234.324 481.964 234.324H293.186C282.407 234.324 273.667 225.954 273.667 215.631V93.4659H501.482Z" fill="#F7C4B9"/>
<path d="M479.292 76.7652C479.292 79.9519 481.877 82.5391 485.066 82.5391C488.256 82.5391 490.841 79.9519 490.841 76.7652C490.841 73.5774 488.256 70.9901 485.066 70.9901C481.877 70.9901 479.292 73.5774 479.292 76.7652Z" fill="white"/>
<path d="M461.174 76.7652C461.174 79.9519 463.759 82.5391 466.949 82.5391C470.14 82.5391 472.723 79.9519 472.723 76.7652C472.723 73.5774 470.14 70.9901 466.949 70.9901C463.759 70.9901 461.174 73.5774 461.174 76.7652Z" fill="white"/>
<path d="M443.057 76.7652C443.057 79.9519 445.641 82.5391 448.832 82.5391C452.021 82.5391 454.606 79.9519 454.606 76.7652C454.606 73.5774 452.021 70.9901 448.832 70.9901C445.641 70.9901 443.057 73.5774 443.057 76.7652Z" fill="white"/>
<path d="M490.34 130.99C490.34 116.01 478.194 103.866 463.214 103.866C448.233 103.866 436.09 116.01 436.09 130.99C436.09 145.97 448.233 158.117 463.214 158.117C478.194 158.117 490.34 145.97 490.34 130.99Z" fill="white"/>
<mask id="mask1_2703_311150" style="mask-type:luminance" maskUnits="userSpaceOnUse" x="436" y="103" width="55" height="56">
<path d="M490.341 130.993C490.341 116.014 478.195 103.869 463.214 103.869C448.234 103.869 436.09 116.014 436.09 130.993C436.09 145.974 448.234 158.121 463.214 158.121C478.195 158.121 490.341 145.974 490.341 130.993Z" fill="white"/>
</mask>
<g mask="url(#mask1_2703_311150)">
<path fill-rule="evenodd" clip-rule="evenodd" d="M487.372 159.215C469.305 159.062 457.086 159.047 439.066 159.215C438.937 152.39 440.278 148.339 445.356 146.13C449.064 144.521 454.273 144.72 455.419 141.603C457.045 137.182 453.344 132.946 452.149 129.024C449.56 120.536 454.056 110.618 462.212 109.901C470.745 109.155 476.456 118.9 474.289 127.766C473.171 132.336 469.466 136.602 470.766 141.098C471.533 143.747 474.691 144.477 477.811 145.377C484.556 147.321 487.328 149.909 487.372 159.215Z" fill="#817CC6"/>
</g>
<path fill-rule="evenodd" clip-rule="evenodd" d="M325.297 149.97V293.432C325.297 305.556 315.043 315.379 302.38 315.379H80.6977C68.0369 315.379 57.7799 305.556 57.7799 293.432V149.97H325.297Z" fill="white"/>
<path fill-rule="evenodd" clip-rule="evenodd" d="M57.776 131.5C57.776 119.376 68.0369 109.551 80.6976 109.551H302.38C315.045 109.551 325.297 119.376 325.297 131.5V149.973H57.776V131.5Z" fill="#216CFB"/>
<path d="M99.001 129.093C99.001 133.934 102.922 137.871 107.77 137.871C112.62 137.871 116.546 133.934 116.546 129.093C116.546 124.252 112.62 120.316 107.77 120.316C102.922 120.316 99.001 124.252 99.001 129.093Z" fill="#FCFEFF"/>
<path d="M86.3363 137.805H76.2994L81.3196 129.112L86.3363 120.419L91.3527 129.112L96.3703 137.805H86.3363Z" fill="#FCFEFF"/>
<path d="M302.412 297.352H205.637C201.467 297.352 198.088 293.972 198.088 289.802V171.562C198.088 167.391 201.467 164.011 205.637 164.011H302.412C306.583 164.011 309.962 167.391 309.962 171.562V289.802C309.962 293.972 306.583 297.352 302.412 297.352Z" fill="#F7C4B9"/>
<path d="M178.414 297.352H81.6377C77.468 297.352 74.0875 293.972 74.0875 289.802V171.562C74.0875 167.391 77.468 164.011 81.6377 164.011H178.414C182.583 164.011 185.964 167.391 185.964 171.562V289.802C185.964 293.972 182.583 297.352 178.414 297.352Z" fill="#F7C4B9"/>
<path d="M141.023 254.599C141.023 238.785 128.202 225.965 112.388 225.965C96.5718 225.965 83.7532 238.785 83.7532 254.599C83.7532 270.413 96.5718 283.234 112.388 283.234C128.202 283.234 141.023 270.413 141.023 254.599Z" fill="white"/>
<path d="M81.2505 248.587C84.0618 233.948 96.9289 222.887 112.388 222.887C115.089 222.887 117.711 223.226 120.214 223.863L112.388 257.062L81.2505 248.587Z" fill="#216CFB"/>
<path d="M87.3471 217.418H175.7C176.709 217.418 177.527 216.603 177.527 215.594C177.527 214.586 176.709 213.768 175.7 213.768H87.3471C86.3389 213.768 85.5215 214.586 85.5215 215.594C85.5215 216.603 86.3389 217.418 87.3471 217.418Z" fill="white"/>
<path d="M87.3471 197.59H175.7C176.709 197.59 177.527 196.773 177.527 195.765C177.527 194.757 176.709 193.939 175.7 193.939H87.3471C86.3389 193.939 85.5215 194.757 85.5215 195.765C85.5215 196.773 86.3389 197.59 87.3471 197.59Z" fill="white"/>
<path d="M87.3471 177.758H175.7C176.709 177.758 177.527 176.94 177.527 175.932C177.527 174.923 176.709 174.109 175.7 174.109H87.3471C86.3389 174.109 85.5215 174.923 85.5215 175.932C85.5215 176.94 86.3389 177.758 87.3471 177.758Z" fill="white"/>
<path d="M148.16 257.125H175.7C176.709 257.125 177.526 256.31 177.526 255.301C177.526 254.293 176.709 253.475 175.7 253.475H148.16C147.152 253.475 146.334 254.293 146.334 255.301C146.334 256.31 147.152 257.125 148.16 257.125Z" fill="white"/>
<path d="M148.16 237.293H175.7C176.709 237.293 177.526 236.476 177.526 235.468C177.526 234.46 176.709 233.642 175.7 233.642H148.16C147.152 233.642 146.334 234.46 146.334 235.468C146.334 236.476 147.152 237.293 148.16 237.293Z" fill="white"/>
<path d="M148.16 276.988H175.7C176.709 276.988 177.526 276.173 177.526 275.165C177.526 274.156 176.709 273.338 175.7 273.338H148.16C147.152 273.338 146.334 274.156 146.334 275.165C146.334 276.173 147.152 276.988 148.16 276.988Z" fill="white"/>
<path d="M209.848 217.418H298.201C299.209 217.418 300.027 216.603 300.027 215.594C300.027 214.586 299.209 213.768 298.201 213.768H209.848C208.839 213.768 208.023 214.586 208.023 215.594C208.023 216.603 208.839 217.418 209.848 217.418Z" fill="white"/>
<path d="M209.848 197.59H298.201C299.209 197.59 300.027 196.773 300.027 195.765C300.027 194.757 299.209 193.939 298.201 193.939H209.848C208.839 193.939 208.023 194.757 208.023 195.765C208.023 196.773 208.839 197.59 209.848 197.59Z" fill="white"/>
<path d="M209.848 177.758H298.201C299.209 177.758 300.027 176.94 300.027 175.932C300.027 174.923 299.209 174.109 298.201 174.109H209.848C208.839 174.109 208.023 174.923 208.023 175.932C208.023 176.94 208.839 177.758 209.848 177.758Z" fill="white"/>
<path d="M209.848 257.125H298.201C299.209 257.125 300.027 256.31 300.027 255.301C300.027 254.294 299.209 253.475 298.201 253.475H209.848C208.839 253.475 208.023 254.294 208.023 255.301C208.023 256.31 208.839 257.125 209.848 257.125Z" fill="white"/>
<path d="M209.848 237.293H298.201C299.209 237.293 300.027 236.475 300.027 235.467C300.027 234.459 299.209 233.641 298.201 233.641H209.848C208.839 233.641 208.023 234.459 208.023 235.467C208.023 236.475 208.839 237.293 209.848 237.293Z" fill="white"/>
<path d="M418.121 140.725C418.113 149.188 411.247 156.042 402.783 156.035L247.783 155.901C239.32 155.894 232.466 149.027 232.474 140.565V138.709C232.483 130.246 239.348 123.392 247.81 123.401L402.811 123.533C411.276 123.543 418.129 130.407 418.122 138.869L418.121 140.725Z" fill="#817CC6"/>
<path d="M247.893 133.157C247.221 133.157 246.674 133.705 246.673 134.375L246.665 143.629C246.663 144.301 247.21 144.849 247.883 144.849L263.932 144.864C264.605 144.864 265.153 144.316 265.153 143.646L265.161 134.392C265.161 133.72 264.616 133.171 263.943 133.171L247.893 133.157ZM263.93 147.344L247.882 147.329C245.84 147.328 244.182 145.667 244.184 143.628L244.192 134.373C244.194 132.333 245.855 130.675 247.895 130.677L263.944 130.692C265.984 130.693 267.642 132.355 267.64 134.394L267.632 143.648C267.631 145.685 265.97 147.344 263.93 147.344Z" fill="white"/>
<path d="M256.106 141.117C255.831 141.117 255.554 141.026 255.327 140.842L245.901 133.2C245.369 132.768 245.287 131.987 245.719 131.456C246.149 130.924 246.93 130.842 247.463 131.273L256.123 138.295L264.784 131.55C265.325 131.129 266.104 131.226 266.525 131.767C266.945 132.306 266.848 133.087 266.308 133.508L256.871 140.855C256.645 141.03 256.375 141.117 256.106 141.117Z" fill="white"/>
<path d="M323.217 147.395L271.265 147.35C270.58 147.35 270.025 146.795 270.027 146.109C270.027 145.425 270.583 144.87 271.267 144.87L323.219 144.915C323.903 144.917 324.458 145.473 324.458 146.158C324.457 146.841 323.901 147.395 323.217 147.395Z" fill="white"/>
<path d="M339.945 141.344C339.669 141.626 339.335 141.853 338.955 142.015C338.195 142.343 337.282 142.34 336.524 142.017C336.143 141.854 335.809 141.634 335.529 141.357C335.249 141.08 335.026 140.745 334.861 140.363C334.698 139.985 334.614 139.577 334.615 139.148C334.615 138.724 334.699 138.314 334.862 137.934C335.029 137.553 335.253 137.221 335.532 136.945C335.811 136.67 336.148 136.448 336.529 136.285C336.909 136.125 337.318 136.043 337.745 136.043C338.172 136.045 338.58 136.129 338.958 136.293C339.339 136.458 339.674 136.683 339.95 136.967C340.226 137.247 340.448 137.583 340.61 137.958C340.77 138.332 340.851 138.735 340.852 139.155C340.851 139.575 340.769 139.978 340.607 140.351C340.444 140.729 340.224 141.061 339.945 141.344ZM344.54 132.356C342.666 130.481 340.383 129.527 337.751 129.525C335.106 129.525 332.814 130.472 330.936 132.347C329.067 134.224 328.117 136.512 328.115 139.145C328.113 141.782 329.057 144.071 330.925 145.949C332.8 147.825 335.09 148.776 337.733 148.781C339.148 148.781 340.483 148.503 341.683 147.956C341.892 147.89 342.069 147.756 342.208 147.553C342.343 147.356 342.412 147.136 342.413 146.906C342.412 146.592 342.304 146.322 342.092 146.1C341.877 145.878 341.608 145.766 341.292 145.766C341.106 145.766 340.927 145.815 340.774 145.907C339.836 146.322 338.815 146.528 337.735 146.528C335.704 146.527 333.948 145.796 332.513 144.355C331.087 142.931 330.366 141.179 330.367 139.148C330.368 137.115 331.094 135.363 332.523 133.942C333.956 132.505 335.716 131.774 337.749 131.777C338.774 131.779 339.725 131.963 340.579 132.323C341.43 132.686 342.228 133.235 342.953 133.952C343.67 134.664 344.215 135.457 344.572 136.31C344.928 137.162 345.108 138.121 345.107 139.16C345.107 141.702 344.532 142.988 343.399 142.988C343.194 142.986 343.118 142.91 343.118 142.703L343.121 139.157C343.122 137.682 342.59 136.401 341.538 135.356C340.499 134.307 339.222 133.774 337.746 133.772C336.27 133.772 334.991 134.303 333.943 135.348C332.896 136.394 332.365 137.671 332.363 139.148C332.362 140.625 332.893 141.904 333.937 142.953C334.983 143.999 336.261 144.532 337.738 144.533C338.916 144.533 339.991 144.18 340.939 143.483C341.189 144.654 342.015 145.247 343.398 145.247C346.024 145.25 347.357 143.203 347.36 139.162C347.364 136.53 346.414 134.241 344.54 132.356Z" fill="white"/>
<path d="M402.687 146.91L350.735 146.866C350.05 146.863 349.495 146.309 349.495 145.622C349.495 144.938 350.051 144.384 350.736 144.384L402.689 144.429C403.374 144.429 403.929 144.985 403.928 145.67C403.927 146.354 403.372 146.91 402.687 146.91Z" fill="white"/>
<path fill-rule="evenodd" clip-rule="evenodd" d="M109.906 330.005C109.881 329.891 109.957 329.88 110.036 329.873C115.41 330.44 118.413 334.021 122.101 336.955C130.516 343.643 138.053 351.485 145.444 358.854C153.911 351.367 162.688 344.189 171.542 337.084C174.381 339.886 176.895 343.008 179.54 346.003C170.875 356.822 161.844 368.611 150.165 377.215C146.93 379.596 142.676 382.084 137.838 379.704C135.674 378.642 133.919 376.572 131.938 374.854C126.358 370.018 121.49 363.56 116.724 358.199C118.628 346.829 115.547 335.89 109.906 330.005Z" fill="white"/>
<path fill-rule="evenodd" clip-rule="evenodd" d="M210.523 361.26C208.878 358.989 208.203 356.356 208.316 353.753L205.645 350.046L213.217 344.574C218.576 340.723 226.05 341.943 229.895 347.3L279.514 416.201C283.357 421.552 282.151 429.01 276.802 432.878L269.227 438.332L266.549 434.612C264.049 433.901 261.76 432.418 260.118 430.162L210.523 361.26Z" fill="#216CFB"/>
<path fill-rule="evenodd" clip-rule="evenodd" d="M253.507 434.923C257.356 440.276 264.833 441.497 270.182 437.635C275.534 433.769 276.747 426.309 272.9 420.958L223.286 352.052C219.444 346.705 211.956 345.477 206.613 349.348C201.26 353.206 200.041 360.663 203.886 366.008L253.507 434.923Z" fill="#193B94"/>
<path d="M191.05 316.992C177.635 296.077 174.13 274.399 183.211 268.534L183.245 268.507L183.259 268.501C183.386 268.427 183.52 268.361 183.645 268.291C192.882 263.03 210.815 275.207 224.055 295.825C237.474 316.762 240.978 338.451 231.877 344.298C231.512 344.533 231.163 344.717 230.793 344.887C221.376 349.21 203.975 337.138 191.05 316.992Z" fill="#216CFB"/>
<path fill-rule="evenodd" clip-rule="evenodd" d="M146.305 332.147C146.153 343.651 155.766 353.116 167.817 353.279C179.857 353.457 189.73 344.257 189.896 332.744C190.058 321.222 180.425 311.768 168.39 311.59C156.345 311.426 146.464 320.623 146.305 332.147Z" fill="#193B94"/>
<path d="M152.65 288.565L152.666 288.54C152.666 288.54 152.753 288.478 152.88 288.389C152.993 288.308 153.102 288.212 153.238 288.142L153.463 288.004C157.578 285.297 176.577 272.746 183.211 268.537C174.13 274.402 177.635 296.08 191.05 316.995C203.975 337.142 221.376 349.213 230.793 344.89L203.256 362.787C202.835 363.217 202.371 363.605 201.86 363.924C201.361 364.235 200.867 364.466 200.346 364.69L200.336 364.707L200.328 364.695C190.801 368.435 173.756 356.423 161.049 336.61C147.911 316.164 144.283 294.952 152.65 288.565Z" fill="#817CC6"/>
<path d="M213.975 341.249L185.519 361.801C181.687 359.594 177.665 356.459 173.701 352.492L201.604 330.68C205.718 335.104 209.944 338.681 213.975 341.249Z" fill="#193B94"/>
<path d="M192.131 318.595C193.459 320.607 194.829 322.527 196.242 324.351L167.636 345.711C166.187 343.908 164.759 342.066 163.37 340.073L192.131 318.595Z" fill="#193B94"/>
<path d="M331.83 315.776C332.158 315.753 332.484 315.719 332.804 315.677C334.059 315.225 335.41 314.943 336.657 314.513C336.946 314.384 337.238 314.264 337.53 314.144C338.086 313.835 338.624 313.484 339.142 313.086C353.443 302.13 347.495 261.374 325.869 222.047C304.244 182.738 275.11 159.775 260.825 170.714C259.108 172.031 258.04 173.831 256.905 175.937C248.497 191.443 255.034 227.126 274.088 261.749C292.501 295.21 316.337 316.822 331.83 315.776Z" fill="#216CFB"/>
<path d="M264.118 241.885C266.577 239.362 270.433 238.531 274.932 239.556C292.053 243.464 304.765 276.494 289.832 289.227C284.769 282.263 279.822 274.404 275.191 265.791C270.895 257.8 267.205 249.764 264.118 241.885Z" fill="#B4ADDD"/>
<path d="M332.376 315.742C332.442 315.74 332.55 315.733 332.688 315.723C333.881 315.28 335.164 314.998 336.369 314.606C322.984 311.04 307.73 300.686 293.699 285.379C287.569 278.699 281.664 271.069 276.26 262.662C271.244 254.85 266.774 247.045 263.634 239.125C253.301 213.049 249.231 186.145 258.995 172.685C259 172.46 259.643 171.87 259.584 171.872C255.485 177.371 254.153 182.589 252.706 188.287C246.747 211.875 236.914 232.578 223.465 249.77C215.192 260.315 206.651 268.849 195.036 277.055C192.543 278.803 189.091 281.524 189.091 281.524L189.067 281.6C183.617 286.372 186.212 300.93 195.249 314.996C204.312 329.104 216.506 337.559 223.108 334.532L223.116 334.527C224.537 334.028 225.966 333.133 227.72 332.146C249.17 320.043 281.476 312.616 314.96 314.64C320.548 314.991 325.981 315.473 331.422 315.812C331.736 315.772 332.053 315.747 332.376 315.742Z" fill="#817CC6"/>
<path d="M197.101 284.906C194.613 286.658 191.142 289.396 191.142 289.396L191.139 289.464C188.541 291.721 187.784 296.238 188.668 301.844C185.382 292.717 185.336 284.851 189.067 281.596L189.091 281.52C189.091 281.52 192.543 278.799 195.036 277.051C206.655 268.863 215.177 260.311 223.453 249.741C236.914 232.574 246.747 211.872 252.709 188.293C254.152 182.585 255.402 176.231 259.591 171.881C259.627 171.841 258.855 172.694 258.85 172.919C253.916 179.701 252.92 188.786 253.711 200.527C247.672 222.223 238.101 241.564 225.521 257.616C217.255 268.182 208.727 276.72 197.101 284.906Z" fill="#193B94"/>
<path d="M332.376 315.747C332.441 315.745 332.55 315.738 332.687 315.728C333.894 315.28 335.193 314.998 336.41 314.598C330.557 313.043 324.354 310.194 318.051 306.197C312.653 305.856 307.242 305.389 301.716 305.047C268.243 303.001 233.32 313.495 211.854 325.604C210.114 326.598 208.686 327.486 207.271 327.987L207.265 327.99C206.996 328.125 206.695 328.183 206.402 328.261C212.733 333.875 219.001 336.442 223.108 334.537L223.116 334.532C224.536 334.033 225.966 333.138 227.71 332.149C249.17 320.048 281.475 312.621 314.959 314.645C320.548 314.996 325.979 315.478 331.419 315.817C331.735 315.777 332.053 315.752 332.376 315.747Z" fill="#193B94"/>
<path fill-rule="evenodd" clip-rule="evenodd" d="M29.885 515.549L36.6071 524.704L25.918 534.102L17.9658 522.907L29.885 515.549Z" fill="#F89E9D"/>
<path fill-rule="evenodd" clip-rule="evenodd" d="M31.527 529.549C31.1901 529.12 30.1159 527.53 29.1312 527.358C28.1112 527.172 27.2537 528.02 25.9863 528.853C24.0154 525.789 26.3914 522.931 22.9672 519.416C19.6139 521.058 16.1203 523.504 12.6135 526.032C18.085 534.076 24.0673 542.212 29.7375 550.289C30.4302 549.556 31.005 548.812 31.3443 548.1C32.3619 545.924 32.0557 543.723 31.3574 541.458C30.4199 538.397 29.11 534.96 30.1782 532.086C30.4726 531.285 30.9767 530.519 31.527 529.549Z" fill="#817CC6"/>
<path d="M30.5307 538.764C30.7907 539.676 31.0913 540.583 31.3575 541.458C32.0558 543.723 32.362 545.924 31.3444 548.1C31.0051 548.812 30.4303 549.556 29.7377 550.289C27.1911 546.659 24.581 543.021 21.9839 539.38C25.3819 537.269 28.3987 537.771 30.5307 538.764Z" fill="#193B94"/>
<path d="M16.0175 530.961C14.868 529.314 13.7292 527.673 12.6135 526.034C14.8365 524.431 17.0565 522.863 19.2309 521.511C19.6446 523.609 19.742 527.572 16.0175 530.961Z" fill="#193B94"/>
<path fill-rule="evenodd" clip-rule="evenodd" d="M146.838 531.08L157.264 526.562L164.044 539.078L151.358 544.336L146.838 531.08Z" fill="#F89E9D"/>
<path fill-rule="evenodd" clip-rule="evenodd" d="M160.852 532.587C160.361 532.822 158.572 533.518 158.179 534.436C157.775 535.39 158.41 536.418 158.941 537.836C155.516 539.073 153.258 536.123 149.07 538.679C149.923 542.316 151.53 546.265 153.213 550.246C162.276 546.703 171.537 542.679 180.676 538.952C180.114 538.113 179.519 537.389 178.899 536.903C177.002 535.424 174.79 535.235 172.422 535.405C169.233 535.642 165.591 536.151 163.029 534.472C162.312 534.005 161.678 533.346 160.852 532.587Z" fill="#817CC6"/>
<path d="M169.618 535.62C170.565 535.566 171.513 535.477 172.422 535.408C174.79 535.238 177.002 535.427 178.899 536.906C179.519 537.392 180.114 538.116 180.676 538.955C176.571 540.628 172.441 542.362 168.315 544.086C167.011 540.301 168.177 537.476 169.618 535.62Z" fill="#193B94"/>
<path d="M158.776 548.025C156.916 548.778 155.061 549.523 153.213 550.246C152.147 547.721 151.113 545.209 150.278 542.783C152.415 542.851 156.302 543.64 158.776 548.025Z" fill="#193B94"/>
<path fill-rule="evenodd" clip-rule="evenodd" d="M162.886 526.088C155.73 529.515 148.313 532.701 140.191 535.242C136.906 528.003 133.93 520.585 130.788 512.825C126.209 501.519 123.704 487.88 121.44 474.124C120.683 469.514 120.059 465.003 118.74 460.725C116.249 452.637 112.185 445.685 109.341 438.435C110.182 444.39 111.339 450.87 112.15 457.212C112.614 460.824 113.09 464.171 112.865 467.287C112.222 476.212 106.934 482.156 101.96 487.597C98.6078 491.265 94.5442 494.44 90.7214 497.552C82.9544 503.88 74.3394 509.525 65.7832 515.209C57.1918 520.917 48.5272 526.682 39.6074 531.608C38.7239 531.025 38.2621 530.01 37.6615 529.202C33.5742 523.697 29.1934 517.93 25.5858 511.626C27.6598 509.339 30.0697 507.339 32.3902 505.284C48.4519 491.056 65.0284 476.791 82.9205 464.034C79.7059 453.693 77.0108 441.553 74.5656 429.883C72.2781 418.971 68.6752 403.946 73.6317 394.351C84.5696 393.076 96.7346 391.746 107.457 390.473C107.68 390.447 107.736 390.301 107.975 390.32C108.844 390.382 110.082 391.979 110.991 393.204C113.412 396.464 115.899 400.822 117.784 404.189C120.63 409.268 123.333 414.653 126.086 419.57C131.886 429.921 137.803 439.521 142.192 450.878C151.018 473.728 156.876 500.323 162.886 526.088Z" fill="#216CFB"/>
<path d="M53.1719 497.391C57.6549 493.608 62.3358 489.975 66.8457 486.147C69.086 484.246 71.356 482.404 73.6845 480.59C78.217 477.063 83.3619 472.988 85.8535 467.968C88.7982 462.038 86.9159 453.409 85.5473 446.455C83.4326 435.713 81.0109 425.559 79.2502 414.312C78.6434 410.435 78.1878 406.404 78.3301 402.539C78.4563 399.083 79.1169 396.175 79.8707 393.629C77.76 393.869 75.6742 394.109 73.6317 394.348C68.6752 403.943 72.2781 418.968 74.5656 429.88C77.0108 441.549 79.7059 453.689 82.9205 464.031C65.0284 476.787 48.4519 491.052 32.3902 505.28C30.0697 507.335 27.6598 509.335 25.5858 511.622C26.9097 513.935 28.3397 516.179 29.8191 518.359C33.2726 515.314 36.6494 512.195 40.0441 509.137C44.4046 505.215 48.6733 501.191 53.1719 497.391Z" fill="#B1B3F1"/>
<path d="M121.44 474.124C123.704 487.88 126.209 501.519 130.788 512.825C133.93 520.585 136.906 528.003 140.191 535.242C142.49 534.525 144.725 533.749 146.92 532.936C144.247 524.623 140.786 516.462 138.039 507.737C134.927 497.849 131.802 487.55 130.184 475.927C129.394 470.263 128.476 464.425 126.823 459.538C125.231 454.823 123.153 450.253 121.082 445.618C118.1 438.945 115.388 431.775 112.156 425.143C111.252 423.284 109.609 419.617 107.969 419.555C107.735 419.545 107.519 419.691 107.457 419.841C106.293 421.117 107.332 425.722 107.701 428.232C108.23 431.834 108.709 435.348 109.392 438.562C112.235 445.768 116.263 452.685 118.74 460.725C120.059 465.003 120.683 469.514 121.44 474.124Z" fill="#B1B3F1"/>
<path fill-rule="evenodd" clip-rule="evenodd" d="M114.888 397.415C109.165 400.251 102.546 403.409 95.2172 405.021C91.4275 405.853 87.2325 406.123 83.0218 406.463C78.8388 406.8 74.5184 406.904 70.1696 406.331C67.0096 388.58 68.7609 368.316 74.3666 354.532C77.2407 347.466 80.9802 341.887 86.1691 336.697C91.1066 331.759 97.0843 327.102 105.578 326.6C115.606 326.007 119.726 335.305 120.265 344.436C120.555 349.338 119.527 354.365 118.43 358.992C116.269 368.09 113.248 377.133 113.184 386.531C113.154 390.861 113.91 394.135 114.888 397.415Z" fill="#FFF5FC"/>
<path fill-rule="evenodd" clip-rule="evenodd" d="M108.364 314.92C107.185 317.764 103.149 326.871 103.149 326.871C102.293 329.764 116.195 337.886 117.692 333.931C118.759 331.113 120.239 327.725 121.321 325.005C124.546 326.602 127.977 326.713 129.899 324.706C130.413 324.166 130.952 323.12 131.222 321.86C131.661 319.786 131.344 317.462 131.109 315.396C130.658 311.436 129.945 307.353 128.763 303.464C127.572 299.539 126.244 297.013 121.645 294.86C119.093 293.664 116.482 293.432 114.433 293.76C110.285 294.417 106.672 297.907 105.296 303.014C103.95 307.996 106.122 311.323 108.364 314.92Z" fill="#F89E9D"/>
<path fill-rule="evenodd" clip-rule="evenodd" d="M121.321 325.005L117.512 322.361L119.882 328.656L121.321 325.005Z" fill="#E25055"/>
<path fill-rule="evenodd" clip-rule="evenodd" d="M131.044 306.948C131.029 307.307 129.909 307.542 128.548 307.478C127.188 307.415 126.099 307.077 126.107 306.722C126.129 306.366 127.248 306.131 128.609 306.192C129.972 306.258 131.06 306.592 131.044 306.948Z" fill="#216CFB"/>
<path fill-rule="evenodd" clip-rule="evenodd" d="M124.665 306.853C124.75 307.197 123.741 307.729 122.411 308.045C121.086 308.358 119.945 308.327 119.86 307.983C119.78 307.639 120.793 307.108 122.12 306.792C123.445 306.478 124.586 306.502 124.665 306.853Z" fill="#216CFB"/>
<path fill-rule="evenodd" clip-rule="evenodd" d="M130.023 310.743C130.065 311.356 129.74 311.872 129.296 311.905C128.852 311.936 128.458 311.469 128.415 310.857C128.371 310.254 128.698 309.732 129.142 309.702C129.587 309.672 129.98 310.138 130.023 310.743Z" fill="#216CFB"/>
<path fill-rule="evenodd" clip-rule="evenodd" d="M122.955 311.607C122.996 312.215 122.673 312.733 122.232 312.768C121.785 312.796 121.391 312.331 121.346 311.723C121.307 311.115 121.629 310.598 122.075 310.563C122.519 310.531 122.913 311.001 122.955 311.607Z" fill="#216CFB"/>
<path d="M126.43 318.198L126.501 318.186C127.137 318.026 127.565 317.736 127.815 317.296C128.323 316.419 127.971 315.185 127.527 313.618C127.241 312.624 126.922 311.494 126.774 310.276C126.744 310.054 126.536 309.891 126.316 309.922C126.09 309.948 125.933 310.153 125.961 310.377C126.117 311.656 126.447 312.815 126.738 313.842C127.115 315.165 127.439 316.314 127.108 316.888C126.971 317.128 126.71 317.291 126.301 317.394C126.083 317.449 125.949 317.673 126.006 317.894C126.056 318.087 126.236 318.215 126.43 318.198Z" fill="#E25055"/>
<path d="M126.66 321.638C127.063 321.611 127.519 321.517 128.028 321.344C128.239 321.267 128.353 321.034 128.278 320.819C128.203 320.61 127.969 320.494 127.761 320.57C125.489 321.361 124.65 320.07 124.612 320.019C124.494 319.826 124.241 319.769 124.052 319.883C123.859 320.004 123.798 320.249 123.913 320.442C123.951 320.506 124.748 321.773 126.66 321.638Z" fill="#E25055"/>
<path fill-rule="evenodd" clip-rule="evenodd" d="M127.554 293.253C128.77 292.688 130.405 292.307 131.968 291.913C133.386 291.558 135.25 290.636 136.519 291.734C136.371 293.362 134.965 293.612 134.075 294.427C135.762 294.366 137.831 293.434 139.905 293.825C142.382 294.292 141.124 296.393 139.833 297.496C137.69 299.326 134.502 300.861 131.708 301.666C127.048 303.016 121.433 302.19 116.61 302.032C116.21 303.52 115.761 307.865 115.355 309.348C115.238 309.734 114.993 309.151 114.979 309.141C114.605 308.807 113.986 308.298 113.182 308.281C109.838 308.199 110.776 314.6 114.166 314.128C113.234 316.277 112.532 318.854 109.233 318.345C108.26 318.194 106.87 317.636 106.213 316.755C101.764 310.792 102.371 298.912 105.484 295.908C106.792 294.648 108.411 293.998 110.991 293.844C111.66 293.206 111.961 292.483 112.726 291.892C116.504 288.99 124.73 290.221 127.554 293.253Z" fill="#216CFB"/>
<path fill-rule="evenodd" clip-rule="evenodd" d="M90.7278 322.36C100.382 320.881 116.565 333.595 116.501 334.994C116.435 336.443 103.843 331.42 93.2213 337.046C89.1504 339.204 85.0018 341.661 80.3694 343.865C79.1643 344.441 76.5365 345.765 75.5175 344.914C72.0592 342.033 84.3375 323.34 90.7278 322.36Z" fill="white"/>
<path d="M106.85 327.355C101.681 324.288 95.4309 321.638 90.7277 322.358C90.4529 322.401 90.1656 322.486 89.8701 322.592C91.4023 323.814 95.9989 325.393 101.563 326.508C103.435 326.879 105.225 327.162 106.85 327.355Z" fill="#FFF5FC"/>
<path fill-rule="evenodd" clip-rule="evenodd" d="M116.501 334.994C115.956 334.277 117.912 331.939 118.459 331.974C119.059 332.008 118.815 333.896 118.459 334.381C118.155 334.796 116.811 335.401 116.501 334.994Z" fill="white"/>
<path fill-rule="evenodd" clip-rule="evenodd" d="M175.129 361.628C174.83 361.684 170.521 364.275 166.6 366.593C167.12 363.939 166.664 361.107 165.148 358.732C169.17 356.791 173.744 354.411 175.299 352.654C176.465 351.333 177.659 349.801 178.973 348.746C180.008 347.915 181.304 347.575 182.674 346.642C183.668 345.968 185.552 344.122 186.377 344.779C187.252 345.476 186.242 347.005 185.164 348.113C183.885 349.425 182.917 350.221 182.327 351.529C182.849 351.693 183.407 351.865 183.959 352.045C185.246 352.459 185.953 352.557 187.216 352.475C190.019 352.298 192.629 351.835 195.332 351.693C196.162 351.65 197.938 351.635 198.59 351.887C198.835 351.983 199.193 352.473 198.484 353.093C197.883 353.618 196.639 353.808 195.849 353.973C193.95 354.371 192.272 354.522 190.562 354.772C189.652 354.909 188.719 354.864 188.044 355.417C188.431 355.847 189.036 355.708 189.494 355.755C192.11 356.014 194.352 356.214 197.029 356.306C197.605 356.324 200.528 356.65 200.375 357.526C200.179 358.685 197.782 358.581 197.06 358.593C194.244 358.635 191.005 358.437 188.725 358.583L188.57 358.534L188.512 358.603L188.725 358.583L188.752 358.595C191.353 359.189 193.685 359.962 196.609 360.525C197.453 360.688 198.902 361.215 199.094 361.633C199.696 362.938 197.17 362.812 196.222 362.758C192.921 362.575 189.341 361.804 186.451 361.581C188.412 363.336 190.599 364.913 192.483 366.368C193.161 366.89 194.35 367.649 194.198 368.269C193.89 369.503 192.184 368.676 191.428 368.309C190.478 367.847 189.483 367.133 188.633 366.665C187.751 366.179 186.773 365.713 185.839 365.142C184.876 364.556 183.947 363.734 183.044 363.378C182.434 363.135 181.72 363.173 181.112 363.046C179.795 362.765 178.39 362.36 177.124 362.018C176.513 361.856 175.628 361.536 175.129 361.628Z" fill="#F89E9D"/>
<path fill-rule="evenodd" clip-rule="evenodd" d="M134.191 367.516C145.703 362.554 157.309 357.661 170.397 353.88C172.002 357.511 173.614 361.129 175.03 365.011C164.898 370.729 157.671 376.557 146.907 381.469C143.467 383.038 139.509 384.538 135.24 385.117C128.372 386.048 123.112 383.202 119.181 380.25C114.901 377.037 111.34 373.139 108.04 368.99C104.727 364.825 101.681 360.285 99.1265 354.761C98.0457 352.427 96.5827 349.481 95.66 346.248C94.7469 343.042 93.8881 339.154 94.9592 336.678C95.4404 335.563 97.3184 334.026 98.5029 333.655C100.64 332.987 103.177 333.556 104.807 334.214C108.004 335.503 110.835 338.287 113.337 341.079C120.518 349.088 127.806 359.263 134.191 367.516Z" fill="#F7B9E0"/>
<path fill-rule="evenodd" clip-rule="evenodd" d="M134.191 367.522L128.987 368.926L132.515 365.342L134.191 367.522Z" fill="#FFF5FC"/>
<path fill-rule="evenodd" clip-rule="evenodd" d="M359.524 259.052C358.515 264.408 355.074 268.799 350.988 271.573C346.998 274.282 341.766 276.066 336.747 275.527C331.119 274.919 327.304 272.28 325.042 269.015C322.773 265.74 321.762 261.432 322.259 256.332C322.764 251.159 324.48 246.55 326.87 241.995C334.208 241.219 345.341 240.703 352.823 245.222C357.486 248.038 360.751 252.546 359.524 259.052ZM349.607 238.998C342.949 236.708 336.121 237.104 329.633 237.316C339.625 222.392 353.153 212.678 368.704 205.939C371.651 204.577 370.558 200.481 367.025 201.93C349.644 209.454 334.709 220.581 324.033 237.981C312.581 239.721 297.366 246.708 283.772 254.694C281.015 256.761 283.404 259.766 286.185 258.228C298.415 250.942 311.758 244.551 321.632 242.862C317.835 250.141 316.825 259.957 318.922 266.108C321.075 272.429 325.786 277.993 334.106 279.559C341.44 280.94 347.971 278.702 353.231 275.206C358.447 271.741 363.163 265.922 364.021 258.577C365.167 248.755 358.504 242.059 349.607 238.998Z" fill="white"/>
<path fill-rule="evenodd" clip-rule="evenodd" d="M444.744 178.71L376.729 174.953L389.864 196.376L392.908 219.438L444.744 178.71Z" fill="white"/>
<path fill-rule="evenodd" clip-rule="evenodd" d="M444.744 178.714L387.559 192.595L377.121 200.508L390.308 200.645L444.744 178.714Z" fill="#B4ADDD"/>
<path d="M342.959 449.038C342.927 448.152 343.14 446.754 343.533 446.032C344.094 445 344.86 444.443 345.889 444.311C347.854 444.054 350.297 445.366 351.849 446.781C355.122 449.767 355.963 453.69 356.54 457.451C356.937 460.033 357.048 462.793 356.873 465.884C356.86 466.13 356.858 466.38 356.853 466.631L356.847 466.904C349.724 463.194 343.168 454.909 342.959 449.038ZM333.643 500.742C334.827 501.326 336.65 500.724 338.443 499.989L338.617 499.919C343.957 497.817 348.251 494.926 351.74 491.084C352.951 489.749 354.04 488.338 354.977 486.887C358.082 482.084 359.248 477.403 360.224 472.86C367.637 475.364 375.362 476.16 383.211 475.227C393 474.062 400.588 471.215 407.092 466.264C410.842 463.408 414.577 459.352 417.899 454.532C423.624 446.209 426.766 438.438 427.872 429.822C428.262 426.807 428.185 423.52 427.663 420.564C427.644 420.469 427.629 420.361 427.614 420.25C427.483 419.359 427.175 417.275 425.109 417.061C424.793 417.029 424.481 417.113 424.221 417.294C423.974 417.469 423.768 417.683 423.61 417.925C422.991 418.886 423.301 419.956 423.487 420.599C423.523 420.72 423.559 420.835 423.576 420.933C424.428 425.916 423.82 431.793 421.816 437.918C420.738 441.223 419.166 444.674 417.269 447.902C414.996 451.771 412.535 455.166 409.965 457.981C403.412 465.157 395.841 469.102 385.416 470.777C376.753 472.174 368.481 471.447 360.823 468.621C360.844 468.37 360.886 468.095 360.932 467.801C360.994 467.404 361.064 466.953 361.089 466.479C361.228 463.781 361.086 460.824 360.643 457.174C360.21 453.625 359.205 448.45 355.469 444.53C352.661 441.582 348.754 439.873 345.513 440.178C343.307 440.386 341.497 441.487 340.281 443.37C340.057 443.714 339.853 444.088 339.674 444.482C339.423 445.021 339.309 445.619 339.209 446.144C339.186 446.273 339.161 446.401 339.133 446.524C337.275 455.371 346.722 466.835 356.351 471.247C356.321 471.393 356.277 471.549 356.234 471.712C356.179 471.926 356.123 472.136 356.08 472.341C355.342 476.017 354.216 480.349 351.473 484.591C350.845 485.565 350.139 486.515 349.38 487.42C344.709 492.966 339.546 495.219 335.111 496.688L334.925 496.742C334.354 496.904 333.403 497.174 332.895 497.962C332.59 498.434 332.507 498.999 332.66 499.561C332.802 500.081 333.149 500.502 333.643 500.742Z" fill="#216CFB"/>
<path fill-rule="evenodd" clip-rule="evenodd" d="M223.107 482.431C226.729 479.02 231.034 474.321 232.097 468.341C232.822 464.25 232.183 461.783 230.95 459.123C229.216 455.377 226.37 451.931 220.1 451.921C215.849 451.917 212.424 454.113 209.938 457.057C205.217 462.645 202.879 473.064 205.143 481.477C206.181 485.336 207.866 488.879 210.03 491.48C214.324 489.564 218.969 486.328 223.107 482.431ZM77.1372 270.701C79.991 268.136 82.4221 270.826 80.1667 273.26C75.6201 277.944 71.1945 282.588 67.1686 287.853C59.1966 298.278 52.9679 310.727 48.0906 325.282C45.6546 332.552 43.6155 340.263 42.3458 348.679C39.7464 365.929 41.4944 382.434 44.6087 396.384C49.3872 417.782 57.5819 435.109 69.2604 450.65C73.1018 455.762 77.1641 460.805 81.7074 465.27C95.6299 478.944 112.3 489.892 135.618 495.696C143.55 497.671 152.143 498.766 161.087 499.282C178.353 500.281 193.277 498.531 205.741 493.405C203.477 489.616 201.238 484.987 200.336 479.522C198.38 467.658 203.37 455.041 211.038 450.315C215.12 447.801 220.77 446.409 226.612 448.911C231.384 450.955 234.439 454.911 235.907 459.642C237.591 465.07 236.41 471.272 233.797 476.032C228.964 484.841 221.033 490.649 212.702 494.924C214.347 497.152 216.622 499.134 219.069 500.865C221.443 502.543 224.054 504.175 226.746 505.624C232.249 508.585 238.329 511.139 245.559 512.338C253.271 513.618 260.288 512.787 266.74 511.52C273.055 510.281 278.786 507.85 283.965 505.676C287.844 504.288 288.39 508.114 285.395 509.648C284.877 510.35 283.903 510.425 283.172 510.734C278.225 512.818 272.47 514.94 266.537 515.983C259.517 517.214 251.907 518.06 243.281 516.451C235.812 515.056 229.219 511.959 223.392 508.7C217.483 505.397 212.255 501.421 208.399 496.981C195.497 502.609 180.268 504.431 162.593 503.791C144.235 503.126 127.177 498.993 113.644 492.738C87.2727 480.55 68.6259 460.572 55.4744 437.474C48.8067 425.759 43.8007 412.856 40.5945 398.205C37.4448 383.809 35.8037 367.772 37.9193 349.403C38.9407 340.543 41.1599 332.458 43.6556 324.818C46.1046 317.324 48.9396 310.262 52.1811 303.824C58.9233 290.426 66.8071 279.802 77.1372 270.701Z" fill="#817CC6"/>
<path d="M318.012 532.917C318.012 534.502 313.466 535.785 307.859 535.785C302.25 535.785 297.704 534.502 297.704 532.917C297.704 531.333 302.25 530.05 307.859 530.05C313.466 530.05 318.012 531.333 318.012 532.917Z" fill="#216CFB"/>
<path d="M307.649 496.849C303 496.849 299.395 492.536 299.509 487.737C299.62 483.066 303.189 479.028 307.649 479.028C312.109 479.028 315.678 483.066 315.788 487.737C315.903 492.536 312.295 496.849 307.649 496.849ZM325.453 485.775C325.177 475.689 317.358 467.235 307.649 467.235C297.939 467.235 290.121 475.689 289.844 485.775C289.35 503.519 305.648 531.941 307.649 532.027C309.649 531.941 325.946 503.519 325.453 485.775Z" fill="#FB312D"/>
<path fill-rule="evenodd" clip-rule="evenodd" d="M498.112 500.593C498.112 500.593 504.06 515.99 503.183 518.298C503.183 518.298 507.281 519.106 511.547 512.331L507.184 497.289L498.112 500.593Z" fill="#F89E9D"/>
<path fill-rule="evenodd" clip-rule="evenodd" d="M507.293 497.675C507.204 499.885 502.437 503.484 498.514 501.771L507.293 497.675Z" fill="#E5AC86"/>
<path d="M520.668 523.123C518.186 517.01 511.757 503.312 511.097 502.52C509.046 503.06 500.799 506.508 498.768 507.161L498.588 507.297C500.192 512.361 503.203 518.174 502.635 522.919C502.252 526.13 499.075 529.013 497.817 532.309C497.632 532.797 497.77 534.304 498.595 535.395L515 527.744C514.899 526.395 514.423 524.865 514.284 524.05C513.922 521.913 513.395 520.393 514.537 518.464C515.209 520.063 516.023 521.571 516.73 523.169C517.18 524.188 517.571 525.286 518.117 526.289L521.184 524.858C521.108 524.304 520.91 523.718 520.668 523.123Z" fill="#216CFB"/>
<path fill-rule="evenodd" clip-rule="evenodd" d="M449.916 504.092C449.916 504.092 448.622 520.548 446.832 522.249C446.832 522.249 450.178 524.748 456.953 520.484L459.524 505.035L449.916 504.092Z" fill="#F89E9D"/>
<path fill-rule="evenodd" clip-rule="evenodd" d="M459.455 505.425C458.422 507.38 452.566 508.565 449.769 505.324L459.455 505.425Z" fill="#E5AC86"/>
<path d="M460.511 534.156C460.916 527.572 461.044 512.438 460.791 511.439C458.707 511.039 449.781 510.582 447.668 510.292L447.447 510.337C446.704 515.597 446.903 522.139 444.34 526.175C442.607 528.902 438.496 530.128 435.937 532.557C435.557 532.916 435.03 534.335 435.302 535.678L453.404 535.871C453.895 534.613 454.128 533.025 454.355 532.231C454.952 530.147 455.134 528.551 456.997 527.303C456.913 529.037 456.996 530.748 456.941 532.493C456.907 533.607 456.785 534.766 456.841 535.909L460.229 535.941C460.398 535.412 460.474 534.797 460.511 534.156Z" fill="#216CFB"/>
<path fill-rule="evenodd" clip-rule="evenodd" d="M489.149 378.48C489.732 378.646 489.389 379.233 489.664 379.703C492.697 384.864 495.089 391.965 494.546 400.549C494.363 403.424 493.93 406.241 493.967 409.19C494.126 421.041 493.693 433.577 494.485 444.704C494.692 447.634 495.1 449.984 496.019 452.308C498.552 458.694 501.315 465.468 503.783 471.922C507.266 481.039 510.06 490.022 512.52 499.676C506.828 501.502 501.274 503.48 495.596 505.327C494.953 504.764 494.637 503.932 494.231 503.2C491.415 498.121 488.553 492.681 485.808 487.402C482.669 481.357 479.657 475.162 476.925 468.634C474.222 462.174 471.316 455.646 470.856 447.203C470.415 439.074 469.07 423.905 468.73 414.788C467.31 417.22 463.356 434.998 463.006 438.322C462.692 441.255 462.915 444.346 463.074 447.31C463.537 455.886 464.503 464 464.979 472.563C465.636 484.293 465.068 496.324 465.044 508.613C458.235 508.472 451.519 508.428 444.994 508.586C443.1 487.812 440.038 466.724 438.362 445.503C437.912 439.759 438.35 434.015 438.964 428.431C440.74 412.277 443.76 396.488 444.955 380.066C459.16 379.169 473.859 378.796 488.819 378.693C488.932 378.627 488.939 378.443 489.149 378.48Z" fill="white"/>
<path d="M503.783 471.925C501.315 465.471 498.552 458.697 496.019 452.311C495.1 449.987 494.692 447.637 494.485 444.707C493.694 433.58 494.127 421.044 493.967 409.193C493.93 406.244 494.363 403.427 494.546 400.552C495.089 391.968 492.697 384.868 489.664 379.706C489.389 379.236 489.733 378.649 489.149 378.483C488.939 378.446 488.932 378.63 488.82 378.696C486.606 378.71 484.406 378.734 482.206 378.762C482.417 379.739 482.802 380.707 483.143 381.706C483.596 383.031 483.978 384.371 484.458 385.582C485.477 388.166 486.636 390.727 487.306 393.224C488.839 398.958 488.916 405.488 488.18 412.421C487.828 415.733 487.296 418.812 486.921 421.917C486.517 425.265 486.767 428.598 486.962 432.003C487.321 438.36 488.045 444.622 488.941 450.792C489.382 453.81 489.907 456.634 490.895 459.174C491.858 461.668 492.976 464.024 494.193 466.392C496.573 471.026 498.999 475.655 501.127 480.505C504.003 487.059 506.376 493.922 508.55 500.977C509.869 500.541 511.192 500.105 512.52 499.679C510.06 490.025 507.266 481.043 503.783 471.925Z" fill="#AC55B1"/>
<path d="M468.589 400.541C468.45 400.583 457.105 433.656 456.061 443.488C455.562 448.259 456.146 453.917 456.731 458.412C457.913 467.535 459.006 477.011 459.297 487.301C459.439 492.13 459.653 497.271 460.078 502.224C460.243 504.206 460.41 506.51 460.839 508.541C462.238 508.559 463.637 508.586 465.044 508.613C465.068 496.324 465.636 484.293 464.978 472.563C464.503 464 463.537 455.886 463.074 447.309C462.915 444.346 462.692 441.255 463.006 438.322C463.356 434.998 467.31 417.22 468.73 414.788L468.589 400.541Z" fill="#AC55B1"/>
<path fill-rule="evenodd" clip-rule="evenodd" d="M491.749 281.056C491.074 281.813 490.096 282.164 489.26 282.692C486.822 284.233 484.518 286.047 482.071 287.993C480.537 289.213 479.013 290.549 477.538 292.102C476.088 293.625 474.555 295.283 473.733 297.428C472.236 301.325 471.741 305.565 471.134 309.301C470.518 313.073 470.129 316.812 469.275 320.698C468.585 321.297 467.53 321.257 466.541 321.168C463.724 320.911 459.892 320.211 457.052 319.589C457.192 317.243 459.807 316.084 459.755 313.629C459.717 311.944 457.509 310.824 458.014 308.515C458.55 306.06 461.25 304.894 461.914 302.222C462.375 300.365 461.558 298.351 462.552 295.835C463.478 293.491 465.83 291.432 467.813 289.653C472.039 285.868 475.423 282.858 479.864 280.149C482.745 278.386 486.364 277.27 489.835 279.479C490.538 279.927 490.985 280.598 491.749 281.056Z" fill="#216CFB"/>
<path fill-rule="evenodd" clip-rule="evenodd" d="M486.322 305.23C484.413 311.989 483.052 318.455 480.813 325.391C480.724 325.949 480.442 325.259 480.246 325.619C476.573 330.03 473.126 334.506 468.952 338.545C468.398 339.084 467.638 339.721 466.893 340.413C466.22 341.041 465.449 342.119 464.733 341.951C463.791 341.733 463.476 339.471 463.427 338.367C463.235 334.029 464.05 329.525 464.86 324.745C465.375 321.716 465.888 318.47 466.769 315.158C467.667 311.777 468.835 308.384 469.809 305.114C466.269 304.365 463.491 302.316 463.227 299.531C463.157 298.787 463.384 297.625 463.957 296.464C464.9 294.553 466.603 292.911 468.074 291.429C470.897 288.586 474.004 285.811 477.361 283.476C480.745 281.124 483.368 279.954 488.339 281.12C491.1 281.768 493.303 283.213 494.718 284.747C497.582 287.853 498.259 292.857 496.164 297.744C494.119 302.518 490.333 303.789 486.322 305.23Z" fill="#F89E9D"/>
<path d="M462.152 346.851C463.234 347.265 464.689 346.28 465.619 345.609C466.764 344.78 467.885 343.84 468.54 343.203C473.892 337.965 478.338 331.9 482.93 325.813C482.083 325.432 481.198 325.061 480.281 324.702C475.829 329.745 471.638 335.568 466.877 339.809C466.175 340.434 465.352 341.211 464.351 341.237C463.636 339.75 463.717 337.903 463.816 336.089C464.092 331.05 464.713 325.187 465.702 319.919C464.947 319.74 464.518 319.655 463.801 319.524C462.402 326.734 461.19 333.806 460.981 340.516C460.933 342.098 460.521 346.223 462.152 346.851Z" fill="#FCCC69"/>
<path fill-rule="evenodd" clip-rule="evenodd" d="M469.809 305.11L474.463 305.401L468.666 308.887L469.809 305.11Z" fill="#E25055"/>
<path fill-rule="evenodd" clip-rule="evenodd" d="M473.155 284.218C472.946 284.51 473.681 285.391 474.795 286.189C475.909 286.989 476.981 287.4 477.19 287.11C477.397 286.819 476.664 285.937 475.549 285.136C474.436 284.338 473.363 283.927 473.155 284.218Z" fill="#216CFB"/>
<path fill-rule="evenodd" clip-rule="evenodd" d="M471.791 288.464C471.376 288.917 471.312 289.53 471.643 289.831C471.973 290.133 472.577 290.01 472.989 289.555C473.402 289.103 473.468 288.491 473.137 288.192C472.807 287.888 472.204 288.01 471.791 288.464Z" fill="#216CFB"/>
<path fill-rule="evenodd" clip-rule="evenodd" d="M476.274 292.84C475.862 293.292 475.793 293.905 476.125 294.207C476.456 294.508 477.061 294.383 477.473 293.93C477.884 293.478 477.952 292.869 477.619 292.565C477.288 292.266 476.685 292.388 476.274 292.84Z" fill="#216CFB"/>
<path d="M469.76 296.607L469.708 296.553C469.31 296.03 469.152 295.536 469.229 295.033C469.376 294.026 470.423 293.269 471.749 292.311C472.593 291.7 473.551 291.01 474.426 290.141C474.587 289.983 474.852 289.983 475.007 290.145C475.167 290.308 475.167 290.566 475.005 290.729C474.084 291.639 473.098 292.35 472.231 292.976C471.11 293.787 470.14 294.489 470.041 295.152C470.001 295.425 470.106 295.719 470.362 296.053C470.499 296.233 470.464 296.491 470.286 296.631C470.124 296.753 469.903 296.74 469.76 296.607Z" fill="#E25055"/>
<path d="M468.061 298.845C467.761 298.571 467.46 298.215 467.171 297.758C467.048 297.565 467.105 297.313 467.296 297.191C467.489 297.068 467.744 297.125 467.864 297.318C469.159 299.355 470.628 298.86 470.691 298.84C470.903 298.765 471.138 298.875 471.216 299.085C471.294 299.299 471.189 299.532 470.976 299.609C470.904 299.638 469.492 300.145 468.061 298.845Z" fill="#E25055"/>
<path fill-rule="evenodd" clip-rule="evenodd" d="M478.709 288.588C478.432 288.809 478.893 289.859 479.746 290.934C480.597 292.009 481.515 292.701 481.795 292.478C482.076 292.256 481.61 291.205 480.759 290.128C479.908 289.053 478.99 288.364 478.709 288.588Z" fill="#216CFB"/>
<path fill-rule="evenodd" clip-rule="evenodd" d="M509.367 344.543C503.438 343.32 483.703 339.183 483.703 339.183C483.703 339.183 482.177 332.349 478.632 326.194C476.02 321.661 473.014 319.602 474.316 314.248C475.025 311.34 476.665 308.52 478.069 305.816C479.4 303.245 480.803 301.03 482.556 298.901C482.574 298.386 482.158 298.06 481.947 297.62C481.399 296.48 480.808 295.05 480.568 293.616C479.899 289.612 481.325 283.838 484.192 280.658C485.689 280.711 487.138 280.458 488.717 280.534C490.332 280.608 492.287 280.83 494.078 281.258C500.218 282.731 502.83 286.633 503.346 291.144C503.817 295.28 501.343 298.95 499.424 302.115C498.484 303.67 497.179 305.707 497.61 307.449C498.108 309.458 504.703 312.553 505.134 319.039C505.251 320.843 504.614 322.645 504.204 324.738C503.717 327.215 503.709 329.565 504.889 331.026C506.117 332.544 508.148 333.28 509.366 334.674C511.619 337.259 511.268 340.465 509.367 344.543Z" fill="#216CFB"/>
<path fill-rule="evenodd" clip-rule="evenodd" d="M388.646 285.387C388.86 285.603 390.928 290.187 392.836 294.324C393.918 291.848 395.907 289.777 398.5 288.687C396.299 284.799 393.891 280.236 393.611 277.913C393.408 276.161 393.295 274.222 392.818 272.606C392.442 271.334 391.568 270.316 390.971 268.768C390.539 267.654 390.041 265.06 388.985 265.133C387.873 265.206 387.83 267.035 388.089 268.558C388.391 270.365 388.731 271.576 388.478 272.985C387.956 272.827 387.395 272.646 386.841 272.481C385.548 272.088 384.909 271.767 383.914 270.98C381.713 269.237 379.835 267.374 377.687 265.718C377.03 265.211 375.577 264.188 374.9 264.026C374.643 263.96 374.069 264.158 374.302 265.075C374.496 265.849 375.412 266.714 375.965 267.3C377.299 268.707 378.595 269.789 379.857 270.966C380.526 271.595 381.318 272.092 381.567 272.928C380.996 273.061 380.581 272.606 380.179 272.382C377.881 271.108 375.918 269.996 373.673 268.545C373.183 268.234 370.598 266.838 370.223 267.644C369.724 268.709 371.752 269.989 372.342 270.407C374.636 272.048 377.409 273.727 379.197 275.148L379.354 275.195L379.367 275.28L379.197 275.148L379.171 275.14C376.696 274.146 374.335 273.454 371.611 272.255C370.825 271.907 369.335 271.516 368.938 271.749C367.703 272.478 369.849 273.815 370.66 274.312C373.476 276.039 376.86 277.444 379.366 278.905C376.753 279.23 374.055 279.28 371.68 279.409C370.826 279.454 369.415 279.4 369.189 279.996C368.737 281.186 370.611 281.475 371.442 281.605C372.487 281.765 373.712 281.744 374.678 281.843C375.675 281.947 376.747 282.118 377.837 282.181C378.969 282.246 380.195 282.097 381.145 282.318C381.784 282.468 382.348 282.906 382.92 283.143C384.162 283.667 385.548 284.127 386.785 284.574C387.38 284.788 388.289 285.028 388.646 285.387Z" fill="#F89E9D"/>
<path fill-rule="evenodd" clip-rule="evenodd" d="M380.275 280.738C380.037 280.503 379.73 279.834 379.617 279.381C378.971 276.712 380.618 273.126 382.279 272.031C381.201 273.504 379.707 276.297 380.275 280.738Z" fill="#E25055"/>
<path fill-rule="evenodd" clip-rule="evenodd" d="M388.478 272.98C388.022 276.354 388.745 278.934 389.933 281.195C387.501 280.18 386.833 274.846 388.478 272.98Z" fill="#E25055"/>
<path fill-rule="evenodd" clip-rule="evenodd" d="M410.833 268.152C411.025 268.389 412.59 273.169 414.041 277.484C415.384 275.138 417.58 273.293 420.28 272.485C418.505 268.389 416.601 263.597 416.573 261.251C416.555 259.489 416.654 257.549 416.348 255.891C416.109 254.586 415.349 253.481 414.922 251.88C414.612 250.72 414.392 248.092 413.337 248.048C412.22 248.004 411.985 249.82 412.078 251.363C412.188 253.194 412.399 254.428 411.992 255.801C411.488 255.589 410.952 255.351 410.418 255.128C409.175 254.598 408.573 254.214 407.674 253.325C405.666 251.359 403.995 249.299 402.043 247.425C401.443 246.852 400.108 245.679 399.449 245.443C399.202 245.354 398.611 245.49 398.743 246.423C398.854 247.215 399.67 248.174 400.161 248.814C401.338 250.357 402.507 251.568 403.638 252.875C404.239 253.574 404.972 254.15 405.122 255.008C404.547 255.081 404.181 254.578 403.804 254.315C401.655 252.8 399.828 251.488 397.743 249.806C397.295 249.444 394.871 247.78 394.412 248.541C393.803 249.547 395.685 251.036 396.224 251.516C398.328 253.391 400.906 255.356 402.537 256.96L402.686 257.024L402.687 257.111L402.537 256.96L402.507 256.948C400.153 255.698 397.881 254.76 395.303 253.273C394.556 252.845 393.116 252.296 392.697 252.487C391.39 253.081 393.381 254.637 394.133 255.218C396.752 257.237 399.966 258.994 402.3 260.713C399.668 260.757 396.98 260.522 394.604 260.393C393.752 260.344 392.354 260.141 392.064 260.708C391.49 261.844 393.321 262.334 394.133 262.551C395.154 262.821 396.375 262.932 397.324 263.132C398.306 263.342 399.353 263.629 400.432 263.809C401.546 263.995 402.786 263.981 403.701 264.301C404.321 264.516 404.836 265.013 405.379 265.312C406.56 265.96 407.886 266.575 409.07 267.143C409.637 267.42 410.517 267.754 410.833 268.152Z" fill="#F89E9D"/>
<path fill-rule="evenodd" clip-rule="evenodd" d="M421.997 263.493C427.876 272.969 435.593 280.736 443.866 288.003C456.281 298.905 470.052 308.28 478.017 323.497C480.622 328.472 482.76 334.001 484.675 339.795C487.523 348.416 489.374 357.813 489.87 368.757C489.953 370.588 489.918 372.433 489.928 374.348C489.933 376.081 489.765 378.187 489.664 379.709C482.939 380.802 475.607 380.89 468.041 381.168C460.519 381.449 452.742 381.295 444.931 380.833C444.859 372.571 444.757 364.333 444.69 356.063C444.666 353.063 441.613 350.455 441.601 347.445C441.59 344.397 444.62 340.945 444.627 337.88C444.627 337.88 441.609 336.392 439.981 335.664C435.43 333.633 430.644 331.487 426.367 329.03C420.717 325.781 415.472 321.979 410.576 317.946C400.734 309.837 392.776 300.096 386.101 288.981C386.96 288.069 388.085 287.46 389.121 286.762C392.087 284.764 395.186 282.585 398.281 280.565C407.014 292.837 419.03 302.011 433.743 308.64C423.864 298.255 414.517 286.416 407.035 273.36C408.117 272.413 409.409 271.65 410.614 270.835C414.162 268.439 417.976 265.827 421.669 263.593C421.729 263.555 421.886 263.301 421.997 263.493Z" fill="#817CC6"/>
<path d="M489.928 374.339C489.918 372.424 489.953 370.58 489.87 368.749C489.383 357.948 487.566 348.652 484.782 340.122L484.819 340.31C486.385 349.253 486.857 358.822 485.763 369.725C485.58 371.547 485.283 373.366 485.01 375.264C484.773 376.93 484.324 378.917 484.006 380.391C485.929 380.219 487.821 380 489.664 379.701C489.765 378.179 489.933 376.073 489.928 374.339Z" fill="#193B94"/>
<path d="M433.743 308.635C431.556 307.651 429.437 306.603 427.373 305.505C428.143 306.621 428.896 307.762 429.571 308.954C431.45 312.294 433.305 315.726 435.077 319.411C437.589 324.636 439.91 330.573 441.889 336.547C443.271 337.207 444.627 337.875 444.627 337.875C444.745 336.54 444.794 335.964 444.83 334.7C445.218 321.178 440.854 315.147 433.743 308.635Z" fill="#193B94"/>
<path fill-rule="evenodd" clip-rule="evenodd" d="M454.012 354.619C462.916 360.094 469.365 348.956 469.365 348.956C460.726 356.139 454.012 354.619 454.012 354.619Z" fill="#193B94"/>
</g>
</svg>
