<svg width="538" height="278" viewBox="0 0 538 278" fill="none" xmlns="http://www.w3.org/2000/svg">
<path d="M169.722 166.391V79.8093C169.722 74.3608 167.259 69.4871 163.386 66.2401C160.944 60.9254 155.573 57.2347 149.34 57.2347H90.0352C102.391 31.355 128.81 13.4738 159.408 13.4738C166.517 13.4738 173.4 14.4392 179.934 16.2449C179.783 17.1094 179.705 17.9983 179.705 18.9058V164.368C176.459 165.255 173.125 165.935 169.722 166.391Z" fill="#EDB1C6"/>
<path d="M355.577 249.262C312.02 249.262 274.395 223.867 256.708 187.082H303.514V222.354C303.514 228.091 306.949 233.024 311.874 235.212C314.832 238.665 319.225 240.855 324.129 240.855H397.761C384.777 246.27 370.526 249.262 355.577 249.262ZM419.666 73.66H355.883V30.0667C374.965 30.1189 392.905 35.0456 408.514 43.666C408.475 44.3967 408.455 45.1331 408.455 45.8731C408.455 56.6641 412.724 66.4582 419.666 73.66Z" fill="#EDB1C6"/>
<path d="M62.3614 39.1562C54.8687 39.1562 48.7949 33.0844 48.7949 25.5941C48.7949 18.1046 54.8687 12.032 62.3614 12.032C69.8538 12.032 75.9273 18.1046 75.9273 25.5941C75.9273 33.0844 69.8538 39.1562 62.3614 39.1562Z" fill="#EDB1C6"/>
<path d="M387.684 22.5078C381.898 22.5078 377.207 17.8187 377.207 12.0339C377.207 6.24974 381.898 1.56063 387.684 1.56063C393.47 1.56063 398.16 6.24974 398.16 12.0339C398.16 17.8187 393.47 22.5078 387.684 22.5078Z" fill="#EDB1C6"/>
<path d="M414.76 7.39844C412.716 7.39844 411.061 5.74235 411.061 3.6998C411.061 1.65725 412.716 0.0018959 414.76 0.0018959C416.803 0.0018959 418.459 1.65725 418.459 3.6998C418.459 5.74235 416.803 7.39844 414.76 7.39844Z" fill="#EDB1C6"/>
<path d="M517.212 67.6016C515.169 67.6016 513.513 65.9462 513.513 63.9037C513.513 61.8611 515.169 60.205 517.212 60.205C519.256 60.205 520.912 61.8611 520.912 63.9037C520.912 65.9462 519.256 67.6016 517.212 67.6016Z" fill="#EDB1C6"/>
<path d="M26.7181 23.6328C24.6749 23.6328 23.0186 21.9775 23.0186 19.9349C23.0186 17.8924 24.6749 16.237 26.7181 16.237C28.7609 16.237 30.4173 17.8924 30.4173 19.9349C30.4173 21.9775 28.7609 23.6328 26.7181 23.6328Z" fill="#EDB1C6"/>
<path d="M510.604 159.875V87.7275C510.604 85.6356 510.147 83.6502 509.327 81.8653C512.854 84.8218 515.097 89.2597 515.097 94.2215V158.81C513.562 159.066 512.063 159.423 510.604 159.875Z" fill="#EDB1C6"/>
<path d="M496.539 236.414H317.581C309.812 236.414 303.515 230.118 303.515 222.352V87.719C303.515 79.9532 309.812 73.6574 317.581 73.6574H496.539C504.307 73.6574 510.605 79.9532 510.605 87.719V222.352C510.605 230.118 504.307 236.414 496.539 236.414Z" fill="#F3F5FB"/>
<path d="M498.368 164.82H482.356V132.296H483.648V129.699L439.429 123.488V118.603V118.34V118.151H442.083V115.714L439.337 114.704V109.186H419L412.496 107.19L405.992 109.186H385.2V114.735L382.584 115.5V118.159L385.293 118.158V118.159L385.261 118.6H385.293V123.65L355.884 127.781V87.1692H435.444C440.872 89.9153 447.01 91.4633 453.511 91.4633C460.01 91.4633 466.149 89.9153 471.577 87.1692H488.851C494.108 87.1692 498.368 91.4289 498.368 96.6827V164.82ZM382.584 118.159L385.298 117.331H385.32L382.584 118.159Z" fill="#D0D3EE"/>
<path d="M325.133 178.41H488.849C494.106 178.41 498.367 174.15 498.367 168.896V164.822H315.616V168.896C315.616 174.15 319.877 178.41 325.133 178.41Z" fill="#859ED8"/>
<path d="M318.666 195.512H371.383V190.836H318.666V195.512Z" fill="#CFD4EE"/>
<path d="M318.666 207.297H496.298V203.28H318.666V207.297Z" fill="#DDDFF3"/>
<path d="M318.666 215.469H496.298V211.452H318.666V215.469Z" fill="#DDDFF3"/>
<path d="M318.666 223.645H496.298V219.628H318.666V223.645Z" fill="#DDDFF3"/>
<path d="M474.378 192.685C474.378 194.246 473.112 195.512 471.551 195.512C469.989 195.512 468.724 194.246 468.724 192.685C468.724 191.125 469.989 189.859 471.551 189.859C473.112 189.859 474.378 191.125 474.378 192.685Z" fill="#A3ACDE"/>
<path d="M485.221 192.685C485.221 194.246 483.956 195.512 482.394 195.512C480.833 195.512 479.566 194.246 479.566 192.685C479.566 191.125 480.833 189.859 482.394 189.859C483.956 189.859 485.221 191.125 485.221 192.685Z" fill="#A3ACDE"/>
<path d="M496.065 192.685C496.065 194.246 494.8 195.512 493.238 195.512C491.676 195.512 490.411 194.246 490.411 192.685C490.411 191.125 491.676 189.859 493.238 189.859C494.8 189.859 496.065 191.125 496.065 192.685Z" fill="#A3ACDE"/>
<path d="M403.012 172.69C403.012 173.561 402.306 174.266 401.435 174.266C400.565 174.266 399.858 173.561 399.858 172.69C399.858 171.819 400.565 171.114 401.435 171.114C402.306 171.114 403.012 171.819 403.012 172.69Z" fill="white"/>
<path d="M409.059 172.69C409.059 173.561 408.353 174.266 407.483 174.266C406.611 174.266 405.906 173.561 405.906 172.69C405.906 171.819 406.611 171.114 407.483 171.114C408.353 171.114 409.059 171.819 409.059 172.69Z" fill="white"/>
<path d="M415.107 172.69C415.107 173.561 414.402 174.266 413.531 174.266C412.66 174.266 411.954 173.561 411.954 172.69C411.954 171.819 412.66 171.114 413.531 171.114C414.402 171.114 415.107 171.819 415.107 172.69Z" fill="white"/>
<path d="M425.15 165.23H482.356V130.719H425.15V165.23Z" fill="#A3ACDE"/>
<path d="M483.647 132.297H425.242V121.497L483.647 129.7V132.297Z" fill="#3C52AC"/>
<path d="M425.242 132.297H483.647V129.7H425.242V132.297Z" fill="#5661B7"/>
<path d="M343.519 165.23H400.723V130.719H343.519V165.23Z" fill="#A3ACDE"/>
<path d="M342.225 132.297H400.63V121.497L342.225 129.7V132.297Z" fill="#3C52AC"/>
<path d="M342.225 132.297H400.631V129.7H342.225V132.297Z" fill="#5661B7"/>
<path d="M439.429 165.191H385.292V117.436L412.36 109.278L439.429 117.436V165.191Z" fill="#BBBEE6"/>
<path d="M482.356 165.191H425.15H439.429V162.868H482.356V165.191Z" fill="#5F6FBF"/>
<path d="M400.723 165.191H355.884V162.868H385.293V165.191H400.723Z" fill="#5F6FBF"/>
<path d="M439.429 165.191H385.292V162.868H406.09V164.993H408.077H408.694H417.143H419.129V162.868H439.429V165.191Z" fill="#6B79C5"/>
<path d="M385.199 117.332H439.336V109.186H385.199V117.332Z" fill="#5661B7"/>
<path d="M382.584 118.16L412.268 109.187L442.083 118.152L382.584 118.16Z" fill="#BBBEE6"/>
<path d="M382.584 118.16V115.501L392.783 112.519L391.738 115.37L382.584 118.16Z" fill="#5661B7"/>
<path d="M442.083 118.152V115.715L437.378 113.984V116.737L442.083 118.152Z" fill="#5661B7"/>
<path d="M405.691 109.277L412.497 107.189L419.302 109.277L415.484 110.151L412.269 109.185L407.13 110.738L405.691 109.277Z" fill="#5661B7"/>
<path d="M406.09 164.992V146.848C406.09 143.254 409.015 140.33 412.61 140.33C416.205 140.33 419.129 143.254 419.129 146.848V164.992H406.09Z" fill="#3C52AC"/>
<path d="M417.143 164.992H408.077V146.848C408.077 144.345 410.107 142.316 412.61 142.316C415.114 142.316 417.143 144.345 417.143 146.848V164.992Z" fill="#4C5DB3"/>
<path d="M412.795 142.319C412.793 142.319 412.791 142.319 412.789 142.319C412.792 142.319 412.793 142.319 412.795 142.319ZM412.664 142.316C412.662 142.316 412.66 142.316 412.658 142.316C412.661 142.316 412.662 142.316 412.664 142.316Z" fill="#2A3E95"/>
<path d="M408.694 164.992H408.077V146.848C408.077 144.345 410.107 142.316 412.61 142.316C412.615 142.316 412.62 142.316 412.626 142.316C412.627 142.316 412.63 142.316 412.631 142.316C412.635 142.316 412.638 142.316 412.642 142.316C412.643 142.316 412.645 142.316 412.647 142.316C412.65 142.316 412.654 142.316 412.658 142.316C412.659 142.316 412.661 142.316 412.663 142.316C412.666 142.316 412.67 142.316 412.673 142.317C412.675 142.317 412.677 142.317 412.679 142.317C412.682 142.317 412.685 142.317 412.689 142.317C412.691 142.317 412.693 142.317 412.695 142.317C412.698 142.317 412.702 142.317 412.705 142.317C412.707 142.317 412.708 142.317 412.71 142.317C412.714 142.317 412.718 142.317 412.722 142.317C412.723 142.317 412.725 142.317 412.726 142.317C412.737 142.317 412.747 142.318 412.758 142.318C412.758 142.318 412.76 142.318 412.761 142.318C412.765 142.319 412.769 142.319 412.773 142.319C412.775 142.319 412.777 142.319 412.779 142.319C412.782 142.319 412.785 142.319 412.789 142.319C412.79 142.319 412.792 142.319 412.794 142.319C412.798 142.319 412.801 142.319 412.805 142.32C412.806 142.32 412.808 142.32 412.809 142.32C412.813 142.32 412.816 142.32 412.82 142.321C412.822 142.321 412.824 142.321 412.826 142.321C412.829 142.321 412.833 142.321 412.836 142.322C412.838 142.322 412.839 142.322 412.841 142.322C412.845 142.322 412.85 142.322 412.854 142.322C412.855 142.322 412.856 142.322 412.857 142.322C412.867 142.323 412.878 142.324 412.889 142.325C412.894 142.325 412.899 142.325 412.904 142.325C412.905 142.325 412.906 142.325 412.907 142.325C412.912 142.326 412.915 142.326 412.92 142.327C412.921 142.327 412.922 142.327 412.923 142.327C412.927 142.327 412.932 142.327 412.936 142.327C412.937 142.327 412.938 142.327 412.939 142.327C412.943 142.328 412.947 142.328 412.952 142.329C412.952 142.329 412.954 142.329 412.955 142.329C412.96 142.329 412.964 142.33 412.969 142.33C412.969 142.33 412.97 142.33 412.97 142.33C412.997 142.332 413.023 142.335 413.05 142.337C413.051 142.337 413.051 142.337 413.051 142.337C413.056 142.337 413.061 142.338 413.066 142.339C413.066 142.339 413.067 142.339 413.068 142.339C413.072 142.339 413.077 142.34 413.082 142.34C413.082 142.34 413.083 142.34 413.083 142.34C414.299 142.466 415.372 143.073 416.11 143.967C415.326 143.321 414.322 142.934 413.227 142.934C410.724 142.934 408.694 144.962 408.694 147.465V164.992Z" fill="#3447A3"/>
<path d="M390.317 141.594H400.079V125.59H390.317V141.594Z" fill="#687EC7"/>
<path d="M391.312 140.602H399.086V126.584H391.312V140.602Z" fill="white"/>
<path d="M391.312 132.738V126.585H399.086V127.961L391.312 132.738Z" fill="#E2E5F5"/>
<path d="M389.425 142.016H400.974V139.902H389.425V142.016Z" fill="#E1E4F5"/>
<path d="M399.894 130.707H390.968V129.885H399.894V130.707Z" fill="#687EC7"/>
<path d="M399.894 139.906H390.968V139.085H399.894V139.906Z" fill="#687EC7"/>
<path d="M395.648 139.906H394.749V126.014H395.648V139.906Z" fill="#687EC7"/>
<path d="M400.974 142.066H389.425V142.02H400.974V141.127V142.066Z" fill="#ADB4E1"/>
<path d="M389.425 142.016H400.974V141.122H389.425V142.016Z" fill="#C6CAEA"/>
<path d="M424.777 141.594H434.54V125.59H424.777V141.594Z" fill="#687EC7"/>
<path d="M425.77 140.602H433.546V126.584H425.77V140.602Z" fill="white"/>
<path d="M425.77 132.738V126.585H433.546V127.961L425.77 132.738Z" fill="#E2E5F5"/>
<path d="M423.884 142.016H435.433V139.902H423.884V142.016Z" fill="#E1E4F5"/>
<path d="M434.353 130.707H425.427V129.885H434.353V130.707Z" fill="#687EC7"/>
<path d="M434.353 139.906H425.427V139.085H434.353V139.906Z" fill="#687EC7"/>
<path d="M430.108 139.906H429.207V126.014H430.108V139.906Z" fill="#687EC7"/>
<path d="M435.433 142.066H423.884V142.02H435.433V141.127V142.066Z" fill="#ADB4E1"/>
<path d="M423.884 142.016H435.433V141.122H423.884V142.016Z" fill="#C6CAEA"/>
<path d="M415.563 151.709C415.563 152.152 415.204 152.512 414.761 152.512C414.317 152.512 413.958 152.152 413.958 151.709C413.958 151.266 414.317 150.906 414.761 150.906C415.204 150.906 415.563 151.266 415.563 151.709Z" fill="#939ED7"/>
<path d="M419.129 162.868H406.09V165.191H419.129V162.868Z" fill="#E1E4F5"/>
<path d="M417.143 160.718H408.077V162.867H417.143V160.718Z" fill="#A2AFDF"/>
<path d="M385.199 114.73V109.185H405.991L392.706 112.728L392.783 112.517L385.359 114.688L385.199 114.73Z" fill="#4B59B1"/>
<path d="M385.358 114.688L392.782 112.517L392.705 112.728L385.358 114.688Z" fill="#4B59B1"/>
<path d="M439.336 114.707L437.377 113.986V114.177L419.301 109.281L439.336 109.189V114.707Z" fill="#4B59B1"/>
<path d="M439.337 114.707L437.378 114.176V113.986L439.337 114.706V114.707Z" fill="#4B59B1"/>
<path d="M385.292 118.602H385.261L385.292 118.16V118.602Z" fill="#BBC0E6"/>
<path d="M439.429 118.602L385.292 118.599V118.158L385.293 118.157L438.792 118.15L439.429 118.339V118.602Z" fill="#ADB4E1"/>
<path d="M385.293 118.16L412.36 110.334L438.793 118.153L385.293 118.16Z" fill="#ADB4E1"/>
<path d="M348.755 152.688H355.265V141.902H348.755V152.688Z" fill="#687EC7"/>
<path d="M349.564 151.242H354.456V142.627H349.564V151.242Z" fill="white"/>
<path d="M349.053 146.637H354.927V146.215H349.053V146.637Z" fill="#687EC7"/>
<path d="M350.924 146.543H351.369V142.317H350.924V146.543Z" fill="#687EC7"/>
<path d="M352.798 146.543H353.243V142.317H352.798V146.543Z" fill="#687EC7"/>
<path d="M348.004 154.02H356.013V152.709H348.004V154.02Z" fill="#E1E4F5"/>
<path d="M356.014 154.047H355.884V154.018H356.014V153.464V154.047Z" fill="#9FA7DC"/>
<path d="M355.884 154.02H356.014V153.465H355.884V154.02Z" fill="#C6CAEA"/>
<path d="M360.73 152.688V141.902H367.241V152.688H360.73Z" fill="#687EC7"/>
<path d="M366.432 151.242H361.541V142.627H366.432V151.242Z" fill="white"/>
<path d="M366.903 146.637H361.028V146.215H366.903V146.637Z" fill="#687EC7"/>
<path d="M363.345 146.543H362.899V142.317H363.345V146.543Z" fill="#687EC7"/>
<path d="M365.22 146.543H364.773V142.317H365.22V146.543Z" fill="#687EC7"/>
<path d="M359.981 154.02H367.991V152.709H359.981V154.02Z" fill="#E1E4F5"/>
<path d="M367.991 154.047H359.981V154.018H367.991V153.464V154.047Z" fill="#9FA7DC"/>
<path d="M359.981 154.02H367.991V153.465H359.981V154.02Z" fill="#C6CAEA"/>
<path d="M372.709 152.688V141.902H379.219V152.688H372.709Z" fill="#687EC7"/>
<path d="M378.408 151.242H373.518V142.627H378.408V151.242Z" fill="white"/>
<path d="M378.881 146.637H373.006V146.215H378.881V146.637Z" fill="#687EC7"/>
<path d="M375.323 146.543H374.878V142.317H375.323V146.543Z" fill="#687EC7"/>
<path d="M377.196 146.543H376.751V142.317H377.196V146.543Z" fill="#687EC7"/>
<path d="M371.961 154.02H379.969V152.709H371.961V154.02Z" fill="#E1E4F5"/>
<path d="M379.969 154.047H371.961V154.018H379.969V153.464V154.047Z" fill="#9FA7DC"/>
<path d="M371.961 154.02H379.969V153.465H371.961V154.02Z" fill="#C6CAEA"/>
<path d="M445.313 152.688V141.902H451.824V152.688H445.313Z" fill="#687EC7"/>
<path d="M451.014 151.242H446.123V142.627H451.014V151.242Z" fill="white"/>
<path d="M451.486 146.637H445.61V146.215H451.486V146.637Z" fill="#687EC7"/>
<path d="M447.928 146.543H447.482V142.317H447.928V146.543Z" fill="#687EC7"/>
<path d="M449.802 146.543H449.356V142.317H449.802V146.543Z" fill="#687EC7"/>
<path d="M444.565 154.02H452.574V152.709H444.565V154.02Z" fill="#E1E4F5"/>
<path d="M452.574 154.047H444.565V154.018H452.574V153.464V154.047Z" fill="#9FA7DC"/>
<path d="M444.565 154.02H452.574V153.465H444.565V154.02Z" fill="#C6CAEA"/>
<path d="M457.291 152.688V141.902H463.801V152.688H457.291Z" fill="#687EC7"/>
<path d="M462.992 151.242H458.102V142.627H462.992V151.242Z" fill="white"/>
<path d="M463.463 146.637H457.588V146.215H463.463V146.637Z" fill="#687EC7"/>
<path d="M459.906 146.543H459.461V142.317H459.906V146.543Z" fill="#687EC7"/>
<path d="M461.779 146.543H461.334V142.317H461.779V146.543Z" fill="#687EC7"/>
<path d="M456.542 154.02H464.551V152.709H456.542V154.02Z" fill="#E1E4F5"/>
<path d="M464.551 154.047H456.542V154.018H464.551V153.464V154.047Z" fill="#9FA7DC"/>
<path d="M456.542 154.02H464.551V153.465H456.542V154.02Z" fill="#C6CAEA"/>
<path d="M469.269 152.688V141.902H475.779V152.688H469.269Z" fill="#687EC7"/>
<path d="M474.968 151.242H470.077V142.627H474.968V151.242Z" fill="white"/>
<path d="M475.44 146.637H469.564V146.215H475.44V146.637Z" fill="#687EC7"/>
<path d="M471.883 146.543H471.437V142.317H471.883V146.543Z" fill="#687EC7"/>
<path d="M473.755 146.543H473.31V142.317H473.755V146.543Z" fill="#687EC7"/>
<path d="M468.518 154.02H476.527V152.709H468.518V154.02Z" fill="#E1E4F5"/>
<path d="M476.527 154.047H468.518V154.018H476.527V153.464V154.047Z" fill="#9FA7DC"/>
<path d="M468.518 154.02H476.527V153.465H468.518V154.02Z" fill="#C6CAEA"/>
<path d="M152.015 240.859H117.899C114.664 238.604 110.73 237.28 106.487 237.28C105.355 237.28 104.245 237.38 103.164 237.561C102.835 237.018 102.482 236.492 102.104 235.985H149.34C157.872 235.985 164.788 229.071 164.788 220.541V166.893C166.45 166.778 168.091 166.611 169.722 166.392V223.159C169.722 232.935 161.795 240.859 152.015 240.859Z" fill="#EDB1C6"/>
<path d="M164.788 166.891V72.6766C164.788 70.3793 164.286 68.1986 163.386 66.2391C167.26 69.4861 169.722 74.3599 169.722 79.8083V166.39C168.091 166.609 166.45 166.776 164.788 166.891Z" fill="#E296B2"/>
<path d="M149.34 235.984H48.622C40.0904 235.984 33.1738 229.07 33.1738 220.541V72.678C33.1738 64.1493 40.0904 57.2351 48.622 57.2351H149.34C157.871 57.2351 164.788 64.1493 164.788 72.678V220.541C164.788 229.07 157.871 235.984 149.34 235.984Z" fill="#F3F5FB"/>
<path d="M46.4658 161.82V82.5139C46.4658 80.0197 47.34 77.7296 48.7987 75.9332C49.9078 75.1989 50.9276 74.3408 51.839 73.3789C53.3427 72.5416 55.0746 72.0642 56.9178 72.0642H140.896C146.668 72.0642 151.348 76.7426 151.348 82.5139V157.347H128.827V100.115L98.6788 85.5254L69.2199 100.115V157.347H46.4658V161.82Z" fill="#D0D3EE"/>
<path d="M56.9178 172.273H140.896C146.668 172.273 151.348 167.595 151.348 161.824V157.35H46.4658V161.824C46.4658 167.595 51.1455 172.273 56.9178 172.273Z" fill="#A3ACDE"/>
<path d="M49.3506 189.977H107.247V184.842H49.3506V189.977Z" fill="#CFD4EE"/>
<path d="M49.3506 202.922H148.612V198.51H49.3506V202.922Z" fill="#DDDFF3"/>
<path d="M49.3506 211.902H148.612V207.491H49.3506V211.902Z" fill="#DDDFF3"/>
<path d="M49.3506 220.879H148.612V216.467H49.3506V220.879Z" fill="#DDDFF3"/>
<path d="M124.536 186.873C124.536 188.587 123.146 189.977 121.431 189.977C119.716 189.977 118.326 188.587 118.326 186.873C118.326 185.159 119.716 183.769 121.431 183.769C123.146 183.769 124.536 185.159 124.536 186.873Z" fill="#A3ACDE"/>
<path d="M136.445 186.873C136.445 188.587 135.056 189.977 133.34 189.977C131.626 189.977 130.235 188.587 130.235 186.873C130.235 185.159 131.626 183.769 133.34 183.769C135.056 183.769 136.445 185.159 136.445 186.873Z" fill="#A3ACDE"/>
<path d="M148.354 186.873C148.354 188.587 146.965 189.977 145.249 189.977C143.535 189.977 142.145 188.587 142.145 186.873C142.145 185.159 143.535 183.769 145.249 183.769C146.965 183.769 148.354 185.159 148.354 186.873Z" fill="#A3ACDE"/>
<path d="M81.6105 90.9258H74.6963V77.9548H81.6105V90.9258Z" fill="#3C52AC"/>
<path d="M128.828 87.0103H69.2207V100.766H128.828V87.0103Z" fill="#2B4598"/>
<path d="M128.828 162.848H69.2207V100.122L98.6796 85.5322L128.828 100.122V162.848Z" fill="#BBBEE6"/>
<path d="M69.2207 162.848H128.828V158.067H69.2207V162.848Z" fill="#AEB4E1"/>
<path d="M111.387 136.131H87.4531V162.016H111.387V136.131Z" fill="#4C5DB3"/>
<path d="M109.585 162.848H89.5586V138.122H109.585V162.848Z" fill="#3C52AC"/>
<path d="M109.518 156.97H89.5703V159.906H109.518V156.97Z" fill="#A2AFDF"/>
<path d="M107.926 143.297H91.4512V139.706H107.926V143.297Z" fill="#2B4598"/>
<path d="M107.926 156.973H91.4512V144.335H107.926V156.973Z" fill="#2B4598"/>
<path d="M97.621 149.599C97.621 149.987 97.3074 150.301 96.9194 150.301C96.5321 150.301 96.2178 149.987 96.2178 149.599C96.2178 149.212 96.5321 148.897 96.9194 148.897C97.3074 148.897 97.621 149.212 97.621 149.599Z" fill="#A2AFDF"/>
<path d="M102.386 149.599C102.386 149.987 102.072 150.301 101.684 150.301C101.297 150.301 100.982 149.987 100.982 149.599C100.982 149.212 101.297 148.897 101.684 148.897C102.072 148.897 102.386 149.212 102.386 149.599Z" fill="#A2AFDF"/>
<path d="M66.8828 103.52L67.1088 98.5713L98.668 83.2859L131.253 98.3631L130.841 103.326L98.6888 87.7674L66.8828 103.52Z" fill="#3C52AC"/>
<path d="M99.9198 156.973H98.8975V139.208H99.9198V156.973Z" fill="#3C52AC"/>
<path d="M77.6943 123.93V113.999C77.6943 110.516 80.5286 107.683 84.0122 107.683C87.4958 107.683 90.3301 110.516 90.3301 113.999V123.93H77.6943Z" fill="#939ED7"/>
<path d="M89.0125 122.609H79.0127V113.996C79.0127 111.235 81.2513 108.997 84.0126 108.997C86.7739 108.997 89.0125 111.235 89.0125 113.996V122.609Z" fill="white"/>
<path d="M78.1523 116.578V115.218H89.8703V116.578H78.1523Z" fill="#939ED7"/>
<path d="M84.6081 115.809H83.2422V108.303H84.6081V115.809Z" fill="#939ED7"/>
<path d="M76.3516 126.734H91.6711V123.931H76.3516V126.734Z" fill="#E1E4F5"/>
<path d="M91.6713 126.793H76.3516V126.731H91.6713V125.547V126.793Z" fill="#ADB4E1"/>
<path d="M76.3516 126.734H91.6711V125.55H76.3516V126.734Z" fill="#C6CAEA"/>
<path d="M109.917 123.93V113.999C109.917 110.516 112.751 107.683 116.234 107.683C119.718 107.683 122.553 110.516 122.553 113.999V123.93H109.917Z" fill="#939ED7"/>
<path d="M121.235 122.609H111.235V113.996C111.235 111.235 113.474 108.997 116.235 108.997C118.997 108.997 121.235 111.235 121.235 113.996V122.609Z" fill="white"/>
<path d="M110.376 116.578V115.218H122.094V116.578H110.376Z" fill="#939ED7"/>
<path d="M116.831 115.809H115.465V108.303H116.831V115.809Z" fill="#939ED7"/>
<path d="M108.574 126.734H123.895V123.931H108.574V126.734Z" fill="#E1E4F5"/>
<path d="M123.895 126.793H108.574V126.731H123.895V125.547V126.793Z" fill="#ADB4E1"/>
<path d="M108.574 126.734H123.895V125.55H108.574V126.734Z" fill="#C6CAEA"/>
<path d="M111.388 159.385H87.0186V162.848H111.388V159.385Z" fill="#E1E4F5"/>
<path d="M256.708 187.086H202.345C196.959 187.086 192.135 184.682 188.888 180.889C190.802 181.739 192.923 182.212 195.153 182.212H254.51C255.204 183.858 255.937 185.482 256.708 187.086Z" fill="#EDB1C6"/>
<path d="M303.515 187.086H256.709C255.938 185.482 255.205 183.858 254.511 182.212H303.515V187.086Z" fill="#E296B2"/>
<path d="M338.177 187.086H303.515V182.212H335.501C339.387 182.212 342.938 180.777 345.653 178.409H353.413C350.327 183.604 344.659 187.086 338.177 187.086Z" fill="#E9CCE2"/>
<path d="M353.412 178.41H345.652C348.898 175.579 350.949 171.414 350.949 166.77V165.231H355.883V169.387C355.883 172.683 354.981 175.768 353.412 178.41Z" fill="#7E8CCE"/>
<path d="M355.883 165.23H350.949V165.193H355.883V165.23ZM355.883 162.869H350.949V154.047H355.883V162.869Z" fill="#9D93D1"/>
<path d="M350.949 165.191H355.883V162.868H350.949V165.191Z" fill="#5A63B8"/>
<path d="M350.948 30.1641V18.9043C350.948 16.607 350.446 14.4263 349.546 12.4667C353.419 15.7138 355.882 20.5868 355.882 26.036V30.0689C355.778 30.0682 355.679 30.0682 355.576 30.0682C354.024 30.0682 352.484 30.1004 350.948 30.1641Z" fill="#EDB1C6"/>
<path d="M355.883 73.6641H350.949V30.1658C352.486 30.1021 354.025 30.07 355.578 30.07C355.681 30.07 355.779 30.0699 355.883 30.0707V73.6641Z" fill="#E296B2"/>
<path d="M350.949 87.1641H355.883V73.6579H350.949V87.1641Z" fill="#E9CCE2"/>
<path d="M350.949 128.473V87.168H355.883V127.78L350.949 128.473Z" fill="#C9B1DE"/>
<path d="M355.883 152.707H350.949V152.687H355.264V141.902H350.949V132.296H355.883V152.707Z" fill="#9D93D1"/>
<path d="M355.883 129.699H350.949V128.474L355.883 127.781V129.699Z" fill="#384AA6"/>
<path d="M350.949 132.297H355.883V129.7H350.949V132.297Z" fill="#5259B1"/>
<path d="M355.264 152.688H350.949V151.241H354.455V146.636H354.926V146.215H354.455V142.626H353.242V142.316H352.797V142.626H351.369V142.316H350.949V141.902H355.264V152.688Z" fill="#6170BF"/>
<path d="M354.455 151.242H350.949V146.638H354.455V151.242ZM354.455 146.216H353.242V142.627H354.455V146.216ZM352.797 146.216H351.369V142.627H352.797V146.216Z" fill="#F6D3E0"/>
<path d="M354.926 146.637H350.949V146.542H351.369V146.215H352.797V146.542H353.242V146.215H354.455H354.926V146.637Z" fill="#6170BF"/>
<path d="M351.369 146.543H350.949V142.317H351.369V142.627V146.216V146.543Z" fill="#6170BF"/>
<path d="M353.243 146.543H352.798V142.317H353.243V142.627V146.216V146.543Z" fill="#6170BF"/>
<path d="M350.949 153.461H355.883V152.704H350.949V153.461Z" fill="#D8BDE3"/>
<path d="M350.949 154.047H355.883V154.018H350.949V154.047Z" fill="#9890D0"/>
<path d="M350.949 154.02H355.883V153.465H350.949V154.02Z" fill="#BCABDC"/>
<path d="M335.501 182.211H195.154C186.622 182.211 179.706 175.296 179.706 166.768V18.9046C179.706 10.3751 186.622 3.46167 195.154 3.46167H335.501C344.033 3.46167 350.95 10.3751 350.95 18.9046V166.768C350.95 175.296 344.033 182.211 335.501 182.211Z" fill="white"/>
<path d="M192.998 108.051V28.7436C192.998 22.9731 197.678 18.2947 203.45 18.2947H327.058C332.831 18.2947 337.51 22.9731 337.51 28.7436V103.577H326.935C326.94 103.497 326.943 103.417 326.943 103.336C326.943 101.202 325.212 99.4712 323.076 99.4712L323.053 99.4719C322.839 97.5389 321.201 96.0345 319.21 96.0345C318.324 96.0345 317.507 96.3344 316.855 96.8361C316.877 96.6386 316.889 96.4382 316.889 96.2349C316.889 95.2802 316.638 94.3842 316.201 93.6077C316.415 92.9614 316.532 92.2715 316.532 91.553C316.532 89.1361 315.218 87.0256 313.267 85.8948V54.3305H318.315L312.9 45.2106H304.857L299.76 36.6254H253.841V24.1218H245.758V29.9753C243.807 29.1072 241.65 28.6248 239.38 28.6248C230.707 28.6248 223.65 35.6785 223.65 44.3497C223.65 44.6388 223.658 44.9258 223.674 45.2106H223.073L217.659 54.3305H222.647V82.4309C222.59 82.4295 222.534 82.4288 222.476 82.4288C218.486 82.4288 215.251 85.6629 215.251 89.6521C215.251 90.4458 215.382 91.208 215.618 91.9222C215.134 92.7811 214.857 93.7716 214.857 94.8265C214.857 95.0512 214.87 95.2731 214.895 95.4913C214.174 94.936 213.271 94.6053 212.29 94.6053C210.091 94.6053 208.28 96.2679 208.044 98.4049L208.018 98.4042C205.657 98.4042 203.745 100.316 203.745 102.675C203.745 102.836 203.754 102.993 203.771 103.148H212.264H212.29H222.58V103.498H222.647V103.558H236.154H290.285C290.284 103.564 290.284 103.571 290.283 103.577H192.998V108.051Z" fill="#D5DAF1"/>
<path d="M203.45 118.5H327.058C332.831 118.5 337.51 113.822 337.51 108.051V103.577H192.998V108.051C192.998 113.822 197.678 118.5 203.45 118.5Z" fill="#859ED8"/>
<path d="M323.075 99.473L323.052 99.4737C322.839 97.5407 321.201 96.0363 319.21 96.0363C318.323 96.0363 317.506 96.3362 316.854 96.8379C316.876 96.6403 316.889 96.4399 316.889 96.2367C316.889 95.282 316.637 94.386 316.2 93.6094C316.414 92.9632 316.531 92.2733 316.531 91.5547C316.531 87.9463 313.605 85.0206 309.995 85.0206C306.385 85.0206 303.458 87.9463 303.458 91.5547C300.497 91.5547 298.097 93.9544 298.097 96.9144C298.097 97.3195 298.143 97.7131 298.228 98.0932L298.097 98.0896C296.694 98.0896 295.465 98.8367 294.788 99.9554C294.578 99.9203 294.363 99.901 294.144 99.901C292.009 99.901 290.278 101.631 290.278 103.766H294.682H298.01H301.512H319.21H319.234H326.918C326.933 103.625 326.942 103.482 326.942 103.338C326.942 101.203 325.211 99.473 323.075 99.473Z" fill="#4C5DB3"/>
<path d="M208.017 98.4042L208.044 98.4049C208.279 96.2679 210.091 94.6054 212.29 94.6054C213.271 94.6054 214.173 94.936 214.894 95.4914C214.87 95.2731 214.856 95.0513 214.856 94.8265C214.856 93.7716 215.134 92.7811 215.617 91.9223C215.381 91.2081 215.251 90.4459 215.251 89.6522C215.251 85.663 218.486 82.4288 222.476 82.4288C226.466 82.4288 229.701 85.663 229.701 89.6522C232.974 89.6522 235.627 92.3045 235.627 95.5758C235.627 96.0231 235.576 96.459 235.482 96.8784L235.627 96.8741C237.178 96.8741 238.537 97.7007 239.285 98.9374C239.516 98.8987 239.754 98.8773 239.996 98.8773C242.356 98.8773 244.27 100.79 244.27 103.148H239.401H235.723H231.853H212.29H212.263H203.771C203.753 102.993 203.744 102.836 203.744 102.675C203.744 100.316 205.657 98.4042 208.017 98.4042Z" fill="#4C5DB3"/>
<path d="M222.647 103.559H313.267V54.1212H222.647V103.559Z" fill="#859ED8"/>
<path d="M222.58 103.496H222.647V103.146H222.58V103.496Z" fill="#B8BEE6"/>
<path d="M222.58 103.148H222.647V98.3978H222.58V103.148Z" fill="#4556AF"/>
<path d="M313.267 103.496H299.76V98.3955H313.267V103.496ZM236.154 103.496H222.647V103.146V98.3955H236.154V103.496Z" fill="#758ACE"/>
<path d="M245.757 41.9414H253.84V24.1226H245.757V41.9414Z" fill="#3C52AC"/>
<path d="M318.313 54.3281H217.657L223.072 45.2082H312.899L318.313 54.3281Z" fill="#3C52AC"/>
<path d="M236.154 103.559H299.76V36.6262H236.154V103.559Z" fill="#BBBEE6"/>
<path d="M305.172 45.7461H230.739L236.153 36.6269H299.758L305.172 45.7461Z" fill="#4C5DB3"/>
<path d="M245.757 72.0938H254.988V54.9857H245.757V72.0938Z" fill="#939ED7"/>
<path d="M246.904 69.8008H253.84V56.1341H246.904V69.8008Z" fill="white"/>
<path d="M254.508 62.4961H246.178V61.8284H254.508V62.4961Z" fill="#939ED7"/>
<path d="M248.832 62.3438H249.463V55.6399H248.832V62.3438Z" fill="#939ED7"/>
<path d="M252.121 62.3438H251.489V55.64H252.121V62.3438Z" fill="#939ED7"/>
<path d="M244.694 74.207H256.052V72.1279H244.694V74.207Z" fill="#E1E4F5"/>
<path d="M256.051 74.2461H244.694V74.201H256.051V73.3221V74.2461Z" fill="#ADB4E1"/>
<path d="M244.694 74.207H256.052V73.3281H244.694V74.207Z" fill="#C6CAEA"/>
<path d="M280.057 72.0938V54.9855H289.288V72.0938H280.057Z" fill="#939ED7"/>
<path d="M288.14 69.8008H281.204V56.1342H288.14V69.8008Z" fill="white"/>
<path d="M288.808 62.4961H280.477V61.8284H288.808V62.4961Z" fill="#939ED7"/>
<path d="M283.762 62.3438H283.131V55.64H283.762V62.3438Z" fill="#939ED7"/>
<path d="M286.42 62.3438H285.788V55.64H286.42V62.3438Z" fill="#939ED7"/>
<path d="M278.992 74.207H290.349V72.1279H278.992V74.207Z" fill="#E1E4F5"/>
<path d="M290.349 74.2461H278.992V74.201H290.349V73.3221V74.2461Z" fill="#ADB4E1"/>
<path d="M278.992 74.207H290.349V73.3281H278.992V74.207Z" fill="#C6CAEA"/>
<path d="M243.716 54.9883H290.801V51.8427H243.716V54.9883Z" fill="#E1E4F5"/>
<path d="M262.55 72.1758V59.2399C262.55 56.4631 264.81 54.2037 267.588 54.2037C270.365 54.2037 272.625 56.4631 272.625 59.2399V72.1758H262.55Z" fill="#939ED7"/>
<path d="M271.574 71.1289H263.601V59.2436C263.601 57.0422 265.385 55.258 267.587 55.258C269.79 55.258 271.574 57.0422 271.574 59.2436V71.1289Z" fill="white"/>
<path d="M262.917 61.0078V60.2134H272.26V61.0078H262.917Z" fill="#939ED7"/>
<path d="M268.063 60.6875H267.29V54.703H268.063V60.6875Z" fill="#939ED7"/>
<path d="M261.843 74.207H273.2V72.1279H261.843V74.207Z" fill="#E1E4F5"/>
<path d="M273.2 74.2461H261.843V74.201H273.2V73.3221V74.2461Z" fill="#ADB4E1"/>
<path d="M261.843 74.207H273.2V73.3281H261.843V74.207Z" fill="#C6CAEA"/>
<path d="M263.366 57.6914H271.576C271.576 57.6914 271.069 54.8258 268.064 54.6992C265.059 54.5725 263.366 57.6914 263.366 57.6914Z" fill="#939ED7"/>
<path d="M299.76 103.559H236.154V98.458H299.76V103.499V103.559Z" fill="#AEB4E1"/>
<path d="M274.687 80.4694H260.216V103.559H274.687V80.4694Z" fill="#4C5DB3"/>
<path d="M273.2 103.559H261.843V82.0796H273.2V103.559Z" fill="#3C52AC"/>
<path d="M276.336 101.008H258.707V103.559H276.336V101.008Z" fill="#E1E4F5"/>
<path d="M273.164 98.454H261.851V101.004H273.164V98.454Z" fill="#A2AFDF"/>
<path d="M272.26 86.5781H262.917V83.4578H272.26V86.5781Z" fill="#4C5DB3"/>
<path d="M272.26 97.5H262.917V87.4805H272.26V97.5Z" fill="#4C5DB3"/>
<path d="M271.574 90.2748C271.574 90.7915 271.154 91.2109 270.637 91.2109C270.121 91.2109 269.701 90.7915 269.701 90.2748C269.701 89.7581 270.121 89.3387 270.637 89.3387C271.154 89.3387 271.574 89.7581 271.574 90.2748Z" fill="#E1E4F5"/>
<path d="M226.563 82V70.4124H232.816V82H226.563Z" fill="#4E65B9"/>
<path d="M232.037 80.4453H227.34V71.1894H232.037V80.4453Z" fill="white"/>
<path d="M232.49 75.5H226.848V75.0477H232.49V75.5Z" fill="#4E65B9"/>
<path d="M229.074 75.4023H228.646V70.8614H229.074V75.4023Z" fill="#4E65B9"/>
<path d="M230.873 75.4023H230.445V70.8614H230.873V75.4023Z" fill="#4E65B9"/>
<path d="M225.843 83.4297H233.535V82.0227H225.843V83.4297Z" fill="#E1E4F5"/>
<path d="M233.534 83.4609H225.843V83.4302H233.534V82.8354V83.4609Z" fill="#8A9FD8"/>
<path d="M225.843 83.4297H233.535V82.8351H225.843V83.4297Z" fill="#C6CAEA"/>
<path d="M303.476 82V70.4124H309.728V82H303.476Z" fill="#4E65B9"/>
<path d="M308.952 80.4453H304.254V71.1894H308.952V80.4453Z" fill="white"/>
<path d="M309.404 75.5H303.762V75.0477H309.404V75.5Z" fill="#4E65B9"/>
<path d="M305.986 75.4023H305.56V70.8614H305.986V75.4023Z" fill="#4E65B9"/>
<path d="M307.786 75.4023H307.357V70.8614H307.786V75.4023Z" fill="#4E65B9"/>
<path d="M302.756 83.4297H310.448V82.0227H302.756V83.4297Z" fill="#E1E4F5"/>
<path d="M310.448 83.4609H302.756V83.4302H310.448V82.8354V83.4609Z" fill="#8A9FD8"/>
<path d="M302.756 83.4297H310.448V82.8351H302.756V83.4297Z" fill="#C6CAEA"/>
<path d="M204.275 100.839C205.396 100.839 206.441 101.164 207.323 101.723C208.31 99.2893 210.695 97.5731 213.484 97.5731C214.699 97.5731 215.838 97.9009 216.818 98.4706C217.884 94.0792 221.84 90.8171 226.56 90.8171C231.649 90.8171 235.85 94.6081 236.497 99.519C236.761 99.4818 237.031 99.4611 237.306 99.4611C239.895 99.4611 242.079 101.185 242.776 103.547H199.422C200.427 101.923 202.224 100.839 204.275 100.839Z" fill="#4D5DB4"/>
<path d="M325.398 101.666C324.408 101.666 323.485 101.953 322.706 102.447C321.833 100.297 319.726 98.7798 317.262 98.7798C316.188 98.7798 315.182 99.0696 314.316 99.5727C313.375 95.693 309.879 92.8103 305.708 92.8103C301.211 92.8103 297.5 96.1604 296.928 100.5C296.695 100.466 296.457 100.448 296.213 100.448C293.927 100.448 291.997 101.972 291.381 104.059H329.686C328.798 102.623 327.211 101.666 325.398 101.666Z" fill="#4D5DB4"/>
<path d="M196.346 137.285H254.242V132.15H196.346V137.285Z" fill="#D4D9F0"/>
<path d="M196.346 150.227H335.237V145.815H196.346V150.227Z" fill="#E4E7F6"/>
<path d="M196.346 159.207H335.237V154.796H196.346V159.207Z" fill="#E4E7F6"/>
<path d="M196.346 168.18H335.237V163.768H196.346V168.18Z" fill="#E4E7F6"/>
<path d="M311.162 134.181C311.162 135.895 309.772 137.285 308.057 137.285C306.342 137.285 304.952 135.895 304.952 134.181C304.952 132.466 306.342 131.077 308.057 131.077C309.772 131.077 311.162 132.466 311.162 134.181Z" fill="#A3ACDE"/>
<path d="M323.07 134.181C323.07 135.895 321.68 137.285 319.965 137.285C318.25 137.285 316.86 135.895 316.86 134.181C316.86 132.466 318.25 131.077 319.965 131.077C321.68 131.077 323.07 132.466 323.07 134.181Z" fill="#A3ACDE"/>
<path d="M334.98 134.181C334.98 135.895 333.59 137.285 331.875 137.285C330.161 137.285 328.77 135.895 328.77 134.181C328.77 132.466 330.161 131.077 331.875 131.077C333.59 131.077 334.98 132.466 334.98 134.181Z" fill="#A3ACDE"/>
<path d="M262.246 112.218C262.246 113.174 261.471 113.949 260.515 113.949C259.559 113.949 258.783 113.174 258.783 112.218C258.783 111.262 259.559 110.487 260.515 110.487C261.471 110.487 262.246 111.262 262.246 112.218Z" fill="white"/>
<path d="M268.887 112.218C268.887 113.174 268.111 113.949 267.155 113.949C266.199 113.949 265.424 113.174 265.424 112.218C265.424 111.262 266.199 110.487 267.155 110.487C268.111 110.487 268.887 111.262 268.887 112.218Z" fill="white"/>
<path d="M275.528 112.218C275.528 113.174 274.754 113.949 273.797 113.949C272.841 113.949 272.065 113.174 272.065 112.218C272.065 111.262 272.841 110.487 273.797 110.487C274.754 110.487 275.528 111.262 275.528 112.218Z" fill="white"/>
<path d="M229.414 45.2109H223.674C223.658 44.9261 223.65 44.6391 223.65 44.35C223.65 35.6788 230.707 28.6251 239.38 28.6251C241.65 28.6251 243.807 29.1075 245.758 29.9756V36.6257H245.726C243.998 35.205 241.787 34.3505 239.38 34.3505C233.865 34.3505 229.378 38.8364 229.378 44.35C229.378 44.6398 229.39 44.9275 229.414 45.2109Z" fill="#E6EAF7"/>
<path d="M236.153 59.7383C232.591 58.9933 229.467 57.0395 227.232 54.327H236.153V59.7383Z" fill="#B1C3E9"/>
<path d="M253.078 36.625H245.757V29.9749C248.85 31.3512 251.42 33.6979 253.078 36.625Z" fill="#828DCC"/>
<path d="M236.154 54.3281H227.233C225.166 51.819 223.861 48.66 223.674 45.2082H229.414C229.758 49.2168 232.477 52.5575 236.154 53.8136V54.3281Z" fill="#828DCC"/>
<path d="M239.38 60.0781C238.275 60.0781 237.196 59.9636 236.154 59.7453V54.3341V53.8195C237.167 54.1652 238.252 54.3527 239.38 54.3527C240.932 54.3527 242.403 53.997 243.716 53.3636V54.9889H245.757V58.7276C243.807 59.5958 241.65 60.0781 239.38 60.0781ZM253.209 51.8435H246C247.744 50.302 248.948 48.1614 249.286 45.7481H255.049C254.855 47.9395 254.211 50.0021 253.209 51.8435Z" fill="#D6D6EF"/>
<path d="M255.048 45.7461H249.285C249.349 45.2902 249.381 44.8243 249.381 44.3512C249.381 41.2438 247.956 38.4626 245.725 36.6269H253.077C254.371 38.9099 255.109 41.5458 255.109 44.3512C255.109 44.8207 255.088 45.2866 255.048 45.7461Z" fill="#8D96D3"/>
<path d="M245.757 58.7266V54.9879H250.956C250.586 55.3901 250.195 55.7729 249.785 56.1351H249.464V55.6441H248.832V56.1351H246.904V58.1583C246.531 58.3623 246.148 58.5527 245.757 58.7266Z" fill="#BBC2E7"/>
<path d="M246.904 58.1562V56.133H248.832V56.9117C248.222 57.3712 247.579 57.7877 246.904 58.1562ZM249.464 56.41V56.133H249.785C249.679 56.2268 249.572 56.3191 249.464 56.41Z" fill="white"/>
<path d="M248.832 56.9102V55.6405H249.463V56.4085C249.257 56.5809 249.047 56.7484 248.832 56.9102Z" fill="#BBC2E7"/>
<path d="M250.957 54.9883H243.716V53.363C244.547 52.9615 245.315 52.4483 246 51.8429H253.209C252.588 52.9837 251.83 54.04 250.957 54.9883Z" fill="#ECEFF9"/>
<path d="M231.057 45.2109H229.413C229.389 44.9275 229.377 44.6398 229.377 44.35C229.377 38.8364 233.864 34.3505 239.38 34.3505C241.786 34.3505 243.997 35.205 245.725 36.6257H236.154L231.057 45.2109Z" fill="#ECEEF9"/>
<path d="M236.153 53.8164C232.476 52.5604 229.757 49.2196 229.413 45.2111H231.057L230.74 45.745H233.108C233.501 47.5192 234.628 49.0164 236.153 49.9038V53.8164Z" fill="#A4ACD7"/>
<path d="M239.38 54.3477C238.252 54.3477 237.167 54.1602 236.154 53.8145V49.9019C237.102 50.4537 238.205 50.7693 239.38 50.7693C242.449 50.7693 245.014 48.6187 245.652 45.7431H249.286C248.948 48.1563 247.744 50.2969 246 51.8385H243.716V53.3586C242.403 53.992 240.932 54.3477 239.38 54.3477Z" fill="#E2E4F5"/>
<path d="M249.285 45.7461H245.65C245.75 45.2974 245.802 44.8307 245.802 44.3512C245.802 40.8051 242.926 37.9302 239.379 37.9302C235.832 37.9302 232.956 40.8051 232.956 44.3512C232.956 44.8307 233.008 45.2974 233.107 45.7461H230.739L231.056 45.2122L236.153 36.6269H245.725C247.956 38.4626 249.381 41.2438 249.381 44.3512C249.381 44.8243 249.349 45.2902 249.285 45.7461Z" fill="#ADB1E0"/>
<path d="M243.716 53.3594V51.8393H246C245.315 52.4447 244.547 52.9579 243.716 53.3594Z" fill="#F2F3FA"/>
<path d="M236.153 49.9062C234.627 49.0188 233.5 47.5216 233.107 45.7474H236.153V49.9062Z" fill="#B5BCDE"/>
<path d="M239.38 50.7695C238.205 50.7695 237.102 50.4539 236.154 49.9021V45.7433H245.652C245.014 48.6189 242.449 50.7695 239.38 50.7695Z" fill="#E7E8F6"/>
<path d="M245.651 45.7461H233.108C233.008 45.2974 232.956 44.8307 232.956 44.3512C232.956 40.8051 235.832 37.9302 239.379 37.9302C242.926 37.9302 245.802 40.8051 245.802 44.3512C245.802 44.8307 245.75 45.2974 245.651 45.7461Z" fill="#BCC2E7"/>
<path d="M226.659 58.3477C226.696 58.1902 226.244 54.7793 229.704 51.7813C233.163 48.784 234.216 48.7898 233.538 50.7758C232.861 52.7625 226.659 58.3477 226.659 58.3477Z" fill="#E37C5F"/>
<path d="M135.735 79.2972L114.757 110.846C112.196 114.697 112.612 119.8 115.764 123.185L136.631 145.598L145.67 133.735L131.059 116.567L148.578 92.8608L135.735 79.2972Z" fill="#A31C2E"/>
<path d="M159.308 36.3766C161.064 37.8867 166.758 40.5512 167.816 49.4163C168.873 58.2821 168.164 65.1605 159.674 65.0088L162.419 76.6328L143.446 70.9739L145.34 44.4137L159.308 36.3766Z" fill="#EF8D6B"/>
<path d="M223.9 61.4181C224.251 61.0316 237.651 43.5297 239.365 42.8384C241.079 42.1463 242.375 43.7315 239.204 48.7377L238.498 50.0209C238.498 50.0209 241.303 50.826 240.486 53.3273C240.486 53.3273 242.586 54.4409 241.94 55.8057C241.94 55.8057 244.864 57.2714 243.517 59.4084C242.17 61.5447 241.412 64.1362 239.206 63.7304C239.206 63.7304 236.447 68.4324 231.185 68.8812L221.09 80.0078C221.09 80.0078 213.581 71.1212 213.889 71.0218C214.197 70.9216 223.9 61.4181 223.9 61.4181Z" fill="#EF8D6B"/>
<path d="M166.48 182.377L174.927 213.891L172.894 216.701C171.008 219.307 170.496 222.661 171.52 225.71L190.471 282.162L201.305 282.551L185.797 179.366L166.48 182.377Z" fill="#EF8D6B"/>
<path d="M159.409 181.854L152.42 280.793L143.447 278.877L135.738 217.587C135.506 213.344 137.782 209.358 141.556 207.4L140.346 174.822L159.409 181.854Z" fill="#EF8D6B"/>
<path d="M138.467 282.153C138.406 281.437 139.148 277.811 142.32 276.677C145.49 275.543 154.37 275.861 155.702 282.225C157.034 288.588 150.865 288.794 149.557 299.159C149.557 299.159 145.962 301.526 142.451 299.373C142.451 299.373 141.757 292.641 140.594 290.261C139.432 287.88 138.85 286.689 138.467 282.153Z" fill="#A31C2E"/>
<path d="M140.813 187.43C141.484 187.45 158.919 188.777 158.919 188.777L159.408 181.856L140.346 174.824L140.813 187.43Z" fill="#E37C5F"/>
<path d="M166.48 182.375C166.48 182.375 167.906 187.694 167.985 187.99C168.064 188.287 186.777 185.884 186.777 185.884L185.797 179.365L166.48 182.375Z" fill="#E37C5F"/>
<path d="M141.555 207.406C141.555 207.406 145.46 206.385 149.748 206.802L141.354 202.014L141.555 207.406Z" fill="#E37C5F"/>
<path d="M174.928 213.891C174.928 213.891 180.002 210.518 183.965 210.221L173.496 208.549L174.928 213.891Z" fill="#E37C5F"/>
<path d="M141.049 133.059C141.049 133.059 133.743 144.964 133.948 161.371C134.153 177.777 134.719 184.146 134.719 184.146C134.719 184.146 163.72 187.037 188.427 184.22L180 138.688L141.049 133.059Z" fill="#422A78"/>
<path d="M146.444 71.0844L159.717 70.33L199.711 83.5873L219.17 63.9083L229.422 74.0587L207.454 97.2009C205.557 99.1991 202.754 100.063 200.061 99.4789L177.794 94.6524L172.667 114.623L185.234 140.466C185.234 140.466 163.046 146.812 137.405 138.752C137.405 138.752 137.264 135.308 146.553 119.771L135.379 86.148C133.96 81.8811 135.747 77.207 139.65 74.9734L146.444 71.0844Z" fill="#CD2337"/>
<path d="M177.794 94.6508L171.603 92.4801L172.668 114.621L177.794 94.6508Z" fill="#A31C2E"/>
<path d="M146.554 119.768C146.554 119.768 151.774 123.277 165.29 120.439C165.29 120.439 151.784 121.698 145.604 116.908L146.554 119.768Z" fill="#A31C2E"/>
<path d="M162.085 81.6177C162.375 82.8444 166.318 95.6436 158.588 100.814C150.856 105.985 145.082 103.538 143.814 111.527L139.918 99.8031L162.085 81.6177Z" fill="#A31C2E"/>
<path d="M164.576 37.0966C165.016 37.7858 166.807 45.0391 161.9 48.878C161.9 48.878 159.27 50.6508 161.369 53.8284C163.469 57.0067 161.124 56.1136 159.591 53.638C158.059 51.1632 155.76 51.0451 155.216 52.5273C154.672 54.0095 154.788 60.102 159.852 59.5946C159.852 59.5946 157.973 70.669 161.267 79.1112C164.56 87.5526 162.763 97.1176 155.118 100.15C147.472 103.182 145.776 102.23 143.286 107.484C140.796 112.738 134.429 118.219 126.626 102.36C118.823 86.502 112.709 92.0098 118.079 80.2598C123.449 68.5098 126.988 71.4319 127.98 62.1782C128.973 52.9245 131.594 36.0009 147.566 33.6048C163.538 31.2072 164.576 37.0966 164.576 37.0966Z" fill="#5F2334"/>
<path d="M238.499 50.0225C238.499 50.0225 237.267 50.104 234.871 52.8086L240.427 46.5371L238.499 50.0225Z" fill="#E37C5F"/>
<path d="M240.486 53.3233C240.486 53.3233 239.211 53.7527 238.271 55.0273C238.271 55.0273 239.801 52.8367 240.616 52.1696C240.616 52.1696 240.745 52.7615 240.486 53.3233Z" fill="#E37C5F"/>
<path d="M241.941 55.8051C241.941 55.8051 240.192 56.6632 239.822 58.0859C239.822 58.0859 240.285 55.9947 242.012 54.9405C242.012 54.9405 242.141 55.4029 241.941 55.8051Z" fill="#E37C5F"/>
<path d="M239.205 63.7321L242.374 59.8711C242.374 59.8711 241.433 62.1204 242.571 61.0677C242.571 61.0677 241.385 64.4328 239.205 63.7321Z" fill="#E37C5F"/>
<path d="M486.827 73.6641H477.373C484.315 66.4622 488.584 56.6681 488.584 45.8771C488.584 36.9097 485.635 28.6293 480.655 21.9541C488.598 29.2734 493.575 39.7624 493.575 51.4122C493.575 59.6468 491.089 67.2995 486.827 73.6641Z" fill="#EDB1C6"/>
<path d="M471.576 87.1641H435.443C429.883 84.3514 425.069 80.2814 421.373 75.3282C428.511 81.9052 438.046 85.9224 448.519 85.9224C459.851 85.9224 470.085 81.2182 477.372 73.6578H486.826C483.002 79.3682 477.747 84.0416 471.576 87.1641Z" fill="#E9CCE2"/>
<path d="M453.511 91.4609C447.011 91.4609 440.872 89.9129 435.444 87.1669H471.578C466.149 89.9129 460.011 91.4609 453.511 91.4609Z" fill="#C9B1DE"/>
<path d="M488.584 45.8782C488.584 67.9977 470.646 85.9297 448.519 85.9297C426.393 85.9297 408.455 67.9977 408.455 45.8782C408.455 23.7587 426.393 5.82668 448.519 5.82668C470.646 5.82668 488.584 23.7587 488.584 45.8782Z" fill="#F3F5FB"/>
<path d="M448.52 77.8711C430.872 77.8711 416.516 63.5182 416.516 45.8767C416.516 28.2345 430.872 13.8823 448.52 13.8823C466.167 13.8823 480.523 28.2345 480.523 45.8767C480.523 63.5182 466.167 77.8711 448.52 77.8711Z" fill="#2B4598"/>
<path d="M453.477 41.1379L452.457 40.1181H443.982L442.923 41.1766C440.563 39.5219 439.019 36.7838 439.019 33.6827C439.019 28.6286 443.118 24.5321 448.173 24.5321C453.228 24.5321 457.327 28.6286 457.327 33.6827C457.327 36.7594 455.806 39.4797 453.477 41.1379ZM447.887 22.048C441.507 22.1982 436.342 27.4671 436.314 33.8466C436.295 38.097 438.514 41.8314 441.86 43.9391C442.908 44.5982 443.549 45.7419 443.549 46.9793V52.5745C443.549 52.8693 443.665 53.1527 443.873 53.3632L444.733 54.2363V68.9599C444.733 69.6842 445.054 70.3698 445.611 70.8329L445.799 70.9896C446.907 71.9092 448.533 71.8348 449.551 70.8171L452.152 68.2171C452.273 68.0961 452.341 67.9315 452.341 67.7612V66.9525C452.341 66.6619 452.148 66.4071 451.868 66.3312C451.459 66.221 450.923 65.9104 450.849 65.0437C450.758 64.0003 451.275 63.5644 451.678 63.3848C451.953 63.2624 452.121 62.9804 452.12 62.6798L452.086 54.2356L452.91 53.3596C453.105 53.1506 453.214 52.8758 453.214 52.5895V46.6844C453.214 45.49 453.828 44.39 454.817 43.7194C457.963 41.5881 460.032 37.9868 460.032 33.9003C460.032 27.2574 454.567 21.8912 447.887 22.048Z" fill="#F8A123"/>
<path d="M448.173 33.4966C446.573 33.4966 445.276 32.2005 445.276 30.6009C445.276 29.0021 446.573 27.706 448.173 27.706C449.772 27.706 451.069 29.0021 451.069 30.6009C451.069 32.2005 449.772 33.4966 448.173 33.4966ZM448.173 24.5313C443.117 24.5313 439.019 28.6278 439.019 33.6819C439.019 36.783 440.563 39.5211 442.922 41.1758L443.981 40.1173H452.456L453.477 41.1371C455.806 39.4789 457.326 36.7586 457.326 33.6819C457.326 28.6278 453.228 24.5313 448.173 24.5313Z" fill="#C77D26"/>
<path d="M449.015 43.5212V71.2344C449.206 71.1192 449.387 70.9825 449.551 70.8186L451.338 69.0322V66.0672C451.096 65.8697 450.892 65.554 450.849 65.0452C450.782 64.2859 451.039 63.8493 451.338 63.5981V43.5212H449.015Z" fill="#C77D26"/>
<path d="M445.849 43.5213V71.0284C446.524 71.5645 447.379 71.7413 448.172 71.5695V43.5213H445.849Z" fill="#C77D26"/>
<path d="M459.908 32.1797C459.908 32.1761 459.907 32.1725 459.907 32.1689C459.908 32.1761 459.908 32.1797 459.908 32.1797ZM459.355 29.9425C459.149 29.3585 458.897 28.7952 458.605 28.2577L458.61 28.2571C458.912 28.7308 459.16 29.3427 459.355 29.9425Z" fill="#855F46"/>
<path d="M459.908 32.1797C458.27 31.8025 458.725 29.5632 458.725 29.5632C458.008 29.2275 458.007 28.4087 458.007 28.4087L458.605 28.2577C458.897 28.7952 459.149 29.3585 459.355 29.9425C459.706 31.0181 459.887 32.053 459.907 32.1689C459.907 32.1725 459.908 32.1761 459.908 32.1797Z" fill="#D88A25"/>
<path d="M33.1744 77.75C29.9794 76.5734 27.2242 74.4872 25.2236 71.8056C27.425 73.8338 30.1503 75.3024 33.1744 75.9844V77.75ZM56.1052 57.2308H54.3512C54.0266 54.0152 52.8267 51.0581 50.9938 48.6011C53.4648 50.8784 55.2758 53.8621 56.1052 57.2308Z" fill="#EDB1C6"/>
<path d="M39.1925 78.8203C37.0766 78.8203 35.0497 78.4439 33.1738 77.7532V75.9877C34.4121 76.2668 35.7008 76.4142 37.0235 76.4142C46.6421 76.4142 54.4396 68.619 54.4396 59.0032C54.4396 58.4063 54.4094 57.8159 54.3507 57.234H56.1046C56.4344 58.5716 56.6088 59.9701 56.6088 61.41C56.6088 66.0469 54.7953 70.2608 51.8388 73.3812C50.6688 74.0324 49.6369 74.9027 48.7985 75.9354C46.0451 77.759 42.7426 78.8203 39.1925 78.8203Z" fill="#E9CCE2"/>
<path d="M48.7988 75.9336C49.6372 74.9009 50.6691 74.0306 51.8391 73.3793C50.9278 74.3412 49.9079 75.1993 48.7988 75.9336Z" fill="#C9B1DE"/>
<path d="M54.439 58.9991C54.439 68.615 46.6415 76.4102 37.0228 76.4102C27.404 76.4102 19.6064 68.615 19.6064 58.9991C19.6064 49.384 27.404 41.5888 37.0228 41.5888C46.6415 41.5888 54.439 49.384 54.439 58.9991Z" fill="#F3F5FB"/>
<path d="M37.024 72.9102C29.3526 72.9102 23.1113 66.6709 23.1113 59.0017C23.1113 51.3332 29.3526 45.0939 37.024 45.0939C44.6954 45.0939 50.9364 51.3332 50.9364 59.0017C50.9364 66.6709 44.6954 72.9102 37.024 72.9102Z" fill="#2B4598"/>
<path d="M39.1782 56.9466L38.7344 56.5036H35.0503L34.5897 56.9638C33.564 56.2445 32.8931 55.0536 32.8931 53.706C32.8931 51.5089 34.6744 49.7283 36.872 49.7283C39.0697 49.7283 40.8511 51.5089 40.8511 53.706C40.8511 55.0436 40.1905 56.2259 39.1782 56.9466ZM36.7475 48.6483C33.9745 48.7134 31.7292 51.0036 31.7168 53.7768C31.7088 55.6247 32.6729 57.2479 34.128 58.1647C34.583 58.4509 34.8623 58.9483 34.8623 59.4858V61.9184C34.8623 62.0465 34.9127 62.1696 35.0027 62.2612L35.3766 62.6405V69.0415C35.3766 69.3557 35.5165 69.6542 35.7586 69.8553L35.8403 69.9233C36.3218 70.3233 37.0285 70.2911 37.4712 69.8481L38.6016 68.7181C38.6544 68.6658 38.6838 68.5942 38.6838 68.5198V68.1684C38.6838 68.0425 38.5999 67.9315 38.4782 67.8986C38.3007 67.8507 38.0677 67.7154 38.035 67.3389C37.9956 66.8852 38.2207 66.6956 38.3958 66.6176C38.5152 66.5646 38.5884 66.4422 38.5881 66.3112L38.573 62.6405L38.9313 62.2598C39.0163 62.1689 39.0638 62.0494 39.0638 61.9248V59.3584C39.0638 58.8381 39.3301 58.3608 39.7604 58.0688C41.1282 57.1427 42.0273 55.5768 42.0273 53.8005C42.0273 50.9127 39.6517 48.5803 36.7475 48.6483Z" fill="#F8A123"/>
<path d="M36.8734 53.6184C36.1782 53.6184 35.6147 53.0552 35.6147 52.3602C35.6147 51.6646 36.1782 51.1013 36.8734 51.1013C37.5689 51.1013 38.1327 51.6646 38.1327 52.3602C38.1327 53.0552 37.5689 53.6184 36.8734 53.6184ZM36.8734 49.7215C34.6756 49.7215 32.8945 51.5021 32.8945 53.6993C32.8945 55.0469 33.5657 56.2378 34.5912 56.957L35.0515 56.4969H38.7358L39.1797 56.9406C40.1917 56.2192 40.8526 55.0369 40.8526 53.6993C40.8526 51.5021 39.0712 49.7215 36.8734 49.7215Z" fill="#C77D26"/>
<path d="M37.2393 57.9803V70.0273C37.3223 69.9772 37.4012 69.9178 37.4725 69.8463L38.2491 69.0698V67.7815C38.1439 67.6949 38.0555 67.5582 38.0363 67.3371C38.0075 67.0072 38.119 66.8175 38.2491 66.708V57.9803H37.2393Z" fill="#C77D26"/>
<path d="M35.8633 57.9831V69.9406C36.1567 70.1732 36.5286 70.2505 36.8731 70.1754V57.9831H35.8633Z" fill="#C77D26"/>
<path d="M41.7346 52.0781C41.6445 51.8241 41.5352 51.5786 41.4082 51.3446H41.4099C41.5416 51.5507 41.6495 51.8169 41.7346 52.0781Z" fill="#855F46"/>
<path d="M41.974 53.0469C41.2618 52.883 41.4598 51.9089 41.4598 51.9089C41.148 51.7637 41.1475 51.4072 41.1475 51.4072L41.4078 51.3414C41.5348 51.5754 41.6441 51.8209 41.7341 52.075C41.8958 52.5709 41.974 53.0469 41.974 53.0469Z" fill="#D88A25"/>
</svg>
