<svg width="359" height="223" viewBox="0 0 359 223" fill="none" xmlns="http://www.w3.org/2000/svg">
<path d="M0 223H358.059V222.922H0V223Z" fill="#F6D3E0"/>
<path d="M112.672 111.777V53.9788C112.672 50.3416 111.028 47.0881 108.442 44.9205C106.812 41.3726 103.226 38.9088 99.0655 38.9088H59.4756C67.7239 21.6325 85.3603 9.69566 105.786 9.69566C110.532 9.69566 115.127 10.3401 119.489 11.5455C119.388 12.1227 119.336 12.7161 119.336 13.3219V110.427C117.169 111.019 114.943 111.473 112.672 111.777Z" fill="#EDB1C6"/>
<path d="M236.743 167.102C207.666 167.102 182.549 150.149 170.741 125.593H201.987V149.139C201.987 152.968 204.28 156.262 207.568 157.722C209.543 160.028 212.475 161.489 215.749 161.489H264.903C256.235 165.105 246.722 167.102 236.743 167.102ZM279.526 49.8763H236.947V20.7749C249.685 20.8098 261.661 24.0987 272.081 29.8534C272.055 30.3412 272.042 30.8328 272.042 31.3268C272.042 38.5305 274.891 45.0686 279.526 49.8763Z" fill="#EDB1C6"/>
<path d="M41.0018 26.8398C35.9999 26.8398 31.9453 22.7865 31.9453 17.7863C31.9453 12.7865 35.9999 8.73271 41.0018 8.73271C46.0034 8.73271 50.0579 12.7865 50.0579 17.7863C50.0579 22.7865 46.0034 26.8398 41.0018 26.8398Z" fill="#EDB1C6"/>
<path d="M258.175 15.7266C254.313 15.7266 251.182 12.5963 251.182 8.73453C251.182 4.87327 254.313 1.74299 258.175 1.74299C262.038 1.74299 265.169 4.87327 265.169 8.73453C265.169 12.5963 262.038 15.7266 258.175 15.7266Z" fill="#EDB1C6"/>
<path d="M276.251 5.64062C274.887 5.64062 273.781 4.53508 273.781 3.17155C273.781 1.80802 274.887 0.702964 276.251 0.702964C277.615 0.702964 278.72 1.80802 278.72 3.17155C278.72 4.53508 277.615 5.64062 276.251 5.64062Z" fill="#EDB1C6"/>
<path d="M344.643 45.8281C343.28 45.8281 342.174 44.7231 342.174 43.3595C342.174 41.996 343.28 40.8905 344.643 40.8905C346.008 40.8905 347.113 41.996 347.113 43.3595C347.113 44.7231 346.008 45.8281 344.643 45.8281Z" fill="#EDB1C6"/>
<path d="M17.2079 16.4805C15.844 16.4805 14.7383 15.3754 14.7383 14.0119C14.7383 12.6484 15.844 11.5433 17.2079 11.5433C18.5717 11.5433 19.6774 12.6484 19.6774 14.0119C19.6774 15.3754 18.5717 16.4805 17.2079 16.4805Z" fill="#EDB1C6"/>
<path d="M340.232 107.43V59.2666C340.232 57.8701 339.927 56.5448 339.38 55.3533C341.734 57.3269 343.231 60.2895 343.231 63.6018V106.719C342.207 106.889 341.206 107.128 340.232 107.43Z" fill="#EDB1C6"/>
<path d="M330.842 158.523H211.376C206.191 158.523 201.986 154.321 201.986 149.136V59.2601C201.986 54.0759 206.191 49.873 211.376 49.873H330.842C336.028 49.873 340.232 54.0759 340.232 59.2601V149.136C340.232 154.321 336.028 158.523 330.842 158.523Z" fill="#F3F5FB"/>
<path d="M332.064 110.73H321.375V89.0182H322.237V87.2848L292.718 83.1388V79.8772V79.7018V79.5757H294.49V77.9489L292.657 77.2743V73.5908H279.081L274.739 72.2588L270.396 73.5908H256.517V77.2953L254.771 77.8061V79.581L256.579 79.5805V79.581L256.557 79.8757H256.579V83.2468L236.946 86.0044V58.8934H290.058C293.681 60.7266 297.779 61.76 302.118 61.76C306.457 61.76 310.555 60.7266 314.179 58.8934H325.71C329.219 58.8934 332.064 61.7371 332.064 65.2443V110.73ZM254.771 79.581L256.582 79.0287H256.597L254.771 79.581Z" fill="#D0D3EE"/>
<path d="M216.418 119.801H325.71C329.219 119.801 332.063 116.957 332.063 113.449V110.73H210.065V113.449C210.065 116.957 212.91 119.801 216.418 119.801Z" fill="#859ED8"/>
<path d="M212.102 131.219H247.293V128.098H212.102V131.219Z" fill="#CFD4EE"/>
<path d="M212.102 139.086H330.682V136.404H212.102V139.086Z" fill="#DDDFF3"/>
<path d="M212.102 144.539H330.682V141.858H212.102V144.539Z" fill="#DDDFF3"/>
<path d="M212.102 149.996H330.682V147.315H212.102V149.996Z" fill="#DDDFF3"/>
<path d="M316.049 129.332C316.049 130.374 315.204 131.219 314.162 131.219C313.119 131.219 312.274 130.374 312.274 129.332C312.274 128.29 313.119 127.445 314.162 127.445C315.204 127.445 316.049 128.29 316.049 129.332Z" fill="#A3ACDE"/>
<path d="M323.287 129.332C323.287 130.374 322.442 131.219 321.399 131.219C320.357 131.219 319.512 130.374 319.512 129.332C319.512 128.29 320.357 127.445 321.399 127.445C322.442 127.445 323.287 128.29 323.287 129.332Z" fill="#A3ACDE"/>
<path d="M330.526 129.332C330.526 130.374 329.682 131.219 328.639 131.219C327.596 131.219 326.752 130.374 326.752 129.332C326.752 128.29 327.596 127.445 328.639 127.445C329.682 127.445 330.526 128.29 330.526 129.332Z" fill="#A3ACDE"/>
<path d="M268.407 115.983C268.407 116.565 267.936 117.035 267.354 117.035C266.773 117.035 266.302 116.565 266.302 115.983C266.302 115.402 266.773 114.931 267.354 114.931C267.936 114.931 268.407 115.402 268.407 115.983Z" fill="white"/>
<path d="M272.445 115.983C272.445 116.565 271.973 117.035 271.392 117.035C270.811 117.035 270.34 116.565 270.34 115.983C270.34 115.402 270.811 114.931 271.392 114.931C271.973 114.931 272.445 115.402 272.445 115.983Z" fill="white"/>
<path d="M276.482 115.983C276.482 116.565 276.011 117.035 275.429 117.035C274.848 117.035 274.377 116.565 274.377 115.983C274.377 115.402 274.848 114.931 275.429 114.931C276.011 114.931 276.482 115.402 276.482 115.983Z" fill="white"/>
<path d="M283.187 111.004H321.375V87.9652H283.187V111.004Z" fill="#A3ACDE"/>
<path d="M322.237 89.0195H283.248V81.8101L322.237 87.2862V89.0195Z" fill="#3C52AC"/>
<path d="M283.248 89.0195H322.237V87.2861H283.248V89.0195Z" fill="#5661B7"/>
<path d="M228.692 111.004H266.88V87.9652H228.692V111.004Z" fill="#A3ACDE"/>
<path d="M227.828 89.0195H266.818V81.8101L227.828 87.2862V89.0195Z" fill="#3C52AC"/>
<path d="M227.828 89.0195H266.818V87.2861H227.828V89.0195Z" fill="#5661B7"/>
<path d="M292.718 110.977H256.578V79.0965L274.648 73.651L292.718 79.0965V110.977Z" fill="#BBBEE6"/>
<path d="M321.375 110.977H283.187H292.718V109.425H321.375V110.977Z" fill="#5F6FBF"/>
<path d="M266.879 110.977H236.946V109.425H256.579V110.977H266.879Z" fill="#5F6FBF"/>
<path d="M292.718 110.977H256.578V109.425H270.462V110.844H271.789H272.201H277.841H279.167V109.425H292.718V110.977Z" fill="#6B79C5"/>
<path d="M256.516 79.0273H292.655V73.5895H256.516V79.0273Z" fill="#5661B7"/>
<path d="M254.771 79.582L274.588 73.5919L294.491 79.5768L254.771 79.582Z" fill="#BBBEE6"/>
<path d="M254.771 79.582V77.8071L261.58 75.8163L260.883 77.7197L254.771 79.582Z" fill="#5661B7"/>
<path d="M294.489 79.5781V77.9513L291.349 76.7956V78.6336L294.489 79.5781Z" fill="#5661B7"/>
<path d="M270.196 73.6494L274.739 72.2558L279.282 73.6494L276.734 74.2332L274.587 73.5878L271.156 74.625L270.196 73.6494Z" fill="#5661B7"/>
<path d="M270.462 110.844V98.7311C270.462 96.3322 272.415 94.3801 274.815 94.3801C277.214 94.3801 279.167 96.3322 279.167 98.7311V110.844H270.462Z" fill="#3C52AC"/>
<path d="M277.841 110.844H271.789V98.7311C271.789 97.0604 273.144 95.7059 274.815 95.7059C276.486 95.7059 277.841 97.0604 277.841 98.7311V110.844Z" fill="#4C5DB3"/>
<path d="M272.201 110.844H271.789V98.7311C271.789 97.0604 273.144 95.7059 274.815 95.7059C274.819 95.7059 274.822 95.7059 274.826 95.7059C274.827 95.7059 274.828 95.7059 274.829 95.7059C274.831 95.7059 274.834 95.7059 274.836 95.7059C274.837 95.7059 274.839 95.7059 274.84 95.7059C274.842 95.7059 274.844 95.7059 274.847 95.7059C274.848 95.7059 274.849 95.7059 274.851 95.7059C274.852 95.7059 274.855 95.7059 274.857 95.7064C274.859 95.7064 274.86 95.7064 274.861 95.7064C274.863 95.7064 274.865 95.7064 274.868 95.7064C274.869 95.7064 274.87 95.7064 274.872 95.7064C274.874 95.7064 274.876 95.7064 274.879 95.7064C274.88 95.7064 274.881 95.7064 274.882 95.7064C274.884 95.7069 274.887 95.7069 274.89 95.7069C274.891 95.7069 274.892 95.7069 274.893 95.7069C274.9 95.7069 274.906 95.7073 274.914 95.7073C274.914 95.7073 274.915 95.7073 274.916 95.7073C274.918 95.7078 274.921 95.7078 274.924 95.7078C274.925 95.7078 274.927 95.7078 274.928 95.7078C274.93 95.7078 274.932 95.7083 274.934 95.7083C274.935 95.7083 274.937 95.7083 274.938 95.7083C274.94 95.7083 274.943 95.7083 274.945 95.7088C274.946 95.7088 274.947 95.7088 274.948 95.7088C274.95 95.7088 274.953 95.7088 274.955 95.7092C274.957 95.7092 274.958 95.7092 274.959 95.7092C274.961 95.7092 274.964 95.7092 274.966 95.7097C274.967 95.7097 274.968 95.7097 274.969 95.7097C274.972 95.7097 274.975 95.7102 274.978 95.7102C274.979 95.7102 274.979 95.7102 274.98 95.7102C274.987 95.7107 274.994 95.7112 275.001 95.7116C275.004 95.7116 275.008 95.7121 275.011 95.7121C275.012 95.7121 275.013 95.7121 275.014 95.7121C275.016 95.7126 275.019 95.7126 275.022 95.7131C275.023 95.7131 275.024 95.7131 275.024 95.7131C275.027 95.7131 275.03 95.7136 275.033 95.7136C275.033 95.7136 275.034 95.7136 275.035 95.7136C275.037 95.714 275.04 95.714 275.043 95.7145C275.044 95.7145 275.045 95.7145 275.045 95.7145C275.048 95.7145 275.051 95.715 275.055 95.715C275.055 95.7155 275.055 95.7155 275.056 95.7155C275.073 95.7169 275.091 95.7183 275.109 95.7198C275.109 95.7198 275.109 95.7202 275.11 95.7202C275.113 95.7202 275.116 95.7207 275.119 95.7212C275.12 95.7212 275.12 95.7212 275.121 95.7212C275.123 95.7212 275.127 95.7217 275.13 95.7221C275.13 95.7221 275.131 95.7221 275.131 95.7221C275.943 95.8062 276.659 96.2114 277.151 96.8081C276.628 96.3767 275.958 96.1182 275.227 96.1182C273.556 96.1182 272.201 97.4722 272.201 99.1429V110.844Z" fill="#3447A3"/>
<path d="M259.933 95.2227H266.449V84.5389H259.933V95.2227Z" fill="#687EC7"/>
<path d="M260.597 94.5625H265.787V85.2046H260.597V94.5625Z" fill="white"/>
<path d="M260.597 89.3125V85.2047H265.787V86.1234L260.597 89.3125Z" fill="#E2E5F5"/>
<path d="M259.338 95.5039H267.048V94.093H259.338V95.5039Z" fill="#E1E4F5"/>
<path d="M266.326 87.9531H260.367V87.4047H266.326V87.9531Z" fill="#687EC7"/>
<path d="M266.326 94.0977H260.367V93.5492H266.326V94.0977Z" fill="#687EC7"/>
<path d="M263.492 94.0977H262.892V84.8234H263.492V94.0977Z" fill="#687EC7"/>
<path d="M267.048 95.543H259.338V95.5119H267.048V94.9157V95.543Z" fill="#ADB4E1"/>
<path d="M259.338 95.5039H267.048V94.9076H259.338V95.5039Z" fill="#C6CAEA"/>
<path d="M282.938 95.2227H289.455V84.5389H282.938V95.2227Z" fill="#687EC7"/>
<path d="M283.6 94.5625H288.791V85.2046H283.6V94.5625Z" fill="white"/>
<path d="M283.6 89.3125V85.2047H288.791V86.1234L283.6 89.3125Z" fill="#E2E5F5"/>
<path d="M282.341 95.5039H290.051V94.093H282.341V95.5039Z" fill="#E1E4F5"/>
<path d="M289.33 87.9531H283.371V87.4047H289.33V87.9531Z" fill="#687EC7"/>
<path d="M289.33 94.0977H283.371V93.5492H289.33V94.0977Z" fill="#687EC7"/>
<path d="M286.496 94.0977H285.895V84.8234H286.496V94.0977Z" fill="#687EC7"/>
<path d="M290.051 95.543H282.341V95.5119H290.051V94.9157V95.543Z" fill="#ADB4E1"/>
<path d="M282.341 95.5039H290.051V94.9076H282.341V95.5039Z" fill="#C6CAEA"/>
<path d="M276.786 101.976C276.786 102.272 276.546 102.512 276.251 102.512C275.955 102.512 275.715 102.272 275.715 101.976C275.715 101.68 275.955 101.44 276.251 101.44C276.546 101.44 276.786 101.68 276.786 101.976Z" fill="#939ED7"/>
<path d="M279.167 109.425H270.462V110.977H279.167V109.425Z" fill="#E1E4F5"/>
<path d="M277.841 107.991H271.789V109.426H277.841V107.991Z" fill="#A2AFDF"/>
<path d="M256.516 77.293V73.5908H270.395L261.527 75.9562L261.578 75.8153L256.622 77.2643L256.516 77.293Z" fill="#4B59B1"/>
<path d="M256.622 77.2617L261.578 75.8127L261.526 75.9536L256.622 77.2617Z" fill="#4B59B1"/>
<path d="M292.656 77.2734L291.349 76.7923V76.9194L279.281 73.6515L292.656 73.5899V77.2734Z" fill="#4B59B1"/>
<path d="M292.656 77.2734L291.349 76.9189V76.7919L292.656 77.273V77.2734Z" fill="#4B59B1"/>
<path d="M256.579 79.875H256.558L256.579 79.5811V79.875Z" fill="#BBC0E6"/>
<path d="M292.718 79.875L256.578 79.8736V79.5788L256.579 79.5783L292.293 79.5735L292.718 79.6997V79.875Z" fill="#ADB4E1"/>
<path d="M256.579 79.582L274.648 74.3577L292.294 79.5772L256.579 79.582Z" fill="#ADB4E1"/>
<path d="M232.188 102.629H236.534V95.4289H232.188V102.629Z" fill="#687EC7"/>
<path d="M232.729 101.668H235.994V95.9167H232.729V101.668Z" fill="white"/>
<path d="M232.386 98.5898H236.307V98.3084H232.386V98.5898Z" fill="#687EC7"/>
<path d="M233.636 98.5273H233.933V95.7061H233.636V98.5273Z" fill="#687EC7"/>
<path d="M234.887 98.5273H235.184V95.7061H234.887V98.5273Z" fill="#687EC7"/>
<path d="M231.686 103.52H237.032V102.645H231.686V103.52Z" fill="#E1E4F5"/>
<path d="M237.033 103.535H236.946V103.516H237.033V103.146V103.535Z" fill="#9FA7DC"/>
<path d="M236.946 103.52H237.033V103.15H236.946V103.52Z" fill="#C6CAEA"/>
<path d="M240.183 102.629V95.4291H244.529V102.629H240.183Z" fill="#687EC7"/>
<path d="M243.988 101.668H240.723V95.9167H243.988V101.668Z" fill="white"/>
<path d="M244.303 98.5898H240.381V98.3084H244.303V98.5898Z" fill="#687EC7"/>
<path d="M241.928 98.5273H241.63V95.7062H241.928V98.5273Z" fill="#687EC7"/>
<path d="M243.18 98.5273H242.882V95.7062H243.18V98.5273Z" fill="#687EC7"/>
<path d="M239.683 103.52H245.029V102.645H239.683V103.52Z" fill="#E1E4F5"/>
<path d="M245.03 103.535H239.683V103.516H245.03V103.146V103.535Z" fill="#9FA7DC"/>
<path d="M239.683 103.52H245.029V103.15H239.683V103.52Z" fill="#C6CAEA"/>
<path d="M248.178 102.629V95.4291H252.523V102.629H248.178Z" fill="#687EC7"/>
<path d="M251.983 101.668H248.719V95.9167H251.983V101.668Z" fill="white"/>
<path d="M252.299 98.5898H248.377V98.3084H252.299V98.5898Z" fill="#687EC7"/>
<path d="M249.923 98.5273H249.626V95.7062H249.923V98.5273Z" fill="#687EC7"/>
<path d="M251.174 98.5273H250.877V95.7062H251.174V98.5273Z" fill="#687EC7"/>
<path d="M247.679 103.52H253.025V102.645H247.679V103.52Z" fill="#E1E4F5"/>
<path d="M253.025 103.535H247.679V103.516H253.025V103.146V103.535Z" fill="#9FA7DC"/>
<path d="M247.679 103.52H253.025V103.15H247.679V103.52Z" fill="#C6CAEA"/>
<path d="M296.646 102.629V95.4291H300.993V102.629H296.646Z" fill="#687EC7"/>
<path d="M300.452 101.668H297.187V95.9167H300.452V101.668Z" fill="white"/>
<path d="M300.767 98.5898H296.845V98.3084H300.767V98.5898Z" fill="#687EC7"/>
<path d="M298.392 98.5273H298.095V95.7062H298.392V98.5273Z" fill="#687EC7"/>
<path d="M299.643 98.5273H299.346V95.7062H299.643V98.5273Z" fill="#687EC7"/>
<path d="M296.147 103.52H301.494V102.645H296.147V103.52Z" fill="#E1E4F5"/>
<path d="M301.494 103.535H296.147V103.516H301.494V103.146V103.535Z" fill="#9FA7DC"/>
<path d="M296.147 103.52H301.494V103.15H296.147V103.52Z" fill="#C6CAEA"/>
<path d="M304.642 102.629V95.4291H308.987V102.629H304.642Z" fill="#687EC7"/>
<path d="M308.448 101.668H305.184V95.9167H308.448V101.668Z" fill="white"/>
<path d="M308.762 98.5898H304.84V98.3084H308.762V98.5898Z" fill="#687EC7"/>
<path d="M306.388 98.5273H306.091V95.7062H306.388V98.5273Z" fill="#687EC7"/>
<path d="M307.638 98.5273H307.341V95.7062H307.638V98.5273Z" fill="#687EC7"/>
<path d="M304.142 103.52H309.488V102.645H304.142V103.52Z" fill="#E1E4F5"/>
<path d="M309.488 103.535H304.142V103.516H309.488V103.146V103.535Z" fill="#9FA7DC"/>
<path d="M304.142 103.52H309.488V103.15H304.142V103.52Z" fill="#C6CAEA"/>
<path d="M312.638 102.629V95.4291H316.984V102.629H312.638Z" fill="#687EC7"/>
<path d="M316.443 101.668H313.178V95.9167H316.443V101.668Z" fill="white"/>
<path d="M316.758 98.5898H312.836V98.3084H316.758V98.5898Z" fill="#687EC7"/>
<path d="M314.384 98.5273H314.086V95.7062H314.384V98.5273Z" fill="#687EC7"/>
<path d="M315.633 98.5273H315.336V95.7062H315.633V98.5273Z" fill="#687EC7"/>
<path d="M312.137 103.52H317.484V102.645H312.137V103.52Z" fill="#E1E4F5"/>
<path d="M317.484 103.535H312.137V103.516H317.484V103.146V103.535Z" fill="#9FA7DC"/>
<path d="M312.137 103.52H317.484V103.15H312.137V103.52Z" fill="#C6CAEA"/>
<path d="M100.852 161.488H78.0769C75.9177 159.982 73.2916 159.099 70.459 159.099C69.7029 159.099 68.9622 159.165 68.2405 159.286C68.0211 158.924 67.7851 158.573 67.5332 158.234H99.0659C104.761 158.234 109.378 153.619 109.378 147.925V112.111C110.488 112.034 111.583 111.923 112.672 111.776V149.672C112.672 156.198 107.38 161.488 100.852 161.488Z" fill="#EDB1C6"/>
<path d="M109.378 112.113V49.2194C109.378 47.6858 109.043 46.2301 108.441 44.922C111.027 47.0896 112.671 50.3431 112.671 53.9803V111.779C111.583 111.925 110.487 112.037 109.378 112.113Z" fill="#E296B2"/>
<path d="M99.0648 158.234H31.8293C26.1339 158.234 21.5166 153.619 21.5166 147.925V49.217C21.5166 43.5236 26.1339 38.9079 31.8293 38.9079H99.0648C104.76 38.9079 109.377 43.5236 109.377 49.217V147.925C109.377 153.619 104.76 158.234 99.0648 158.234Z" fill="#F3F5FB"/>
<path d="M30.3896 108.727V55.7845C30.3896 54.1195 30.9732 52.5907 31.947 51.3915C32.6874 50.9013 33.3682 50.3284 33.9766 49.6863C34.9804 49.1274 36.1366 48.8087 37.367 48.8087H93.4277C97.2811 48.8087 100.405 51.9318 100.405 55.7845V105.74H85.371V67.5345L65.2451 57.7949L45.5795 67.5345V105.74H30.3896V108.727Z" fill="#D0D3EE"/>
<path d="M37.367 115.703H93.4277C97.2811 115.703 100.405 112.58 100.405 108.727V105.741H30.3896V108.727C30.3896 112.58 33.5136 115.703 37.367 115.703Z" fill="#A3ACDE"/>
<path d="M32.3164 127.523H70.966V124.096H32.3164V127.523Z" fill="#CFD4EE"/>
<path d="M32.3164 136.164H98.5796V133.219H32.3164V136.164Z" fill="#DDDFF3"/>
<path d="M32.3164 142.16H98.5796V139.215H32.3164V142.16Z" fill="#DDDFF3"/>
<path d="M32.3164 148.152H98.5796V145.207H32.3164V148.152Z" fill="#DDDFF3"/>
<path d="M82.5068 125.451C82.5068 126.596 81.5786 127.523 80.434 127.523C79.289 127.523 78.3613 126.596 78.3613 125.451C78.3613 124.308 79.289 123.379 80.434 123.379C81.5786 123.379 82.5068 124.308 82.5068 125.451Z" fill="#A3ACDE"/>
<path d="M90.4569 125.451C90.4569 126.596 89.5293 127.523 88.3842 127.523C87.2396 127.523 86.3115 126.596 86.3115 125.451C86.3115 124.308 87.2396 123.379 88.3842 123.379C89.5293 123.379 90.4569 124.308 90.4569 125.451Z" fill="#A3ACDE"/>
<path d="M98.4071 125.451C98.4071 126.596 97.4795 127.523 96.3344 127.523C95.1898 127.523 94.2617 126.596 94.2617 125.451C94.2617 124.308 95.1898 123.379 96.3344 123.379C97.4795 123.379 98.4071 124.308 98.4071 125.451Z" fill="#A3ACDE"/>
<path d="M53.851 61.4023H49.2354V52.7434H53.851V61.4023Z" fill="#3C52AC"/>
<path d="M85.3726 58.7862H45.5811V67.9688H85.3726V58.7862Z" fill="#2B4598"/>
<path d="M85.3726 109.414H45.5811V67.5407L65.2467 57.8011L85.3726 67.5407V109.414Z" fill="#BBBEE6"/>
<path d="M45.5811 109.414H85.3726V106.223H45.5811V109.414Z" fill="#AEB4E1"/>
<path d="M73.7296 91.5758H57.752V108.855H73.7296V91.5758Z" fill="#4C5DB3"/>
<path d="M72.5264 109.414H59.1572V92.9084H72.5264V109.414Z" fill="#3C52AC"/>
<path d="M72.4816 105.489H59.165V107.449H72.4816V105.489Z" fill="#A2AFDF"/>
<path d="M71.4191 96.3633H60.4209V93.9659H71.4191V96.3633Z" fill="#2B4598"/>
<path d="M71.4191 105.492H60.4209V97.0559H71.4191V105.492Z" fill="#2B4598"/>
<path d="M64.5392 100.567C64.5392 100.825 64.3299 101.035 64.0709 101.035C63.8123 101.035 63.6025 100.825 63.6025 100.567C63.6025 100.308 63.8123 100.098 64.0709 100.098C64.3299 100.098 64.5392 100.308 64.5392 100.567Z" fill="#A2AFDF"/>
<path d="M67.7214 100.567C67.7214 100.825 67.5116 101.035 67.2525 101.035C66.994 101.035 66.7842 100.825 66.7842 100.567C66.7842 100.308 66.994 100.098 67.2525 100.098C67.5116 100.098 67.7214 100.308 67.7214 100.567Z" fill="#A2AFDF"/>
<path d="M44.0205 69.8086L44.1713 66.5053L65.2392 56.3013L86.9914 66.3663L86.7166 69.6796L65.253 59.2931L44.0205 69.8086Z" fill="#3C52AC"/>
<path d="M66.0741 105.492H65.3916V93.6332H66.0741V105.492Z" fill="#3C52AC"/>
<path d="M51.2373 83.4336V76.8042C51.2373 74.4789 53.1294 72.5879 55.4549 72.5879C57.7804 72.5879 59.6725 74.4789 59.6725 76.8042V83.4336H51.2373Z" fill="#939ED7"/>
<path d="M58.7927 82.5508H52.1172V76.8009C52.1172 74.9577 53.6116 73.4638 55.4549 73.4638C57.2983 73.4638 58.7927 74.9577 58.7927 76.8009V82.5508Z" fill="white"/>
<path d="M51.5439 78.5234V77.6157H59.3664V78.5234H51.5439Z" fill="#939ED7"/>
<path d="M55.8523 78.0078H54.9404V72.9975H55.8523V78.0078Z" fill="#939ED7"/>
<path d="M50.3408 85.3008H60.5676V83.4295H50.3408V85.3008Z" fill="#E1E4F5"/>
<path d="M60.5677 85.3438H50.3408V85.3027H60.5677V84.512V85.3438Z" fill="#ADB4E1"/>
<path d="M50.3408 85.3008H60.5676V84.51H50.3408V85.3008Z" fill="#C6CAEA"/>
<path d="M72.748 83.4336V76.8042C72.748 74.4789 74.6401 72.5879 76.9652 72.5879C79.2912 72.5879 81.1832 74.4789 81.1832 76.8042V83.4336H72.748Z" fill="#939ED7"/>
<path d="M80.3044 82.5508H73.6289V76.8009C73.6289 74.9577 75.1233 73.4638 76.9667 73.4638C78.81 73.4638 80.3044 74.9577 80.3044 76.8009V82.5508Z" fill="white"/>
<path d="M73.0547 78.5234V77.6157H80.8772V78.5234H73.0547Z" fill="#939ED7"/>
<path d="M77.363 78.0078H76.4512V72.9975H77.363V78.0078Z" fill="#939ED7"/>
<path d="M71.8516 85.3008H82.0789V83.4295H71.8516V85.3008Z" fill="#E1E4F5"/>
<path d="M82.0789 85.3438H71.8516V85.3027H82.0789V84.512V85.3438Z" fill="#ADB4E1"/>
<path d="M71.8516 85.3008H82.0789V84.51H71.8516V85.3008Z" fill="#C6CAEA"/>
<path d="M73.7301 107.103H57.4619V109.414H73.7301V107.103Z" fill="#E1E4F5"/>
<path d="M170.741 125.594H134.451C130.855 125.594 127.635 123.989 125.467 121.457C126.745 122.024 128.16 122.34 129.649 122.34H169.274C169.737 123.439 170.226 124.523 170.741 125.594Z" fill="#EDB1C6"/>
<path d="M201.987 125.594H170.741C170.226 124.523 169.737 123.439 169.273 122.34H201.987V125.594Z" fill="#E296B2"/>
<path d="M225.125 125.594H201.986V122.34H223.339C225.934 122.34 228.304 121.382 230.116 119.801H235.296C233.237 123.269 229.452 125.594 225.125 125.594Z" fill="#E9CCE2"/>
<path d="M235.296 119.801H230.116C232.283 117.911 233.652 115.13 233.652 112.03V111.003H236.946V113.777C236.946 115.977 236.344 118.037 235.296 119.801Z" fill="#7E8CCE"/>
<path d="M236.946 111.004H233.652V110.979H236.946V111.004ZM236.946 109.427H233.652V103.538H236.946V109.427Z" fill="#9D93D1"/>
<path d="M233.652 110.977H236.946V109.425H233.652V110.977Z" fill="#5A63B8"/>
<path d="M233.652 20.8398V13.3232C233.652 11.7896 233.317 10.3339 232.716 9.02576C235.301 11.1934 236.945 14.4464 236.945 18.0841V20.7763C236.876 20.7758 236.81 20.7758 236.741 20.7758C235.705 20.7758 234.677 20.7973 233.652 20.8398Z" fill="#EDB1C6"/>
<path d="M236.946 49.875H233.652V20.8372C234.678 20.7947 235.706 20.7732 236.742 20.7732C236.811 20.7732 236.877 20.7732 236.946 20.7736V49.875Z" fill="#E296B2"/>
<path d="M233.652 58.8906H236.946V49.8744H233.652V58.8906Z" fill="#E9CCE2"/>
<path d="M233.652 86.4648V58.8914H236.946V86.0024L233.652 86.4648Z" fill="#C9B1DE"/>
<path d="M236.946 102.645H233.652V102.631H236.533V95.4313H233.652V89.0188H236.946V102.645Z" fill="#9D93D1"/>
<path d="M236.946 87.2812H233.652V86.4633L236.946 86.0008V87.2812Z" fill="#384AA6"/>
<path d="M233.652 89.0195H236.946V87.2861H233.652V89.0195Z" fill="#5259B1"/>
<path d="M236.533 102.629H233.652V101.663H235.993V98.5894H236.307V98.308H235.993V95.9121H235.183V95.7052H234.886V95.9121H233.932V95.7052H233.652V95.4291H236.533V102.629Z" fill="#6170BF"/>
<path d="M235.993 101.668H233.652V98.5941H235.993V101.668ZM235.993 98.3127H235.183V95.9167H235.993V98.3127ZM234.886 98.3127H233.932V95.9167H234.886V98.3127Z" fill="#F6D3E0"/>
<path d="M236.307 98.5898H233.652V98.5268H233.932V98.3084H234.886V98.5268H235.183V98.3084H235.993H236.307V98.5898Z" fill="#6170BF"/>
<path d="M233.932 98.5273H233.652V95.7062H233.932V95.913V98.309V98.5273Z" fill="#6170BF"/>
<path d="M235.184 98.5273H234.887V95.7062H235.184V95.913V98.309V98.5273Z" fill="#6170BF"/>
<path d="M233.652 103.148H236.946V102.643H233.652V103.148Z" fill="#D8BDE3"/>
<path d="M233.652 103.535H236.946V103.516H233.652V103.535Z" fill="#9890D0"/>
<path d="M233.652 103.52H236.946V103.15H233.652V103.52Z" fill="#BCABDC"/>
<path d="M223.339 122.34H129.648C123.953 122.34 119.336 117.724 119.336 112.031V13.3225C119.336 7.62852 123.953 3.01337 129.648 3.01337H223.339C229.035 3.01337 233.652 7.62852 233.652 13.3225V112.031C233.652 117.724 229.035 122.34 223.339 122.34Z" fill="white"/>
<path d="M128.21 72.832V19.8895C128.21 16.0373 131.334 12.9142 135.187 12.9142H217.704C221.557 12.9142 224.681 16.0373 224.681 19.8895V69.8455H217.621C217.625 69.792 217.627 69.7385 217.627 69.6845C217.627 68.2599 216.471 67.1046 215.045 67.1046L215.03 67.1051C214.887 65.8147 213.794 64.8104 212.465 64.8104C211.873 64.8104 211.328 65.0106 210.892 65.3455C210.907 65.2137 210.915 65.0799 210.915 64.9442C210.915 64.3069 210.748 63.7087 210.456 63.1903C210.598 62.7589 210.677 62.2984 210.677 61.8187C210.677 60.2053 209.8 58.7964 208.497 58.0415V36.9704H211.867L208.252 30.8823H202.883L199.48 25.151H168.826V16.8041H163.43V20.7117C162.128 20.1322 160.688 19.8102 159.173 19.8102C153.383 19.8102 148.672 24.519 148.672 30.3075C148.672 30.5005 148.678 30.6921 148.688 30.8823H148.287L144.673 36.9704H148.003V55.7292C147.965 55.7282 147.927 55.7277 147.889 55.7277C145.225 55.7277 143.065 57.8867 143.065 60.5498C143.065 61.0796 143.152 61.5884 143.31 62.0652C142.987 62.6385 142.802 63.2998 142.802 64.004C142.802 64.154 142.811 64.3021 142.827 64.4478C142.346 64.0771 141.744 63.8563 141.089 63.8563C139.621 63.8563 138.412 64.9662 138.254 66.3928L138.237 66.3923C136.661 66.3923 135.384 67.6689 135.384 69.2436C135.384 69.3506 135.39 69.4557 135.402 69.5594H141.071H141.089H147.958V69.793H148.003V69.8326H157.02H193.155C193.155 69.8369 193.155 69.8412 193.154 69.8455H128.21V72.832Z" fill="#D5DAF1"/>
<path d="M135.187 79.8086H217.704C221.557 79.8086 224.681 76.6859 224.681 72.8333V69.8468H128.21V72.8333C128.21 76.6859 131.334 79.8086 135.187 79.8086Z" fill="#859ED8"/>
<path d="M215.045 67.107L215.029 67.1075C214.886 65.8171 213.793 64.8128 212.464 64.8128C211.872 64.8128 211.327 65.013 210.892 65.3479C210.906 65.2161 210.914 65.0823 210.914 64.9466C210.914 64.3093 210.747 63.7111 210.455 63.1928C210.598 62.7613 210.676 62.3008 210.676 61.8211C210.676 59.4122 208.722 57.4592 206.313 57.4592C203.902 57.4592 201.949 59.4122 201.949 61.8211C199.972 61.8211 198.37 63.423 198.37 65.3991C198.37 65.6695 198.401 65.9322 198.458 66.1859L198.37 66.1835C197.433 66.1835 196.613 66.6823 196.161 67.4291C196.021 67.4056 195.877 67.3927 195.731 67.3927C194.306 67.3927 193.15 68.548 193.15 69.9727H196.09H198.312H200.649H212.464H212.48H217.61C217.62 69.879 217.626 69.7835 217.626 69.687C217.626 68.2623 216.47 67.107 215.045 67.107Z" fill="#4C5DB3"/>
<path d="M138.235 66.3954L138.253 66.3959C138.41 64.9693 139.62 63.8595 141.088 63.8595C141.742 63.8595 142.345 64.0802 142.826 64.4509C142.81 64.3052 142.801 64.1571 142.801 64.0071C142.801 63.3029 142.986 62.6417 143.309 62.0683C143.151 61.5915 143.064 61.0827 143.064 60.5529C143.064 57.8898 145.224 55.7309 147.887 55.7309C150.551 55.7309 152.711 57.8898 152.711 60.5529C154.896 60.5529 156.667 62.3235 156.667 64.5073C156.667 64.8059 156.632 65.0969 156.57 65.3768L156.667 65.374C157.702 65.374 158.609 65.9258 159.108 66.7514C159.263 66.7256 159.421 66.7112 159.583 66.7112C161.159 66.7112 162.436 67.9878 162.436 69.5625H159.186H156.731H154.147H141.088H141.07H135.401C135.389 69.4588 135.383 69.3537 135.383 69.2467C135.383 67.672 136.66 66.3954 138.235 66.3954Z" fill="#4C5DB3"/>
<path d="M148.003 69.832H208.497V36.8294H148.003V69.832Z" fill="#859ED8"/>
<path d="M147.958 69.793H148.003V69.56H147.958V69.793Z" fill="#B8BEE6"/>
<path d="M147.958 69.5625H148.003V66.3912H147.958V69.5625Z" fill="#4556AF"/>
<path d="M208.497 69.793H199.48V66.388H208.497V69.793ZM157.02 69.793H148.003V69.5593V66.388H157.02V69.793Z" fill="#758ACE"/>
<path d="M163.43 28.7031H168.826V16.808H163.43V28.7031Z" fill="#3C52AC"/>
<path d="M211.866 36.9688H144.672L148.286 30.8806H208.252L211.866 36.9688Z" fill="#3C52AC"/>
<path d="M157.02 69.832H199.48V25.1504H157.02V69.832Z" fill="#BBBEE6"/>
<path d="M203.094 31.2383H153.405L157.019 25.1507H199.48L203.094 31.2383Z" fill="#4C5DB3"/>
<path d="M163.43 48.8281H169.592V37.4074H163.43V48.8281Z" fill="#939ED7"/>
<path d="M164.196 47.2969H168.826V38.1735H164.196V47.2969Z" fill="white"/>
<path d="M169.272 42.4219H163.711V41.9761H169.272V42.4219Z" fill="#939ED7"/>
<path d="M165.482 42.3203H165.904V37.845H165.482V42.3203Z" fill="#939ED7"/>
<path d="M167.678 42.3203H167.256V37.8451H167.678V42.3203Z" fill="#939ED7"/>
<path d="M162.721 50.2383H170.302V48.8503H162.721V50.2383Z" fill="#E1E4F5"/>
<path d="M170.302 50.2617H162.721V50.2316H170.302V49.6449V50.2617Z" fill="#ADB4E1"/>
<path d="M162.721 50.2383H170.302V49.6515H162.721V50.2383Z" fill="#C6CAEA"/>
<path d="M186.327 48.8281V37.4073H192.489V48.8281H186.327Z" fill="#939ED7"/>
<path d="M191.723 47.2969H187.093V38.1735H191.723V47.2969Z" fill="white"/>
<path d="M192.169 42.4219H186.607V41.9761H192.169V42.4219Z" fill="#939ED7"/>
<path d="M188.8 42.3203H188.379V37.8451H188.8V42.3203Z" fill="#939ED7"/>
<path d="M190.574 42.3203H190.152V37.8451H190.574V42.3203Z" fill="#939ED7"/>
<path d="M185.616 50.2383H193.198V48.8503H185.616V50.2383Z" fill="#E1E4F5"/>
<path d="M193.198 50.2617H185.616V50.2316H193.198V49.6449V50.2617Z" fill="#ADB4E1"/>
<path d="M185.616 50.2383H193.198V49.6515H185.616V50.2383Z" fill="#C6CAEA"/>
<path d="M162.067 37.4102H193.5V35.3102H162.067V37.4102Z" fill="#E1E4F5"/>
<path d="M174.641 48.8828V40.2473C174.641 38.3936 176.149 36.8853 178.004 36.8853C179.858 36.8853 181.367 38.3936 181.367 40.2473V48.8828H174.641Z" fill="#939ED7"/>
<path d="M180.665 48.1836H175.342V40.2494C175.342 38.7798 176.533 37.5888 178.003 37.5888C179.473 37.5888 180.665 38.7798 180.665 40.2494V48.1836Z" fill="white"/>
<path d="M174.886 41.4258V40.8955H181.123V41.4258H174.886Z" fill="#939ED7"/>
<path d="M178.32 41.2148H177.804V37.2198H178.32V41.2148Z" fill="#939ED7"/>
<path d="M174.168 50.2383H181.75V48.8503H174.168V50.2383Z" fill="#E1E4F5"/>
<path d="M181.75 50.2617H174.168V50.2316H181.75V49.6449V50.2617Z" fill="#ADB4E1"/>
<path d="M174.168 50.2383H181.75V49.6515H174.168V50.2383Z" fill="#C6CAEA"/>
<path d="M175.186 39.2109H180.666C180.666 39.2109 180.328 37.298 178.322 37.2134C176.315 37.1289 175.186 39.2109 175.186 39.2109Z" fill="#939ED7"/>
<path d="M199.48 69.832H157.02V66.427H199.48V69.7924V69.832Z" fill="#AEB4E1"/>
<path d="M182.743 54.4185H173.082V69.832H182.743V54.4185Z" fill="#4C5DB3"/>
<path d="M181.75 69.832H174.168V55.4935H181.75V69.832Z" fill="#3C52AC"/>
<path d="M183.843 68.1293H172.075V69.832H183.843V68.1293Z" fill="#E1E4F5"/>
<path d="M181.725 66.4267H174.173V68.1289H181.725V66.4267Z" fill="#A2AFDF"/>
<path d="M181.123 58.4961H174.886V56.4131H181.123V58.4961Z" fill="#4C5DB3"/>
<path d="M181.123 65.7891H174.886V59.1004H181.123V65.7891Z" fill="#4C5DB3"/>
<path d="M180.664 60.9649C180.664 61.3099 180.384 61.5898 180.039 61.5898C179.694 61.5898 179.414 61.3099 179.414 60.9649C179.414 60.62 179.694 60.34 180.039 60.34C180.384 60.34 180.664 60.62 180.664 60.9649Z" fill="#E1E4F5"/>
<path d="M150.617 55.4414V47.706H154.791V55.4414H150.617Z" fill="#4E65B9"/>
<path d="M154.27 54.4062H151.135V48.2274H154.27V54.4062Z" fill="white"/>
<path d="M154.573 51.1016H150.807V50.7996H154.573V51.1016Z" fill="#4E65B9"/>
<path d="M152.293 51.0391H152.007V48.0077H152.293V51.0391Z" fill="#4E65B9"/>
<path d="M153.493 51.0391H153.208V48.0077H153.493V51.0391Z" fill="#4E65B9"/>
<path d="M150.136 56.3984H155.271V55.4592H150.136V56.3984Z" fill="#E1E4F5"/>
<path d="M155.27 56.418H150.136V56.3974H155.27V56.0004V56.418Z" fill="#8A9FD8"/>
<path d="M150.136 56.3984H155.271V56.0015H150.136V56.3984Z" fill="#C6CAEA"/>
<path d="M201.961 55.4414V47.706H206.135V55.4414H201.961Z" fill="#4E65B9"/>
<path d="M205.617 54.4062H202.48V48.2274H205.617V54.4062Z" fill="white"/>
<path d="M205.918 51.1016H202.151V50.7996H205.918V51.1016Z" fill="#4E65B9"/>
<path d="M203.637 51.0391H203.353V48.0077H203.637V51.0391Z" fill="#4E65B9"/>
<path d="M204.839 51.0391H204.553V48.0077H204.839V51.0391Z" fill="#4E65B9"/>
<path d="M201.48 56.3984H206.616V55.4592H201.48V56.3984Z" fill="#E1E4F5"/>
<path d="M206.616 56.418H201.48V56.3974H206.616V56.0004V56.418Z" fill="#8A9FD8"/>
<path d="M201.48 56.3984H206.616V56.0015H201.48V56.3984Z" fill="#C6CAEA"/>
<path d="M135.739 68.0169C136.487 68.0169 137.184 68.2338 137.773 68.6064C138.432 66.982 140.025 65.8364 141.886 65.8364C142.698 65.8364 143.458 66.0552 144.112 66.4355C144.823 63.5039 147.464 61.3263 150.616 61.3263C154.013 61.3263 156.817 63.857 157.249 67.1354C157.426 67.1105 157.606 67.0967 157.789 67.0967C159.517 67.0967 160.976 68.2476 161.441 69.8242H132.499C133.17 68.7402 134.37 68.0169 135.739 68.0169Z" fill="#4D5DB4"/>
<path d="M216.595 68.5708C215.934 68.5708 215.318 68.7624 214.798 69.0921C214.216 67.6569 212.809 66.644 211.164 66.644C210.447 66.644 209.775 66.8375 209.197 67.1734C208.569 64.5834 206.236 62.659 203.451 62.659C200.449 62.659 197.972 64.8954 197.59 67.7921C197.434 67.7696 197.275 67.7577 197.113 67.7577C195.586 67.7577 194.298 68.7748 193.887 70.168H219.458C218.865 69.2096 217.805 68.5708 216.595 68.5708Z" fill="#4D5DB4"/>
<path d="M130.444 92.3477H169.094V88.9197H130.444V92.3477Z" fill="#D4D9F0"/>
<path d="M130.444 100.988H223.163V98.0433H130.444V100.988Z" fill="#E4E7F6"/>
<path d="M130.444 106.98H223.163V104.036H130.444V106.98Z" fill="#E4E7F6"/>
<path d="M130.444 112.969H223.163V110.024H130.444V112.969Z" fill="#E4E7F6"/>
<path d="M207.093 90.2756C207.093 91.4198 206.165 92.3477 205.02 92.3477C203.875 92.3477 202.947 91.4198 202.947 90.2756C202.947 89.1309 203.875 88.2036 205.02 88.2036C206.165 88.2036 207.093 89.1309 207.093 90.2756Z" fill="#A3ACDE"/>
<path d="M215.042 90.2756C215.042 91.4198 214.114 92.3477 212.969 92.3477C211.824 92.3477 210.896 91.4198 210.896 90.2756C210.896 89.1309 211.824 88.2036 212.969 88.2036C214.114 88.2036 215.042 89.1309 215.042 90.2756Z" fill="#A3ACDE"/>
<path d="M222.993 90.2756C222.993 91.4198 222.064 92.3477 220.92 92.3477C219.775 92.3477 218.847 91.4198 218.847 90.2756C218.847 89.1309 219.775 88.2036 220.92 88.2036C222.064 88.2036 222.993 89.1309 222.993 90.2756Z" fill="#A3ACDE"/>
<path d="M174.438 75.6138C174.438 76.2521 173.92 76.7695 173.282 76.7695C172.644 76.7695 172.126 76.2521 172.126 75.6138C172.126 74.9755 172.644 74.4581 173.282 74.4581C173.92 74.4581 174.438 74.9755 174.438 75.6138Z" fill="white"/>
<path d="M178.87 75.6138C178.87 76.2521 178.353 76.7695 177.714 76.7695C177.076 76.7695 176.559 76.2521 176.559 75.6138C176.559 74.9755 177.076 74.4581 177.714 74.4581C178.353 74.4581 178.87 74.9755 178.87 75.6138Z" fill="white"/>
<path d="M183.305 75.6138C183.305 76.2521 182.788 76.7695 182.149 76.7695C181.511 76.7695 180.993 76.2521 180.993 75.6138C180.993 74.9755 181.511 74.4581 182.149 74.4581C182.788 74.4581 183.305 74.9755 183.305 75.6138Z" fill="white"/>
<path d="M152.52 30.8828H148.688C148.677 30.6927 148.672 30.5011 148.672 30.3081C148.672 24.5195 153.383 19.8107 159.173 19.8107C160.688 19.8107 162.128 20.1327 163.43 20.7122V25.1516H163.409C162.255 24.2032 160.779 23.6328 159.173 23.6328C155.491 23.6328 152.495 26.6274 152.495 30.3081C152.495 30.5016 152.503 30.6936 152.52 30.8828Z" fill="#E6EAF7"/>
<path d="M157.019 40.582C154.641 40.0847 152.555 38.7804 151.063 36.9697H157.019V40.582Z" fill="#B1C3E9"/>
<path d="M168.317 25.1484H163.43V20.7091C165.494 21.6278 167.21 23.1944 168.317 25.1484Z" fill="#828DCC"/>
<path d="M157.019 36.9688H151.064C149.684 35.2937 148.812 33.1849 148.688 30.8806H152.519C152.749 33.5566 154.564 35.7868 157.019 36.6252V36.9688Z" fill="#828DCC"/>
<path d="M159.173 40.8086C158.435 40.8086 157.715 40.7322 157.02 40.5864V36.9741V36.6306C157.696 36.8613 158.42 36.9865 159.173 36.9865C160.209 36.9865 161.191 36.7491 162.067 36.3262V37.4112H163.43V39.9071C162.128 40.4866 160.688 40.8086 159.173 40.8086ZM168.404 35.3115H163.592C164.756 34.2824 165.56 32.8534 165.786 31.2424H169.633C169.504 32.7053 169.073 34.0822 168.404 35.3115Z" fill="#D6D6EF"/>
<path d="M169.632 31.2383H165.785C165.827 30.9339 165.849 30.6229 165.849 30.3071C165.849 28.2327 164.898 26.3761 163.408 25.1507H168.316C169.18 26.6747 169.673 28.4343 169.673 30.3071C169.673 30.6205 169.659 30.9316 169.632 31.2383Z" fill="#8D96D3"/>
<path d="M163.43 39.9062V37.4104H166.901C166.654 37.6789 166.393 37.9345 166.119 38.1763H165.904V37.8485H165.483V38.1763H164.196V39.5269C163.947 39.6631 163.691 39.7902 163.43 39.9062Z" fill="#BBC2E7"/>
<path d="M164.196 39.5273V38.1767H165.483V38.6965C165.076 39.0032 164.646 39.2813 164.196 39.5273ZM165.905 38.3616V38.1767H166.119C166.049 38.2393 165.977 38.3009 165.905 38.3616Z" fill="white"/>
<path d="M165.482 38.6914V37.8439H165.904V38.3565C165.766 38.4716 165.626 38.5834 165.482 38.6914Z" fill="#BBC2E7"/>
<path d="M166.901 37.4102H162.067V36.3252C162.622 36.0571 163.135 35.7146 163.592 35.3104H168.405C167.99 36.0719 167.484 36.7771 166.901 37.4102Z" fill="#ECEFF9"/>
<path d="M153.617 30.8828H152.519C152.503 30.6936 152.495 30.5016 152.495 30.3081C152.495 26.6274 155.491 23.6328 159.173 23.6328C160.779 23.6328 162.255 24.2032 163.409 25.1516H157.019L153.617 30.8828Z" fill="#ECEEF9"/>
<path d="M157.019 36.625C154.565 35.7865 152.749 33.5563 152.52 30.8804H153.617L153.405 31.2368H154.986C155.248 32.4212 156.001 33.4207 157.019 34.0131V36.625Z" fill="#A4ACD7"/>
<path d="M159.173 36.9805C158.42 36.9805 157.696 36.8553 157.02 36.6245V34.0126C157.652 34.381 158.388 34.5917 159.173 34.5917C161.221 34.5917 162.934 33.156 163.36 31.2364H165.786C165.56 32.8474 164.756 34.2763 163.592 35.3054H162.067V36.3202C161.191 36.743 160.209 36.9805 159.173 36.9805Z" fill="#E2E4F5"/>
<path d="M165.786 31.2383H163.359C163.426 30.9387 163.461 30.6272 163.461 30.3071C163.461 27.9398 161.541 26.0207 159.173 26.0207C156.805 26.0207 154.885 27.9398 154.885 30.3071C154.885 30.6272 154.92 30.9387 154.986 31.2383H153.405L153.617 30.8819L157.019 25.1507H163.409C164.899 26.3761 165.85 28.2327 165.85 30.3071C165.85 30.6229 165.828 30.9339 165.786 31.2383Z" fill="#ADB1E0"/>
<path d="M162.067 36.3203V35.3055H163.592C163.135 35.7097 162.622 36.0523 162.067 36.3203Z" fill="#F2F3FA"/>
<path d="M157.019 34.0195C156.001 33.4271 155.249 32.4276 154.986 31.2433H157.019V34.0195Z" fill="#B5BCDE"/>
<path d="M159.173 34.5938C158.388 34.5938 157.652 34.3831 157.02 34.0147V31.2384H163.36C162.934 33.1581 161.221 34.5938 159.173 34.5938Z" fill="#E7E8F6"/>
<path d="M163.359 31.2383H154.986C154.92 30.9387 154.885 30.6272 154.885 30.3071C154.885 27.9398 156.805 26.0207 159.173 26.0207C161.541 26.0207 163.46 27.9398 163.46 30.3071C163.46 30.6272 163.426 30.9387 163.359 31.2383Z" fill="#BCC2E7"/>
<path d="M93.7357 196.182C93.7357 196.182 88.1355 197.292 91.8054 199.452C95.4748 201.612 94.6786 202.313 99.3368 202.013C103.995 201.712 116.145 201.216 121.335 202.815C126.526 204.413 125.846 205.72 130.657 206.021C135.468 206.321 147.195 205.319 148.699 203.917C150.202 202.514 131.515 200.945 128.68 201.128C125.846 201.311 110.59 199.97 104.135 196.182C97.6804 192.394 93.7357 196.182 93.7357 196.182Z" fill="#9A75A4"/>
<path d="M150.681 39.6523C150.706 39.5472 150.404 37.2702 152.713 35.2689C155.023 33.268 155.726 33.2718 155.273 34.5976C154.821 35.9239 150.681 39.6523 150.681 39.6523Z" fill="#E37C5F"/>
<path d="M89.9835 53.6387L75.9792 74.6993C74.2697 77.2702 74.5479 80.6771 76.6516 82.9364L90.5819 97.8984L96.616 89.9796L86.8618 78.5186L98.5568 62.6932L89.9835 53.6387Z" fill="#A31C2E"/>
<path d="M105.72 24.9858C106.892 25.9939 110.693 27.7726 111.399 33.6906C112.105 39.6091 111.632 44.2009 105.964 44.0996L107.796 51.8594L95.1309 48.0817L96.3949 30.3511L105.72 24.9858Z" fill="#EF8D6B"/>
<path d="M148.839 41.7034C149.073 41.4455 158.018 29.7618 159.162 29.3003C160.306 28.8383 161.172 29.8966 159.055 33.2385L158.584 34.0951C158.584 34.0951 160.456 34.6326 159.911 36.3024C159.911 36.3024 161.312 37.0458 160.881 37.9569C160.881 37.9569 162.833 38.9353 161.934 40.3619C161.035 41.788 160.529 43.518 159.056 43.2471C159.056 43.2471 157.214 46.386 153.701 46.6855L146.962 54.1133C146.962 54.1133 141.95 48.1809 142.156 48.1145C142.361 48.0476 148.839 41.7034 148.839 41.7034Z" fill="#EF8D6B"/>
<path d="M101.687 190.445C101.77 190.728 103.073 194.605 102.934 195.893C102.794 197.181 95.7285 193.766 95.7285 193.766L101.687 190.445Z" fill="#EF8D6B"/>
<path d="M94.7796 188.386C94.7141 188.934 93.6254 194.994 92.8904 196.297C92.1558 197.601 93.516 198.042 96.1263 198.169C98.7362 198.295 102.495 198.384 104.007 197.154C105.519 195.924 101.546 195.416 100.766 192.865C99.986 190.315 94.7796 188.386 94.7796 188.386Z" fill="#791424"/>
<path d="M129.638 198.808C129.932 199.019 132.421 199.61 133.842 201.969C135.263 204.328 138.324 205.028 143.284 204.586C148.244 204.144 134.512 194.466 134.512 194.466L127.093 194.2L129.638 198.808Z" fill="#791424"/>
<path d="M110.508 122.452L116.147 143.49L114.789 145.365C113.53 147.105 113.188 149.344 113.872 151.38L126.523 189.065L133.755 189.324L123.403 120.442L110.508 122.452Z" fill="#EF8D6B"/>
<path d="M105.787 122.101L101.122 188.148L95.1321 186.869L89.9854 145.955C89.8306 143.122 91.3503 140.461 93.8694 139.154L93.0617 117.406L105.787 122.101Z" fill="#EF8D6B"/>
<path d="M126.523 189.064C126.523 189.064 122.455 189.114 123.955 194.888C125.455 200.663 126.525 204.415 126.525 204.415L131.137 204.58L130.888 197.546C130.888 197.546 133.613 197.142 136.584 201.062C139.556 204.982 141.776 204.66 145.898 204.507C147.272 204.456 148.24 204.201 148.921 203.883C149.748 203.498 149.654 202.278 148.787 201.996C147.205 201.481 144.7 200.247 142.04 197.295C137.599 192.367 133.756 189.323 133.756 189.323L126.523 189.064Z" fill="#A31C2E"/>
<path d="M135.944 193.005C138.559 196.411 141.625 200.334 144.507 199.836C144.581 199.823 144.649 199.8 144.715 199.776C143.863 199.124 142.962 198.313 142.041 197.29C137.6 192.362 133.652 189.135 133.652 189.135L128.68 189.136C128.68 189.136 133.329 189.599 135.944 193.005Z" fill="#EF8D6B"/>
<path d="M91.8069 189.057C91.7663 188.579 92.2614 186.158 94.3786 185.402C96.4953 184.644 102.423 184.857 103.312 189.105C104.202 193.353 100.083 193.491 99.2098 200.41C99.2098 200.41 96.8102 201.99 94.4665 200.552C94.4665 200.552 94.003 196.059 93.2268 194.469C92.4507 192.88 92.0626 192.085 91.8069 189.057Z" fill="#A31C2E"/>
<path d="M93.3736 125.824C93.8214 125.836 105.461 126.723 105.461 126.723L105.787 122.102L93.0615 117.408L93.3736 125.824Z" fill="#E37C5F"/>
<path d="M110.508 122.446C110.508 122.446 111.459 125.996 111.512 126.194C111.565 126.392 124.057 124.788 124.057 124.788L123.403 120.436L110.508 122.446Z" fill="#E37C5F"/>
<path d="M93.8682 139.156C93.8682 139.156 96.4747 138.474 99.3374 138.753L93.7344 135.557L93.8682 139.156Z" fill="#E37C5F"/>
<path d="M116.147 143.488C116.147 143.488 119.535 141.237 122.18 141.039L115.191 139.922L116.147 143.488Z" fill="#E37C5F"/>
<path d="M93.5308 89.5273C93.5308 89.5273 88.6532 97.4748 88.7899 108.428C88.9271 119.38 89.3046 123.631 89.3046 123.631C89.3046 123.631 108.665 125.561 125.159 123.68L119.533 93.2849L93.5308 89.5273Z" fill="#422A78"/>
<path d="M97.1325 48.1573L105.993 47.6537L132.691 56.5037L145.681 43.3668L152.525 50.1428L137.86 65.5917C136.594 66.9256 134.723 67.5023 132.925 67.1124L118.06 63.8904L114.638 77.2218L123.027 94.4738C123.027 94.4738 108.215 98.7106 91.0984 93.3295C91.0984 93.3295 91.0042 91.0306 97.2051 80.6584L89.7454 58.2132C88.7986 55.3648 89.9915 52.2445 92.5971 50.7534L97.1325 48.1573Z" fill="#CD2337"/>
<path d="M118.061 63.8873L113.928 62.4383L114.639 77.2188L118.061 63.8873Z" fill="#A31C2E"/>
<path d="M97.205 80.6521C97.205 80.6521 100.689 82.9946 109.712 81.1002C109.712 81.1002 100.696 81.9406 96.5703 78.743L97.205 80.6521Z" fill="#A31C2E"/>
<path d="M107.573 55.1897C107.767 56.0086 110.399 64.5528 105.239 68.0047C100.077 71.4565 96.2226 69.823 95.3762 75.1562L92.7754 67.3296L107.573 55.1897Z" fill="#A31C2E"/>
<path d="M109.236 25.4639C109.53 25.924 110.725 30.7661 107.45 33.3288C107.45 33.3288 105.694 34.5122 107.095 36.6334C108.497 38.7552 106.932 38.1589 105.909 36.5064C104.886 34.8543 103.351 34.7754 102.988 35.7649C102.624 36.7543 102.702 40.8215 106.082 40.4828C106.082 40.4828 104.828 47.8756 107.027 53.5113C109.225 59.1465 108.026 65.5318 102.922 67.556C97.8179 69.5803 96.6857 68.9444 95.0236 72.4521C93.3614 75.9594 89.1113 79.6181 83.902 69.0314C78.6928 58.4451 74.6119 62.122 78.1962 54.2781C81.7811 46.4342 84.1439 48.3849 84.8062 42.2075C85.4686 36.03 87.2183 24.7324 97.881 23.1329C108.543 21.5324 109.236 25.4639 109.236 25.4639Z" fill="#5F2334"/>
<path d="M158.584 34.0932C158.584 34.0932 157.761 34.1477 156.162 35.9531L159.871 31.7665L158.584 34.0932Z" fill="#E37C5F"/>
<path d="M159.911 36.296C159.911 36.296 159.06 36.5827 158.433 37.4336C158.433 37.4336 159.454 35.9712 159.998 35.5259C159.998 35.5259 160.084 35.921 159.911 36.296Z" fill="#E37C5F"/>
<path d="M160.882 37.9539C160.882 37.9539 159.715 38.5268 159.468 39.4766C159.468 39.4766 159.777 38.0805 160.93 37.3768C160.93 37.3768 161.016 37.6854 160.882 37.9539Z" fill="#E37C5F"/>
<path d="M159.057 43.2484L161.172 40.6709C161.172 40.6709 160.544 42.1725 161.304 41.4697C161.304 41.4697 160.512 43.7162 159.057 43.2484Z" fill="#E37C5F"/>
<path d="M324.36 49.875H318.049C322.683 45.0673 325.533 38.5291 325.533 31.3255C325.533 25.3391 323.564 19.8114 320.24 15.3553C325.542 20.2414 328.864 27.2435 328.864 35.0205C328.864 40.5176 327.205 45.6263 324.36 49.875Z" fill="#EDB1C6"/>
<path d="M314.179 58.8906H290.057C286.346 57.013 283.132 54.296 280.665 50.9894C285.43 55.38 291.795 58.0617 298.787 58.0617C306.351 58.0617 313.183 54.9214 318.048 49.8743H324.359C321.806 53.6864 318.298 56.8062 314.179 58.8906Z" fill="#E9CCE2"/>
<path d="M302.119 61.7578C297.78 61.7578 293.682 60.7244 290.059 58.8912H314.18C310.556 60.7244 306.458 61.7578 302.119 61.7578Z" fill="#C9B1DE"/>
<path d="M325.532 31.3256C325.532 46.0917 313.557 58.0625 298.786 58.0625C284.016 58.0625 272.041 46.0917 272.041 31.3256C272.041 16.5594 284.016 4.58867 298.786 4.58867C313.557 4.58867 325.532 16.5594 325.532 31.3256Z" fill="#F3F5FB"/>
<path d="M298.787 52.6836C287.006 52.6836 277.422 43.1021 277.422 31.3253C277.422 19.548 287.006 9.96702 298.787 9.96702C310.567 9.96702 320.151 19.548 320.151 31.3253C320.151 43.1021 310.567 52.6836 298.787 52.6836Z" fill="#2B4598"/>
<path d="M302.097 28.1662L301.415 27.4854H295.758L295.051 28.192C293.476 27.0874 292.445 25.2595 292.445 23.1893C292.445 19.8154 295.181 17.0807 298.556 17.0807C301.93 17.0807 304.666 19.8154 304.666 23.1893C304.666 25.2432 303.651 27.0592 302.097 28.1662ZM298.365 15.4224C294.106 15.5227 290.657 19.04 290.639 23.2987C290.626 26.1362 292.107 28.6291 294.342 30.0361C295.041 30.4762 295.469 31.2396 295.469 32.0657V35.8008C295.469 35.9976 295.546 36.1868 295.685 36.3273L296.259 36.9101V46.7391C296.259 47.2226 296.474 47.6803 296.845 47.9894L296.971 48.0941C297.71 48.708 298.796 48.6583 299.475 47.9789L301.212 46.2432C301.292 46.1625 301.338 46.0526 301.338 45.9389V45.399C301.338 45.205 301.209 45.0349 301.022 44.9843C300.749 44.9107 300.392 44.7034 300.342 44.1248C300.281 43.4282 300.627 43.1373 300.896 43.0174C301.079 42.9357 301.191 42.7474 301.191 42.5468L301.168 36.9097L301.718 36.3249C301.848 36.1854 301.921 36.0019 301.921 35.8108V31.8688C301.921 31.0714 302.33 30.3371 302.991 29.8895C305.091 28.4667 306.473 26.0626 306.473 23.3346C306.473 18.9 302.824 15.3178 298.365 15.4224Z" fill="#F8A123"/>
<path d="M298.555 23.065C297.487 23.065 296.622 22.1998 296.622 21.132C296.622 20.0647 297.487 19.1995 298.555 19.1995C299.623 19.1995 300.489 20.0647 300.489 21.132C300.489 22.1998 299.623 23.065 298.555 23.065ZM298.555 17.0801C295.18 17.0801 292.444 19.8148 292.444 23.1888C292.444 25.2589 293.475 27.0868 295.05 28.1914L295.757 27.4848H301.415L302.096 28.1656C303.651 27.0586 304.666 25.2427 304.666 23.1888C304.666 19.8148 301.93 17.0801 298.555 17.0801Z" fill="#C77D26"/>
<path d="M299.117 29.7536V48.2539C299.245 48.177 299.366 48.0857 299.475 47.9763L300.668 46.7838V44.8045C300.506 44.6726 300.371 44.4619 300.342 44.1222C300.297 43.6153 300.469 43.3239 300.668 43.1562V29.7536H299.117Z" fill="#C77D26"/>
<path d="M297.003 29.7572V48.12C297.454 48.4778 298.024 48.5958 298.554 48.4812V29.7572H297.003Z" fill="#C77D26"/>
<path d="M306.389 22.1836C306.389 22.1812 306.388 22.1788 306.388 22.1764C306.389 22.1812 306.389 22.1836 306.389 22.1836ZM306.02 20.6901C305.882 20.3002 305.714 19.9242 305.52 19.5655L305.522 19.565C305.724 19.8813 305.89 20.2897 306.02 20.6901Z" fill="#855F46"/>
<path d="M306.389 22.1836C305.296 21.9318 305.599 20.4369 305.599 20.4369C305.121 20.2128 305.12 19.6663 305.12 19.6663L305.52 19.5655C305.714 19.9242 305.882 20.3002 306.02 20.6901C306.255 21.4082 306.375 22.099 306.389 22.1764C306.389 22.1788 306.389 22.1812 306.389 22.1836Z" fill="#D88A25"/>
<path d="M21.5176 52.6016C19.3847 51.8161 17.5455 50.4234 16.21 48.6333C17.6795 49.9873 19.4988 50.9676 21.5176 51.4229V52.6016ZM36.8254 38.9037H35.6545C35.4378 36.7571 34.6367 34.783 33.4132 33.1428C35.0627 34.6631 36.2717 36.6549 36.8254 38.9037Z" fill="#EDB1C6"/>
<path d="M25.5344 53.3203C24.1219 53.3203 22.7689 53.069 21.5166 52.608V51.4293C22.3432 51.6157 23.2035 51.7141 24.0865 51.7141C30.5075 51.7141 35.7129 46.5103 35.7129 40.0911C35.7129 39.6927 35.6927 39.2985 35.6535 38.9101H36.8244C37.0445 39.803 37.161 40.7366 37.161 41.6978C37.161 44.7932 35.9503 47.6063 33.9767 49.6893C33.1956 50.1241 32.5068 50.7051 31.9471 51.3945C30.109 52.6118 27.9044 53.3203 25.5344 53.3203Z" fill="#E9CCE2"/>
<path d="M31.9482 51.3945C32.5079 50.7051 33.1968 50.1242 33.9778 49.6894C33.3695 50.3315 32.6886 50.9043 31.9482 51.3945Z" fill="#C9B1DE"/>
<path d="M35.7129 40.088C35.7129 46.5072 30.5076 51.7109 24.0865 51.7109C17.6653 51.7109 12.46 46.5072 12.46 40.088C12.46 33.6693 17.6653 28.4655 24.0865 28.4655C30.5076 28.4655 35.7129 33.6693 35.7129 40.088Z" fill="#F3F5FB"/>
<path d="M24.0874 49.3711C18.9663 49.3711 14.7998 45.206 14.7998 40.0863C14.7998 34.9671 18.9663 30.802 24.0874 30.802C29.2085 30.802 33.3748 34.9671 33.3748 40.0863C33.3748 45.206 29.2085 49.3711 24.0874 49.3711Z" fill="#2B4598"/>
<path d="M25.5249 38.7168L25.2286 38.4211H22.7692L22.4618 38.7283C21.777 38.2481 21.3292 37.4531 21.3292 36.5535C21.3292 35.0868 22.5183 33.8981 23.9853 33.8981C25.4525 33.8981 26.6417 35.0868 26.6417 36.5535C26.6417 37.4465 26.2007 38.2357 25.5249 38.7168ZM23.9022 33.1772C22.0511 33.2207 20.5522 34.7495 20.544 36.6008C20.5386 37.8344 21.1822 38.918 22.1536 39.53C22.4573 39.7211 22.6438 40.0531 22.6438 40.4119V42.0358C22.6438 42.1213 22.6774 42.2035 22.7375 42.2647L22.9871 42.5179V46.791C22.9871 47.0007 23.0805 47.1999 23.2421 47.3342L23.2967 47.3796C23.6181 47.6467 24.0899 47.6252 24.3854 47.3294L25.14 46.575C25.1752 46.5402 25.1948 46.4924 25.1948 46.4427V46.2081C25.1948 46.124 25.1388 46.05 25.0576 46.028C24.9391 45.996 24.7836 45.9057 24.7618 45.6544C24.7354 45.3515 24.8857 45.2249 25.0026 45.1728C25.0823 45.1375 25.1312 45.0558 25.131 44.9683L25.1209 42.5179L25.3601 42.2637C25.4168 42.203 25.4486 42.1233 25.4486 42.0401V40.3269C25.4486 39.9795 25.6263 39.6609 25.9136 39.4659C26.8267 38.8477 27.4268 37.8024 27.4268 36.6166C27.4268 34.6888 25.841 33.1318 23.9022 33.1772Z" fill="#F8A123"/>
<path d="M23.9872 36.4978C23.5231 36.4978 23.1469 36.1218 23.1469 35.6579C23.1469 35.1935 23.5231 34.8175 23.9872 34.8175C24.4515 34.8175 24.8279 35.1935 24.8279 35.6579C24.8279 36.1218 24.4515 36.4978 23.9872 36.4978ZM23.9872 33.8964C22.5201 33.8964 21.3311 35.0851 21.3311 36.5518C21.3311 37.4514 21.7791 38.2464 22.4637 38.7266L22.771 38.4194H25.2305L25.5268 38.7156C26.2024 38.234 26.6435 37.4447 26.6435 36.5518C26.6435 35.0851 25.4543 33.8964 23.9872 33.8964Z" fill="#C77D26"/>
<path d="M24.2314 39.4071V47.4492C24.2869 47.4158 24.3396 47.3761 24.3872 47.3283L24.9056 46.81V45.95C24.8354 45.8922 24.7764 45.8009 24.7635 45.6533C24.7443 45.4331 24.8188 45.3065 24.9056 45.2334V39.4071H24.2314Z" fill="#C77D26"/>
<path d="M23.3125 39.4088V47.3912C23.5083 47.5465 23.7566 47.5981 23.9866 47.5479V39.4088H23.3125Z" fill="#C77D26"/>
<path d="M27.2325 35.4648C27.1724 35.2952 27.0994 35.1314 27.0146 34.9751H27.0158C27.1037 35.1127 27.1758 35.2905 27.2325 35.4648Z" fill="#855F46"/>
<path d="M27.3916 36.1133C26.9162 36.0039 27.0484 35.3536 27.0484 35.3536C26.8402 35.2566 26.8398 35.0187 26.8398 35.0187L27.0136 34.9748C27.0984 35.131 27.1714 35.2949 27.2315 35.4645C27.3394 35.7956 27.3916 36.1133 27.3916 36.1133Z" fill="#D88A25"/>
</svg>
