<svg width="345" height="287" viewBox="0 0 345 287" fill="none" xmlns="http://www.w3.org/2000/svg">
<g clip-path="url(#clip0_3426_156328)">
<g opacity="0.5">
<path d="M29.9016 238.468C29.9016 248.395 30.7968 258.12 32.5187 267.564C36.652 290.222 45.5164 311.23 58.0632 329.538C87.2084 372.082 136.213 400.004 191.749 400.004C257.812 400.004 314.635 360.502 339.781 303.863C343.101 296.402 345.868 288.644 348.025 280.634C351.668 267.192 353.605 253.052 353.605 238.468C353.605 226.67 352.338 215.165 349.93 204.093C349.907 203.963 349.874 203.842 349.851 203.715C343.124 173.093 327.698 145.739 306.287 124.336C300.216 118.261 293.659 112.668 286.676 107.617C283.35 105.207 279.919 102.917 276.407 100.768C251.784 85.6432 222.792 76.9231 191.749 76.9231C187.632 76.9231 183.554 77.0763 179.519 77.3829C173.817 77.8003 168.207 78.5177 162.692 79.5189C139.474 83.7159 117.991 92.8633 99.3566 105.82H99.35C87.741 113.884 77.2461 123.426 68.1301 134.182C63.3433 139.83 58.9357 145.811 54.9527 152.088C52.476 155.995 50.1595 160.006 48.0095 164.135C42.8535 174.045 38.7039 184.559 35.6751 195.542C31.911 209.21 29.9016 223.607 29.9016 238.468Z" fill="#DCE8FF"/>
<path d="M214.197 158.992C215.308 158.839 216.438 158.761 217.592 158.757L332.535 158.718C325.344 146.101 316.496 134.544 306.288 124.34C300.217 118.264 293.66 112.671 286.677 107.62C283.351 105.21 279.92 102.921 276.408 100.772C271.363 100.954 265.331 102.865 260.189 109.215C248.887 123.189 241.352 116.2 244.041 132.316C246.508 147.06 243.11 150.115 235.51 150.115C234.801 150.115 234.059 150.089 233.278 150.044C231.288 149.926 229.224 149.835 227.194 149.835C219.905 149.835 213.128 151.025 212.289 156.491C212.102 157.707 212.831 158.487 214.197 158.992Z" fill="#B1CAFF"/>
<path d="M192.936 330.438L192.929 315.329C190.825 318.671 188.809 322.089 189.145 324.897C189.446 327.392 190.988 328.957 192.936 330.438ZM181.921 305.311C184.009 305.311 186.09 304.662 188.044 304.013C189.799 303.429 191.455 302.845 192.926 302.731L192.909 262.727C190.991 263.611 188.832 263.898 186.822 263.898C182.999 263.898 179.729 262.851 179.729 262.851C178.026 260.982 175.03 260.108 171.982 260.108C165.382 260.108 158.514 264.198 163.849 271.18C171.655 281.384 166.542 289.98 174.076 300.726C176.543 304.241 179.239 305.311 181.921 305.311Z" fill="#B1CAFF"/>
<path d="M64.135 330.539C66.432 330.539 68.729 330.105 71.0064 329.192C91.1923 321.134 76.2571 299.379 68.1833 288.5C60.1096 277.624 80.6974 282.457 95.6327 272.387C109.45 263.067 96.3189 239.264 106.422 239.264C107.239 239.264 108.209 239.421 109.356 239.75C117.184 242.013 125.853 244.589 133.646 244.589C141.125 244.589 147.797 242.219 152.146 234.917C161.026 220.01 144.072 217.594 151.74 205.104C159.412 192.614 147.3 185.361 131.963 184.151C116.622 182.945 118.642 172.066 99.6679 170.455C99.0569 170.403 98.4623 170.376 97.8905 170.376C89.5815 170.376 85.2228 175.653 80.6452 180.929C76.0676 186.206 71.2678 191.482 62.0766 191.482C61.4427 191.482 60.786 191.456 60.1096 191.404C57.1102 191.176 54.5583 191.075 52.3888 191.075C39.3682 191.075 40.0642 194.626 40.0642 194.626C39.976 194.626 39.891 194.626 39.806 194.626C38.388 194.626 37.0027 194.939 35.6794 195.546C31.9153 209.213 29.9058 223.611 29.9058 238.472C29.9058 248.398 30.8011 258.123 32.523 267.567C36.6563 290.225 45.5207 311.233 58.0675 329.541C60.077 330.2 62.106 330.539 64.135 330.539Z" fill="#B1CAFF"/>
<path d="M55.6277 166.035C60.7869 166.035 65.0051 163.319 69.0959 160.602C73.1834 157.886 77.1435 155.169 81.7832 155.169C83.541 155.169 85.4001 155.56 87.3965 156.49C90.3241 157.847 92.5786 158.434 94.4051 158.434C101.963 158.434 102.11 148.37 111.644 141.446C114.513 139.363 118.077 138.701 121.818 138.701C125.089 138.701 128.497 139.209 131.689 139.715C134.878 140.223 137.855 140.732 140.266 140.732C144.056 140.732 146.448 139.477 146.092 134.999C145.017 121.573 127.255 125.33 123.485 114.588C120.972 107.427 112.477 106.233 107.096 106.233C104.407 106.233 102.495 106.53 102.495 106.53C101.518 106.161 100.469 105.917 99.3617 105.822H99.3552C87.7461 113.887 77.2513 123.429 68.1352 134.184C63.3485 139.832 58.9408 145.813 54.9579 152.091C52.4812 155.997 50.1646 160.009 48.0147 164.137C50.7919 165.484 53.3078 166.035 55.6277 166.035Z" fill="#B1CAFF"/>
<path d="M214.8 138.672C220.757 138.672 226.504 125.438 233.284 117.811C241.233 108.869 237.822 100.638 228.046 100.638C227.399 100.638 226.72 100.674 226.017 100.749C224.772 100.879 223.668 100.938 222.668 100.938C219.93 100.938 217.979 100.517 216.094 100.096C214.212 99.6789 212.392 99.2582 209.909 99.2582C207.556 99.2582 204.609 99.6365 200.453 100.749C185.92 104.636 195.069 117.811 195.069 117.811C204.083 118.75 202.603 126.136 210.275 135.89C211.811 137.844 213.31 138.672 214.8 138.672Z" fill="#B1CAFF"/>
</g>
<path d="M95.0721 222.243C95.0721 213.408 87.8577 206.211 79.0097 206.211C70.1191 206.211 62.9472 213.408 62.9472 222.243C62.9472 231.116 70.1191 238.274 79.0097 238.274C87.8577 238.274 95.0721 231.116 95.0721 222.243ZM106.27 223.958C106.27 240.113 79.0097 265.941 79.0097 265.941C79.0097 265.941 51.7498 240.113 51.7498 223.958C51.7498 207.799 63.9535 194.699 79.0097 194.699C94.0658 194.699 106.27 207.799 106.27 223.958Z" fill="#F78E48"/>
<path d="M188.599 119.472C188.599 110.986 181.669 104.073 173.171 104.073C164.63 104.073 157.742 110.986 157.742 119.472C157.742 127.996 164.63 134.871 173.171 134.871C181.669 134.871 188.599 127.996 188.599 119.472ZM199.355 121.119C199.355 136.638 173.171 161.445 173.171 161.445C173.171 161.445 146.986 136.638 146.986 121.119C146.986 105.599 158.709 93.0176 173.171 93.0176C187.632 93.0176 199.355 105.599 199.355 121.119Z" fill="#F78E48"/>
<path d="M409.188 226.266C409.188 226.266 403.829 214.356 391.011 215.677C391.011 215.677 372.406 195.827 352.564 213.032C352.564 213.032 331.473 208.767 315.854 216.724C305.441 222.026 302.001 227.59 302.001 227.59L409.188 226.266Z" fill="#EBF3FA"/>
<path d="M333.707 198.108C333.639 198.105 333.573 198.105 333.505 198.105C332.695 198.089 331.914 197.798 331.312 197.25C328.617 194.792 320.406 188.674 311.564 195.701C310.872 196.253 309.98 196.481 309.104 196.354C305.69 195.855 296.766 195.049 289.781 198.783C289.591 198.884 289.405 198.985 289.222 199.09C286.314 200.717 287.536 205.155 290.869 205.113L333.613 204.559C337.801 204.503 337.893 198.265 333.707 198.108Z" fill="#EBF3FA"/>
<path d="M131.648 49.5404L131.703 49.5372C132.87 49.4491 134.02 49.4426 135.134 49.5143C135.539 49.5404 135.889 49.2371 135.915 48.8328C135.941 48.4317 135.637 48.0827 135.232 48.0533C134.046 47.9751 132.827 47.9848 131.592 48.0762C131.187 48.1088 130.887 48.461 130.916 48.8621C130.945 49.2469 131.266 49.5404 131.648 49.5404ZM124.724 50.9264C124.809 50.9264 124.894 50.91 124.976 50.8807C125.518 50.685 126.074 50.5155 126.626 50.3785C127.185 50.2416 127.743 50.1144 128.286 50.01C128.681 49.9317 128.939 49.5469 128.861 49.1491C128.782 48.7545 128.4 48.4969 128.002 48.5751C127.44 48.6827 126.858 48.8132 126.273 48.9566C125.672 49.1067 125.067 49.2893 124.473 49.5078C124.094 49.6448 123.898 50.0655 124.035 50.4438C124.143 50.7405 124.424 50.9264 124.724 50.9264ZM142.058 51.0666C142.349 51.0666 142.626 50.8905 142.741 50.6035C142.888 50.2285 142.705 49.8013 142.329 49.6545C141.192 49.2045 140.019 48.8425 138.843 48.5751C138.451 48.4871 138.055 48.7349 137.967 49.1295C137.879 49.5241 138.127 49.9155 138.519 50.0035C139.62 50.2514 140.721 50.5938 141.787 51.0145C141.875 51.0503 141.966 51.0666 142.058 51.0666ZM118.67 54.4353C118.833 54.4353 118.993 54.3831 119.131 54.2722C120.049 53.5352 120.99 52.8798 121.924 52.3286C122.274 52.1232 122.388 51.6765 122.182 51.3275C121.98 50.9786 121.529 50.8612 121.179 51.0666C120.183 51.6536 119.183 52.3483 118.209 53.1342C117.895 53.3885 117.843 53.8484 118.098 54.1614C118.245 54.3408 118.457 54.4353 118.67 54.4353ZM148.191 54.5397C148.416 54.5397 148.635 54.4386 148.779 54.2462C149.024 53.9234 148.955 53.4635 148.632 53.2222C147.642 52.4819 146.622 51.8134 145.603 51.2329C145.253 51.0307 144.806 51.1547 144.603 51.5036C144.404 51.8558 144.525 52.3026 144.878 52.5015C145.841 53.0526 146.809 53.6886 147.753 54.3929C147.884 54.4908 148.04 54.5397 148.191 54.5397ZM153.402 59.3009C153.579 59.3009 153.758 59.2389 153.899 59.1117C154.196 58.8378 154.216 58.3748 153.945 58.0748C153.111 57.1714 152.259 56.3137 151.406 55.5278C151.108 55.2538 150.645 55.2734 150.37 55.5702C150.096 55.867 150.115 56.33 150.412 56.6039C151.233 57.3605 152.056 58.1888 152.863 59.0661C153.007 59.2226 153.203 59.3009 153.402 59.3009ZM113.703 59.4281C113.916 59.4281 114.125 59.3368 114.272 59.1607C115.033 58.2378 115.811 57.3703 116.585 56.5844C116.869 56.2974 116.866 55.8344 116.579 55.5506C116.288 55.2669 115.824 55.2702 115.54 55.5571C114.736 56.3724 113.929 57.2725 113.138 58.2312C112.88 58.5443 112.926 59.0041 113.239 59.2617C113.373 59.3726 113.54 59.4281 113.703 59.4281ZM157.813 64.8187C157.96 64.8187 158.107 64.7763 158.235 64.685C158.568 64.4534 158.646 63.9969 158.414 63.6642C157.709 62.6663 156.987 61.7011 156.271 60.8043C156.016 60.4847 155.555 60.4325 155.238 60.6869C154.922 60.938 154.869 61.3978 155.121 61.7141C155.82 62.5914 156.526 63.5305 157.215 64.5089C157.356 64.7111 157.584 64.8187 157.813 64.8187ZM109.596 65.1774C109.841 65.1774 110.08 65.0567 110.217 64.835C110.854 63.8208 111.508 62.8425 112.158 61.9294C112.393 61.6 112.315 61.1401 111.985 60.9086C111.651 60.6738 111.194 60.7521 110.962 61.0815C110.296 62.0174 109.626 63.0186 108.975 64.0589C108.76 64.4013 108.864 64.8513 109.207 65.0665C109.328 65.1415 109.462 65.1774 109.596 65.1774ZM161.607 70.78C161.731 70.78 161.858 70.7474 161.973 70.6822C162.322 70.48 162.443 70.0299 162.24 69.681C161.633 68.6309 161.012 67.6036 160.398 66.6318C160.179 66.2894 159.728 66.1884 159.385 66.4069C159.042 66.6221 158.94 67.0753 159.156 67.4145C159.764 68.37 160.375 69.3777 160.969 70.4115C161.107 70.6463 161.352 70.78 161.607 70.78ZM106.11 71.3344C106.378 71.3344 106.636 71.1909 106.763 70.9365C107.309 69.8734 107.868 68.8331 108.427 67.845C108.626 67.4928 108.502 67.046 108.149 66.8504C107.796 66.6514 107.348 66.7754 107.149 67.1276C106.58 68.132 106.012 69.1885 105.46 70.268C105.274 70.63 105.417 71.0702 105.777 71.2561C105.884 71.3083 105.999 71.3344 106.11 71.3344ZM164.926 77.0152C165.034 77.0152 165.145 76.9924 165.25 76.9402C165.612 76.7609 165.763 76.3239 165.583 75.9619C165.05 74.876 164.505 73.8128 163.966 72.7953C163.776 72.4366 163.332 72.3029 162.976 72.4921C162.616 72.6812 162.479 73.1247 162.669 73.4802C163.204 74.4846 163.74 75.5347 164.266 76.6076C164.397 76.8652 164.655 77.0152 164.926 77.0152ZM103.088 77.7359C103.369 77.7359 103.64 77.5696 103.761 77.2956C104.241 76.1934 104.731 75.1173 105.215 74.09C105.385 73.7248 105.228 73.2878 104.862 73.1182C104.496 72.9454 104.058 73.1019 103.888 73.4672C103.398 74.5075 102.901 75.5966 102.415 76.7086C102.254 77.0804 102.424 77.5109 102.794 77.674C102.888 77.7164 102.99 77.7359 103.088 77.7359ZM167.877 83.4363C167.975 83.4363 168.073 83.4167 168.168 83.3776C168.54 83.2178 168.71 82.7873 168.55 82.4156C168.076 81.3101 167.589 80.2176 167.109 79.1708C166.939 78.8023 166.504 78.6425 166.138 78.8088C165.769 78.9784 165.606 79.4121 165.776 79.7806C166.253 80.8177 166.733 81.8971 167.204 82.9928C167.325 83.27 167.592 83.4363 167.877 83.4363ZM100.415 84.2907C100.712 84.2907 100.99 84.1081 101.101 83.8179C101.526 82.7026 101.96 81.6003 102.392 80.5404C102.545 80.1654 102.365 79.7383 101.99 79.585C101.614 79.4317 101.186 79.6143 101.032 79.9894C100.598 81.059 100.16 82.171 99.7287 83.2961C99.585 83.6744 99.7777 84.0983 100.153 84.2418C100.242 84.2744 100.33 84.2907 100.415 84.2907ZM169.997 88.5954C170.085 88.5954 170.177 88.5791 170.265 88.5465C170.641 88.3964 170.827 87.9725 170.68 87.5975C170.425 86.9518 170.174 86.3159 169.919 85.6897C169.769 85.3147 169.341 85.1353 168.965 85.2854C168.589 85.4386 168.409 85.8659 168.56 86.2409C168.811 86.8605 169.063 87.4899 169.314 88.1291C169.425 88.4193 169.703 88.5954 169.997 88.5954ZM98.0232 90.9499C98.327 90.9499 98.6146 90.7575 98.7158 90.4542C99.0981 89.3324 99.4869 88.2138 99.879 87.1246C100.016 86.7431 99.817 86.3257 99.4347 86.1887C99.0557 86.0518 98.6342 86.2507 98.497 86.629C98.1049 87.728 97.7095 88.8563 97.3272 89.9847C97.1965 90.3662 97.4023 90.7836 97.7879 90.9108C97.8663 90.9401 97.9448 90.9499 98.0232 90.9499ZM95.8569 97.6906C96.1705 97.6906 96.4614 97.4884 96.5561 97.1721C96.9025 96.0438 97.2553 94.9089 97.6114 93.8034C97.7356 93.4186 97.5232 93.0077 97.1377 92.8837C96.7521 92.7598 96.3372 92.9718 96.213 93.3566C95.8569 94.4686 95.5007 95.61 95.1544 96.7449C95.0368 97.133 95.2557 97.5406 95.6412 97.658C95.7131 97.6808 95.785 97.6906 95.8569 97.6906ZM93.8801 104.487C94.2003 104.487 94.4944 104.275 94.5859 103.952C94.8995 102.814 95.223 101.679 95.5497 100.554C95.6608 100.166 95.4387 99.7614 95.0499 99.6473C94.661 99.5331 94.2526 99.7582 94.1415 100.146C93.8115 101.278 93.488 102.416 93.1711 103.561C93.0633 103.949 93.292 104.353 93.6841 104.461C93.7494 104.48 93.8148 104.487 93.8801 104.487ZM92.0634 111.329C92.3902 111.329 92.6908 111.11 92.7724 110.777C93.0632 109.636 93.3606 108.495 93.6612 107.36C93.7658 106.968 93.5305 106.567 93.1384 106.463C92.7496 106.362 92.3477 106.593 92.2432 106.985C91.9393 108.126 91.6419 109.271 91.3511 110.419C91.2531 110.81 91.4884 111.208 91.8837 111.306C91.9426 111.322 92.0046 111.329 92.0634 111.329ZM90.3873 118.216C90.7173 118.216 91.0211 117.988 91.0996 117.652C91.3675 116.501 91.6419 115.353 91.9197 114.205C92.0177 113.814 91.7759 113.416 91.3806 113.321C90.9885 113.223 90.5931 113.468 90.4951 113.859C90.2141 115.01 89.9396 116.165 89.6717 117.319C89.5802 117.711 89.8253 118.105 90.2174 118.196C90.2762 118.21 90.3317 118.216 90.3873 118.216ZM88.8352 125.116C89.175 125.116 89.4789 124.878 89.5508 124.536C89.7991 123.391 90.0507 122.243 90.3088 121.096C90.397 120.701 90.1487 120.31 89.7534 120.222C89.358 120.134 88.966 120.381 88.8777 120.776C88.6196 121.927 88.368 123.078 88.1164 124.23C88.0315 124.624 88.2831 125.012 88.6817 125.097C88.734 125.11 88.783 125.116 88.8352 125.116ZM87.3943 132.046C87.7374 132.046 88.0445 131.805 88.1132 131.456C88.3419 130.308 88.5771 129.154 88.8189 127.993C88.9006 127.598 88.6457 127.21 88.2504 127.129C87.8517 127.044 87.4662 127.301 87.3845 127.696C87.1427 128.857 86.9042 130.018 86.6755 131.169C86.5938 131.567 86.8519 131.952 87.2506 132.03C87.2996 132.04 87.3453 132.046 87.3943 132.046ZM86.0514 138.996C86.3978 138.996 86.7082 138.751 86.7735 138.399C86.9859 137.248 87.2048 136.09 87.4303 134.926C87.5087 134.528 87.2473 134.146 86.8487 134.068C86.4501 133.993 86.0678 134.251 85.9894 134.649C85.7639 135.816 85.545 136.977 85.3294 138.132C85.2575 138.529 85.5189 138.911 85.9175 138.986C85.9632 138.993 86.009 138.996 86.0514 138.996ZM84.8033 145.968C85.1529 145.968 85.4633 145.714 85.5254 145.358C85.7247 144.21 85.9273 143.049 86.1364 141.875C86.2083 141.477 85.9436 141.099 85.545 141.027C85.1464 140.956 84.7641 141.22 84.6955 141.618C84.4831 142.795 84.2772 143.959 84.0779 145.11C84.0093 145.508 84.2773 145.886 84.6791 145.955C84.7184 145.961 84.7608 145.968 84.8033 145.968ZM83.6401 152.95C83.993 152.95 84.3034 152.696 84.3622 152.334C84.5451 151.189 84.7379 150.025 84.934 148.844C84.9993 148.446 84.7281 148.068 84.3295 148.003C83.9341 147.938 83.5519 148.205 83.4865 148.606C83.2905 149.787 83.0977 150.954 82.9147 152.102C82.8494 152.503 83.1206 152.878 83.5225 152.944C83.5617 152.95 83.6009 152.95 83.6401 152.95ZM82.5553 159.952C82.9115 159.952 83.2251 159.691 83.2807 159.325C83.4506 158.184 83.6271 157.017 83.81 155.83C83.8721 155.428 83.5976 155.057 83.199 154.995C82.8036 154.936 82.4246 155.207 82.3625 155.608C82.1763 156.798 81.9998 157.966 81.8299 159.11C81.7711 159.511 82.0456 159.883 82.4475 159.942C82.4834 159.948 82.5194 159.952 82.5553 159.952ZM81.549 166.966C81.9084 166.966 82.2253 166.699 82.2744 166.334C82.4312 165.199 82.5946 164.028 82.7677 162.828C82.8233 162.427 82.5455 162.058 82.1437 162C81.745 161.941 81.3725 162.221 81.317 162.619C81.1438 163.823 80.9805 164.997 80.8204 166.131C80.7681 166.533 81.0458 166.904 81.4477 166.956C81.4836 166.963 81.5163 166.966 81.549 166.966ZM80.621 173.994C80.9837 173.994 81.3007 173.723 81.3464 173.352C81.4869 172.236 81.6405 171.062 81.8006 169.843C81.8529 169.441 81.5718 169.073 81.17 169.021C80.7681 168.965 80.3989 169.249 80.3466 169.65C80.1865 170.873 80.0329 172.05 79.8924 173.169C79.8401 173.57 80.1244 173.935 80.5263 173.987C80.559 173.991 80.5883 173.994 80.621 173.994ZM79.7715 181.041C80.1407 181.041 80.4577 180.767 80.5001 180.392C80.621 179.323 80.7582 178.145 80.9118 176.87C80.9608 176.469 80.6733 176.104 80.2714 176.055C79.8728 176.009 79.5036 176.293 79.4578 176.694C79.301 177.973 79.1638 179.153 79.0429 180.226C78.9971 180.627 79.2847 180.989 79.6865 181.035L79.7715 181.041ZM79.02 188.141C79.3925 188.141 79.7127 187.857 79.7486 187.475C79.7486 187.462 79.8663 186.184 80.108 183.921C80.1505 183.52 79.8597 183.161 79.4578 183.115C79.0559 183.073 78.6933 183.363 78.6508 183.767C78.409 186.04 78.2881 187.329 78.2881 187.342C78.2489 187.746 78.5462 188.101 78.9514 188.137L79.02 188.141Z" fill="#F78E48"/>
<path d="M429.824 268.846C429.824 268.846 419.832 268.155 417.656 275.978C417.656 275.978 409.961 260.332 393.706 261.62C377.454 262.911 374.451 272.45 374.451 272.45C374.451 272.45 365.139 269.261 357.405 273.516C349.675 277.772 350.171 285.576 350.171 285.576C350.171 285.576 343.081 275.643 328.829 279.191C328.829 279.191 331.671 264.829 314.534 261.545C297.396 258.261 290.117 263.938 290.117 263.938C290.117 263.938 270.708 251.461 253.525 267.102C253.525 267.102 240.936 264.659 234.78 272.401C234.78 272.401 222.168 257.188 198.44 259.859V335.066H429.922L429.824 268.846Z" fill="#D7E2FF"/>
<path d="M302.379 335.066C302.379 335.066 301.529 318.236 283.921 314.208C283.921 314.208 293.041 310.184 288.443 300.182C283.846 290.181 272.682 289.447 272.682 289.447C272.682 289.447 271.515 271.351 239.857 274.475C230.97 275.352 221.563 280.665 220.09 289.936C220.09 289.936 216.659 284.298 209.546 284.676C209.546 284.676 208.667 274.387 198.44 274.475V335.066H302.379Z" fill="#EBF3FA"/>
<path d="M362.338 228.129C377.746 228.129 392.232 234.117 403.127 244.992C414.022 255.868 420.023 270.325 420.023 285.704C420.023 301.083 414.022 315.54 403.127 326.416C392.232 337.288 377.746 343.276 362.338 343.276C346.929 343.276 332.444 337.288 321.547 326.416C310.654 315.54 304.651 301.083 304.651 285.704C304.651 270.325 310.654 255.868 321.547 244.992C332.444 234.117 346.929 228.129 362.338 228.129ZM362.338 343.918C377.917 343.918 392.564 337.862 403.58 326.866C414.597 315.872 420.664 301.253 420.664 285.704C420.664 270.155 414.597 255.536 403.58 244.539C392.564 233.546 377.917 227.49 362.338 227.49C346.758 227.49 332.111 233.546 321.096 244.539C310.078 255.536 304.011 270.155 304.011 285.704C304.011 301.253 310.078 315.872 321.096 326.866C332.111 337.862 346.758 343.918 362.338 343.918Z" fill="#AEC3FF"/>
<path d="M315.567 285.699C315.567 288.569 315.825 291.38 316.321 294.106C317.517 300.654 320.079 306.723 323.702 312.016C332.126 324.307 346.285 332.375 362.333 332.375C381.423 332.375 397.841 320.961 405.108 304.597C406.067 302.441 406.867 300.198 407.49 297.882C408.542 294.002 409.102 289.912 409.102 285.699C409.102 282.291 408.736 278.965 408.04 275.765C408.033 275.73 408.024 275.694 408.017 275.658C406.074 266.81 401.616 258.906 395.429 252.719C393.675 250.965 391.78 249.351 389.763 247.89C388.801 247.192 387.81 246.533 386.795 245.91C379.68 241.54 371.303 239.019 362.333 239.019C361.143 239.019 359.965 239.065 358.798 239.153C357.152 239.274 355.53 239.482 353.937 239.769C347.228 240.983 341.02 243.627 335.635 247.371C332.279 249.699 329.247 252.458 326.614 255.566C325.228 257.197 323.954 258.925 322.804 260.738C322.088 261.87 321.418 263.028 320.798 264.221C319.308 267.084 318.109 270.124 317.233 273.297C316.148 277.246 315.567 281.407 315.567 285.699Z" fill="#AEC3FF"/>
<path d="M315.572 285.707C315.572 288.577 315.83 291.388 316.327 294.114C317.523 300.663 320.084 306.731 323.708 312.024C324.946 312.429 326.207 312.419 327.449 311.923C333.281 309.595 328.965 303.307 326.632 300.164C324.299 297.02 330.249 298.419 334.562 295.507C338.878 292.598 334.098 284.797 338.529 286.079C342.962 287.357 348.327 288.988 350.893 284.68C353.459 280.372 348.561 279.674 350.777 276.067C352.993 272.457 349.494 270.36 345.061 270.011C340.63 269.663 341.212 266.519 335.729 266.056C330.249 265.589 330.363 272.575 324.299 272.108C318.235 271.642 318.506 273.038 318.506 273.038C318.072 273.028 317.647 273.119 317.238 273.305C316.154 277.254 315.572 281.416 315.572 285.707Z" fill="#94B0ED"/>
<path d="M320.802 264.225C325.847 266.674 327.872 260.011 332.182 262.014C336.528 264.032 335.77 260.152 339.187 257.667C342.61 255.185 349.453 259.685 349.142 255.805C348.832 251.927 343.7 253.01 342.61 249.909C341.521 246.804 336.544 247.58 336.544 247.58C336.263 247.473 335.959 247.401 335.639 247.375C332.283 249.703 329.251 252.462 326.618 255.57C325.232 257.2 323.958 258.929 322.808 260.742C322.092 261.874 321.423 263.031 320.802 264.225Z" fill="#94B0ED"/>
</g>
<defs>
<clipPath id="clip0_3426_156328">
<rect width="345" height="287" rx="10" fill="white"/>
</clipPath>
</defs>
</svg>
