<svg width="520" height="280" viewBox="0 0 520 280" fill="none" xmlns="http://www.w3.org/2000/svg">
<g clip-path="url(#clip0_3320_126987)">
<g opacity="0.5">
<path d="M269.32 219.638C269.32 231.771 270.413 243.656 272.514 255.199C277.559 282.893 288.379 308.569 303.694 330.945C339.269 382.944 399.085 417.07 466.873 417.07C547.511 417.07 616.87 368.79 647.563 299.565C651.615 290.446 654.993 280.963 657.626 271.174C662.072 254.745 664.438 237.462 664.438 219.638C664.438 205.217 662.89 191.156 659.951 177.624C659.923 177.464 659.883 177.317 659.855 177.161C651.643 139.735 632.815 106.302 606.68 80.1432C599.27 72.7177 591.265 65.882 582.743 59.708C578.683 56.7625 574.495 53.9645 570.208 51.3378C540.152 32.8517 504.765 22.1938 466.873 22.1938C461.847 22.1938 456.87 22.3811 451.945 22.7557C444.985 23.2659 438.137 24.1428 431.405 25.3664C403.065 30.4961 376.842 41.6763 354.098 57.5118H354.09C339.919 67.3687 327.109 79.0312 315.982 92.1763C310.139 99.0797 304.759 106.39 299.898 114.062C296.874 118.837 294.047 123.74 291.423 128.786C285.129 140.899 280.064 153.749 276.367 167.173C271.773 183.877 269.32 201.475 269.32 219.638Z" fill="#DCE8FF"/>
<path d="M494.273 122.5C495.629 122.313 497.009 122.217 498.417 122.213L638.719 122.165C629.941 106.744 619.141 92.6185 606.681 80.1469C599.271 72.7214 591.267 65.8857 582.744 59.7118C578.684 56.7663 574.496 53.9682 570.209 51.3416C564.051 51.5648 556.689 53.9005 550.411 61.6608C536.616 78.7399 527.419 70.1984 530.702 89.8962C533.713 107.916 529.565 111.651 520.288 111.651C519.423 111.651 518.518 111.619 517.564 111.563C515.136 111.419 512.615 111.308 510.138 111.308C501.241 111.308 492.969 112.763 491.944 119.443C491.717 120.93 492.606 121.882 494.273 122.5Z" fill="#B1CAFF"/>
<path d="M468.322 332.047L468.314 313.581C465.746 317.666 463.285 321.843 463.696 325.275C464.063 328.324 465.945 330.237 468.322 332.047ZM454.878 301.336C457.426 301.336 459.967 300.543 462.352 299.75C464.494 299.037 466.516 298.323 468.31 298.184L468.29 249.29C465.949 250.37 463.313 250.721 460.86 250.721C456.194 250.721 452.202 249.441 452.202 249.441C450.124 247.157 446.467 246.089 442.746 246.089C434.69 246.089 426.306 251.087 432.819 259.621C442.347 272.093 436.105 282.599 445.302 295.732C448.313 300.029 451.604 301.336 454.878 301.336Z" fill="#B1CAFF"/>
<path d="M311.105 332.172C313.909 332.172 316.713 331.642 319.493 330.526C344.132 320.677 325.902 294.088 316.047 280.791C306.192 267.498 331.322 273.405 349.552 261.097C366.418 249.706 350.389 220.613 362.721 220.613C363.718 220.613 364.902 220.805 366.302 221.207C375.858 223.973 386.439 227.122 395.951 227.122C405.08 227.122 413.224 224.225 418.532 215.3C429.372 197.081 408.677 194.128 418.038 178.862C427.402 163.597 412.618 154.732 393.897 153.254C375.172 151.779 377.637 138.482 354.477 136.513C353.731 136.449 353.006 136.418 352.308 136.418C342.166 136.418 336.845 142.867 331.258 149.316C325.67 155.765 319.812 162.214 308.593 162.214C307.819 162.214 307.017 162.182 306.192 162.118C302.531 161.839 299.416 161.715 296.768 161.715C280.874 161.715 281.724 166.056 281.724 166.056C281.616 166.056 281.513 166.056 281.409 166.056C279.678 166.056 277.987 166.439 276.372 167.18C271.777 183.884 269.325 201.482 269.325 219.645C269.325 231.778 270.417 243.663 272.519 255.206C277.564 282.899 288.384 308.576 303.699 330.952C306.152 331.757 308.629 332.172 311.105 332.172Z" fill="#B1CAFF"/>
<path d="M300.721 131.109C307.018 131.109 312.167 127.789 317.16 124.469C322.15 121.149 326.983 117.829 332.647 117.829C334.792 117.829 337.061 118.307 339.498 119.443C343.072 121.101 345.824 121.818 348.053 121.818C357.278 121.818 357.457 109.518 369.095 101.056C372.597 98.5096 376.948 97.7004 381.514 97.7004C385.506 97.7004 389.666 98.3222 393.563 98.94C397.455 99.5618 401.088 100.184 404.032 100.184C408.658 100.184 411.578 98.6491 411.143 93.1766C409.831 76.767 388.151 81.3587 383.548 68.2295C380.481 59.4767 370.112 58.0178 363.543 58.0178C360.261 58.0178 357.928 58.3806 357.928 58.3806C356.735 57.9302 355.455 57.6312 354.103 57.5156H354.095C339.925 67.3725 327.115 79.035 315.988 92.1801C310.145 99.0835 304.765 106.393 299.903 114.066C296.88 118.841 294.052 123.744 291.428 128.79C294.818 130.436 297.889 131.109 300.721 131.109Z" fill="#B1CAFF"/>
<path d="M495.01 97.6641C502.281 97.6641 509.296 81.4897 517.572 72.1669C527.275 61.2379 523.111 51.1778 511.178 51.1778C510.389 51.1778 509.559 51.2216 508.702 51.3133C507.182 51.4727 505.834 51.5445 504.614 51.5445C501.272 51.5445 498.891 51.0303 496.59 50.5161C494.292 50.0059 492.071 49.4918 489.04 49.4918C486.168 49.4918 482.571 49.9541 477.498 51.3133C459.758 56.0644 470.925 72.1669 470.925 72.1669C481.929 73.3148 480.122 82.3427 489.487 94.2642C491.361 96.6517 493.192 97.6641 495.01 97.6641Z" fill="#B1CAFF"/>
</g>
<path d="M348.869 199.805C348.869 189.008 340.063 180.211 329.263 180.211C318.411 180.211 309.657 189.008 309.657 199.805C309.657 210.651 318.411 219.399 329.263 219.399C340.063 219.399 348.869 210.651 348.869 199.805ZM362.537 201.902C362.537 221.647 329.263 253.215 329.263 253.215C329.263 253.215 295.99 221.647 295.99 201.902C295.99 182.152 310.886 166.141 329.263 166.141C347.641 166.141 362.537 182.152 362.537 201.902Z" fill="#F78E48"/>
<path d="M463.029 74.195C463.029 63.8239 454.57 55.374 444.197 55.374C433.771 55.374 425.364 63.8239 425.364 74.195C425.364 84.6138 433.771 93.0159 444.197 93.0159C454.57 93.0159 463.029 84.6138 463.029 74.195ZM476.158 76.2078C476.158 95.1762 444.197 125.496 444.197 125.496C444.197 125.496 412.235 95.1762 412.235 76.2078C412.235 57.2394 426.545 41.8622 444.197 41.8622C461.848 41.8622 476.158 57.2394 476.158 76.2078Z" fill="#F78E48"/>
<path d="M393.512 -11.2753L393.58 -11.2792C395.004 -11.3869 396.407 -11.3948 397.767 -11.3071C398.262 -11.2752 398.689 -11.6459 398.721 -12.1402C398.753 -12.6304 398.382 -13.0569 397.887 -13.0928C396.439 -13.1884 394.952 -13.1765 393.444 -13.0649C392.95 -13.025 392.583 -12.5945 392.619 -12.1043C392.655 -11.6339 393.045 -11.2753 393.512 -11.2753ZM385.061 -9.5813C385.165 -9.5813 385.268 -9.60124 385.368 -9.63712C386.03 -9.87627 386.708 -10.0835 387.382 -10.2509C388.064 -10.4183 388.746 -10.5737 389.408 -10.7013C389.891 -10.797 390.206 -11.2673 390.11 -11.7536C390.014 -12.2358 389.548 -12.5507 389.061 -12.455C388.375 -12.3235 387.665 -12.1641 386.951 -11.9887C386.218 -11.8054 385.48 -11.5822 384.754 -11.3151C384.291 -11.1477 384.052 -10.6335 384.219 -10.1712C384.351 -9.80844 384.694 -9.5813 385.061 -9.5813ZM406.219 -9.40988C406.573 -9.40988 406.912 -9.62517 407.052 -9.97591C407.232 -10.4343 407.008 -10.9564 406.55 -11.1358C405.162 -11.6858 403.73 -12.1282 402.294 -12.455C401.815 -12.5627 401.333 -12.2597 401.225 -11.7775C401.118 -11.2952 401.421 -10.8168 401.899 -10.7092C403.243 -10.4063 404.587 -9.98781 405.887 -9.47363C405.995 -9.42979 406.107 -9.40988 406.219 -9.40988ZM377.671 -5.2926C377.87 -5.2926 378.066 -5.35637 378.233 -5.4919C379.354 -6.39268 380.502 -7.19382 381.643 -7.86742C382.07 -8.11852 382.209 -8.66454 381.958 -9.09102C381.711 -9.5175 381.16 -9.66098 380.734 -9.40988C379.517 -8.69244 378.297 -7.84344 377.108 -6.88287C376.726 -6.57198 376.662 -6.00998 376.973 -5.62735C377.152 -5.40813 377.412 -5.2926 377.671 -5.2926ZM413.704 -5.16501C413.98 -5.16501 414.247 -5.28857 414.422 -5.52373C414.721 -5.91832 414.638 -6.48035 414.243 -6.77528C413.034 -7.68007 411.79 -8.49715 410.546 -9.20662C410.119 -9.45374 409.573 -9.30225 409.325 -8.87576C409.082 -8.4453 409.23 -7.89926 409.66 -7.65613C410.837 -6.98253 412.017 -6.20531 413.17 -5.34438C413.33 -5.22479 413.521 -5.16501 413.704 -5.16501ZM420.066 0.654251C420.281 0.654251 420.5 0.578491 420.672 0.423035C421.035 0.0882416 421.059 -0.477707 420.728 -0.844391C419.711 -1.94846 418.67 -2.99678 417.629 -3.95737C417.266 -4.29218 416.7 -4.26822 416.365 -3.90552C416.03 -3.54282 416.053 -2.97685 416.416 -2.64204C417.417 -1.71735 418.422 -0.704956 419.408 0.367218C419.583 0.558548 419.822 0.654251 420.066 0.654251ZM371.609 0.809708C371.868 0.809708 372.123 0.698059 372.303 0.482834C373.232 -0.645157 374.181 -1.70537 375.126 -2.66595C375.473 -3.01669 375.469 -3.58266 375.118 -3.92941C374.763 -4.27618 374.197 -4.27223 373.85 -3.92148C372.869 -2.92503 371.884 -1.82495 370.919 -0.653122C370.604 -0.270493 370.659 0.291489 371.042 0.606369C371.206 0.741882 371.409 0.809708 371.609 0.809708ZM425.45 7.39818C425.629 7.39818 425.809 7.34637 425.964 7.23477C426.371 6.95178 426.467 6.39374 426.184 5.9872C425.322 4.76755 424.441 3.58778 423.567 2.49168C423.256 2.10107 422.694 2.03732 422.307 2.34821C421.92 2.65512 421.856 3.21712 422.163 3.60373C423.017 4.67592 423.878 5.82379 424.72 7.01953C424.891 7.26665 425.171 7.39818 425.45 7.39818ZM366.595 7.83662C366.895 7.83662 367.186 7.68915 367.353 7.41811C368.131 6.17853 368.929 4.9828 369.722 3.86678C370.009 3.46422 369.914 2.90219 369.511 2.6192C369.104 2.33221 368.546 2.42792 368.263 2.83047C367.449 3.9744 366.631 5.19807 365.838 6.46954C365.574 6.88805 365.702 7.43802 366.121 7.70108C366.268 7.79276 366.432 7.83662 366.595 7.83662ZM430.08 14.6842C430.232 14.6842 430.387 14.6444 430.527 14.5647C430.953 14.3176 431.101 13.7675 430.854 13.341C430.112 12.0576 429.354 10.802 428.604 9.61427C428.337 9.19576 427.787 9.07227 427.368 9.33931C426.949 9.60237 426.826 10.1563 427.089 10.5709C427.831 11.7387 428.577 12.9703 429.302 14.2338C429.47 14.5208 429.769 14.6842 430.08 14.6842ZM362.34 15.3618C362.667 15.3618 362.982 15.1864 363.138 14.8755C363.804 13.5761 364.486 12.3047 365.168 11.097C365.411 10.6666 365.259 10.1205 364.829 9.88136C364.398 9.63823 363.852 9.78969 363.608 10.2202C362.914 11.4478 362.22 12.7391 361.546 14.0584C361.319 14.5009 361.495 15.039 361.933 15.2662C362.065 15.3299 362.204 15.3618 362.34 15.3618ZM434.132 22.3051C434.264 22.3051 434.399 22.2772 434.527 22.2134C434.97 21.9942 435.153 21.4601 434.934 21.0177C434.284 19.6904 433.618 18.391 432.96 17.1474C432.728 16.709 432.186 16.5456 431.751 16.7768C431.312 17.008 431.145 17.55 431.376 17.9844C432.03 19.2121 432.684 20.4955 433.326 21.8068C433.486 22.1217 433.801 22.3051 434.132 22.3051ZM358.651 23.1859C358.994 23.1859 359.325 22.9826 359.473 22.6478C360.059 21.3006 360.657 19.9854 361.247 18.7298C361.455 18.2834 361.263 17.7493 360.817 17.542C360.37 17.3308 359.835 17.5221 359.628 17.9686C359.03 19.24 358.424 20.5712 357.829 21.9304C357.634 22.3848 357.841 22.9109 358.292 23.1102C358.408 23.162 358.531 23.1859 358.651 23.1859ZM437.733 30.1531C437.853 30.1531 437.973 30.1292 438.088 30.0813C438.543 29.886 438.751 29.3599 438.555 28.9055C437.977 27.5543 437.382 26.2191 436.796 24.9397C436.589 24.4893 436.058 24.294 435.612 24.4972C435.161 24.7045 434.962 25.2346 435.169 25.685C435.751 26.9525 436.338 28.2718 436.912 29.611C437.059 29.9498 437.386 30.1531 437.733 30.1531ZM355.389 31.1973C355.751 31.1973 356.09 30.9741 356.226 30.6194C356.745 29.2563 357.275 27.9091 357.801 26.6137C357.989 26.1553 357.77 25.6332 357.311 25.4459C356.852 25.2586 356.33 25.4818 356.142 25.9401C355.612 27.2475 355.077 28.6066 354.551 29.9817C354.376 30.444 354.611 30.9622 355.069 31.1376C355.177 31.1774 355.285 31.1973 355.389 31.1973ZM440.322 36.4586C440.43 36.4586 440.541 36.4387 440.649 36.3988C441.108 36.2155 441.335 35.6973 441.155 35.239C440.844 34.4498 440.537 33.6725 440.226 32.9073C440.043 32.4489 439.52 32.2297 439.062 32.413C438.603 32.6003 438.384 33.1225 438.567 33.5809C438.874 34.3382 439.181 35.1075 439.488 35.8887C439.624 36.2434 439.963 36.4586 440.322 36.4586ZM352.469 39.3364C352.84 39.3364 353.191 39.1012 353.315 38.7305C353.781 37.3594 354.256 35.9923 354.734 34.661C354.902 34.1947 354.659 33.6845 354.192 33.5171C353.729 33.3497 353.215 33.5928 353.048 34.0552C352.569 35.3984 352.086 36.7775 351.62 38.1566C351.46 38.6229 351.711 39.1331 352.182 39.2885C352.278 39.3244 352.373 39.3364 352.469 39.3364ZM349.825 47.575C350.208 47.575 350.563 47.3279 350.678 46.9413C351.101 45.5622 351.532 44.1751 351.967 42.824C352.118 42.3536 351.859 41.8514 351.388 41.6999C350.918 41.5485 350.411 41.8075 350.26 42.2778C349.825 43.637 349.39 45.0321 348.968 46.4191C348.824 46.8934 349.091 47.3916 349.562 47.5351C349.65 47.563 349.737 47.575 349.825 47.575ZM347.412 55.8814C347.803 55.8814 348.162 55.6223 348.274 55.2277C348.656 53.8367 349.051 52.4496 349.45 51.0745C349.586 50.6002 349.315 50.106 348.84 49.9665C348.365 49.827 347.867 50.102 347.731 50.5763C347.328 51.9594 346.934 53.3504 346.547 54.7494C346.415 55.2237 346.694 55.718 347.173 55.8495C347.253 55.8734 347.332 55.8814 347.412 55.8814ZM345.195 64.2436C345.593 64.2436 345.96 63.9766 346.06 63.57C346.415 62.175 346.778 60.7799 347.145 59.3929C347.273 58.9146 346.985 58.4243 346.507 58.2968C346.032 58.1732 345.542 58.4562 345.414 58.9345C345.043 60.3295 344.68 61.7286 344.325 63.1316C344.206 63.6099 344.493 64.0961 344.975 64.2157C345.047 64.2356 345.123 64.2436 345.195 64.2436ZM343.149 72.6616C343.551 72.6616 343.922 72.3826 344.018 71.9721C344.345 70.5651 344.68 69.1621 345.019 67.7591C345.139 67.2808 344.844 66.7945 344.361 66.6789C343.883 66.5594 343.4 66.8583 343.28 67.3366C342.937 68.7436 342.602 70.1545 342.275 71.5655C342.164 72.0438 342.463 72.5261 342.941 72.6377C343.013 72.6536 343.081 72.6616 343.149 72.6616ZM341.254 81.0955C341.669 81.0955 342.04 80.8046 342.128 80.3861C342.431 78.987 342.738 77.584 343.053 76.181C343.161 75.6988 342.858 75.2205 342.375 75.1129C341.892 75.0052 341.414 75.3082 341.306 75.7904C340.991 77.1974 340.684 78.6044 340.377 80.0114C340.273 80.4937 340.58 80.968 341.067 81.0716C341.131 81.0876 341.19 81.0955 341.254 81.0955ZM339.495 89.5653C339.914 89.5653 340.289 89.2704 340.373 88.8439C340.652 87.4409 340.939 86.0299 341.234 84.611C341.334 84.1287 341.023 83.6544 340.54 83.5548C340.054 83.4511 339.583 83.766 339.483 84.2483C339.188 85.6672 338.897 87.0862 338.618 88.4932C338.518 88.9794 338.833 89.4497 339.32 89.5454C339.38 89.5574 339.436 89.5653 339.495 89.5653ZM337.856 98.0591C338.279 98.0591 338.658 97.7602 338.738 97.3297C338.997 95.9227 339.264 94.5077 339.539 93.0848C339.635 92.5985 339.316 92.1322 338.829 92.0365C338.343 91.9448 337.876 92.2598 337.781 92.746C337.505 94.1729 337.238 95.5919 336.975 97.0028C336.887 97.4891 337.206 97.9555 337.693 98.0471C337.749 98.0551 337.804 98.0591 337.856 98.0591ZM336.333 106.581C336.76 106.581 337.138 106.27 337.214 105.835C337.458 104.432 337.705 103.013 337.96 101.579C338.048 101.092 337.725 100.63 337.238 100.542C336.752 100.455 336.285 100.777 336.201 101.264C335.942 102.703 335.691 104.125 335.447 105.532C335.364 106.019 335.691 106.481 336.181 106.565C336.229 106.573 336.281 106.581 336.333 106.581ZM334.913 115.114C335.344 115.114 335.723 114.803 335.794 114.361C336.018 112.962 336.253 111.539 336.492 110.096C336.572 109.61 336.241 109.148 335.754 109.068C335.272 108.988 334.805 109.315 334.726 109.805C334.486 111.248 334.251 112.675 334.028 114.078C333.948 114.568 334.279 115.027 334.769 115.106C334.817 115.114 334.865 115.114 334.913 115.114ZM333.589 123.672C334.024 123.672 334.406 123.353 334.474 122.906C334.682 121.511 334.897 120.085 335.12 118.634C335.196 118.144 334.861 117.689 334.375 117.613C333.892 117.542 333.429 117.872 333.354 118.363C333.126 119.818 332.911 121.244 332.703 122.643C332.632 123.134 332.967 123.588 333.457 123.66C333.501 123.668 333.545 123.672 333.589 123.672ZM332.361 132.245C332.799 132.245 333.186 131.918 333.246 131.472C333.437 130.085 333.637 128.654 333.848 127.187C333.916 126.697 333.577 126.247 333.086 126.175C332.6 126.103 332.145 126.446 332.077 126.932C331.866 128.403 331.667 129.838 331.471 131.225C331.407 131.715 331.746 132.169 332.237 132.233C332.281 132.241 332.321 132.245 332.361 132.245ZM331.228 140.835C331.671 140.835 332.057 140.504 332.113 140.049C332.285 138.686 332.472 137.251 332.668 135.761C332.731 135.27 332.388 134.82 331.898 134.756C331.407 134.689 330.957 135.035 330.893 135.526C330.697 137.02 330.51 138.459 330.339 139.826C330.275 140.316 330.622 140.763 331.112 140.827C331.152 140.831 331.188 140.835 331.228 140.835ZM330.191 149.448C330.642 149.448 331.028 149.113 331.08 148.655C331.228 147.347 331.395 145.909 331.583 144.35C331.643 143.86 331.292 143.413 330.801 143.354C330.315 143.298 329.864 143.645 329.808 144.135C329.617 145.697 329.449 147.14 329.302 148.451C329.246 148.942 329.597 149.384 330.087 149.44L330.191 149.448ZM329.274 158.125C329.728 158.125 330.119 157.778 330.163 157.312C330.163 157.296 330.307 155.734 330.602 152.967C330.654 152.477 330.299 152.039 329.808 151.983C329.318 151.931 328.875 152.286 328.823 152.78C328.528 155.558 328.38 157.133 328.38 157.148C328.332 157.643 328.695 158.077 329.19 158.121L329.274 158.125Z" fill="#F78E48"/>
<path d="M757.47 256.764C757.47 256.764 745.274 255.919 742.618 265.481C742.618 265.481 733.226 246.357 713.384 247.931C693.547 249.51 689.882 261.168 689.882 261.168C689.882 261.168 678.515 257.27 669.075 262.471C659.639 267.673 660.245 277.211 660.245 277.211C660.245 277.211 651.591 265.07 634.194 269.407C634.194 269.407 637.664 251.853 616.746 247.839C595.827 243.826 586.942 250.765 586.942 250.765C586.942 250.765 563.251 235.515 542.277 254.631C542.277 254.631 526.911 251.646 519.397 261.108C519.397 261.108 504.002 242.514 475.04 245.779V337.699H757.59L757.47 256.764Z" fill="#D7E2FF"/>
<path d="M601.91 337.699C601.91 337.699 600.873 317.129 579.381 312.206C579.381 312.206 590.512 307.288 584.9 295.063C579.289 282.839 565.661 281.942 565.661 281.942C565.661 281.942 564.237 259.825 525.595 263.643C514.747 264.715 503.265 271.208 501.467 282.54C501.467 282.54 497.279 275.648 488.597 276.111C488.597 276.111 487.524 263.536 475.041 263.643V337.699H601.91Z" fill="#EBF3FA"/>
</g>
<defs>
<clipPath id="clip0_3320_126987">
<rect y="-47" width="675" height="374" rx="10" fill="white"/>
</clipPath>
</defs>
</svg>
