<svg width="345" height="224" viewBox="0 0 345 224" fill="none" xmlns="http://www.w3.org/2000/svg">
<g clip-path="url(#clip0_3460_199350)">
<g opacity="0.05">
<path d="M94.8149 18.0403C65.8621 19.6589 37.5938 30.9246 17.5167 52.5606C-7.45233 79.4664 -13.9427 121.397 -5.60236 156.206C-0.3773 178.011 11.0133 198.478 28.2392 213.048C35.8654 219.498 44.4078 224.948 53.682 228.702C90.9656 243.797 137.635 237.917 175.801 229.538C209.281 222.187 242.055 211.494 273.224 197.196C302.376 183.824 331.982 167.917 349.256 139.722C370.292 105.387 364.332 54.755 323.453 38.6072C292.751 26.4794 263.645 42.7661 239.232 60.5325C234.624 63.8871 229.992 67.502 224.49 68.9934C210.03 72.9135 192.148 51.4077 181.157 43.9623C165.119 33.1002 147.636 24.4123 128.555 20.5081C117.501 18.2471 106.106 17.4096 94.8149 18.0403Z" fill="#10C4D2"/>
<path d="M94.8149 18.0403C65.8621 19.6589 37.5938 30.9246 17.5167 52.5606C-7.45233 79.4664 -13.9427 121.397 -5.60236 156.206C-0.3773 178.011 11.0133 198.478 28.2392 213.048C35.8654 219.498 44.4078 224.948 53.682 228.702C90.9656 243.797 137.635 237.917 175.801 229.538C209.281 222.187 242.055 211.494 273.224 197.196C302.376 183.824 331.982 167.917 349.256 139.722C370.292 105.387 364.332 54.755 323.453 38.6072C292.751 26.4794 263.645 42.7661 239.232 60.5325C234.624 63.8871 229.992 67.502 224.49 68.9934C210.03 72.9135 192.148 51.4077 181.157 43.9623C165.119 33.1002 147.636 24.4123 128.555 20.5081C117.501 18.2471 106.106 17.4096 94.8149 18.0403Z" fill="#196CCD"/>
<path d="M94.8149 18.0403C65.8621 19.6589 37.5938 30.9246 17.5167 52.5606C-7.45233 79.4664 -13.9427 121.397 -5.60236 156.206C-0.3773 178.011 11.0133 198.478 28.2392 213.048C35.8654 219.498 44.4078 224.948 53.682 228.702C90.9656 243.797 137.635 237.917 175.801 229.538C209.281 222.187 242.055 211.494 273.224 197.196C302.376 183.824 331.982 167.917 349.256 139.722C370.292 105.387 364.332 54.755 323.453 38.6072C292.751 26.4794 263.645 42.7661 239.232 60.5325C234.624 63.8871 229.992 67.502 224.49 68.9934C210.03 72.9135 192.148 51.4077 181.157 43.9623C165.119 33.1002 147.636 24.4123 128.555 20.5081C117.501 18.2471 106.106 17.4096 94.8149 18.0403Z" fill="#1059E7"/>
</g>
<path d="M67.2221 234.855C58.7646 226.628 52.5743 216.458 49.6191 205.035C52.143 204.72 54.1943 206.617 56.0399 208.368C62.4945 214.49 68.594 220.985 74.2983 227.811C63.6801 211.825 61.1008 192.149 59.0683 173.065C64.7574 174.927 68.7779 181.012 71.7877 186.186C78.427 197.6 84.9999 209.283 88.1332 222.11C84.7433 200.834 88.3538 180.736 98.0148 161.479C107.76 179.778 113.966 201.851 112.258 222.512C114.284 206 122.212 189.916 134.437 178.634C137.505 193.076 135.431 210.065 127.526 222.534C131.521 211.609 139.932 203.26 150.824 199.178C151.823 210.522 148.692 226.513 140.939 234.855H67.2221Z" fill="#EAF2FC"/>
<path d="M216.588 234.373H294.169C309.206 224.419 321.218 210.443 328.22 193.825C312.467 195.867 296.027 204.632 287.57 218.081C289.702 213.777 292.116 210.036 294.248 205.733C301.075 191.955 308.07 177.43 307.454 162.066C297.919 166.748 290.349 174.882 284.157 183.514C277.669 192.555 271.953 202.15 267.087 212.158C268.668 194.516 269.588 176.845 269.259 159.135C269.147 153.106 268.907 146.976 266.978 141.262C251.645 161.079 242.858 186.196 242.092 211.24C243.547 188.114 239.239 165.583 229.292 144.654C226.037 150.28 222.72 157.026 219.988 162.924C209.892 184.725 210.908 211.029 216.588 234.373Z" fill="#EAF2FC"/>
<path d="M142.969 226.77H192.662V191.127H142.969V226.77Z" fill="#1B3D9E"/>
<path d="M257.766 201.639H77.8614C74.269 201.639 71.3564 198.727 71.3564 195.134V83.0248C71.3564 79.4331 74.269 76.5197 77.8614 76.5197H257.766C261.359 76.5197 264.271 79.4331 264.271 83.0248V195.134C264.271 198.727 261.359 201.639 257.766 201.639Z" fill="#6880E4"/>
<path d="M252.339 191.125H83.2884C80.5084 191.125 78.2549 188.871 78.2549 186.091V87.3354C78.2549 84.5551 80.5084 82.3014 83.2884 82.3014H252.339C255.119 82.3014 257.372 84.5551 257.372 87.3354V186.091C257.372 188.871 255.119 191.125 252.339 191.125Z" fill="#D4DFFF"/>
<path d="M250.971 185.637H150.566C149.81 185.637 149.196 185.023 149.196 184.267V164.455C149.196 163.697 149.81 163.084 150.566 163.084H250.971C251.729 163.084 252.342 163.697 252.342 164.455V184.267C252.342 185.023 251.729 185.637 250.971 185.637Z" fill="white"/>
<path d="M239.15 109.73H225.088C225.81 108.148 227.645 107.297 229.267 107.93C229.296 106.351 230.816 104.961 232.391 105.073C233.966 105.185 235.274 106.777 235.08 108.343C235.911 107.791 236.996 107.571 237.934 107.915C238.871 108.261 239.247 108.737 239.15 109.73Z" fill="white"/>
<path d="M182.275 105.066H159.654C160.822 104.093 161.765 103.442 163.272 103.63C164.222 101.219 166.243 98.8665 168.833 98.8969C171.098 98.9244 173.1 101.112 172.927 103.371C173.268 102.847 173.957 102.578 174.561 102.733C175.167 102.888 175.643 103.454 175.692 104.076C176.677 103.623 177.704 103.16 178.789 103.164C179.875 103.169 181.997 104.018 182.275 105.066Z" fill="white"/>
<path d="M247.662 168.123H206.833C206.611 168.123 206.434 167.944 206.434 167.724V166.137C206.434 165.917 206.611 165.738 206.833 165.738H247.662C247.882 165.738 248.062 165.917 248.062 166.137V167.724C248.062 167.944 247.882 168.123 247.662 168.123Z" fill="#EAF2FC"/>
<path d="M247.662 171.984H206.833C206.611 171.984 206.434 171.806 206.434 171.585V169.998C206.434 169.778 206.611 169.6 206.833 169.6H247.662C247.882 169.6 248.062 169.778 248.062 169.998V171.585C248.062 171.806 247.882 171.984 247.662 171.984Z" fill="#EAF2FC"/>
<path d="M247.662 175.844H206.833C206.611 175.844 206.434 175.666 206.434 175.446V173.859C206.434 173.638 206.611 173.46 206.833 173.46H247.662C247.882 173.46 248.062 173.638 248.062 173.859V175.446C248.062 175.666 247.882 175.844 247.662 175.844Z" fill="#EAF2FC"/>
<path d="M247.662 179.707H206.833C206.611 179.707 206.434 179.528 206.434 179.308V177.721C206.434 177.501 206.611 177.322 206.833 177.322H247.662C247.882 177.322 248.062 177.501 248.062 177.721V179.308C248.062 179.528 247.882 179.707 247.662 179.707Z" fill="#EAF2FC"/>
<path d="M226.966 183.566H206.716C206.559 183.566 206.434 183.441 206.434 183.284V181.463C206.434 181.308 206.559 181.183 206.716 181.183H226.966C227.122 181.183 227.248 181.308 227.248 181.463V183.284C227.248 183.441 227.122 183.566 226.966 183.566Z" fill="#EAF2FC"/>
<path d="M160.675 171.547L161.424 173.066C161.463 173.145 161.54 173.2 161.628 173.213L163.303 173.456C163.524 173.49 163.613 173.762 163.453 173.918L162.24 175.1C162.176 175.162 162.147 175.25 162.163 175.338L162.45 177.008C162.487 177.228 162.256 177.397 162.058 177.293L160.558 176.504C160.48 176.462 160.386 176.462 160.307 176.504L158.808 177.293C158.611 177.397 158.379 177.228 158.417 177.008L158.703 175.338C158.718 175.25 158.689 175.162 158.625 175.1L157.413 173.918C157.253 173.762 157.341 173.49 157.562 173.456L159.239 173.213C159.325 173.2 159.402 173.145 159.441 173.066L160.19 171.547C160.29 171.346 160.576 171.346 160.675 171.547Z" fill="#6880E4"/>
<path d="M169.532 171.547L170.281 173.066C170.32 173.145 170.397 173.2 170.483 173.213L172.16 173.456C172.381 173.49 172.469 173.762 172.309 173.918L171.097 175.1C171.033 175.162 171.004 175.25 171.019 175.338L171.305 177.008C171.343 177.228 171.111 177.397 170.914 177.293L169.415 176.504C169.336 176.462 169.242 176.462 169.164 176.504L167.664 177.293C167.466 177.397 167.235 177.228 167.272 177.008L167.559 175.338C167.575 175.25 167.546 175.162 167.482 175.1L166.269 173.918C166.109 173.762 166.198 173.49 166.419 173.456L168.094 173.213C168.182 173.2 168.259 173.145 168.298 173.066L169.047 171.547C169.147 171.346 169.432 171.346 169.532 171.547Z" fill="#6880E4"/>
<path d="M178.387 171.547L179.137 173.066C179.177 173.145 179.252 173.2 179.34 173.213L181.016 173.456C181.238 173.49 181.326 173.762 181.165 173.918L179.953 175.1C179.89 175.162 179.861 175.25 179.875 175.338L180.162 177.008C180.199 177.228 179.968 177.397 179.77 177.293L178.271 176.504C178.193 176.462 178.099 176.462 178.019 176.504L176.521 177.293C176.323 177.397 176.091 177.228 176.129 177.008L176.415 175.338C176.431 175.25 176.401 175.162 176.337 175.1L175.125 173.918C174.965 173.762 175.053 173.49 175.274 173.456L176.95 173.213C177.039 173.2 177.114 173.145 177.154 173.066L177.904 171.547C178.002 171.346 178.288 171.346 178.387 171.547Z" fill="#6880E4"/>
<path d="M187.243 171.547L187.992 173.066C188.032 173.145 188.108 173.2 188.196 173.213L189.871 173.456C190.093 173.49 190.182 173.762 190.022 173.918L188.808 175.1C188.745 175.162 188.716 175.25 188.732 175.338L189.018 177.008C189.056 177.228 188.824 177.397 188.626 177.293L187.127 176.504C187.048 176.462 186.954 176.462 186.876 176.504L185.377 177.293C185.179 177.397 184.948 177.228 184.985 177.008L185.272 175.338C185.286 175.25 185.257 175.162 185.194 175.1L183.982 173.918C183.821 173.762 183.909 173.49 184.131 173.456L185.807 173.213C185.895 173.2 185.97 173.145 186.009 173.066L186.76 171.547C186.858 171.346 187.145 171.346 187.243 171.547Z" fill="#6880E4"/>
<path d="M196.099 171.547L196.848 173.066C196.887 173.145 196.964 173.2 197.051 173.213L198.727 173.456C198.949 173.49 199.037 173.762 198.878 173.918L197.664 175.1C197.6 175.162 197.572 175.25 197.586 175.338L197.872 177.008C197.911 177.228 197.68 177.397 197.482 177.293L195.982 176.504C195.904 176.462 195.81 176.462 195.732 176.504L194.232 177.293C194.034 177.397 193.802 177.228 193.841 177.008L194.128 175.338C194.142 175.25 194.113 175.162 194.049 175.1L192.836 173.918C192.677 173.762 192.765 173.49 192.986 173.456L194.663 173.213C194.75 173.2 194.826 173.145 194.865 173.066L195.615 171.547C195.714 171.346 195.999 171.346 196.099 171.547Z" fill="#D4DFFF"/>
<path d="M169.21 158.9H153.496C153.568 157.766 154.633 156.897 155.768 156.961C155.249 155.55 156.483 153.907 157.973 153.704C159.463 153.503 160.936 154.474 161.684 155.777C161.608 154.84 162.843 154.096 163.636 154.604C162.363 153.435 162.541 151.14 163.861 150.024C165.182 148.911 167.295 149.013 168.647 150.089L169.21 158.9Z" fill="#6880E4"/>
<path d="M232.269 152.626C233.241 151.418 235.024 150.944 236.467 151.511C236.719 151.609 236.967 151.742 237.133 151.955C237.308 152.179 237.374 152.47 237.416 152.75C237.526 153.476 237.507 154.223 237.361 154.942C237.83 154.22 238.925 154.085 239.657 154.54C240.387 154.994 240.758 155.894 240.752 156.754C241.329 155.857 242.658 155.63 243.591 156.147C244.524 156.662 245.035 157.771 245.009 158.836H230.811C230.877 156.785 230.983 154.226 232.269 152.626Z" fill="#6880E4"/>
<path d="M215.921 111.932L195.198 130.65H236.278L215.921 111.932Z" fill="white"/>
<path d="M215.921 111.932H185.817L165.03 130.65H195.198L215.921 111.932Z" fill="#6880E4"/>
<path d="M211.196 130.651H195.198V158.873H233.624V130.651H211.196Z" fill="white"/>
<path d="M195.198 130.649V158.871H166.417V130.649H195.198Z" fill="#EAF2FC"/>
<path d="M215.739 137.26C215.513 137.26 215.294 137.275 215.075 137.299C217.993 137.629 220.262 140.104 220.262 143.111V158.873H221.588V143.111C221.588 139.88 218.97 137.26 215.739 137.26Z" fill="#6880E4"/>
<path d="M215.075 137.297C212.156 137.627 209.888 140.102 209.888 143.11V158.871H220.261V143.11C220.261 140.102 217.992 137.627 215.075 137.297Z" fill="#D4DFFF"/>
<path d="M175.097 140.461C175 140.452 174.903 140.446 174.804 140.446C173.121 140.446 171.757 141.812 171.757 143.495V148.809H172.34V143.495C172.34 141.91 173.55 140.608 175.097 140.461Z" fill="#6880E4"/>
<path d="M175.097 140.461C173.55 140.608 172.34 141.91 172.34 143.495V148.809H177.852V143.495C177.852 141.91 176.643 140.608 175.097 140.461Z" fill="#D4DFFF"/>
<path d="M185.571 140.461C185.474 140.452 185.377 140.446 185.279 140.446C183.595 140.446 182.231 141.812 182.231 143.495V148.809H182.814V143.495C182.814 141.91 184.025 140.608 185.571 140.461Z" fill="#6880E4"/>
<path d="M185.571 140.461C184.025 140.608 182.814 141.91 182.814 143.495V148.809H188.327V143.495C188.327 141.91 187.118 140.608 185.571 140.461Z" fill="#D4DFFF"/>
<path d="M233.624 130.65L214.411 113.298L215.921 111.932L236.278 130.65H233.624Z" fill="#EAF2FC"/>
<path d="M218.912 148.837C218.912 149.247 218.581 149.578 218.171 149.578C217.762 149.578 217.431 149.247 217.431 148.837C217.431 148.428 217.762 148.097 218.171 148.097C218.581 148.097 218.912 148.428 218.912 148.837Z" fill="#6880E4"/>
<path d="M172.165 155.125H169.938V154.15H172.165V155.125Z" fill="white"/>
<path d="M174.957 155.125H172.729V154.15H174.957V155.125Z" fill="white"/>
<path d="M181.922 151.244H179.694V150.271H181.922V151.244Z" fill="white"/>
<path d="M191.589 137.299H189.361V136.324H191.589V137.299Z" fill="white"/>
<path d="M201.682 151.73H199.454V150.755H201.682V151.73Z" fill="#EAF2FC"/>
<path d="M204.352 151.73H202.124V150.755H204.352V151.73Z" fill="#EAF2FC"/>
<path d="M199.161 156.324H196.934V155.349H199.161V156.324Z" fill="#EAF2FC"/>
<path d="M206.932 139.814H204.706V138.841H206.932V139.814Z" fill="#EAF2FC"/>
<path d="M198.956 144.365H196.729V143.392H198.956V144.365Z" fill="#EAF2FC"/>
<path d="M196.312 144.365H195.198V143.392H196.312V144.365Z" fill="#EAF2FC"/>
<path d="M229.035 136.324H226.809V135.351H229.035V136.324Z" fill="#EAF2FC"/>
<path d="M231.708 136.324H229.48V135.351H231.708V136.324Z" fill="#EAF2FC"/>
<path d="M225.647 148.584H223.421V147.61H225.647V148.584Z" fill="#EAF2FC"/>
<path d="M228.361 145.734H226.134V144.761H228.361V145.734Z" fill="#EAF2FC"/>
<path d="M215.525 130.135H213.298V129.161H215.525V130.135Z" fill="#EAF2FC"/>
<path d="M204.352 130.135H202.124V129.161H204.352V130.135Z" fill="#EAF2FC"/>
<path d="M207.4 130.135H205.173V129.161H207.4V130.135Z" fill="#EAF2FC"/>
<path d="M224.535 126.688H222.308V125.714H224.535V126.688Z" fill="#EAF2FC"/>
<path d="M211.386 123.799H209.16V122.825H211.386V123.799Z" fill="#EAF2FC"/>
<path d="M231.073 148.521H228.846V147.548H231.073V148.521Z" fill="#EAF2FC"/>
<path d="M232.186 149.812H229.959V148.838H232.186V149.812Z" fill="#EAF2FC"/>
<path d="M225.088 155.006H222.86V154.031H225.088V155.006Z" fill="#EAF2FC"/>
<path d="M209.159 151.73H206.932V150.755H209.159V151.73Z" fill="#EAF2FC"/>
<path d="M192.704 155.125H190.477V154.15H192.704V155.125Z" fill="white"/>
<path d="M192.704 153.459H190.477V152.484H192.704V153.459Z" fill="white"/>
<path d="M189.901 155.125H187.675V154.15H189.901V155.125Z" fill="white"/>
<path d="M188.788 137.299H186.561V136.324H188.788V137.299Z" fill="white"/>
<path d="M178.145 134.707H175.918V133.734H178.145V134.707Z" fill="white"/>
<path d="M173.127 137.299H170.901V136.324H173.127V137.299Z" fill="white"/>
<path d="M186.128 137.299H183.9V136.324H186.128V137.299Z" fill="white"/>
<path d="M170.404 137.299H168.177V136.324H170.404V137.299Z" fill="white"/>
<path d="M150.451 95.4403C149.875 95.4403 149.408 95.909 149.408 96.4847V157.617C149.408 158.193 149.875 158.662 150.451 158.662H251.087C251.663 158.662 252.131 158.193 252.131 157.617V96.4847C252.131 95.909 251.663 95.4403 251.087 95.4403H150.451ZM251.087 159.084H150.451C149.642 159.084 148.985 158.426 148.985 157.617V96.4847C148.985 95.6761 149.642 95.0179 150.451 95.0179H251.087C251.895 95.0179 252.554 95.6761 252.554 96.4847V157.617C252.554 158.426 251.895 159.084 251.087 159.084Z" fill="white"/>
<path d="M157.347 140.543H115.454C114.705 140.543 114.099 139.937 114.099 139.189V114.915C114.099 114.167 114.705 113.559 115.454 113.559H157.347C158.096 113.559 158.702 114.167 158.702 114.915V139.189C158.702 139.937 158.096 140.543 157.347 140.543Z" fill="white"/>
<path d="M131.549 127.363H116.202C116.065 127.363 115.955 127.253 115.955 127.117V116.265C115.955 116.129 116.065 116.019 116.202 116.019H131.549C131.685 116.019 131.795 116.129 131.795 116.265V127.117C131.795 127.253 131.685 127.363 131.549 127.363Z" fill="#EAF2FC"/>
<mask id="mask0_3460_199350" style="mask-type:luminance" maskUnits="userSpaceOnUse" x="115" y="116" width="17" height="12">
<path d="M131.549 127.363H116.202C116.065 127.363 115.955 127.253 115.955 127.117V116.265C115.955 116.129 116.065 116.019 116.202 116.019H131.549C131.685 116.019 131.795 116.129 131.795 116.265V127.117C131.795 127.253 131.685 127.363 131.549 127.363Z" fill="white"/>
</mask>
<g mask="url(#mask0_3460_199350)">
<path d="M114.958 126.534L120.848 120.871C121.121 120.608 121.557 120.615 121.823 120.887L126.586 125.769L129.065 123.657C129.333 123.43 129.727 123.438 129.985 123.677L132.701 126.206V128.227H114.958V126.534Z" fill="#D4DFFF"/>
<path d="M127.513 120.505C127.513 121.161 126.981 121.691 126.326 121.691C125.67 121.691 125.14 121.161 125.14 120.505C125.14 119.85 125.67 119.318 126.326 119.318C126.981 119.318 127.513 119.85 127.513 120.505Z" fill="#D4DFFF"/>
</g>
<path d="M156.545 117.688H134.045C133.954 117.688 133.88 117.614 133.88 117.523V116.185C133.88 116.093 133.954 116.02 134.045 116.02H156.545C156.636 116.02 156.71 116.093 156.71 116.185V117.523C156.71 117.614 156.636 117.688 156.545 117.688Z" fill="#EAF2FC"/>
<path d="M156.545 120.912H134.045C133.954 120.912 133.88 120.838 133.88 120.747V119.409C133.88 119.318 133.954 119.244 134.045 119.244H156.545C156.636 119.244 156.71 119.318 156.71 119.409V120.747C156.71 120.838 156.636 120.912 156.545 120.912Z" fill="#EAF2FC"/>
<path d="M156.545 124.137H134.045C133.954 124.137 133.88 124.063 133.88 123.972V122.634C133.88 122.543 133.954 122.469 134.045 122.469H156.545C156.636 122.469 156.71 122.543 156.71 122.634V123.972C156.71 124.063 156.636 124.137 156.545 124.137Z" fill="#EAF2FC"/>
<path d="M156.545 127.363H134.045C133.954 127.363 133.88 127.289 133.88 127.2V125.862C133.88 125.771 133.954 125.697 134.045 125.697H156.545C156.636 125.697 156.71 125.771 156.71 125.862V127.2C156.71 127.289 156.636 127.363 156.545 127.363Z" fill="#EAF2FC"/>
<path d="M156.5 130.131H116.168C116.051 130.131 115.955 130.037 115.955 129.92V128.799C115.955 128.681 116.051 128.586 116.168 128.586H156.5C156.617 128.586 156.711 128.681 156.711 128.799V129.92C156.711 130.037 156.617 130.131 156.5 130.131Z" fill="#EAF2FC"/>
<path d="M156.5 132.912H116.168C116.051 132.912 115.955 132.817 115.955 132.699V131.578C115.955 131.461 116.051 131.367 116.168 131.367H156.5C156.617 131.367 156.711 131.461 156.711 131.578V132.699C156.711 132.817 156.617 132.912 156.5 132.912Z" fill="#EAF2FC"/>
<path d="M156.5 135.695H116.168C116.051 135.695 115.955 135.6 115.955 135.483V134.362C115.955 134.244 116.051 134.15 116.168 134.15H156.5C156.617 134.15 156.711 134.244 156.711 134.362V135.483C156.711 135.6 156.617 135.695 156.5 135.695Z" fill="#EAF2FC"/>
<path d="M141.988 138.477H116.126C116.032 138.477 115.955 138.4 115.955 138.307V137.102C115.955 137.008 116.032 136.932 116.126 136.932H141.988C142.082 136.932 142.157 137.008 142.157 137.102V138.307C142.157 138.4 142.082 138.477 141.988 138.477Z" fill="#EAF2FC"/>
<path d="M14.9927 176.794C14.2756 176.156 17.6971 170.975 17.8106 170.489C17.9242 170.003 11.7627 175.989 11.5184 175.06C11.2742 174.131 16.2692 169.405 16.4089 169.002C16.5486 168.597 11.4572 171.707 11.2362 171.131C11.0153 170.554 17.2595 165.391 17.5338 164.866C17.8082 164.342 13.0637 165.356 12.9245 164.878C12.4975 163.409 21.3293 161.224 21.3293 161.224L21.1242 161.51C22.2738 159.867 24.5535 157.325 24.5535 157.325C24.5535 157.325 29.6957 161.235 29.9907 161.58C30.208 161.833 27.3932 163.955 25.6468 165.128V165.129C25.2496 167.347 22.4782 169.332 22.1813 169.75C21.8845 170.169 20.8597 176.904 20.2569 176.849C19.4656 176.778 20.4289 170.999 19.7413 171.387C19.2167 171.684 15.3899 177.147 14.9927 176.794Z" fill="#FE8E9C"/>
<path d="M17.5332 164.867C17.5332 164.867 19.0545 166.316 19.9242 166.419C20.7938 166.521 23.5433 165.301 23.5433 165.301C23.5433 165.301 20.9506 167.146 20.0073 166.906C19.064 166.666 17.3184 165.12 17.3184 165.12L17.5332 164.867Z" fill="#E57492"/>
<path d="M134.649 191.125C134.649 188.3 106.829 148.385 106.829 148.385C106.478 147.643 106.083 147.055 105.639 146.652L79.4558 148.045C79.4558 148.045 74.024 160.163 78.4808 170.61C82.9376 181.056 83.216 191.125 83.216 191.125H108.818C108.818 191.125 108.896 190.056 108.998 188.246C110.676 189.994 111.796 191.125 111.796 191.125H134.649Z" fill="#1B3D9E"/>
<mask id="mask1_3460_199350" style="mask-type:luminance" maskUnits="userSpaceOnUse" x="76" y="146" width="59" height="46">
<path d="M134.649 191.125C134.649 188.3 106.829 148.385 106.829 148.385C106.478 147.643 106.083 147.055 105.639 146.652L79.4558 148.045C79.4558 148.045 74.024 160.163 78.4808 170.61C82.9376 181.056 83.2162 191.125 83.2162 191.125H108.818C108.818 191.125 108.896 190.056 108.998 188.246C110.676 189.994 111.796 191.125 111.796 191.125H134.649Z" fill="white"/>
</mask>
<g mask="url(#mask1_3460_199350)">
<path d="M85.1276 155.829C85.1276 155.829 85.1139 165.575 80.627 168.889L81.3311 169.912C81.3311 169.912 87.2184 166.731 86.5774 155.761L85.1276 155.829Z" fill="#1C056D"/>
<path d="M98.5203 191.268H98.5178C98.438 191.266 98.3743 191.201 98.3756 191.121C98.6364 175.304 92.0731 152.746 92.0069 152.52C91.9843 152.444 92.0283 152.364 92.1048 152.341C92.1815 152.318 92.2619 152.363 92.2845 152.439C92.3509 152.665 98.9264 175.264 98.6649 191.126C98.6636 191.205 98.5991 191.268 98.5203 191.268Z" fill="#1C056D"/>
<path d="M126.913 193.027C126.86 193.027 126.808 192.998 126.783 192.946C121.303 181.723 103.706 151.072 103.528 150.764C103.489 150.694 103.512 150.606 103.581 150.565C103.651 150.526 103.739 150.55 103.779 150.619C103.956 150.927 121.557 181.587 127.044 192.819C127.078 192.891 127.048 192.978 126.977 193.013C126.957 193.023 126.935 193.027 126.913 193.027Z" fill="#1C056D"/>
</g>
<path d="M108.998 188.246C108.998 188.246 105.687 170.302 104.553 161.281L115.955 191.125H111.796L108.998 188.246Z" fill="#1C056D"/>
<path d="M171.365 70.9521C170.843 70.1464 165.202 72.7386 164.704 72.7777C164.206 72.8153 171.06 67.6366 170.179 67.2533C169.299 66.8714 163.868 71.0881 163.447 71.1648C163.026 71.2414 166.875 66.6834 166.339 66.3767C165.803 66.07 159.749 71.457 159.189 71.6479C158.629 71.8389 160.355 67.3039 159.902 67.0927C158.516 66.4476 155.012 74.8448 155.012 74.8448L155.327 74.6857C153.528 75.5724 150.668 77.4384 150.668 77.4384C150.668 77.4384 153.75 83.1161 154.045 83.4604C154.262 83.7136 156.788 81.2544 158.214 79.7066C160.466 79.6517 162.85 77.2142 163.308 76.9842C163.767 76.7557 170.579 76.7672 170.617 76.164C170.668 75.3713 164.81 75.4436 165.299 74.8231C165.67 74.3486 171.653 71.3991 171.365 70.9521Z" fill="#FE8E9C"/>
<path d="M159.189 71.6482C159.189 71.6482 160.391 73.3725 160.359 74.2477C160.327 75.1228 158.703 77.6543 158.703 77.6543C158.703 77.6543 160.922 75.3731 160.828 74.4039C160.734 73.4347 159.471 71.4747 159.471 71.4747L159.189 71.6482Z" fill="#E57492"/>
<path d="M78.2342 87.1937C78.2342 87.1937 62.7634 100.761 63.6926 109.495C64.6216 118.231 77.5636 145.929 78.9549 150.087C80.0103 153.239 103.216 154.285 106.311 148.524C109.408 142.763 106.619 104.107 102.532 97.7868C98.4433 91.4683 90.0756 89.4258 90.0756 89.4258L78.2342 87.1937Z" fill="#1B3D9E"/>
<path d="M84.5684 87.1922C85.0189 87.5278 117.762 90.1388 120.335 89.3707C122.909 88.6026 149.744 70.771 151.215 71.8733C152.686 72.977 158.567 83.3154 158.2 85.0397C157.833 86.764 129.893 105.698 125.666 105.882C121.438 106.065 100.024 107.353 98.278 106.616C96.532 105.882 84.5684 87.1922 84.5684 87.1922Z" fill="#1B3D9E"/>
<mask id="mask2_3460_199350" style="mask-type:luminance" maskUnits="userSpaceOnUse" x="84" y="71" width="75" height="36">
<path d="M84.5684 87.1922C85.0189 87.5278 117.762 90.1388 120.335 89.3707C122.909 88.6026 149.744 70.771 151.215 71.8733C152.686 72.977 158.567 83.3154 158.2 85.0397C157.833 86.764 129.893 105.698 125.666 105.882C121.438 106.065 100.024 107.353 98.278 106.616C96.532 105.882 84.5684 87.1922 84.5684 87.1922Z" fill="white"/>
</mask>
<g mask="url(#mask2_3460_199350)">
<path d="M122.863 90.8281C120.511 90.8281 99.8761 89.9804 99.6681 89.9718C99.5883 89.9689 99.5261 89.9023 99.5294 89.8213C99.5328 89.7418 99.601 89.681 99.6799 89.6839C99.888 89.6911 120.517 90.5388 122.863 90.5388C124.71 90.5388 143.576 78.9911 153.295 72.8852C153.363 72.8418 153.452 72.862 153.494 72.93C153.536 72.998 153.516 73.0877 153.449 73.1296C152.298 73.8529 125.254 90.8281 122.863 90.8281Z" fill="#1C056D"/>
</g>
<path d="M76.1244 61.0578C77.197 59.0384 82.0689 56.0166 86.5046 55.8806C89.0051 55.804 91.2946 57.2809 92.3362 59.5548C94.6938 64.7045 99.8189 76.9495 96.2295 78.9588C94.6312 79.8528 92.5278 79.8875 90.4084 79.4665C90.737 82.8428 90.8184 90.6758 90.7558 91.739C90.6679 93.2333 80.2446 90.5268 78.3103 89.1193C76.376 87.7133 81.5673 75.0242 81.5673 75.0242C80.1626 72.9976 74.632 63.867 76.1244 61.0578Z" fill="#FE8E9C"/>
<mask id="mask3_3460_199350" style="mask-type:luminance" maskUnits="userSpaceOnUse" x="75" y="55" width="23" height="38">
<path d="M76.1244 61.0578C77.1969 59.0384 82.0689 56.0166 86.5046 55.8806C89.0052 55.804 91.2946 57.2809 92.3363 59.5548C94.6938 64.7045 99.8191 76.9495 96.2295 78.9588C94.6312 79.8528 92.5278 79.8875 90.4084 79.4665C90.737 82.8428 90.8184 90.6758 90.7558 91.739C90.6679 93.2333 80.2446 90.5268 78.3103 89.1193C76.376 87.7133 81.5673 75.0242 81.5673 75.0242C80.1626 72.999 74.632 63.867 76.1244 61.0578Z" fill="white"/>
</mask>
<g mask="url(#mask3_3460_199350)">
<path d="M93.7547 60.3477C93.7547 60.3477 90.7023 61.8897 88.2734 61.1028C88.2734 61.1028 84.8657 63.6501 80.4949 62.354C80.4949 62.354 82.3162 66.6416 81.6681 67.6469C81.6681 67.6469 78.2302 61.1679 78.6897 60.6095C79.1491 60.0526 90.8734 56.9005 91.5427 57.0654C92.2121 57.2289 93.7547 60.3477 93.7547 60.3477Z" fill="#E57492"/>
</g>
<path d="M94.4719 71.826C94.4719 71.826 91.7778 73.3217 88.585 71.826C88.585 71.826 90.4009 74.3126 92.3433 74.1868C94.9042 74.0204 94.4719 71.826 94.4719 71.826Z" fill="white"/>
<path d="M88.8242 62.4196C88.8242 62.4196 94.9835 67.4912 94.1346 68.4068C93.2858 69.3211 89.6879 68.618 89.6879 68.618C89.8328 69.0549 90.2203 69.363 90.6774 69.4079C92.0009 69.5366 94.5438 69.6841 94.8094 68.5877C95.2761 66.6623 88.8242 62.4196 88.8242 62.4196Z" fill="#E57492"/>
<path d="M90.4078 79.4669C90.4078 79.4669 87.8912 78.7146 86.2559 77.433C86.2559 77.433 86.9271 82.5813 90.6524 83.7559L90.4078 79.4669Z" fill="#E57492"/>
<path d="M91.5756 52.0951C92.2002 51.9895 92.753 51.829 93.1304 51.5932C95.0216 50.4114 87.8349 48.1895 80.7899 51.1679C76.5134 52.9761 71.4536 58.3674 73.4208 60.2262C71.8464 61.6742 70.3906 66.3942 72.9821 69.2324C75.8802 72.4046 80.9955 75.0865 81.5672 75.0243C82.1389 74.9621 81.6838 70.3853 81.6838 70.3853C77.5174 70.6746 78.2556 66.3002 78.8805 66.1556C79.5054 66.0109 81.4281 68.2227 81.6683 67.6455C81.8526 67.2029 80.3434 63.3464 79.6279 61.5671C80.8112 62.0141 83.142 62.4886 86.2564 61.1447C87.895 60.4388 88.1644 59.9774 87.8323 59.6765C88.9932 59.5796 90.4946 59.2223 92.3739 58.3558C95.1687 57.0669 93.8968 56.4782 92.0006 56.2106C93.215 56.037 94.6621 55.6537 96.2982 54.9043C99.7796 53.3059 95.451 52.4438 91.5756 52.0951Z" fill="#1B3D9E"/>
<path d="M66.1209 101.38C66.1209 101.38 47.928 126.682 46.2225 128.104C44.5169 129.526 19.7859 152.837 20.6387 154.827C21.4915 156.816 30.0091 166.003 34.087 165.098C38.1649 164.191 58.0769 143.346 59.1085 142.213C60.1402 141.081 76.699 119.051 77.5057 116.106C78.3122 113.159 70.7422 102.689 66.1209 101.38Z" fill="#1B3D9E"/>
<mask id="mask4_3460_199350" style="mask-type:luminance" maskUnits="userSpaceOnUse" x="20" y="101" width="58" height="65">
<path d="M66.1209 101.38C66.1209 101.38 47.928 126.682 46.2225 128.104C44.5169 129.526 19.7859 152.837 20.6387 154.826C21.4915 156.816 30.009 166.003 34.087 165.098C38.1649 164.191 58.0769 143.346 59.1085 142.213C60.1402 141.081 76.699 119.051 77.5056 116.105C78.3122 113.159 70.7422 102.689 66.1209 101.38Z" fill="white"/>
</mask>
<g mask="url(#mask4_3460_199350)">
<path d="M21.8741 159.018C21.8364 159.018 21.7986 159.003 21.7703 158.974C21.7146 158.916 21.7162 158.824 21.7735 158.769C22.0304 158.52 47.4728 133.848 48.9669 131.295C50.4722 128.723 67.2094 102.174 67.3783 101.905C67.4208 101.839 67.5102 101.817 67.5778 101.86C67.6453 101.902 67.6656 101.992 67.623 102.06C67.4541 102.327 50.7194 128.873 49.2167 131.441C47.7026 134.029 23.0246 157.959 21.9748 158.977C21.9467 159.005 21.9104 159.018 21.8741 159.018Z" fill="#1C056D"/>
</g>
<path d="M69.7207 127.998L77.5048 116.106C77.5048 116.106 76.7578 132.766 72.1438 133.893L69.7207 127.998Z" fill="#1C056D"/>
<path d="M105.147 106.795C105.147 106.795 104.129 99.664 102.532 97.7849C102.532 97.7849 120.066 105.712 125.666 105.881C125.666 105.881 108.866 107.342 105.147 106.795Z" fill="#1C056D"/>
<path d="M90.7558 91.741C90.7558 91.741 91.6788 100.053 88.8248 99.2501C85.9709 98.4472 75.6352 93.6433 77.5644 87.8007L90.7558 91.741Z" fill="white"/>
<path d="M90.7562 91.7393C90.7562 91.7393 94.8166 95.4772 96.0139 94.9029C97.2114 94.3286 93.9095 88.1114 93.9095 88.1114L90.6533 87.7989L90.7562 91.7393Z" fill="white"/>
<path d="M90.7551 91.74C90.7551 91.74 89.7728 93.4947 90.4502 94.5102C91.1275 95.5271 92.5308 96.0594 92.9662 95.7686C93.4017 95.4779 94.4663 94.3337 93.934 93.5511C93.4017 92.7685 90.7551 91.74 90.7551 91.74Z" fill="#FC476A"/>
<path d="M92.3412 95.184C92.3412 95.184 91.2533 123.967 94.2208 128.505C97.1883 133.043 100.875 134.744 100.875 134.744C100.875 134.744 103.852 128.93 103.143 126.094C102.434 123.259 93.4578 94.9641 93.4578 94.9641L92.3412 95.184Z" fill="#FC476A"/>
<path d="M78.9555 150.085C78.9555 150.085 82.9018 156.259 100.661 152.648C100.661 152.648 106.478 151.644 106.83 148.387L107.055 145.955C107.055 145.955 95.966 153.285 78.1494 148.014L78.9555 150.085Z" fill="white"/>
<path d="M101.783 148.304C101.783 148.304 102.694 152.122 102.158 152.275C101.622 152.428 98.9541 153.279 98.5676 153.04C98.181 152.801 97.5746 149.409 97.7541 149.146C97.9336 148.883 100.932 148.371 101.783 148.304Z" fill="#FC476A"/>
<path d="M157.418 45.4816C157.418 45.4816 161.021 83.2422 161.804 83.4766H165.603C165.797 83.4766 165.95 83.3102 165.933 83.1164C165.577 79.202 162.427 44.699 161.692 44.5978C160.913 44.4907 157.418 45.4816 157.418 45.4816Z" fill="#1B3D9E"/>
<mask id="mask5_3460_199350" style="mask-type:luminance" maskUnits="userSpaceOnUse" x="157" y="44" width="9" height="40">
<path d="M157.418 45.4816C157.418 45.4816 161.021 83.2422 161.804 83.4766H165.603C165.797 83.4766 165.95 83.3102 165.933 83.1164C165.577 79.202 162.427 44.699 161.692 44.5978C160.913 44.4907 157.418 45.4816 157.418 45.4816Z" fill="white"/>
</mask>
<g mask="url(#mask5_3460_199350)">
<path d="M159.767 44.5885C159.724 44.6956 159.767 73.3994 164.066 84.6708C164.828 86.6671 160.83 84.5074 160.83 84.5074C160.83 84.5074 155.704 45.4695 157.418 44.5885C159.134 43.709 159.767 44.5885 159.767 44.5885Z" fill="#1C056D"/>
</g>
<path d="M117.028 27.5411C117.028 27.5411 193.028 18.1458 195.571 18.8141C198.115 19.4809 202.397 47.4672 199.733 50.3733C198.179 52.0687 121.782 60.2648 120.379 59.6399C118.974 59.0164 113.488 30.547 117.028 27.5411Z" fill="#68A9FD"/>
<path d="M126.216 49.3984C126.125 49.4389 126.024 49.4548 125.912 49.4475C125.8 49.4388 125.694 49.4128 125.591 49.3694C125.49 49.3275 125.4 49.2711 125.322 49.2031C125.243 49.1365 125.195 49.0584 125.178 48.9716C124.793 47.1128 124.498 45.3191 124.292 43.5934C124.086 41.8662 123.916 40.1607 123.783 38.4769C123.803 38.4089 123.883 38.3467 124.02 38.2932C124.158 38.2383 124.305 38.2006 124.462 38.1775C124.616 38.1544 124.757 38.15 124.881 38.1645C125.004 38.1789 125.069 38.2122 125.076 38.2629C125.896 38.0806 126.711 37.9374 127.522 37.8332C128.334 37.7291 129.16 37.6293 129.997 37.5338C130.201 37.5671 130.363 37.6495 130.482 37.7783C130.602 37.9084 130.671 38.0488 130.69 38.2021C130.709 38.3554 130.677 38.503 130.594 38.6462C130.512 38.7894 130.372 38.895 130.173 38.9644C129.35 39.0585 128.526 39.138 127.703 39.2031C126.88 39.2668 126.064 39.3897 125.259 39.5705C125.29 39.8251 125.329 40.1 125.377 40.3936C125.425 40.6873 125.473 40.9824 125.52 41.2789C125.568 41.5769 125.614 41.8676 125.661 42.1541C125.707 42.4405 125.746 42.7081 125.776 42.9554C126.034 42.886 126.325 42.8209 126.65 42.7587C126.975 42.6965 127.307 42.6401 127.644 42.5924C127.982 42.5432 128.313 42.4969 128.642 42.452C128.969 42.4086 129.264 42.3696 129.525 42.3378C129.729 42.371 129.89 42.4549 130.01 42.588C130.13 42.7211 130.201 42.8701 130.221 43.0336C130.241 43.197 130.211 43.3547 130.129 43.5051C130.048 43.6556 129.907 43.7655 129.709 43.8335C129.447 43.8668 129.152 43.8957 128.823 43.9217C128.493 43.9463 128.156 43.9738 127.811 44.0013C127.469 44.0288 127.133 44.0635 126.805 44.1025C126.478 44.143 126.189 44.198 125.938 44.266C125.895 44.3962 125.891 44.6045 125.925 44.888C125.962 45.1716 126.012 45.4941 126.079 45.8558C126.145 46.2174 126.216 46.5949 126.29 46.9884C126.365 47.3819 126.419 47.7478 126.453 48.0834C126.487 48.419 126.489 48.7084 126.461 48.9528C126.432 49.1958 126.351 49.3448 126.216 49.3984Z" fill="white"/>
<path d="M136.653 38.0219C136.276 38.0754 135.924 38.1911 135.599 38.3676C135.273 38.5455 134.987 38.7509 134.738 38.9838C134.489 39.2182 134.284 39.467 134.12 39.7317C133.957 39.995 133.853 40.2409 133.806 40.468C133.725 40.8325 133.692 41.2332 133.705 41.6672C133.718 42.1011 133.772 42.538 133.867 42.9777C133.961 43.4175 134.099 43.8442 134.279 44.2579C134.46 44.6716 134.682 45.042 134.943 45.3674C135.205 45.6944 135.506 45.9591 135.845 46.1659C136.184 46.3713 136.562 46.4813 136.978 46.4972C137.55 46.5218 138.05 46.4104 138.478 46.1616C138.905 45.9142 139.26 45.5801 139.54 45.1606C139.822 44.7425 140.029 44.2637 140.162 43.7256C140.295 43.1875 140.353 42.6421 140.337 42.0852C140.32 41.5297 140.231 40.9873 140.069 40.4608C139.909 39.9342 139.675 39.4771 139.368 39.0894C139.061 38.7018 138.682 38.4067 138.228 38.2041C137.774 38.0016 137.249 37.9409 136.653 38.0219ZM132.344 40.2047C132.544 39.3079 132.874 38.5875 133.335 38.0421C133.796 37.4982 134.337 37.1019 134.958 36.856C135.577 36.61 136.254 36.503 136.986 36.5392C137.719 36.5739 138.455 36.7243 139.197 36.9876C139.608 37.1366 139.967 37.3767 140.273 37.708C140.58 38.0392 140.838 38.4269 141.043 38.871C141.25 39.3151 141.407 39.7982 141.516 40.3204C141.624 40.8441 141.691 41.3692 141.716 41.8986C141.74 42.4281 141.726 42.9459 141.669 43.4508C141.613 43.9571 141.522 44.4142 141.394 44.8206C141.305 45.1128 141.176 45.4152 141.008 45.7276C140.839 46.0415 140.606 46.3337 140.307 46.6071C140.007 46.8805 139.628 47.125 139.167 47.342C138.706 47.5575 138.137 47.7137 137.462 47.8121C136.728 47.9177 136.077 47.8815 135.507 47.7036C134.939 47.5271 134.446 47.2508 134.026 46.8776C133.607 46.5044 133.261 46.0531 132.989 45.5251C132.717 44.9971 132.512 44.433 132.376 43.8327C132.239 43.2323 132.169 42.6205 132.166 41.9955C132.162 41.3721 132.221 40.7747 132.344 40.2047Z" fill="white"/>
<path d="M147.742 36.865C147.353 36.7652 146.963 36.7305 146.576 36.7594C146.188 36.7884 145.831 36.8506 145.507 36.946C145.183 37.0415 144.898 37.1514 144.655 37.273C144.411 37.3959 144.238 37.4972 144.137 37.5753C144.088 38.1958 144.098 38.8106 144.166 39.424C144.234 40.0358 144.322 40.6651 144.432 41.3088C144.756 41.2394 145.1 41.1873 145.466 41.154C145.831 41.1193 146.2 41.0615 146.57 40.979C146.94 40.8965 147.302 40.7692 147.653 40.5957C148.005 40.4235 148.329 40.1588 148.625 39.8044C148.857 39.5252 148.993 39.2272 149.032 38.9119C149.069 38.5965 149.039 38.3 148.938 38.0208C148.837 37.7402 148.68 37.4957 148.471 37.2845C148.259 37.0748 148.016 36.9345 147.742 36.865ZM146.645 42.2664L146.628 42.2577L146.611 42.2491C146.488 42.2795 146.336 42.3185 146.153 42.3662C145.971 42.4154 145.783 42.4588 145.592 42.4964C145.401 42.5355 145.216 42.5572 145.035 42.5659C144.856 42.5731 144.707 42.5471 144.588 42.4878C144.648 42.8494 144.711 43.1893 144.781 43.5061C144.849 43.8229 144.915 44.1368 144.979 44.4464C145.044 44.7559 145.106 45.0698 145.167 45.3881C145.229 45.7049 145.286 46.0419 145.336 46.3978C145.352 46.6393 145.299 46.8216 145.177 46.9446C145.054 47.0661 144.91 47.1326 144.74 47.1413C144.573 47.1514 144.405 47.1022 144.24 46.9937C144.075 46.8838 143.964 46.7146 143.906 46.486C143.764 45.6383 143.625 44.8022 143.486 43.9762C143.347 43.1503 143.223 42.3228 143.113 41.494C143.003 40.6651 142.913 39.8333 142.844 38.9987C142.775 38.1655 142.731 37.3163 142.714 36.4542C142.72 36.3862 142.837 36.2908 143.065 36.1664C143.294 36.0419 143.593 35.9161 143.962 35.7902C144.331 35.663 144.75 35.5516 145.223 35.4575C145.696 35.3621 146.177 35.31 146.668 35.3013C147.159 35.2926 147.637 35.3462 148.106 35.4619C148.575 35.5776 148.994 35.7787 149.362 36.0665C149.715 36.3486 150.004 36.6712 150.229 37.0343C150.455 37.3988 150.603 37.7821 150.671 38.1828C150.739 38.585 150.717 38.9886 150.604 39.395C150.491 39.8001 150.276 40.182 149.958 40.5393C149.699 40.83 149.412 41.0788 149.103 41.2871C148.792 41.4954 148.478 41.6632 148.161 41.792C148.442 42.0306 148.703 42.2896 148.945 42.5702C149.187 42.8523 149.424 43.1344 149.66 43.4193C149.894 43.7057 150.134 43.9878 150.378 44.267C150.624 44.5476 150.891 44.8037 151.177 45.0337C151.339 45.2073 151.41 45.3881 151.39 45.579C151.368 45.77 151.294 45.9291 151.165 46.0564C151.037 46.1822 150.872 46.2603 150.672 46.2878C150.472 46.3168 150.279 46.2575 150.091 46.1114C149.746 45.8351 149.441 45.5298 149.174 45.1928C148.906 44.8558 148.644 44.5129 148.387 44.1643C148.129 43.8157 147.865 43.4772 147.591 43.1488C147.318 42.819 147.003 42.5254 146.645 42.2664Z" fill="white"/>
<path d="M164.983 36.0565C165.065 36.246 165.065 36.4109 164.983 36.5497C164.899 36.6886 164.776 36.7913 164.61 36.8564C164.445 36.9215 164.257 36.9418 164.047 36.9201C163.837 36.8984 163.651 36.8231 163.487 36.6958C163.444 36.4716 163.361 36.2474 163.237 36.0218C163.114 35.7975 162.959 35.5994 162.777 35.4301C162.593 35.2609 162.385 35.1278 162.151 35.0309C161.916 34.934 161.676 34.905 161.43 34.9426C161.089 34.9991 160.795 35.1263 160.545 35.3231C160.296 35.5198 160.113 35.7614 159.991 36.0449C159.871 36.3299 159.822 36.6409 159.841 36.9794C159.861 37.3164 159.972 37.6506 160.175 37.9804C160.25 38.1106 160.422 38.1974 160.69 38.2379C160.956 38.2784 161.274 38.3189 161.642 38.3594C162.008 38.3984 162.402 38.4548 162.826 38.5286C163.249 38.6024 163.659 38.7369 164.056 38.9308C164.454 39.126 164.812 39.4023 165.135 39.7582C165.454 40.114 165.7 40.5914 165.871 41.1917C166.007 41.6995 166.014 42.1609 165.891 42.5746C165.768 42.9883 165.557 43.3528 165.256 43.6682C164.954 43.9821 164.588 44.2425 164.154 44.4464C163.722 44.6519 163.262 44.7936 162.777 44.8717C162.291 44.9498 161.805 44.9628 161.318 44.9079C160.83 44.8529 160.385 44.7256 159.978 44.5231C159.573 44.322 159.23 44.0414 158.948 43.6812C158.668 43.3196 158.491 42.874 158.418 42.3432C158.4 42.1985 158.39 42.0567 158.389 41.9208C158.386 41.7833 158.403 41.6575 158.441 41.5418C158.478 41.426 158.541 41.3248 158.626 41.2366C158.711 41.1483 158.831 41.0832 158.989 41.0427C159.134 41.0167 159.261 41.0268 159.371 41.0731C159.479 41.1194 159.57 41.1874 159.646 41.2771C159.719 41.3682 159.773 41.4796 159.808 41.6127C159.842 41.7443 159.863 41.8875 159.867 42.0423C159.87 42.3678 159.949 42.6368 160.106 42.8509C160.26 43.0635 160.457 43.2328 160.694 43.3543C160.93 43.4773 161.192 43.5554 161.477 43.5901C161.762 43.6262 162.035 43.619 162.295 43.5727C162.556 43.5264 162.816 43.4555 163.078 43.3601C163.34 43.2646 163.571 43.1359 163.774 42.9738C163.975 42.8133 164.128 42.6151 164.232 42.3808C164.336 42.145 164.354 41.8658 164.284 41.5418C164.248 41.3696 164.176 41.1931 164.069 41.0138C163.962 40.8359 163.83 40.6724 163.671 40.5263C163.512 40.3788 163.338 40.2515 163.147 40.1415C162.956 40.0316 162.758 39.9607 162.554 39.926C162.253 39.8739 161.94 39.8276 161.617 39.7871C161.295 39.7452 160.979 39.6916 160.673 39.6265C160.364 39.56 160.071 39.4747 159.792 39.3691C159.513 39.2635 159.261 39.1203 159.035 38.9409C158.81 38.7615 158.622 38.5359 158.47 38.2625C158.318 37.9891 158.214 37.6535 158.156 37.2528C158.089 36.7667 158.124 36.3154 158.261 35.8988C158.399 35.4822 158.603 35.1177 158.875 34.8023C159.145 34.4884 159.462 34.2338 159.822 34.0371C160.182 33.8418 160.548 33.7203 160.918 33.674C161.429 33.6118 161.903 33.6205 162.342 33.6986C162.78 33.7782 163.175 33.9214 163.525 34.1297C163.876 34.338 164.176 34.6056 164.423 34.934C164.67 35.2609 164.857 35.6355 164.983 36.0565Z" fill="white"/>
<path d="M170.786 34.1203C170.68 34.1029 170.586 34.1811 170.504 34.3546C170.421 34.5268 170.349 34.7582 170.285 35.0461C170.22 35.3354 170.164 35.6638 170.113 36.0326C170.063 36.4015 170.013 36.7733 169.967 37.1479C169.921 37.524 169.879 37.8813 169.84 38.2227C169.799 38.5641 169.759 38.8563 169.714 39.0979C170.028 39.0661 170.319 39.0386 170.586 39.0125C170.852 38.9865 171.116 38.9633 171.375 38.9431C171.635 38.9214 171.898 38.8997 172.166 38.878C172.432 38.8563 172.72 38.8303 173.026 38.7999C172.798 38.392 172.6 37.9927 172.429 37.6036C172.26 37.2145 172.093 36.8268 171.931 36.4406C171.769 36.0543 171.597 35.6681 171.418 35.2833C171.237 34.9 171.026 34.5123 170.786 34.1203ZM167.709 43.5142C167.802 43.1916 167.879 42.7924 167.938 42.3164C167.997 41.8391 168.052 41.3169 168.1 40.7498C168.148 40.1813 168.201 39.5882 168.258 38.9662C168.314 38.3471 168.38 37.7338 168.457 37.1291C168.534 36.5245 168.631 35.9473 168.748 35.3976C168.865 34.8465 169.011 34.3575 169.188 33.9294C169.364 33.5012 169.577 33.1511 169.824 32.8806C170.071 32.6101 170.366 32.4539 170.708 32.4105C170.904 32.3874 171.114 32.4814 171.337 32.694C171.558 32.9067 171.787 33.2003 172.021 33.5735C172.255 33.9482 172.498 34.385 172.749 34.887C172.999 35.3889 173.251 35.9155 173.504 36.4681C173.757 37.0206 174.011 37.5848 174.266 38.1591C174.522 38.7333 174.772 39.2801 175.017 39.7966C175.263 40.313 175.501 40.786 175.736 41.2156C175.97 41.6452 176.195 41.991 176.412 42.2513C176.495 42.4408 176.508 42.6159 176.454 42.7735C176.399 42.9312 176.31 43.0556 176.184 43.1453C176.058 43.235 175.906 43.2769 175.728 43.2726C175.55 43.2697 175.38 43.2032 175.216 43.0759C175.008 42.8285 174.813 42.5609 174.629 42.2716C174.447 41.9852 174.285 41.7046 174.144 41.434C174.003 41.1635 173.886 40.9176 173.792 40.6963C173.699 40.475 173.632 40.3043 173.596 40.1828C173.232 40.2276 172.882 40.2681 172.546 40.3057C172.212 40.3434 171.879 40.3824 171.552 40.4229C171.224 40.4634 170.894 40.5025 170.563 40.5401C170.232 40.5762 169.879 40.6153 169.507 40.6529C169.461 40.9986 169.431 41.301 169.413 41.557C169.397 41.8145 169.381 42.0618 169.367 42.3005C169.352 42.5392 169.326 42.7866 169.292 43.0412C169.257 43.2972 169.198 43.5923 169.112 43.9279C169.002 44.1044 168.862 44.2215 168.696 44.2794C168.529 44.3373 168.372 44.343 168.221 44.2996C168.072 44.2548 167.945 44.1651 167.84 44.0306C167.734 43.8961 167.691 43.7239 167.709 43.5142Z" fill="white"/>
<path d="M176.73 32.3346C176.748 32.1249 176.829 31.9643 176.969 31.85C177.111 31.7372 177.273 31.6721 177.455 31.6576C177.639 31.6417 177.818 31.6793 177.996 31.7676C178.173 31.8573 178.303 31.9961 178.385 32.1856C178.486 33.0015 178.576 33.7884 178.654 34.5478C178.734 35.3073 178.81 36.0595 178.884 36.8088C178.958 37.5566 179.035 38.3132 179.113 39.0755C179.192 39.8378 179.279 40.6277 179.372 41.445C179.787 41.4522 180.226 41.4348 180.691 41.3929C181.155 41.3495 181.625 41.2974 182.101 41.2352C182.578 41.173 183.046 41.105 183.507 41.0341C183.967 40.9618 184.405 40.901 184.82 40.8504C185.024 40.8837 185.18 40.9589 185.292 41.0746C185.402 41.1904 185.464 41.3177 185.477 41.4565C185.49 41.5954 185.451 41.7299 185.36 41.8587C185.269 41.9888 185.124 42.0872 184.926 42.1566C184.467 42.2131 183.974 42.2883 183.446 42.3838C182.918 42.4778 182.382 42.566 181.838 42.6485C181.294 42.7295 180.757 42.7975 180.228 42.8524C179.699 42.906 179.204 42.9291 178.745 42.919C178.582 42.9754 178.416 42.958 178.245 42.864C178.074 42.77 177.954 42.5949 177.886 42.3375C177.781 41.4782 177.679 40.6349 177.585 39.8075C177.49 38.98 177.399 38.1569 177.308 37.3353C177.218 36.5151 177.125 35.692 177.031 34.8646C176.936 34.0372 176.836 33.1938 176.73 32.3346Z" fill="white"/>
<path d="M187.938 42.1172C187.693 42.1172 187.504 42.0521 187.369 41.9204C187.268 41.8814 187.177 41.8177 187.096 41.7281C187.015 41.6369 186.957 41.514 186.922 41.3549C186.539 39.496 186.244 37.7023 186.037 35.9766C185.832 34.2494 185.662 32.5439 185.529 30.8602C185.55 30.7922 185.629 30.73 185.767 30.6765C185.904 30.6215 186.05 30.5839 186.206 30.5607C186.362 30.5376 186.503 30.5332 186.627 30.5477C186.75 30.5622 186.815 30.5955 186.821 30.6461C187.641 30.4638 188.457 30.3206 189.268 30.2165C190.08 30.1123 190.904 30.0125 191.743 29.917C191.947 29.9503 192.108 30.0327 192.228 30.1615C192.348 30.2917 192.416 30.432 192.435 30.5853C192.453 30.7387 192.423 30.8862 192.34 31.0294C192.258 31.1726 192.118 31.2782 191.92 31.3477C191.095 31.4417 190.272 31.5212 189.449 31.5849C188.625 31.65 187.81 31.7729 187.005 31.9538C187.036 32.2083 187.076 32.4817 187.123 32.7768C187.171 33.069 187.217 33.3656 187.265 33.6621C187.313 33.9601 187.36 34.2509 187.407 34.5373C187.453 34.8237 187.492 35.0913 187.522 35.3387C187.78 35.2692 188.071 35.2041 188.396 35.1419C188.722 35.0797 189.053 35.0233 189.39 34.9741C189.728 34.9264 190.059 34.8787 190.386 34.8353C190.715 34.7904 191.008 34.7528 191.272 34.721C191.474 34.7543 191.636 34.8382 191.756 34.9713C191.876 35.1043 191.947 35.2519 191.967 35.4168C191.988 35.5802 191.956 35.7379 191.875 35.8884C191.794 36.0388 191.653 36.1473 191.455 36.2167C191.193 36.2485 190.898 36.2789 190.569 36.3035C190.239 36.3296 189.902 36.357 189.558 36.3845C189.213 36.412 188.878 36.4453 188.551 36.4858C188.223 36.5263 187.935 36.5813 187.684 36.6492C187.729 37.0123 187.77 37.3494 187.809 37.6589C187.846 37.9685 187.883 38.2723 187.916 38.5717C187.949 38.8711 187.984 39.1764 188.023 39.4903C188.062 39.8027 188.108 40.1484 188.162 40.526C188.979 40.322 189.815 40.1412 190.667 39.9835C191.52 39.8273 192.365 39.6928 193.201 39.5828C193.405 39.6176 193.555 39.7043 193.654 39.8432C193.752 39.9821 193.8 40.1354 193.794 40.3018C193.788 40.4696 193.735 40.6316 193.632 40.7878C193.529 40.944 193.379 41.0583 193.181 41.1263C192.293 41.2435 191.415 41.3809 190.543 41.54C189.672 41.6991 188.804 41.8915 187.938 42.1172Z" fill="white"/>
<path d="M77.5049 116.248C77.4404 116.248 77.3816 116.205 77.3648 116.14C75.7852 109.964 72.8001 106.319 70.5742 104.346C68.1621 102.209 66.0962 101.524 66.0757 101.516C65.9996 101.492 65.9581 101.411 65.9827 101.334C66.0073 101.259 66.0887 101.217 66.1646 101.242C66.2507 101.269 68.298 101.947 70.7535 104.119C73.0143 106.118 76.0451 109.814 77.645 116.069C77.6648 116.145 77.6181 116.225 77.5409 116.244L77.5049 116.248Z" fill="#1C056D"/>
<path d="M103.285 99.2598C103.22 99.2598 103.161 99.2164 103.144 99.1498C101.406 92.2021 98.3852 88.5944 98.3548 88.5582C98.303 88.4975 98.3104 88.4063 98.3712 88.3543C98.4319 88.3036 98.5233 88.3109 98.5751 88.3716C98.6058 88.4078 101.669 92.0618 103.425 99.0804C103.444 99.1571 103.398 99.2366 103.32 99.2554L103.285 99.2598Z" fill="#1C056D"/>
<path d="M35.5284 162.032C35.5284 162.535 35.1205 162.943 34.6172 162.943C34.1139 162.943 33.7061 162.535 33.7061 162.032C33.7061 161.529 34.1139 161.121 34.6172 161.121C35.1205 161.121 35.5284 161.529 35.5284 162.032Z" fill="#1C056D"/>
<path d="M38.1612 160.079C38.1612 160.582 37.7533 160.99 37.2501 160.99C36.7468 160.99 36.3389 160.582 36.3389 160.079C36.3389 159.577 36.7468 159.169 37.2501 159.169C37.7533 159.169 38.1612 159.577 38.1612 160.079Z" fill="#1C056D"/>
<path d="M40.8253 158.138C40.8253 158.639 40.4174 159.049 39.9142 159.049C39.411 159.049 39.0029 158.639 39.0029 158.138C39.0029 157.634 39.411 157.226 39.9142 157.226C40.4174 157.226 40.8253 157.634 40.8253 158.138Z" fill="#1C056D"/>
<path d="M150.332 88.5633C150.332 89.0667 149.924 89.4746 149.421 89.4746C148.918 89.4746 148.51 89.0667 148.51 88.5633C148.51 88.0599 148.918 87.652 149.421 87.652C149.924 87.652 150.332 88.0599 150.332 88.5633Z" fill="#1C056D"/>
<path d="M152.964 86.6102C152.964 87.1136 152.556 87.5215 152.053 87.5215C151.549 87.5215 151.142 87.1136 151.142 86.6102C151.142 86.1068 151.549 85.6988 152.053 85.6988C152.556 85.6988 152.964 86.1068 152.964 86.6102Z" fill="#1C056D"/>
<path d="M155.628 84.6668C155.628 85.1702 155.22 85.5781 154.717 85.5781C154.214 85.5781 153.806 85.1702 153.806 84.6668C153.806 84.1649 154.214 83.7569 154.717 83.7569C155.22 83.7569 155.628 84.1649 155.628 84.6668Z" fill="#1C056D"/>
<path d="M187.742 236.559L187.745 234.855H210.327L210.306 235.501L187.742 236.559ZM210.591 226.768H187.761H192.661V216.969L208.05 201.638H212.34C212.376 207.34 212.823 213.064 213.6 218.717L210.85 218.828L210.591 226.768ZM296.066 163.404C304.283 159.231 312.341 154.704 319.95 149.6C316.419 154.519 311.067 159.077 302.977 162.011C302.977 162.011 300.213 162.906 296.066 163.404Z" fill="#C9D1F5"/>
<path d="M290.77 163.727C284.569 163.727 277.055 162.349 270.856 157.129L269.252 158.727C269.136 152.83 268.862 146.847 266.978 141.262C266.052 142.458 265.149 143.675 264.271 144.908V104.412C264.802 103.809 265.355 103.219 265.932 102.645C272.872 95.7317 281.948 92.2773 291.026 92.2773C300.147 92.2773 309.271 95.7679 316.218 102.743C322.768 109.318 326.21 117.815 326.553 126.411C326.579 125.995 326.591 125.612 326.583 125.267C326.583 125.267 328.005 138.376 319.95 149.601C312.342 154.706 304.284 159.232 296.067 163.405C294.479 163.595 292.688 163.727 290.77 163.727ZM308.551 105.204C307.229 105.204 305.907 105.707 304.897 106.712C302.871 108.73 302.865 112.008 304.883 114.035C305.894 115.05 307.222 115.558 308.551 115.558C309.871 115.558 311.193 115.055 312.203 114.049C314.229 112.031 314.235 108.753 312.217 106.727C311.206 105.711 309.879 105.204 308.551 105.204Z" fill="#C3CDF5"/>
<path d="M213.601 218.719C212.824 213.066 212.377 207.342 212.341 201.639H226.174L225.434 202.379L223.956 218.295L213.601 218.719ZM264.272 163.688V144.909C265.15 143.675 266.052 142.458 266.978 141.262C268.863 146.847 269.136 152.83 269.252 158.728L264.272 163.688Z" fill="#BBC9F3"/>
<path d="M192.661 226.77H187.761L187.769 221.843L192.661 216.971V226.77Z" fill="#3755B7"/>
<path d="M226.173 201.639H208.05L218.603 191.127H236.727L226.173 201.639ZM257.373 170.56V152.504L261.796 148.098C259.891 145.358 258.417 142.41 257.373 139.348V116.329C258.834 112.047 261.134 107.989 264.271 104.412V144.908V163.687L257.373 170.56Z" fill="#6880E4"/>
<path d="M236.727 191.125H218.604L224.114 185.635H242.238L236.727 191.125ZM252.343 175.569V164.454C252.343 163.696 251.729 163.082 250.972 163.082H246.754L250.769 159.083H251.087C251.896 159.083 252.554 158.424 252.554 157.616V157.305L257.373 152.502V170.558L252.343 175.569ZM257.373 139.346C254.834 131.898 254.834 123.774 257.373 116.327V139.346Z" fill="#ADBDF5"/>
<path d="M242.238 185.637H224.114L226.191 183.568H226.965C227.121 183.568 227.247 183.442 227.247 183.286V182.517L230.066 179.707H247.662C247.882 179.707 248.061 179.528 248.061 179.308V177.721C248.061 177.501 247.882 177.322 247.662 177.322H232.46L233.943 175.845H247.662C247.882 175.845 248.061 175.667 248.061 175.447V173.86C248.061 173.639 247.882 173.461 247.662 173.461H236.337L237.819 171.984H247.662C247.882 171.984 248.061 171.806 248.061 171.585V169.998C248.061 169.778 247.882 169.6 247.662 169.6H240.213L241.696 168.123H247.662C247.882 168.123 248.061 167.944 248.061 167.724V166.137C248.061 165.917 247.882 165.738 247.662 165.738H244.089L246.754 163.084H250.971C251.729 163.084 252.343 163.697 252.343 164.455V175.57L242.238 185.637Z" fill="#C9D1F5"/>
<path d="M247.662 168.123H241.695L244.089 165.738H247.662C247.882 165.738 248.061 165.917 248.061 166.137V167.724C248.061 167.944 247.882 168.123 247.662 168.123Z" fill="#BBC9F3"/>
<path d="M247.662 171.984H237.819L240.213 169.6H247.662C247.882 169.6 248.061 169.778 248.061 169.998V171.585C248.061 171.806 247.882 171.984 247.662 171.984Z" fill="#BBC9F3"/>
<path d="M247.662 175.844H233.942L236.336 173.46H247.662C247.882 173.46 248.061 173.638 248.061 173.859V175.446C248.061 175.666 247.882 175.844 247.662 175.844Z" fill="#BBC9F3"/>
<path d="M251.197 158.656L252.124 157.733C252.071 158.218 251.683 158.604 251.197 158.656Z" fill="#ADBDF5"/>
<path d="M247.662 179.707H230.066L232.46 177.322H247.662C247.882 177.322 248.061 177.501 248.061 177.721V179.308C248.061 179.528 247.882 179.707 247.662 179.707Z" fill="#BBC9F3"/>
<path d="M226.965 183.566H226.191L227.247 182.515V183.284C227.247 183.441 227.121 183.566 226.965 183.566Z" fill="#BBC9F3"/>
<path d="M251.087 159.084H250.769L251.198 158.656C251.684 158.604 252.072 158.218 252.125 157.733L252.553 157.306V157.617C252.553 158.426 251.895 159.084 251.087 159.084Z" fill="#C9D1F5"/>
<path d="M310.074 104.057C312.092 106.083 312.086 109.36 310.061 111.378C308.035 113.396 304.757 113.391 302.74 111.365C300.722 109.339 300.729 106.061 302.754 104.043C304.779 102.025 308.057 102.032 310.074 104.057ZM313.977 150.363C327.89 136.503 327.935 113.986 314.075 100.072C300.216 86.1578 277.702 86.1144 263.789 99.9752C251.393 112.323 250.007 131.543 259.654 145.429L185.629 219.173L185.6 233.891L208.164 232.833L207.704 215.236L221.812 215.625L223.29 199.709L268.712 154.459C282.543 164.008 301.64 162.653 313.977 150.363Z" fill="#F9C438"/>
<path d="M268.713 154.459C268.713 154.459 282.494 161.253 300.287 156.695C318.081 152.137 324.574 129.538 324.441 122.597C324.441 122.597 327.383 149.718 300.835 159.342C300.835 159.342 281.83 165.506 268.713 154.459Z" fill="#F6AB36"/>
<path d="M185.6 233.891C185.6 233.891 206.723 231.407 206.515 230.885C206.305 230.363 207.704 215.236 207.704 215.236C207.704 215.236 220.82 214.49 220.924 214.072C221.03 213.655 223.29 199.709 223.29 199.709L221.812 215.625L208.708 216.16L208.164 232.833L185.6 233.891Z" fill="#F6AB36"/>
<path d="M185.6 233.891L223.29 199.709L188.137 233.587L185.6 233.891Z" fill="#F6AB36"/>
<path d="M290.939 93.6032C290.939 93.6032 269.316 94.7315 260.766 113.781C260.766 113.781 254.23 130.259 266.467 145.961C266.467 145.961 254.419 126.694 266.131 109.026C266.131 109.026 274.512 98.2973 290.939 93.6032Z" fill="#F6AB36"/>
<path d="M226.133 99.8438C220.954 99.8438 216.156 98.2149 212.222 95.4405H214.344C217.494 96.9449 221.019 97.7853 224.742 97.7853C228.465 97.7853 231.99 96.9449 235.14 95.4405H240.045C236.111 98.2149 231.313 99.8438 226.133 99.8438Z" fill="#ADBDF5"/>
<path d="M250.286 76.5195H248.736C248.85 75.5677 248.909 74.6 248.909 73.6178C248.909 71.27 248.574 69.0004 247.95 66.8552C248.163 66.8045 248.371 66.7539 248.579 66.7033C249.69 69.4778 250.301 72.5054 250.301 75.6762C250.301 75.9583 250.295 76.2389 250.286 76.5195Z" fill="#C3CDF5"/>
<path d="M249.381 82.3027H247.301C248.007 80.4729 248.496 78.5345 248.736 76.5194H250.286C250.217 78.5186 249.906 80.4555 249.381 82.3027Z" fill="#6880E4"/>
<path d="M240.625 95.0176H235.982C241.134 92.3053 245.188 87.7863 247.3 82.3024H249.38C247.916 87.4464 244.792 91.8901 240.625 95.0176ZM213.502 95.0176H211.642C209.157 93.153 207.043 90.8197 205.431 88.1494C207.574 90.9933 210.33 93.3483 213.502 95.0176Z" fill="#ADBDF5"/>
<path d="M240.045 95.4395H235.14C235.424 95.3035 235.704 95.1632 235.982 95.0171H240.625C240.434 95.1603 240.24 95.302 240.045 95.4395ZM214.344 95.4395H212.222C212.026 95.302 211.833 95.1603 211.642 95.0171H213.502C213.779 95.1632 214.061 95.3035 214.344 95.4395Z" fill="#C9D1F5"/>
<path d="M248.908 73.6177C248.908 86.965 238.087 97.7852 224.741 97.7852C211.395 97.7852 200.574 86.965 200.574 73.6177C200.574 60.269 211.395 49.4488 224.741 49.4488C238.087 49.4488 248.908 60.269 248.908 73.6177Z" fill="#EAF2FC"/>
<path d="M224.684 68.9934C224.684 68.9934 239.991 82.941 237.757 85.4768C235.52 88.0126 232.114 89.4707 231.324 88.555C230.536 87.6379 219.26 70.9593 219.26 70.9593L224.684 68.9934Z" fill="#1B3D9E"/>
<mask id="mask6_3460_199350" style="mask-type:luminance" maskUnits="userSpaceOnUse" x="219" y="68" width="19" height="21">
<path d="M224.684 68.9934C224.684 68.9934 239.991 82.941 237.757 85.4768C235.52 88.0126 232.114 89.4707 231.324 88.555C230.536 87.6379 219.26 70.9593 219.26 70.9593L224.684 68.9934Z" fill="white"/>
</mask>
<g mask="url(#mask6_3460_199350)">
<path d="M230.038 72.9507C230.038 72.9507 220.487 76.2691 219.93 75.5371C219.374 74.8052 217.688 71.9005 217.688 71.9005C217.688 71.9005 227.388 66.4644 227.993 67.3367C228.596 68.2089 230.038 72.9507 230.038 72.9507Z" fill="#1C056D"/>
</g>
<path d="M209.522 72.5348C208.936 71.5569 209.068 70.3114 209.845 69.4782C216.016 62.8632 241.959 35.1951 243.96 35.402C246.232 35.6377 261.113 58.6783 260.173 62.4393C259.337 65.7765 220.785 72.3135 212.127 73.7412C211.094 73.9119 210.062 73.4331 209.522 72.5348Z" fill="#68A9FD"/>
<mask id="mask7_3460_199350" style="mask-type:luminance" maskUnits="userSpaceOnUse" x="209" y="35" width="52" height="39">
<path d="M209.522 72.5348C208.936 71.5569 209.068 70.3114 209.845 69.4782C216.016 62.8632 241.959 35.1951 243.96 35.402C246.232 35.6377 261.113 58.6783 260.173 62.4393C259.337 65.7765 220.785 72.3135 212.127 73.7412C211.094 73.9119 210.062 73.4331 209.522 72.5348Z" fill="white"/>
</mask>
<g mask="url(#mask7_3460_199350)">
<path d="M215.367 60.7769C215.367 60.7769 214.988 68.5015 222.921 75.1498C222.921 75.1498 208.375 77.2256 207.494 75.7588C206.614 74.2905 205.13 73.0971 205.582 71.8386C206.034 70.5801 215.367 60.7769 215.367 60.7769Z" fill="#1B3D9E"/>
<path d="M220.11 72.3809C219.538 71.7154 219.036 71.0515 218.594 70.3977C224.705 69.3547 234.733 66.978 240.038 62.1017C246.378 56.2736 254.322 54.8979 257.303 54.5782C259.033 57.8619 260.213 60.6581 260.215 62.0366C260.215 62.1871 260.202 62.3216 260.173 62.4373C259.598 64.7301 241.23 68.5316 226.977 71.1499C224.57 71.5925 222.278 72.0019 220.211 72.3635C220.178 72.3693 220.143 72.3751 220.11 72.3809Z" fill="#5682DB"/>
<path d="M214.75 73.3008L213.442 71.1093C213.442 71.1093 215.524 70.9212 218.593 70.3976C219.036 71.0514 219.538 71.7154 220.109 72.3808C218.067 72.7381 216.247 73.0491 214.75 73.3008Z" fill="#1B3092"/>
</g>
<path d="M249.036 50.8439C253.567 58.3978 258.547 63.7384 260.161 62.7692C261.775 61.8015 259.412 54.8928 254.881 47.3375C250.351 39.7836 245.37 34.443 243.755 35.4107C242.141 36.3799 244.506 43.2886 249.036 50.8439Z" fill="#1B3D9E"/>
<mask id="mask8_3460_199350" style="mask-type:luminance" maskUnits="userSpaceOnUse" x="243" y="35" width="18" height="28">
<path d="M249.036 50.8442C253.567 58.3981 258.547 63.7373 260.161 62.7695C261.775 61.8018 259.412 54.8931 254.881 47.3378C250.351 39.7839 245.37 34.4433 243.755 35.411C242.141 36.3802 244.506 43.2889 249.036 50.8442Z" fill="white"/>
</mask>
<g mask="url(#mask8_3460_199350)">
<path d="M246.986 49.599C246.986 49.599 251.457 44.6026 253.387 47.7604C255.318 50.9168 255.545 52.1363 248.949 54.377L246.986 49.599Z" fill="white"/>
<path d="M245.732 35.5421C245.732 35.5421 244.216 36.708 245.722 40.7062C247.024 44.1635 255.876 61.3296 261.444 62.0008C261.444 62.0008 260.963 64.4484 259.399 64.6061C257.836 64.7623 251.385 59.3696 249.391 55.3959C247.4 51.4222 240.978 40.55 240.677 38.5856C240.376 36.6197 244.248 33.9234 245.732 35.5421Z" fill="#1C056D"/>
</g>
</g>
<defs>
<clipPath id="clip0_3460_199350">
<rect width="446" height="234" fill="white" transform="translate(-40)"/>
</clipPath>
</defs>
</svg>
