<svg width="628" height="330" viewBox="0 0 628 330" fill="none" xmlns="http://www.w3.org/2000/svg">
<g clip-path="url(#clip0_3260_50634)">
<g opacity="0.05">
<path d="M189.829 25.4419C149.061 27.7247 109.258 43.6122 80.9877 74.1245C45.8296 112.068 36.6906 171.202 48.4345 220.29C55.7917 251.041 71.8305 279.905 96.0858 300.452C106.824 309.549 118.852 317.235 131.911 322.529C184.409 343.817 250.123 335.524 303.863 323.708C351.006 313.341 397.154 298.261 441.043 278.098C482.09 259.24 523.778 236.806 548.1 197.045C577.721 148.623 569.328 77.2192 511.768 54.4467C468.538 37.3433 427.554 60.3116 393.179 85.3669C386.69 90.0977 380.169 95.1956 372.421 97.2989C352.061 102.827 326.881 72.4986 311.405 61.9987C288.822 46.6804 264.205 34.4282 237.337 28.9222C221.773 25.7337 205.728 24.5525 189.829 25.4419Z" fill="#10C4D2"/>
<path d="M189.829 25.4419C149.061 27.7247 109.258 43.6122 80.9877 74.1245C45.8296 112.068 36.6906 171.202 48.4345 220.29C55.7917 251.041 71.8305 279.905 96.0858 300.452C106.824 309.549 118.852 317.235 131.911 322.529C184.409 343.817 250.123 335.524 303.863 323.708C351.006 313.341 397.154 298.261 441.043 278.098C482.09 259.24 523.778 236.806 548.1 197.045C577.721 148.623 569.328 77.2192 511.768 54.4467C468.538 37.3433 427.554 60.3116 393.179 85.3669C386.69 90.0977 380.169 95.1956 372.421 97.2989C352.061 102.827 326.881 72.4986 311.405 61.9987C288.822 46.6804 264.205 34.4282 237.337 28.9222C221.773 25.7337 205.728 24.5525 189.829 25.4419Z" fill="#196CCD"/>
<path d="M189.829 25.4419C149.061 27.7247 109.258 43.6122 80.9877 74.1245C45.8296 112.068 36.6906 171.202 48.4345 220.29C55.7917 251.041 71.8305 279.905 96.0858 300.452C106.824 309.549 118.852 317.235 131.911 322.529C184.409 343.817 250.123 335.524 303.863 323.708C351.006 313.341 397.154 298.261 441.043 278.098C482.09 259.24 523.778 236.806 548.1 197.045C577.721 148.623 569.328 77.2192 511.768 54.4467C468.538 37.3433 427.554 60.3116 393.179 85.3669C386.69 90.0977 380.169 95.1956 372.421 97.2989C352.061 102.827 326.881 72.4986 311.405 61.9987C288.822 46.6804 264.205 34.4282 237.337 28.9222C221.773 25.7337 205.728 24.5525 189.829 25.4419Z" fill="#1059E7"/>
</g>
<path d="M150.977 331.207C139.068 319.604 130.352 305.262 126.19 289.152C129.744 288.708 132.633 291.384 135.231 293.853C144.32 302.486 152.908 311.645 160.94 321.272C145.989 298.728 142.357 270.98 139.496 244.066C147.506 246.692 153.167 255.274 157.405 262.571C166.754 278.667 176.009 295.144 180.421 313.233C175.648 283.228 180.732 254.885 194.335 227.728C208.056 253.534 216.796 284.662 214.39 313.8C217.244 290.513 228.407 267.83 245.621 251.92C249.94 272.288 247.02 296.246 235.889 313.83C241.515 298.424 253.358 286.649 268.694 280.892C270.101 296.89 265.692 319.442 254.775 331.207H150.977Z" fill="#EAF2FC"/>
<path d="M361.295 330.525H470.533C491.707 316.488 508.621 296.778 518.481 273.342C496.299 276.223 473.15 288.583 461.242 307.549C464.244 301.48 467.643 296.204 470.645 290.135C480.258 270.704 490.108 250.221 489.24 228.554C475.814 235.157 465.155 246.628 456.436 258.801C447.301 271.551 439.252 285.082 432.401 299.197C434.627 274.317 435.922 249.397 435.458 224.421C435.301 215.918 434.963 207.273 432.246 199.215C410.657 227.163 398.285 262.583 397.205 297.902C399.254 265.288 393.189 233.513 379.183 203.998C374.598 211.932 369.928 221.447 366.081 229.764C351.865 260.509 353.297 297.604 361.295 330.525Z" fill="#EAF2FC"/>
<path d="M257.633 319.803H327.605V269.537H257.633V319.803Z" fill="#1B3D9E"/>
<path d="M419.277 284.363H165.958C160.9 284.363 156.799 280.257 156.799 275.189V117.087C156.799 112.022 160.9 107.913 165.958 107.913H419.277C424.336 107.913 428.436 112.022 428.436 117.087V275.189C428.436 280.257 424.336 284.363 419.277 284.363Z" fill="#6880E4"/>
<path d="M411.635 269.537H173.599C169.685 269.537 166.512 266.359 166.512 262.438V123.167C166.512 119.246 169.685 116.068 173.599 116.068H411.635C415.549 116.068 418.722 119.246 418.722 123.167V262.438C418.722 266.359 415.549 269.537 411.635 269.537Z" fill="#D4DFFF"/>
<path d="M368.543 331.207H216.691C215.928 331.207 215.309 330.587 215.309 329.822V321.189C215.309 320.424 215.928 319.803 216.691 319.803H368.543C369.307 319.803 369.926 320.424 369.926 321.189V329.822C369.926 330.587 369.307 331.207 368.543 331.207Z" fill="#6880E4"/>
<path d="M409.708 261.797H268.331C267.266 261.797 266.402 260.932 266.402 259.865V231.925C266.402 230.856 267.266 229.991 268.331 229.991H409.708C410.776 229.991 411.639 230.856 411.639 231.925V259.865C411.639 260.932 410.776 261.797 409.708 261.797Z" fill="white"/>
<path d="M393.063 154.748H373.263C374.279 152.516 376.863 151.317 379.147 152.208C379.187 149.983 381.328 148.022 383.546 148.179C385.764 148.338 387.605 150.582 387.332 152.792C388.503 152.012 390.031 151.702 391.35 152.188C392.67 152.675 393.2 153.347 393.063 154.748Z" fill="white"/>
<path d="M312.979 148.172H281.128C282.772 146.799 284.099 145.881 286.222 146.146C287.56 142.745 290.405 139.428 294.053 139.471C297.242 139.51 300.061 142.595 299.816 145.781C300.297 145.043 301.266 144.663 302.118 144.881C302.971 145.1 303.641 145.897 303.71 146.774C305.097 146.136 306.544 145.483 308.071 145.489C309.601 145.495 312.588 146.693 312.979 148.172Z" fill="white"/>
<path d="M405.049 237.098H347.558C347.247 237.098 346.996 236.845 346.996 236.535V234.297C346.996 233.987 347.247 233.734 347.558 233.734H405.049C405.359 233.734 405.611 233.987 405.611 234.297V236.535C405.611 236.845 405.359 237.098 405.049 237.098Z" fill="#EAF2FC"/>
<path d="M405.049 242.543H347.558C347.247 242.543 346.996 242.292 346.996 241.98V239.742C346.996 239.432 347.247 239.181 347.558 239.181H405.049C405.359 239.181 405.611 239.432 405.611 239.742V241.98C405.611 242.292 405.359 242.543 405.049 242.543Z" fill="#EAF2FC"/>
<path d="M405.049 247.986H347.558C347.247 247.986 346.996 247.735 346.996 247.425V245.187C346.996 244.875 347.247 244.624 347.558 244.624H405.049C405.359 244.624 405.611 244.875 405.611 245.187V247.425C405.611 247.735 405.359 247.986 405.049 247.986Z" fill="#EAF2FC"/>
<path d="M405.049 253.434H347.558C347.247 253.434 346.996 253.181 346.996 252.871V250.633C346.996 250.323 347.247 250.07 347.558 250.07H405.049C405.359 250.07 405.611 250.323 405.611 250.633V252.871C405.611 253.181 405.359 253.434 405.049 253.434Z" fill="#EAF2FC"/>
<path d="M375.907 258.877H347.393C347.173 258.877 346.996 258.699 346.996 258.479V255.911C346.996 255.693 347.173 255.515 347.393 255.515H375.907C376.127 255.515 376.304 255.693 376.304 255.911V258.479C376.304 258.699 376.127 258.877 375.907 258.877Z" fill="#EAF2FC"/>
<path d="M282.565 241.927L283.62 244.069C283.675 244.181 283.783 244.259 283.907 244.277L286.265 244.62C286.577 244.667 286.701 245.05 286.477 245.27L284.768 246.937C284.679 247.025 284.638 247.149 284.66 247.274L285.064 249.628C285.117 249.938 284.791 250.177 284.512 250.03L282.4 248.918C282.29 248.859 282.157 248.859 282.047 248.918L279.935 250.03C279.658 250.177 279.333 249.938 279.386 249.628L279.789 247.274C279.809 247.149 279.768 247.025 279.679 246.937L277.972 245.27C277.746 245.05 277.87 244.667 278.182 244.62L280.542 244.277C280.665 244.259 280.772 244.181 280.827 244.069L281.882 241.927C282.023 241.643 282.426 241.643 282.565 241.927Z" fill="#6880E4"/>
<path d="M295.036 241.927L296.091 244.069C296.146 244.181 296.254 244.259 296.376 244.277L298.737 244.62C299.048 244.667 299.172 245.05 298.946 245.27L297.24 246.937C297.15 247.025 297.109 247.149 297.13 247.274L297.533 249.628C297.586 249.938 297.26 250.177 296.983 250.03L294.871 248.918C294.761 248.859 294.629 248.859 294.519 248.918L292.407 250.03C292.128 250.177 291.802 249.938 291.855 249.628L292.258 247.274C292.28 247.149 292.24 247.025 292.15 246.937L290.441 245.27C290.217 245.05 290.342 244.667 290.653 244.62L293.012 244.277C293.136 244.259 293.244 244.181 293.299 244.069L294.354 241.927C294.494 241.643 294.895 241.643 295.036 241.927Z" fill="#6880E4"/>
<path d="M307.504 241.927L308.561 244.069C308.616 244.181 308.722 244.259 308.846 244.277L311.207 244.62C311.518 244.667 311.643 245.05 311.417 245.27L309.71 246.937C309.62 247.025 309.58 247.149 309.6 247.274L310.003 249.628C310.056 249.938 309.73 250.177 309.451 250.03L307.341 248.918C307.231 248.859 307.099 248.859 306.987 248.918L304.877 250.03C304.598 250.177 304.272 249.938 304.325 249.628L304.728 247.274C304.751 247.149 304.708 247.025 304.618 246.937L302.912 245.27C302.685 245.05 302.81 244.667 303.121 244.62L305.482 244.277C305.606 244.259 305.712 244.181 305.769 244.069L306.824 241.927C306.962 241.643 307.366 241.643 307.504 241.927Z" fill="#6880E4"/>
<path d="M319.975 241.927L321.03 244.069C321.085 244.181 321.193 244.259 321.317 244.277L323.676 244.62C323.987 244.667 324.113 245.05 323.887 245.27L322.179 246.937C322.089 247.025 322.048 247.149 322.071 247.274L322.474 249.628C322.527 249.938 322.201 250.177 321.922 250.03L319.812 248.918C319.7 248.859 319.568 248.859 319.458 248.918L317.348 250.03C317.069 250.177 316.743 249.938 316.796 249.628L317.199 247.274C317.219 247.149 317.179 247.025 317.089 246.937L315.382 245.27C315.156 245.05 315.28 244.667 315.592 244.62L317.952 244.277C318.077 244.259 318.183 244.181 318.238 244.069L319.295 241.927C319.433 241.643 319.836 241.643 319.975 241.927Z" fill="#6880E4"/>
<path d="M332.445 241.927L333.5 244.069C333.555 244.181 333.663 244.259 333.785 244.277L336.146 244.62C336.457 244.667 336.582 245.05 336.358 245.27L334.649 246.937C334.559 247.025 334.519 247.149 334.539 247.274L334.942 249.628C334.997 249.938 334.671 250.177 334.392 250.03L332.28 248.918C332.17 248.859 332.038 248.859 331.928 248.918L329.816 250.03C329.537 250.177 329.211 249.938 329.266 249.628L329.669 247.274C329.69 247.149 329.649 247.025 329.559 246.937L327.85 245.27C327.626 245.05 327.751 244.667 328.062 244.62L330.423 244.277C330.545 244.259 330.653 244.181 330.708 244.069L331.763 241.927C331.903 241.643 332.305 241.643 332.445 241.927Z" fill="#D4DFFF"/>
<path d="M294.583 224.092H272.457C272.559 222.492 274.058 221.266 275.657 221.356C274.925 219.367 276.663 217.05 278.761 216.764C280.858 216.481 282.934 217.849 283.987 219.687C283.879 218.366 285.618 217.317 286.734 218.033C284.942 216.385 285.192 213.147 287.052 211.574C288.911 210.004 291.887 210.148 293.791 211.666L294.583 224.092Z" fill="#6880E4"/>
<path d="M383.374 215.242C384.743 213.539 387.254 212.87 389.287 213.669C389.641 213.808 389.989 213.996 390.224 214.296C390.47 214.612 390.564 215.022 390.623 215.418C390.778 216.442 390.751 217.494 390.545 218.508C391.205 217.49 392.747 217.301 393.778 217.941C394.806 218.582 395.327 219.851 395.319 221.064C396.132 219.8 398.004 219.479 399.317 220.208C400.631 220.934 401.35 222.499 401.313 224H381.321C381.415 221.107 381.564 217.499 383.374 215.242Z" fill="#6880E4"/>
<path d="M360.356 157.854L331.177 184.252H389.02L360.356 157.854Z" fill="white"/>
<path d="M360.355 157.854H317.966L288.697 184.252H331.176L360.355 157.854Z" fill="#6880E4"/>
<path d="M353.702 184.252H331.177V224.053H385.283V184.252H353.702Z" fill="white"/>
<path d="M331.176 184.25V224.051H290.65V184.25H331.176Z" fill="#EAF2FC"/>
<path d="M360.099 193.573C359.781 193.573 359.472 193.593 359.164 193.628C363.272 194.093 366.468 197.584 366.468 201.825V224.053H368.335V201.825C368.335 197.268 364.649 193.573 360.099 193.573Z" fill="#6880E4"/>
<path d="M359.164 193.626C355.054 194.091 351.86 197.582 351.86 201.823V224.051H366.467V201.823C366.467 197.582 363.272 194.091 359.164 193.626Z" fill="#D4DFFF"/>
<path d="M302.872 198.087C302.735 198.074 302.599 198.066 302.46 198.066C300.09 198.066 298.169 199.992 298.169 202.366V209.859H298.99V202.366C298.99 200.131 300.694 198.295 302.872 198.087Z" fill="#6880E4"/>
<path d="M302.871 198.087C300.694 198.295 298.989 200.131 298.989 202.366V209.859H306.751V202.366C306.751 200.131 305.048 198.295 302.871 198.087Z" fill="#D4DFFF"/>
<path d="M317.621 198.087C317.484 198.074 317.348 198.066 317.209 198.066C314.839 198.066 312.918 199.992 312.918 202.366V209.859H313.739V202.366C313.739 200.131 315.443 198.295 317.621 198.087Z" fill="#6880E4"/>
<path d="M317.621 198.087C315.444 198.295 313.739 200.131 313.739 202.366V209.859H321.501V202.366C321.501 200.131 319.798 198.295 317.621 198.087Z" fill="#D4DFFF"/>
<path d="M385.283 184.252L358.229 159.78L360.356 157.854L389.02 184.252H385.283Z" fill="#EAF2FC"/>
<path d="M364.566 209.899C364.566 210.476 364.1 210.943 363.523 210.943C362.947 210.943 362.48 210.476 362.48 209.899C362.48 209.322 362.947 208.854 363.523 208.854C364.1 208.854 364.566 209.322 364.566 209.899Z" fill="#6880E4"/>
<path d="M298.743 218.766H295.608V217.391H298.743V218.766Z" fill="white"/>
<path d="M302.676 218.766H299.539V217.391H302.676V218.766Z" fill="white"/>
<path d="M312.482 213.293H309.346V211.92H312.482V213.293Z" fill="white"/>
<path d="M326.094 193.627H322.958V192.252H326.094V193.627Z" fill="white"/>
<path d="M340.305 213.98H337.169V212.606H340.305V213.98Z" fill="#EAF2FC"/>
<path d="M344.065 213.98H340.929V212.606H344.065V213.98Z" fill="#EAF2FC"/>
<path d="M336.757 220.457H333.62V219.082H336.757V220.457Z" fill="#EAF2FC"/>
<path d="M347.698 197.174H344.563V195.801H347.698V197.174Z" fill="#EAF2FC"/>
<path d="M336.466 203.594H333.332V202.221H336.466V203.594Z" fill="#EAF2FC"/>
<path d="M332.745 203.594H331.177V202.221H332.745V203.594Z" fill="#EAF2FC"/>
<path d="M378.82 192.252H375.686V190.879H378.82V192.252Z" fill="#EAF2FC"/>
<path d="M382.585 192.252H379.448V190.879H382.585V192.252Z" fill="#EAF2FC"/>
<path d="M374.05 209.541H370.916V208.168H374.05V209.541Z" fill="#EAF2FC"/>
<path d="M377.872 205.523H374.735V204.151H377.872V205.523Z" fill="#EAF2FC"/>
<path d="M359.798 183.523H356.661V182.151H359.798V183.523Z" fill="#EAF2FC"/>
<path d="M344.065 183.523H340.929V182.151H344.065V183.523Z" fill="#EAF2FC"/>
<path d="M348.358 183.523H345.222V182.151H348.358V183.523Z" fill="#EAF2FC"/>
<path d="M372.484 178.662H369.348V177.289H372.484V178.662Z" fill="#EAF2FC"/>
<path d="M353.969 174.59H350.835V173.217H353.969V174.59Z" fill="#EAF2FC"/>
<path d="M381.69 209.455H378.554V208.082H381.69V209.455Z" fill="#EAF2FC"/>
<path d="M383.258 211.273H380.121V209.898H383.258V211.273Z" fill="#EAF2FC"/>
<path d="M373.262 218.598H370.126V217.223H373.262V218.598Z" fill="#EAF2FC"/>
<path d="M350.834 213.98H347.697V212.606H350.834V213.98Z" fill="#EAF2FC"/>
<path d="M327.664 218.766H324.527V217.391H327.664V218.766Z" fill="white"/>
<path d="M327.664 216.416H324.527V215.041H327.664V216.416Z" fill="white"/>
<path d="M323.716 218.766H320.582V217.391H323.716V218.766Z" fill="white"/>
<path d="M322.15 193.627H319.014V192.252H322.15V193.627Z" fill="white"/>
<path d="M307.164 189.973H304.027V188.6H307.164V189.973Z" fill="white"/>
<path d="M300.098 193.627H296.964V192.252H300.098V193.627Z" fill="white"/>
<path d="M318.405 193.627H315.269V192.252H318.405V193.627Z" fill="white"/>
<path d="M296.264 193.627H293.128V192.252H296.264V193.627Z" fill="white"/>
<path d="M268.169 134.596C267.358 134.596 266.7 135.257 266.7 136.069V222.281C266.7 223.093 267.358 223.754 268.169 223.754H409.872C410.682 223.754 411.342 223.093 411.342 222.281V136.069C411.342 135.257 410.682 134.596 409.872 134.596H268.169ZM409.872 224.35H268.169C267.03 224.35 266.105 223.421 266.105 222.281V136.069C266.105 134.928 267.03 134 268.169 134H409.872C411.01 134 411.937 134.928 411.937 136.069V222.281C411.937 223.421 411.01 224.35 409.872 224.35Z" fill="white"/>
<path d="M277.879 198.201H218.891C217.836 198.201 216.982 197.346 216.982 196.292V162.058C216.982 161.004 217.836 160.147 218.891 160.147H277.879C278.934 160.147 279.787 161.004 279.787 162.058V196.292C279.787 197.346 278.934 198.201 277.879 198.201Z" fill="white"/>
<path d="M241.553 179.615H219.944C219.751 179.615 219.596 179.46 219.596 179.268V163.964C219.596 163.773 219.751 163.618 219.944 163.618H241.553C241.744 163.618 241.899 163.773 241.899 163.964V179.268C241.899 179.46 241.744 179.615 241.553 179.615Z" fill="#EAF2FC"/>
<mask id="mask0_3260_50634" style="mask-type:luminance" maskUnits="userSpaceOnUse" x="219" y="163" width="23" height="17">
<path d="M241.553 179.615H219.944C219.751 179.615 219.596 179.46 219.596 179.268V163.964C219.596 163.773 219.751 163.618 219.944 163.618H241.553C241.744 163.618 241.899 163.773 241.899 163.964V179.268C241.899 179.46 241.744 179.615 241.553 179.615Z" fill="white"/>
</mask>
<g mask="url(#mask0_3260_50634)">
<path d="M218.192 178.447L226.486 170.461C226.871 170.089 227.484 170.1 227.858 170.483L234.565 177.368L238.056 174.39C238.433 174.069 238.989 174.082 239.351 174.418L243.176 177.984V180.834H218.192V178.447Z" fill="#D4DFFF"/>
<path d="M235.871 169.944C235.871 170.869 235.121 171.617 234.198 171.617C233.276 171.617 232.528 170.869 232.528 169.944C232.528 169.02 233.276 168.27 234.198 168.27C235.121 168.27 235.871 169.02 235.871 169.944Z" fill="#D4DFFF"/>
</g>
<path d="M276.751 165.969H245.068C244.94 165.969 244.836 165.865 244.836 165.736V163.849C244.836 163.721 244.94 163.617 245.068 163.617H276.751C276.879 163.617 276.983 163.721 276.983 163.849V165.736C276.983 165.865 276.879 165.969 276.751 165.969Z" fill="#EAF2FC"/>
<path d="M276.751 170.518H245.068C244.94 170.518 244.836 170.414 244.836 170.285V168.398C244.836 168.269 244.94 168.165 245.068 168.165H276.751C276.879 168.165 276.983 168.269 276.983 168.398V170.285C276.983 170.414 276.879 170.518 276.751 170.518Z" fill="#EAF2FC"/>
<path d="M276.751 175.066H245.068C244.94 175.066 244.836 174.962 244.836 174.834V172.947C244.836 172.818 244.94 172.714 245.068 172.714H276.751C276.879 172.714 276.983 172.818 276.983 172.947V174.834C276.983 174.962 276.879 175.066 276.751 175.066Z" fill="#EAF2FC"/>
<path d="M276.751 179.615H245.068C244.94 179.615 244.836 179.511 244.836 179.385V177.498C244.836 177.369 244.94 177.265 245.068 177.265H276.751C276.879 177.265 276.983 177.369 276.983 177.498V179.385C276.983 179.511 276.879 179.615 276.751 179.615Z" fill="#EAF2FC"/>
<path d="M276.686 183.518H219.895C219.73 183.518 219.596 183.385 219.596 183.22V181.639C219.596 181.473 219.73 181.339 219.895 181.339H276.686C276.85 181.339 276.983 181.473 276.983 181.639V183.22C276.983 183.385 276.85 183.518 276.686 183.518Z" fill="#EAF2FC"/>
<path d="M276.686 187.441H219.895C219.73 187.441 219.596 187.307 219.596 187.142V185.561C219.596 185.395 219.73 185.263 219.895 185.263H276.686C276.85 185.263 276.983 185.395 276.983 185.561V187.142C276.983 187.307 276.85 187.441 276.686 187.441Z" fill="#EAF2FC"/>
<path d="M276.686 191.365H219.895C219.73 191.365 219.596 191.231 219.596 191.065V189.484C219.596 189.319 219.73 189.186 219.895 189.186H276.686C276.85 189.186 276.983 189.319 276.983 189.484V191.065C276.983 191.231 276.85 191.365 276.686 191.365Z" fill="#EAF2FC"/>
<path d="M256.252 195.287H219.836C219.704 195.287 219.596 195.179 219.596 195.048V193.349C219.596 193.217 219.704 193.108 219.836 193.108H256.252C256.384 193.108 256.49 193.217 256.49 193.349V195.048C256.49 195.179 256.384 195.287 256.252 195.287Z" fill="#EAF2FC"/>
<path d="M77.4342 249.326C76.4244 248.427 81.2422 241.119 81.402 240.434C81.5619 239.749 72.8861 248.19 72.5421 246.88C72.1983 245.571 79.2316 238.906 79.4283 238.337C79.625 237.766 72.456 242.152 72.1448 241.34C71.8338 240.526 80.6261 233.245 81.0122 232.504C81.3986 231.766 74.7181 233.196 74.522 232.521C73.9207 230.45 86.3566 227.368 86.3566 227.368L86.0678 227.772C87.6866 225.454 90.8966 221.87 90.8966 221.87C90.8966 221.87 98.1371 227.384 98.5524 227.87C98.8585 228.227 94.895 231.219 92.4359 232.874V232.876C91.8766 236.003 87.9744 238.802 87.5562 239.392C87.1383 239.983 85.6953 249.481 84.8466 249.404C83.7324 249.304 85.0888 241.154 84.1206 241.701C83.3819 242.119 77.9935 249.824 77.4342 249.326Z" fill="#FE8E9C"/>
<path d="M81.0114 232.505C81.0114 232.505 83.1536 234.549 84.3782 234.694C85.6027 234.839 89.4742 233.117 89.4742 233.117C89.4742 233.117 85.8235 235.72 84.4952 235.382C83.167 235.043 80.709 232.862 80.709 232.862L81.0114 232.505Z" fill="#E57492"/>
<path d="M245.917 269.537C245.917 265.553 206.746 209.263 206.746 209.263C206.251 208.217 205.695 207.386 205.07 206.819L168.202 208.784C168.202 208.784 160.554 225.873 166.829 240.606C173.105 255.337 173.497 269.537 173.497 269.537H209.547C209.547 269.537 209.657 268.03 209.799 265.478C212.162 267.942 213.74 269.537 213.74 269.537H245.917Z" fill="#1B3D9E"/>
<mask id="mask1_3260_50634" style="mask-type:luminance" maskUnits="userSpaceOnUse" x="164" y="206" width="82" height="64">
<path d="M245.917 269.537C245.917 265.553 206.746 209.263 206.746 209.263C206.251 208.217 205.695 207.386 205.07 206.819L168.202 208.784C168.202 208.784 160.554 225.873 166.829 240.606C173.105 255.337 173.497 269.537 173.497 269.537H209.547C209.547 269.537 209.657 268.03 209.799 265.478C212.162 267.942 213.74 269.537 213.74 269.537H245.917Z" fill="white"/>
</mask>
<g mask="url(#mask1_3260_50634)">
<path d="M176.189 219.76C176.189 219.76 176.17 233.505 169.852 238.179L170.843 239.621C170.843 239.621 179.133 235.135 178.23 219.664L176.189 219.76Z" fill="#1C056D"/>
<path d="M195.047 269.74H195.043C194.931 269.738 194.841 269.646 194.843 269.534C195.21 247.227 185.969 215.415 185.876 215.097C185.844 214.989 185.906 214.876 186.013 214.844C186.121 214.811 186.235 214.874 186.266 214.983C186.36 215.301 195.619 247.172 195.251 269.54C195.249 269.653 195.158 269.74 195.047 269.74Z" fill="#1C056D"/>
<path d="M235.027 272.221C234.951 272.221 234.878 272.18 234.843 272.106C227.127 256.278 202.348 213.053 202.098 212.618C202.043 212.52 202.076 212.396 202.173 212.339C202.271 212.283 202.395 212.316 202.452 212.414C202.701 212.849 227.485 256.086 235.21 271.927C235.259 272.029 235.216 272.151 235.116 272.2C235.088 272.215 235.057 272.221 235.027 272.221Z" fill="#1C056D"/>
</g>
<path d="M209.8 265.478C209.8 265.478 205.138 240.171 203.541 227.45L219.596 269.537H213.741L209.8 265.478Z" fill="#1C056D"/>
<path d="M297.616 100.061C296.881 98.9249 288.938 102.581 288.237 102.636C287.537 102.689 297.187 95.3855 295.946 94.8449C294.708 94.3063 287.06 100.253 286.468 100.361C285.875 100.469 291.294 94.0411 290.539 93.6086C289.785 93.1761 281.26 100.773 280.472 101.042C279.683 101.312 282.113 94.9163 281.476 94.6184C279.525 93.7086 274.59 105.551 274.59 105.551L275.034 105.326C272.5 106.577 268.474 109.208 268.474 109.208C268.474 109.208 272.814 117.216 273.229 117.701C273.535 118.058 277.091 114.59 279.099 112.407C282.27 112.33 285.626 108.892 286.272 108.568C286.918 108.246 296.51 108.262 296.563 107.411C296.635 106.293 288.386 106.395 289.075 105.52C289.598 104.851 298.022 100.692 297.616 100.061Z" fill="#FE8E9C"/>
<path d="M280.472 101.042C280.472 101.042 282.165 103.473 282.12 104.708C282.075 105.942 279.788 109.512 279.788 109.512C279.788 109.512 282.912 106.295 282.78 104.928C282.648 103.561 280.87 100.797 280.87 100.797L280.472 101.042Z" fill="#E57492"/>
<path d="M166.482 122.965C166.482 122.965 144.699 142.098 146.007 154.415C147.315 166.735 165.538 205.797 167.497 211.66C168.983 216.105 201.658 217.58 206.017 209.457C210.377 201.331 206.451 146.816 200.695 137.904C194.938 128.993 183.156 126.112 183.156 126.112L166.482 122.965Z" fill="#1B3D9E"/>
<path d="M175.401 122.965C176.036 123.438 222.141 127.12 225.764 126.037C229.387 124.954 267.174 99.8067 269.245 101.361C271.316 102.918 279.597 117.498 279.08 119.929C278.563 122.361 239.222 149.062 233.269 149.322C227.316 149.581 197.164 151.396 194.706 150.358C192.247 149.322 175.401 122.965 175.401 122.965Z" fill="#1B3D9E"/>
<mask id="mask2_3260_50634" style="mask-type:luminance" maskUnits="userSpaceOnUse" x="175" y="101" width="105" height="50">
<path d="M175.401 122.965C176.036 123.438 222.141 127.12 225.764 126.037C229.387 124.954 267.174 99.8067 269.245 101.361C271.316 102.918 279.597 117.498 279.08 119.929C278.563 122.361 239.222 149.062 233.269 149.322C227.316 149.581 197.164 151.396 194.706 150.358C192.247 149.322 175.401 122.965 175.401 122.965Z" fill="white"/>
</mask>
<g mask="url(#mask2_3260_50634)">
<path d="M229.324 128.094C226.012 128.094 196.956 126.898 196.663 126.886C196.551 126.882 196.463 126.788 196.468 126.674C196.473 126.562 196.569 126.476 196.68 126.48C196.973 126.49 226.02 127.686 229.324 127.686C231.924 127.686 258.489 111.4 272.173 102.79C272.269 102.728 272.395 102.757 272.454 102.853C272.513 102.949 272.485 103.075 272.391 103.134C270.77 104.154 232.69 128.094 229.324 128.094Z" fill="#1C056D"/>
</g>
<path d="M163.511 86.1079C165.021 83.26 171.881 78.9985 178.127 78.8067C181.648 78.6986 184.872 80.7814 186.338 83.9883C189.658 91.2507 196.875 108.519 191.82 111.353C189.57 112.614 186.608 112.663 183.624 112.069C184.087 116.83 184.201 127.877 184.113 129.376C183.989 131.484 169.313 127.667 166.589 125.682C163.865 123.699 171.175 105.804 171.175 105.804C169.197 102.946 161.409 90.0695 163.511 86.1079Z" fill="#FE8E9C"/>
<mask id="mask3_3260_50634" style="mask-type:luminance" maskUnits="userSpaceOnUse" x="163" y="78" width="31" height="52">
<path d="M163.511 86.1079C165.021 83.26 171.881 78.9985 178.127 78.8067C181.648 78.6986 184.872 80.7814 186.339 83.9883C189.658 91.2507 196.875 108.519 191.82 111.353C189.57 112.614 186.608 112.663 183.624 112.069C184.087 116.83 184.201 127.877 184.113 129.376C183.989 131.484 169.313 127.667 166.589 125.682C163.865 123.699 171.175 105.804 171.175 105.804C169.197 102.948 161.409 90.0695 163.511 86.1079Z" fill="white"/>
</mask>
<g mask="url(#mask3_3260_50634)">
<path d="M188.336 85.1053C188.336 85.1053 184.038 87.28 180.618 86.1702C180.618 86.1702 175.819 89.7626 169.665 87.9348C169.665 87.9348 172.229 93.9814 171.317 95.3992C171.317 95.3992 166.476 86.262 167.123 85.4746C167.77 84.6892 184.278 80.244 185.221 80.4766C186.163 80.7071 188.336 85.1053 188.336 85.1053Z" fill="#E57492"/>
</g>
<path d="M189.347 101.293C189.347 101.293 185.553 103.402 181.058 101.293C181.058 101.293 183.615 104.8 186.35 104.622C189.956 104.388 189.347 101.293 189.347 101.293Z" fill="white"/>
<path d="M181.395 88.0281C181.395 88.0281 190.067 95.1804 188.872 96.4717C187.677 97.761 182.611 96.7695 182.611 96.7695C182.815 97.3856 183.36 97.8201 184.004 97.8834C185.867 98.0649 189.448 98.273 189.822 96.7267C190.479 94.0114 181.395 88.0281 181.395 88.0281Z" fill="#E57492"/>
<path d="M183.624 112.071C183.624 112.071 180.08 111.01 177.777 109.202C177.777 109.202 178.723 116.463 183.968 118.119L183.624 112.071Z" fill="#E57492"/>
<path d="M185.267 73.4691C186.147 73.3202 186.925 73.0938 187.457 72.7612C190.12 71.0946 180 67.9611 170.08 72.1615C164.059 74.7115 156.934 82.3145 159.704 84.9359C157.487 86.978 155.437 93.6345 159.086 97.637C163.167 102.111 170.37 105.893 171.175 105.805C171.98 105.717 171.339 99.2629 171.339 99.2629C165.472 99.6709 166.512 93.5019 167.392 93.2979C168.272 93.0939 170.979 96.2131 171.317 95.3991C171.577 94.7749 169.452 89.3362 168.444 86.827C170.11 87.4574 173.392 88.1265 177.778 86.2313C180.085 85.2358 180.464 84.5851 179.996 84.1607C181.631 84.0241 183.745 83.5202 186.391 82.2982C190.327 80.4806 188.536 79.6503 185.866 79.2729C187.576 79.0281 189.613 78.4875 191.917 77.4308C196.819 75.1766 190.724 73.9608 185.267 73.4691Z" fill="#1B3D9E"/>
<path d="M149.426 142.972C149.426 142.972 123.809 178.653 121.408 180.659C119.006 182.664 84.183 215.539 85.3839 218.346C86.5847 221.151 98.578 234.107 104.32 232.83C110.062 231.551 138.1 202.154 139.552 200.557C141.005 198.96 164.321 167.892 165.457 163.739C166.592 159.584 155.933 144.818 149.426 142.972Z" fill="#1B3D9E"/>
<mask id="mask4_3260_50634" style="mask-type:luminance" maskUnits="userSpaceOnUse" x="85" y="142" width="81" height="91">
<path d="M149.426 142.972C149.426 142.972 123.809 178.653 121.408 180.659C119.006 182.664 84.183 215.539 85.3839 218.344C86.5847 221.151 98.5778 234.107 104.32 232.83C110.062 231.551 138.1 202.154 139.552 200.557C141.005 198.96 164.321 167.892 165.456 163.737C166.592 159.583 155.933 144.818 149.426 142.972Z" fill="white"/>
</mask>
<g mask="url(#mask4_3260_50634)">
<path d="M87.1236 224.256C87.0704 224.256 87.0173 224.235 86.9774 224.195C86.8989 224.113 86.9012 223.982 86.9818 223.905C87.3436 223.554 123.168 188.76 125.272 185.159C127.392 181.532 150.959 144.092 151.197 143.713C151.257 143.619 151.382 143.588 151.478 143.649C151.573 143.709 151.601 143.835 151.541 143.931C151.303 144.308 127.74 181.744 125.624 185.365C123.492 189.015 88.7436 222.763 87.2653 224.199C87.2258 224.237 87.1747 224.256 87.1236 224.256Z" fill="#1C056D"/>
</g>
<path d="M154.494 180.509L165.455 163.738C165.455 163.738 164.403 187.233 157.906 188.822L154.494 180.509Z" fill="#1C056D"/>
<path d="M204.378 150.61C204.378 150.61 202.944 140.553 200.695 137.903C200.695 137.903 225.384 149.083 233.27 149.321C233.27 149.321 209.614 151.382 204.378 150.61Z" fill="#1C056D"/>
<path d="M184.113 129.378C184.113 129.378 185.413 141.1 181.394 139.968C177.376 138.836 162.822 132.061 165.539 123.821L184.113 129.378Z" fill="white"/>
<path d="M184.114 129.378C184.114 129.378 189.831 134.649 191.517 133.839C193.203 133.029 188.554 124.261 188.554 124.261L183.969 123.821L184.114 129.378Z" fill="white"/>
<path d="M184.112 129.377C184.112 129.377 182.729 131.852 183.683 133.284C184.637 134.718 186.613 135.469 187.226 135.059C187.839 134.648 189.338 133.035 188.589 131.931C187.839 130.828 184.112 129.377 184.112 129.377Z" fill="#FC476A"/>
<path d="M186.345 134.234C186.345 134.234 184.814 174.825 188.992 181.225C193.17 187.624 198.361 190.023 198.361 190.023C198.361 190.023 202.553 181.825 201.556 177.824C200.557 173.826 187.918 133.923 187.918 133.923L186.345 134.234Z" fill="#FC476A"/>
<path d="M167.498 211.658C167.498 211.658 173.055 220.365 198.061 215.273C198.061 215.273 206.252 213.858 206.747 209.264L207.065 205.834C207.065 205.834 191.45 216.171 166.363 208.737L167.498 211.658Z" fill="white"/>
<path d="M199.64 209.147C199.64 209.147 200.923 214.53 200.169 214.746C199.414 214.963 195.657 216.162 195.113 215.826C194.569 215.489 193.715 210.705 193.968 210.334C194.22 209.963 198.442 209.24 199.64 209.147Z" fill="#FC476A"/>
<path d="M277.979 64.142C277.979 64.142 283.052 117.394 284.154 117.725H289.504C289.777 117.725 289.993 117.49 289.968 117.217C289.467 111.696 285.031 63.0383 283.997 62.8955C282.899 62.7446 277.979 64.142 277.979 64.142Z" fill="#1B3D9E"/>
<mask id="mask5_3260_50634" style="mask-type:luminance" maskUnits="userSpaceOnUse" x="277" y="62" width="13" height="56">
<path d="M277.979 64.142C277.979 64.142 283.052 117.394 284.154 117.725H289.504C289.777 117.725 289.993 117.49 289.968 117.217C289.467 111.696 285.031 63.0383 283.997 62.8955C282.899 62.7446 277.979 64.142 277.979 64.142Z" fill="white"/>
</mask>
<g mask="url(#mask5_3260_50634)">
<path d="M281.286 62.883C281.225 63.034 281.286 103.514 287.339 119.409C288.412 122.225 282.783 119.179 282.783 119.179C282.783 119.179 275.565 64.1254 277.978 62.883C280.394 61.6427 281.286 62.883 281.286 62.883Z" fill="#1C056D"/>
</g>
<path d="M221.107 38.8408C221.107 38.8408 328.121 25.591 331.702 26.5335C335.284 27.4739 341.313 66.9418 337.561 71.0402C335.374 73.4311 227.801 84.9897 225.826 84.1084C223.848 83.2292 216.123 43.0799 221.107 38.8408Z" fill="#68A9FD"/>
<path d="M234.044 69.6646C233.916 69.7217 233.773 69.7441 233.616 69.7339C233.457 69.7217 233.309 69.685 233.164 69.6238C233.021 69.5646 232.895 69.4851 232.785 69.3892C232.673 69.2954 232.606 69.1852 232.582 69.0628C232.04 66.4414 231.624 63.9118 231.335 61.4781C231.044 59.0423 230.806 56.6372 230.618 54.2626C230.647 54.1667 230.759 54.079 230.952 54.0035C231.146 53.926 231.353 53.873 231.573 53.8403C231.791 53.8077 231.989 53.8015 232.164 53.8219C232.337 53.8423 232.429 53.8893 232.439 53.9607C233.594 53.7036 234.74 53.5017 235.883 53.3548C237.026 53.2079 238.188 53.0672 239.368 52.9325C239.655 52.9794 239.883 53.0957 240.05 53.2773C240.219 53.4609 240.317 53.6588 240.343 53.875C240.37 54.0912 240.325 54.2993 240.209 54.5013C240.093 54.7032 239.895 54.8522 239.616 54.9501C238.457 55.0827 237.296 55.1949 236.138 55.2867C234.979 55.3764 233.83 55.5498 232.696 55.8048C232.74 56.1639 232.795 56.5515 232.863 56.9656C232.93 57.3797 232.997 57.7959 233.064 58.2141C233.131 58.6343 233.197 59.0444 233.262 59.4483C233.327 59.8522 233.382 60.2296 233.425 60.5784C233.787 60.4805 234.197 60.3887 234.655 60.301C235.113 60.2133 235.579 60.1337 236.054 60.0664C236.531 59.997 236.997 59.9318 237.459 59.8685C237.92 59.8073 238.335 59.7522 238.704 59.7073C238.991 59.7543 239.217 59.8726 239.386 60.0603C239.555 60.248 239.655 60.4581 239.683 60.6886C239.712 60.9191 239.669 61.1415 239.553 61.3536C239.439 61.5658 239.241 61.7208 238.962 61.8167C238.594 61.8636 238.178 61.9044 237.714 61.9411C237.25 61.9758 236.775 62.0146 236.29 62.0533C235.808 62.0921 235.335 62.1411 234.873 62.1961C234.412 62.2533 234.005 62.3308 233.653 62.4267C233.592 62.6103 233.586 62.904 233.634 63.3039C233.685 63.7037 233.757 64.1586 233.85 64.6686C233.944 65.1786 234.044 65.7111 234.148 66.2659C234.254 66.8208 234.329 67.3369 234.378 67.8102C234.425 68.2835 234.429 68.6915 234.388 69.0363C234.347 69.379 234.233 69.5891 234.044 69.6646Z" fill="white"/>
<path d="M248.74 53.6199C248.208 53.6953 247.713 53.8585 247.255 54.1074C246.797 54.3583 246.394 54.648 246.043 54.9765C245.693 55.3069 245.404 55.6578 245.174 56.0311C244.944 56.4024 244.797 56.7492 244.732 57.0695C244.618 57.5836 244.571 58.1487 244.589 58.7607C244.608 59.3727 244.683 59.9887 244.817 60.6089C244.95 61.229 245.143 61.8308 245.398 62.4143C245.652 62.9977 245.964 63.52 246.333 63.979C246.701 64.44 247.125 64.8133 247.601 65.1051C248.08 65.3947 248.612 65.5498 249.198 65.5722C250.003 65.6069 250.707 65.4498 251.31 65.0989C251.911 64.7501 252.41 64.2789 252.805 63.6873C253.202 63.0977 253.494 62.4224 253.681 61.6636C253.868 60.9047 253.95 60.1356 253.927 59.3502C253.903 58.5668 253.779 57.8018 253.551 57.0593C253.324 56.3167 252.995 55.6721 252.563 55.1254C252.131 54.5787 251.597 54.1625 250.958 53.8769C250.318 53.5913 249.579 53.5056 248.74 53.6199ZM242.673 56.6982C242.954 55.4334 243.418 54.4175 244.068 53.6484C244.718 52.8814 245.479 52.3224 246.353 51.9756C247.225 51.6288 248.178 51.4779 249.208 51.5289C250.241 51.5778 251.278 51.79 252.322 52.1613C252.901 52.3714 253.406 52.71 253.838 53.1772C254.269 53.6443 254.632 54.1911 254.921 54.8173C255.212 55.4436 255.434 56.125 255.587 56.8614C255.74 57.5999 255.834 58.3404 255.868 59.0871C255.903 59.8337 255.883 60.564 255.803 61.276C255.724 61.99 255.595 62.6346 255.416 63.2079C255.29 63.6199 255.109 64.0463 254.872 64.4869C254.634 64.9296 254.306 65.3417 253.885 65.7273C253.463 66.1128 252.929 66.4576 252.28 66.7636C251.63 67.0675 250.83 67.2878 249.878 67.4266C248.846 67.5755 247.929 67.5245 247.127 67.2736C246.326 67.0247 245.632 66.6351 245.041 66.1087C244.451 65.5824 243.964 64.9459 243.581 64.2013C243.198 63.4567 242.909 62.6611 242.718 61.8145C242.524 60.9679 242.426 60.105 242.422 59.2237C242.416 58.3445 242.5 57.502 242.673 56.6982Z" fill="white"/>
<path d="M264.354 51.9884C263.806 51.8477 263.258 51.7987 262.712 51.8395C262.166 51.8803 261.663 51.968 261.207 52.1027C260.751 52.2373 260.35 52.3924 260.008 52.5637C259.663 52.7371 259.421 52.8799 259.279 52.9901C259.209 53.8652 259.224 54.7322 259.319 55.5972C259.415 56.4601 259.539 57.3475 259.694 58.2553C260.15 58.1574 260.635 58.084 261.15 58.037C261.663 57.9881 262.183 57.9065 262.704 57.7902C263.226 57.6739 263.735 57.4944 264.23 57.2496C264.725 57.0068 265.181 56.6335 265.598 56.1337C265.924 55.74 266.116 55.3198 266.171 54.875C266.224 54.4303 266.181 54.0121 266.038 53.6184C265.896 53.2226 265.676 52.8779 265.38 52.58C265.083 52.2842 264.741 52.0864 264.354 51.9884ZM262.81 59.6058L262.786 59.5936L262.761 59.5813C262.588 59.6242 262.374 59.6792 262.118 59.7466C261.861 59.8159 261.596 59.8771 261.327 59.9302C261.059 59.9852 260.798 60.0158 260.543 60.0281C260.291 60.0383 260.081 60.0016 259.914 59.9179C259.997 60.4279 260.087 60.9073 260.185 61.3541C260.281 61.8008 260.374 62.2435 260.464 62.6801C260.555 63.1166 260.643 63.5593 260.729 64.0081C260.816 64.4549 260.896 64.9302 260.967 65.432C260.989 65.7727 260.914 66.0298 260.743 66.2032C260.57 66.3745 260.366 66.4684 260.128 66.4806C259.892 66.4949 259.655 66.4255 259.423 66.2725C259.191 66.1175 259.034 65.8788 258.953 65.5565C258.753 64.361 258.558 63.1819 258.362 62.0171C258.166 60.8522 257.991 59.6854 257.837 58.5164C257.682 57.3475 257.555 56.1745 257.458 54.9974C257.36 53.8224 257.299 52.6249 257.274 51.4091C257.283 51.3132 257.448 51.1786 257.769 51.0031C258.091 50.8277 258.513 50.6502 259.032 50.4727C259.551 50.2932 260.142 50.1361 260.808 50.0035C261.474 49.8689 262.15 49.7954 262.843 49.7832C263.533 49.771 264.207 49.8464 264.867 50.0096C265.527 50.1728 266.118 50.4564 266.635 50.8624C267.132 51.2602 267.539 51.7151 267.857 52.2271C268.175 52.7412 268.382 53.2818 268.478 53.8469C268.574 54.414 268.543 54.9832 268.384 55.5564C268.226 56.1276 267.922 56.6662 267.474 57.17C267.109 57.5801 266.706 57.931 266.27 58.2247C265.832 58.5185 265.391 58.7551 264.945 58.9367C265.34 59.2733 265.708 59.6384 266.048 60.0342C266.388 60.432 266.723 60.8298 267.054 61.2317C267.384 61.6356 267.723 62.0334 268.067 62.4271C268.413 62.8229 268.788 63.184 269.191 63.5083C269.419 63.7531 269.519 64.0081 269.49 64.2774C269.46 64.5467 269.356 64.7711 269.175 64.9506C268.993 65.1281 268.761 65.2382 268.48 65.277C268.199 65.3178 267.926 65.2342 267.661 65.0281C267.177 64.6385 266.747 64.208 266.37 63.7327C265.993 63.2574 265.625 62.7739 265.262 62.2823C264.9 61.7906 264.527 61.3133 264.142 60.8502C263.757 60.3851 263.313 59.971 262.81 59.6058Z" fill="white"/>
<path d="M288.631 50.8489C288.747 51.1161 288.747 51.3487 288.631 51.5445C288.513 51.7403 288.34 51.8852 288.105 51.977C287.873 52.0688 287.608 52.0973 287.313 52.0667C287.018 52.0361 286.755 51.9301 286.525 51.7505C286.464 51.4343 286.348 51.1181 286.173 50.7999C285.999 50.4837 285.782 50.2042 285.525 49.9655C285.266 49.7269 284.973 49.5392 284.643 49.4025C284.313 49.2658 283.975 49.225 283.629 49.2781C283.148 49.3576 282.735 49.5372 282.382 49.8146C282.032 50.092 281.773 50.4327 281.602 50.8325C281.433 51.2344 281.364 51.673 281.39 52.1504C281.419 52.6257 281.576 53.097 281.861 53.5621C281.967 53.7457 282.209 53.8681 282.586 53.9252C282.961 53.9823 283.409 54.0394 283.926 54.0965C284.441 54.1516 284.997 54.2312 285.594 54.3352C286.189 54.4393 286.767 54.629 287.325 54.9023C287.885 55.1777 288.391 55.5674 288.845 56.0692C289.295 56.5711 289.641 57.2443 289.881 58.0909C290.073 58.8069 290.083 59.4577 289.91 60.0411C289.737 60.6246 289.439 61.1386 289.016 61.5833C288.59 62.026 288.075 62.3932 287.464 62.6809C286.855 62.9706 286.207 63.1705 285.525 63.2806C284.841 63.3908 284.156 63.4091 283.47 63.3316C282.784 63.2541 282.156 63.0746 281.584 62.789C281.014 62.5054 280.531 62.1097 280.134 61.6017C279.739 61.0917 279.49 60.4634 279.386 59.7147C279.362 59.5107 279.348 59.3108 279.346 59.119C279.342 58.9252 279.366 58.7477 279.419 58.5845C279.472 58.4213 279.56 58.2786 279.68 58.1541C279.8 58.0297 279.969 57.9379 280.191 57.8807C280.395 57.844 280.574 57.8583 280.729 57.9236C280.881 57.9889 281.01 58.0847 281.116 58.2112C281.219 58.3397 281.295 58.4968 281.344 58.6845C281.393 58.8702 281.421 59.0721 281.427 59.2904C281.431 59.7494 281.543 60.1288 281.763 60.4307C281.981 60.7306 282.258 60.9693 282.592 61.1407C282.924 61.3141 283.293 61.4242 283.694 61.4732C284.095 61.5242 284.48 61.514 284.847 61.4487C285.213 61.3834 285.58 61.2835 285.949 61.1488C286.317 61.0142 286.643 60.8326 286.928 60.6041C287.211 60.3777 287.427 60.0982 287.574 59.7677C287.72 59.4352 287.745 59.0415 287.647 58.5845C287.596 58.3418 287.494 58.0929 287.344 57.8399C287.193 57.589 287.008 57.3585 286.784 57.1525C286.56 56.9444 286.315 56.7649 286.046 56.6098C285.777 56.4548 285.498 56.3548 285.211 56.3059C284.788 56.2324 284.346 56.1671 283.892 56.11C283.437 56.0509 282.993 55.9754 282.562 55.8836C282.128 55.7898 281.714 55.6694 281.321 55.5205C280.928 55.3716 280.574 55.1696 280.256 54.9166C279.938 54.6637 279.674 54.3454 279.46 53.9599C279.246 53.5743 279.099 53.101 279.018 52.5359C278.924 51.8505 278.973 51.214 279.166 50.6265C279.36 50.039 279.647 49.5249 280.03 49.0802C280.411 48.6375 280.857 48.2785 281.364 48.001C281.871 47.7256 282.386 47.5543 282.908 47.489C283.627 47.4013 284.295 47.4135 284.912 47.5237C285.529 47.6359 286.085 47.8378 286.578 48.1316C287.073 48.4254 287.494 48.8027 287.843 49.2658C288.191 49.7269 288.454 50.2552 288.631 50.8489Z" fill="white"/>
<path d="M296.802 48.12C296.653 48.0955 296.521 48.2057 296.405 48.4505C296.289 48.6932 296.187 49.0196 296.097 49.4256C296.006 49.8336 295.926 50.2967 295.855 50.8169C295.784 51.3371 295.714 51.8614 295.649 52.3897C295.584 52.9201 295.525 53.424 295.47 53.9054C295.413 54.3869 295.356 54.799 295.293 55.1396C295.735 55.0948 296.144 55.056 296.521 55.0193C296.896 54.9825 297.266 54.9499 297.631 54.9213C297.997 54.8907 298.368 54.8601 298.745 54.8295C299.12 54.7989 299.525 54.7622 299.957 54.7194C299.635 54.1441 299.356 53.5811 299.116 53.0323C298.877 52.4836 298.643 51.9368 298.415 51.3921C298.187 50.8475 297.944 50.3028 297.692 49.7601C297.437 49.2195 297.14 48.6728 296.802 48.12ZM292.47 61.3677C292.6 60.9128 292.708 60.3498 292.792 59.6786C292.875 59.0054 292.953 58.269 293.02 57.4693C293.087 56.6676 293.162 55.8312 293.242 54.954C293.321 54.0809 293.415 53.2159 293.523 52.3632C293.631 51.5105 293.767 50.6965 293.932 49.9213C294.097 49.1441 294.303 48.4546 294.551 47.8507C294.8 47.2469 295.099 46.7532 295.447 46.3717C295.796 45.9902 296.211 45.7699 296.692 45.7087C296.969 45.6761 297.264 45.8087 297.578 46.1085C297.889 46.4084 298.211 46.8225 298.541 47.3489C298.871 47.8772 299.213 48.4933 299.566 49.2012C299.918 49.9091 300.272 50.6516 300.629 51.4309C300.985 52.2102 301.344 53.0058 301.702 53.8157C302.063 54.6255 302.415 55.3967 302.759 56.1249C303.105 56.8532 303.441 57.5203 303.771 58.1262C304.101 58.7321 304.419 59.2196 304.724 59.5868C304.841 59.8541 304.859 60.1009 304.784 60.3233C304.706 60.5456 304.58 60.7211 304.403 60.8475C304.225 60.974 304.012 61.0332 303.761 61.0271C303.511 61.023 303.27 60.9292 303.04 60.7496C302.747 60.4008 302.472 60.0234 302.213 59.6154C301.957 59.2115 301.729 58.8157 301.531 58.4342C301.331 58.0528 301.166 57.706 301.034 57.3938C300.904 57.0817 300.81 56.841 300.759 56.6696C300.246 56.7329 299.753 56.79 299.28 56.843C298.81 56.8961 298.342 56.9511 297.881 57.0083C297.419 57.0654 296.955 57.1205 296.488 57.1735C296.022 57.2245 295.525 57.2796 295.001 57.3326C294.936 57.8202 294.893 58.2466 294.869 58.6076C294.847 58.9708 294.824 59.3196 294.804 59.6562C294.784 59.9928 294.747 60.3416 294.698 60.7007C294.649 61.0617 294.566 61.4779 294.445 61.9512C294.291 62.2001 294.093 62.3653 293.859 62.4469C293.625 62.5285 293.403 62.5367 293.191 62.4755C292.981 62.4122 292.802 62.2858 292.653 62.096C292.504 61.9063 292.443 61.6635 292.47 61.3677Z" fill="white"/>
<path d="M305.172 45.6002C305.196 45.3044 305.31 45.0779 305.508 44.9168C305.708 44.7577 305.936 44.6659 306.192 44.6455C306.451 44.623 306.703 44.6761 306.954 44.8005C307.202 44.927 307.386 45.1228 307.502 45.3901C307.644 46.5406 307.771 47.6504 307.881 48.7214C307.993 49.7924 308.101 50.8532 308.204 51.9099C308.308 52.9646 308.416 54.0315 308.526 55.1066C308.638 56.1817 308.76 57.2955 308.891 58.4481C309.475 58.4583 310.095 58.4338 310.748 58.3747C311.402 58.3135 312.064 58.24 312.734 58.1523C313.406 58.0646 314.064 57.9687 314.714 57.8687C315.361 57.7667 315.978 57.6811 316.563 57.6097C316.85 57.6566 317.07 57.7627 317.227 57.9259C317.382 58.0891 317.469 58.2686 317.488 58.4644C317.506 58.6603 317.451 58.85 317.323 59.0315C317.194 59.2151 316.991 59.3539 316.712 59.4518C316.066 59.5313 315.372 59.6374 314.628 59.7721C313.885 59.9047 313.129 60.0291 312.363 60.1454C311.598 60.2596 310.842 60.3555 310.097 60.433C309.351 60.5085 308.655 60.5411 308.009 60.5269C307.779 60.6064 307.545 60.5819 307.304 60.4493C307.064 60.3167 306.895 60.0699 306.799 59.7068C306.651 58.495 306.508 57.3057 306.376 56.1388C306.241 54.9719 306.113 53.8112 305.985 52.6525C305.858 51.4958 305.728 50.335 305.596 49.1681C305.461 48.0013 305.321 46.8119 305.172 45.6002Z" fill="white"/>
<path d="M320.953 59.3965C320.608 59.3965 320.342 59.3047 320.152 59.119C320.01 59.064 319.881 58.9742 319.767 58.8477C319.653 58.7192 319.572 58.5458 319.523 58.3214C318.983 55.7 318.568 53.1704 318.276 50.7367C317.987 48.3009 317.749 45.8958 317.562 43.5212C317.59 43.4253 317.702 43.3376 317.896 43.2621C318.089 43.1846 318.295 43.1316 318.515 43.0989C318.735 43.0663 318.932 43.0602 319.107 43.0806C319.28 43.101 319.372 43.1479 319.38 43.2193C320.535 42.9622 321.684 42.7603 322.826 42.6134C323.969 42.4665 325.13 42.3258 326.311 42.1911C326.598 42.238 326.824 42.3543 326.993 42.5359C327.162 42.7195 327.258 42.9174 327.285 43.1336C327.311 43.3498 327.268 43.5579 327.152 43.7599C327.036 43.9618 326.839 44.1108 326.56 44.2087C325.399 44.3413 324.24 44.4535 323.081 44.5432C321.92 44.635 320.773 44.8084 319.639 45.0634C319.684 45.4225 319.739 45.808 319.806 46.2242C319.873 46.6363 319.938 47.0545 320.006 47.4727C320.073 47.8929 320.14 48.303 320.205 48.7069C320.27 49.1108 320.325 49.4882 320.368 49.837C320.731 49.7391 321.14 49.6473 321.598 49.5596C322.056 49.4719 322.523 49.3923 322.997 49.323C323.474 49.2556 323.94 49.1883 324.401 49.1271C324.863 49.0639 325.276 49.0108 325.647 48.966C325.932 49.0129 326.16 49.1312 326.329 49.3189C326.498 49.5066 326.598 49.7146 326.627 49.9472C326.655 50.1777 326.61 50.4001 326.496 50.6122C326.382 50.8244 326.185 50.9774 325.906 51.0753C325.537 51.1202 325.122 51.163 324.657 51.1977C324.193 51.2344 323.718 51.2732 323.234 51.3119C322.749 51.3507 322.276 51.3976 321.816 51.4547C321.354 51.5119 320.949 51.5894 320.596 51.6853C320.659 52.1973 320.716 52.6726 320.771 53.1092C320.824 53.5458 320.875 53.9742 320.922 54.3964C320.969 54.8187 321.018 55.2492 321.073 55.6918C321.128 56.1325 321.193 56.62 321.268 57.1525C322.419 56.8648 323.596 56.6098 324.796 56.3875C325.997 56.1672 327.187 55.9774 328.364 55.8224C328.651 55.8714 328.863 55.9938 329.001 56.1896C329.14 56.3854 329.207 56.6017 329.199 56.8363C329.191 57.0729 329.116 57.3014 328.971 57.5217C328.826 57.742 328.615 57.9032 328.335 57.9991C327.085 58.1643 325.849 58.3581 324.621 58.5825C323.395 58.8069 322.173 59.0782 320.953 59.3965Z" fill="white"/>
<path d="M165.455 163.941C165.364 163.941 165.281 163.88 165.258 163.788C163.033 155.08 158.83 149.939 155.696 147.156C152.3 144.143 149.391 143.176 149.362 143.166C149.254 143.131 149.196 143.017 149.231 142.909C149.265 142.803 149.38 142.744 149.487 142.778C149.608 142.817 152.491 143.774 155.948 146.836C159.132 149.655 163.399 154.867 165.652 163.688C165.68 163.797 165.614 163.909 165.505 163.935L165.455 163.941Z" fill="#1C056D"/>
<path d="M201.755 139.982C201.663 139.982 201.58 139.921 201.557 139.827C199.11 130.029 194.856 124.942 194.813 124.891C194.74 124.805 194.751 124.676 194.836 124.603C194.922 124.531 195.051 124.542 195.123 124.627C195.167 124.678 199.48 129.831 201.953 139.729C201.979 139.838 201.914 139.95 201.804 139.976L201.755 139.982Z" fill="#1C056D"/>
<path d="M106.349 228.508C106.349 229.218 105.775 229.793 105.066 229.793C104.358 229.793 103.783 229.218 103.783 228.508C103.783 227.798 104.358 227.223 105.066 227.223C105.775 227.223 106.349 227.798 106.349 228.508Z" fill="#1C056D"/>
<path d="M110.056 225.752C110.056 226.462 109.482 227.037 108.773 227.037C108.065 227.037 107.49 226.462 107.49 225.752C107.49 225.044 108.065 224.469 108.773 224.469C109.482 224.469 110.056 225.044 110.056 225.752Z" fill="#1C056D"/>
<path d="M113.808 223.016C113.808 223.723 113.234 224.301 112.525 224.301C111.817 224.301 111.242 223.723 111.242 223.016C111.242 222.306 111.817 221.73 112.525 221.73C113.234 221.73 113.808 222.306 113.808 223.016Z" fill="#1C056D"/>
<path d="M268.002 124.896C268.002 125.606 267.427 126.182 266.719 126.182C266.01 126.182 265.436 125.606 265.436 124.896C265.436 124.187 266.01 123.611 266.719 123.611C267.427 123.611 268.002 124.187 268.002 124.896Z" fill="#1C056D"/>
<path d="M271.708 122.143C271.708 122.852 271.133 123.428 270.425 123.428C269.716 123.428 269.142 122.852 269.142 122.143C269.142 121.433 269.716 120.857 270.425 120.857C271.133 120.857 271.708 121.433 271.708 122.143Z" fill="#1C056D"/>
<path d="M275.459 119.402C275.459 120.112 274.884 120.688 274.176 120.688C273.467 120.688 272.893 120.112 272.893 119.402C272.893 118.694 273.467 118.119 274.176 118.119C274.884 118.119 275.459 118.694 275.459 119.402Z" fill="#1C056D"/>
<path d="M320.678 333.609L320.682 331.206H352.478L352.45 332.118L320.678 333.609ZM352.851 319.803H320.704H327.604V305.984L349.273 284.362H355.313C355.364 292.403 355.994 300.476 357.087 308.448L353.216 308.605L352.851 319.803ZM473.206 230.442C484.776 224.557 496.122 218.174 506.835 210.975C501.864 217.913 494.328 224.341 482.937 228.478C482.937 228.478 479.045 229.741 473.206 230.442Z" fill="#C9D1F5"/>
<path d="M465.747 230.896C457.016 230.896 446.436 228.954 437.706 221.592L435.448 223.846C435.285 215.529 434.9 207.092 432.246 199.215C430.943 200.902 429.672 202.618 428.436 204.358V147.248C429.183 146.398 429.961 145.565 430.774 144.755C440.546 135.006 453.326 130.135 466.108 130.135C478.951 130.135 491.798 135.057 501.58 144.894C510.802 154.166 515.65 166.149 516.132 178.273C516.169 177.685 516.185 177.145 516.175 176.659C516.175 176.659 518.177 195.145 506.835 210.976C496.122 218.175 484.776 224.558 473.206 230.444C470.969 230.711 468.448 230.896 465.747 230.896ZM490.784 148.364C488.922 148.364 487.061 149.074 485.639 150.492C482.786 153.338 482.778 157.96 485.619 160.818C487.043 162.25 488.912 162.967 490.784 162.967C492.643 162.967 494.505 162.257 495.927 160.839C498.78 157.993 498.788 153.37 495.947 150.512C494.523 149.08 492.654 148.364 490.784 148.364Z" fill="#C3CDF5"/>
<path d="M357.087 308.449C355.994 300.477 355.364 292.405 355.313 284.363H374.792L373.749 285.405L371.668 307.851L357.087 308.449ZM428.436 230.842V204.358C429.672 202.618 430.943 200.902 432.247 199.215C434.9 207.092 435.285 215.529 435.448 223.846L428.436 230.842Z" fill="#BBC9F3"/>
<path d="M327.604 319.803H320.704L320.716 312.854L327.604 305.984V319.803Z" fill="#3755B7"/>
<path d="M374.792 284.363H349.272L364.132 269.539H389.651L374.792 284.363ZM418.723 240.534V215.071L424.951 208.857C422.269 204.993 420.193 200.835 418.723 196.517V164.054C420.78 158.016 424.018 152.294 428.436 147.249V204.359V230.842L418.723 240.534Z" fill="#6880E4"/>
<path d="M389.651 269.537H364.132L371.892 261.795H397.411L389.651 269.537ZM411.639 247.599V231.924C411.639 230.855 410.776 229.99 409.708 229.99H403.769L409.423 224.349H409.871C411.01 224.349 411.936 223.421 411.936 222.281V221.842L418.723 215.069V240.532L411.639 247.599ZM418.723 196.515C415.146 186.011 415.146 174.555 418.723 164.053V196.515Z" fill="#ADBDF5"/>
<path d="M352.478 331.207H320.682L320.704 319.803H352.851L352.478 331.207Z" fill="#6880E4"/>
<path d="M397.411 261.797H371.892L374.816 258.88H375.906C376.126 258.88 376.303 258.702 376.303 258.482V257.397L380.272 253.435H405.049C405.358 253.435 405.611 253.182 405.611 252.872V250.634C405.611 250.324 405.358 250.071 405.049 250.071H383.643L385.731 247.988H405.049C405.358 247.988 405.611 247.737 405.611 247.427V245.189C405.611 244.877 405.358 244.626 405.049 244.626H389.101L391.189 242.543H405.049C405.358 242.543 405.611 242.292 405.611 241.98V239.742C405.611 239.432 405.358 239.181 405.049 239.181H394.56L396.647 237.099H405.049C405.358 237.099 405.611 236.846 405.611 236.536V234.298C405.611 233.988 405.358 233.735 405.049 233.735H400.018L403.769 229.991H409.708C410.776 229.991 411.639 230.856 411.639 231.925V247.601L397.411 261.797Z" fill="#C9D1F5"/>
<path d="M405.049 237.098H396.647L400.018 233.734H405.049C405.358 233.734 405.611 233.987 405.611 234.297V236.535C405.611 236.845 405.358 237.098 405.049 237.098Z" fill="#BBC9F3"/>
<path d="M405.049 242.543H391.189L394.56 239.181H405.049C405.359 239.181 405.611 239.432 405.611 239.742V241.98C405.611 242.292 405.359 242.543 405.049 242.543Z" fill="#BBC9F3"/>
<path d="M405.048 247.986H385.73L389.101 244.624H405.048C405.358 244.624 405.61 244.875 405.61 245.187V247.425C405.61 247.735 405.358 247.986 405.048 247.986Z" fill="#BBC9F3"/>
<path d="M410.027 223.746L411.333 222.445C411.257 223.128 410.712 223.673 410.027 223.746Z" fill="#ADBDF5"/>
<path d="M405.049 253.434H380.272L383.643 250.07H405.049C405.358 250.07 405.611 250.323 405.611 250.633V252.871C405.611 253.181 405.358 253.434 405.049 253.434Z" fill="#BBC9F3"/>
<path d="M375.906 258.877H374.816L376.303 257.394V258.479C376.303 258.699 376.126 258.877 375.906 258.877Z" fill="#BBC9F3"/>
<path d="M409.871 224.35H409.423L410.028 223.746C410.712 223.672 411.258 223.128 411.333 222.444L411.936 221.842V222.281C411.936 223.421 411.009 224.35 409.871 224.35Z" fill="#C9D1F5"/>
<path d="M492.931 146.748C495.772 149.604 495.764 154.226 492.912 157.072C490.059 159.918 485.444 159.91 482.603 157.054C479.761 154.196 479.772 149.573 482.623 146.727C485.474 143.881 490.089 143.892 492.931 146.748ZM498.425 212.05C518.016 192.505 518.079 160.75 498.564 141.127C479.049 121.505 447.348 121.443 427.757 140.991C410.303 158.404 408.352 185.51 421.934 205.092L317.702 309.091L317.661 329.846L349.433 328.354L348.785 303.538L368.651 304.087L370.733 281.641L434.69 217.827C454.165 231.293 481.055 229.382 498.425 212.05Z" fill="#F9C438"/>
<path d="M434.69 217.828C434.69 217.828 454.096 227.41 479.149 220.982C504.204 214.554 513.346 182.683 513.159 172.895C513.159 172.895 517.302 211.143 479.921 224.715C479.921 224.715 453.161 233.408 434.69 217.828Z" fill="#F6AB36"/>
<path d="M317.661 329.846C317.661 329.846 347.405 326.343 347.111 325.607C346.816 324.87 348.785 303.538 348.785 303.538C348.785 303.538 367.254 302.485 367.401 301.896C367.549 301.308 370.733 281.641 370.733 281.641L368.651 304.087L350.199 304.841L349.433 328.354L317.661 329.846Z" fill="#F6AB36"/>
<path d="M317.661 329.846L370.733 281.641L321.233 329.417L317.661 329.846Z" fill="#F6AB36"/>
<path d="M465.985 132.006C465.985 132.006 435.539 133.597 423.5 160.462C423.5 160.462 414.297 183.7 431.527 205.844C431.527 205.844 414.563 178.673 431.054 153.756C431.054 153.756 442.855 138.626 465.985 132.006Z" fill="#F6AB36"/>
<path d="M374.735 140.805C367.442 140.805 360.686 138.508 355.146 134.595H358.134C362.57 136.717 367.533 137.902 372.776 137.902C378.018 137.902 382.982 136.717 387.417 134.595H394.324C388.784 138.508 382.028 140.805 374.735 140.805Z" fill="#ADBDF5"/>
<path d="M408.743 107.912H406.56C406.721 106.57 406.804 105.205 406.804 103.82C406.804 100.509 406.332 97.3082 405.454 94.2829C405.753 94.2115 406.047 94.1401 406.34 94.0687C407.904 97.9814 408.764 102.251 408.764 106.723C408.764 107.121 408.756 107.516 408.743 107.912Z" fill="#C3CDF5"/>
<path d="M407.469 116.068H404.54C405.534 113.488 406.222 110.754 406.56 107.912H408.744C408.646 110.732 408.208 113.463 407.469 116.068Z" fill="#6880E4"/>
<path d="M395.14 134H388.602C395.857 130.175 401.566 123.802 404.539 116.068H407.468C405.407 123.323 401.008 129.59 395.14 134ZM356.949 134H354.329C350.83 131.37 347.855 128.08 345.584 124.314C348.602 128.325 352.482 131.646 356.949 134Z" fill="#ADBDF5"/>
<path d="M394.324 134.596H387.418C387.817 134.404 388.212 134.206 388.603 134H395.141C394.872 134.202 394.599 134.402 394.324 134.596ZM358.135 134.596H355.147C354.872 134.402 354.599 134.202 354.33 134H356.949C357.34 134.206 357.737 134.404 358.135 134.596Z" fill="#C9D1F5"/>
<path d="M406.803 103.82C406.803 122.643 391.567 137.902 372.775 137.902C353.982 137.902 338.746 122.643 338.746 103.82C338.746 84.9949 353.982 69.7357 372.775 69.7357C391.567 69.7357 406.803 84.9949 406.803 103.82Z" fill="#EAF2FC"/>
<path d="M372.694 97.2987C372.694 97.2987 394.248 116.968 391.102 120.544C387.953 124.121 383.156 126.177 382.044 124.886C380.934 123.592 365.057 100.071 365.057 100.071L372.694 97.2987Z" fill="#1B3D9E"/>
<mask id="mask6_3260_50634" style="mask-type:luminance" maskUnits="userSpaceOnUse" x="365" y="97" width="27" height="29">
<path d="M372.694 97.2987C372.694 97.2987 394.248 116.968 391.102 120.544C387.953 124.121 383.156 126.177 382.044 124.886C380.934 123.592 365.057 100.071 365.057 100.071L372.694 97.2987Z" fill="white"/>
</mask>
<g mask="url(#mask6_3260_50634)">
<path d="M380.234 102.88C380.234 102.88 366.786 107.559 366.002 106.527C365.217 105.495 362.845 101.399 362.845 101.399C362.845 101.399 376.503 93.7322 377.354 94.9623C378.203 96.1924 380.234 102.88 380.234 102.88Z" fill="#1C056D"/>
</g>
<path d="M351.345 102.293C350.52 100.914 350.706 99.1579 351.799 97.9829C360.49 88.654 397.02 49.6349 399.836 49.9266C403.036 50.2591 423.989 82.7522 422.665 88.0562C421.488 92.7625 367.205 101.981 355.013 103.995C353.559 104.235 352.105 103.56 351.345 102.293Z" fill="#68A9FD"/>
<mask id="mask7_3260_50634" style="mask-type:luminance" maskUnits="userSpaceOnUse" x="350" y="49" width="73" height="56">
<path d="M351.345 102.293C350.52 100.914 350.706 99.1579 351.799 97.9829C360.49 88.654 397.02 49.6349 399.836 49.9266C403.036 50.2591 423.989 82.7522 422.665 88.0562C421.488 92.7625 367.205 101.981 355.013 103.995C353.559 104.235 352.105 103.56 351.345 102.293Z" fill="white"/>
</mask>
<g mask="url(#mask7_3260_50634)">
<path d="M359.575 85.7122C359.575 85.7122 359.042 96.6058 370.213 105.982C370.213 105.982 349.73 108.909 348.49 106.841C347.251 104.77 345.162 103.087 345.797 101.312C346.435 99.5373 359.575 85.7122 359.575 85.7122Z" fill="#1B3D9E"/>
<path d="M366.254 102.078C365.449 101.14 364.742 100.203 364.119 99.2813C372.724 97.8105 386.844 94.4587 394.315 87.5819C403.241 79.3627 414.427 77.4227 418.624 76.9719C421.06 81.6027 422.722 85.546 422.724 87.4901C422.724 87.7023 422.706 87.892 422.665 88.0552C421.857 91.2886 395.993 96.6497 375.924 100.342C372.535 100.966 369.307 101.544 366.396 102.054C366.349 102.062 366.3 102.07 366.254 102.078Z" fill="#5682DB"/>
<path d="M358.707 103.375L356.866 100.284C356.866 100.284 359.797 100.019 364.119 99.2807C364.742 100.203 365.449 101.139 366.253 102.078C363.377 102.581 360.815 103.02 358.707 103.375Z" fill="#1B3092"/>
</g>
<path d="M406.983 71.7037C413.362 82.3566 420.374 89.8883 422.647 88.5215C424.92 87.1567 421.592 77.4137 415.214 66.7588C408.835 56.1059 401.82 48.5742 399.547 49.939C397.275 51.3058 400.605 61.0488 406.983 71.7037Z" fill="#1B3D9E"/>
<mask id="mask8_3260_50634" style="mask-type:luminance" maskUnits="userSpaceOnUse" x="398" y="49" width="26" height="40">
<path d="M406.983 71.7041C413.362 82.357 420.374 89.8866 422.647 88.5219C424.92 87.1571 421.592 77.4141 415.214 66.7592C408.835 56.1063 401.82 48.5746 399.547 49.9394C397.275 51.3062 400.605 61.0492 406.983 71.7041Z" fill="white"/>
</mask>
<g mask="url(#mask8_3260_50634)">
<path d="M404.097 69.9494C404.097 69.9494 410.392 62.9032 413.109 67.3565C415.828 71.8078 416.148 73.5275 406.86 76.6875L404.097 69.9494Z" fill="white"/>
<path d="M402.331 50.1248C402.331 50.1248 400.197 51.7691 402.317 57.4076C404.15 62.2832 416.614 86.4919 424.455 87.4385C424.455 87.4385 423.777 90.8901 421.575 91.1125C419.374 91.3328 410.29 83.7277 407.484 78.1238C404.679 72.5199 395.636 57.1873 395.213 54.417C394.789 51.6446 400.241 47.8421 402.331 50.1248Z" fill="#1C056D"/>
</g>
</g>
<defs>
<clipPath id="clip0_3260_50634">
<rect width="628" height="330" fill="white"/>
</clipPath>
</defs>
</svg>
