<svg width="384" height="234" viewBox="0 0 384 234" fill="none" xmlns="http://www.w3.org/2000/svg">
<g clip-path="url(#clip0_3426_135087)">
<g opacity="0.05">
<path d="M134.815 18.0403C105.862 19.6589 77.5938 30.9246 57.5167 52.5606C32.5477 79.4664 26.0573 121.397 34.3976 156.206C39.6227 178.011 51.0133 198.478 68.2392 213.048C75.8654 219.498 84.4078 224.948 93.682 228.702C130.966 243.797 177.635 237.917 215.801 229.538C249.281 222.187 282.055 211.494 313.224 197.196C342.376 183.824 371.982 167.917 389.256 139.722C410.292 105.387 404.332 54.755 363.453 38.6072C332.751 26.4794 303.645 42.7661 279.232 60.5325C274.624 63.8871 269.992 67.502 264.49 68.9934C250.03 72.9135 232.148 51.4077 221.157 43.9623C205.119 33.1002 187.636 24.4123 168.555 20.5081C157.501 18.2471 146.106 17.4096 134.815 18.0403Z" fill="#10C4D2"/>
<path d="M134.815 18.0403C105.862 19.6589 77.5938 30.9246 57.5167 52.5606C32.5477 79.4664 26.0573 121.397 34.3976 156.206C39.6227 178.011 51.0133 198.478 68.2392 213.048C75.8654 219.498 84.4078 224.948 93.682 228.702C130.966 243.797 177.635 237.917 215.801 229.538C249.281 222.187 282.055 211.494 313.224 197.196C342.376 183.824 371.982 167.917 389.256 139.722C410.292 105.387 404.332 54.755 363.453 38.6072C332.751 26.4794 303.645 42.7661 279.232 60.5325C274.624 63.8871 269.992 67.502 264.49 68.9934C250.03 72.9135 232.148 51.4077 221.157 43.9623C205.119 33.1002 187.636 24.4123 168.555 20.5081C157.501 18.2471 146.106 17.4096 134.815 18.0403Z" fill="#196CCD"/>
<path d="M134.815 18.0403C105.862 19.6589 77.5938 30.9246 57.5167 52.5606C32.5477 79.4664 26.0573 121.397 34.3976 156.206C39.6227 178.011 51.0133 198.478 68.2392 213.048C75.8654 219.498 84.4078 224.948 93.682 228.702C130.966 243.797 177.635 237.917 215.801 229.538C249.281 222.187 282.055 211.494 313.224 197.196C342.376 183.824 371.982 167.917 389.256 139.722C410.292 105.387 404.332 54.755 363.453 38.6072C332.751 26.4794 303.645 42.7661 279.232 60.5325C274.624 63.8871 269.992 67.502 264.49 68.9934C250.03 72.9135 232.148 51.4077 221.157 43.9623C205.119 33.1002 187.636 24.4123 168.555 20.5081C157.501 18.2471 146.106 17.4096 134.815 18.0403Z" fill="#1059E7"/>
</g>
<path d="M107.222 234.855C98.7646 226.628 92.5743 216.458 89.6191 205.035C92.143 204.72 94.1943 206.617 96.0399 208.368C102.494 214.49 108.594 220.985 114.298 227.811C103.68 211.825 101.101 192.149 99.0683 173.065C104.757 174.927 108.778 181.012 111.788 186.186C118.427 197.6 125 209.283 128.133 222.11C124.743 200.834 128.354 180.736 138.015 161.479C147.76 179.778 153.966 201.851 152.258 222.512C154.284 206 162.212 189.916 174.437 178.634C177.505 193.076 175.431 210.065 167.526 222.534C171.521 211.609 179.932 203.26 190.824 199.178C191.823 210.522 188.692 226.513 180.939 234.855H107.222Z" fill="#EAF2FC"/>
<path d="M256.588 234.373H334.169C349.206 224.419 361.218 210.443 368.22 193.825C352.467 195.867 336.027 204.632 327.57 218.081C329.702 213.777 332.116 210.036 334.248 205.733C341.075 191.955 348.07 177.43 347.454 162.066C337.919 166.748 330.349 174.882 324.157 183.514C317.669 192.555 311.953 202.15 307.087 212.158C308.668 194.516 309.588 176.845 309.259 159.135C309.147 153.106 308.907 146.976 306.978 141.262C291.645 161.079 282.858 186.196 282.092 211.24C283.547 188.114 279.239 165.583 269.292 144.654C266.037 150.28 262.72 157.026 259.988 162.924C249.892 184.725 250.908 211.029 256.588 234.373Z" fill="#EAF2FC"/>
<path d="M182.969 226.77H232.662V191.127H182.969V226.77Z" fill="#1B3D9E"/>
<path d="M297.766 201.639H117.861C114.269 201.639 111.356 198.727 111.356 195.134V83.0248C111.356 79.4331 114.269 76.5197 117.861 76.5197H297.766C301.359 76.5197 304.271 79.4331 304.271 83.0248V195.134C304.271 198.727 301.359 201.639 297.766 201.639Z" fill="#6880E4"/>
<path d="M292.339 191.125H123.288C120.508 191.125 118.255 188.871 118.255 186.091V87.3354C118.255 84.5551 120.508 82.3014 123.288 82.3014H292.339C295.119 82.3014 297.372 84.5551 297.372 87.3354V186.091C297.372 188.871 295.119 191.125 292.339 191.125Z" fill="#D4DFFF"/>
<path d="M261.736 234.855H153.892C153.35 234.855 152.91 234.416 152.91 233.873V227.751C152.91 227.209 153.35 226.769 153.892 226.769H261.736C262.278 226.769 262.718 227.209 262.718 227.751V233.873C262.718 234.416 262.278 234.855 261.736 234.855Z" fill="#6880E4"/>
<path d="M290.971 185.637H190.566C189.81 185.637 189.196 185.023 189.196 184.267V164.455C189.196 163.697 189.81 163.084 190.566 163.084H290.971C291.729 163.084 292.342 163.697 292.342 164.455V184.267C292.342 185.023 291.729 185.637 290.971 185.637Z" fill="white"/>
<path d="M279.15 109.73H265.088C265.81 108.148 267.645 107.297 269.267 107.93C269.296 106.351 270.816 104.961 272.391 105.073C273.966 105.185 275.274 106.777 275.08 108.343C275.911 107.791 276.996 107.571 277.934 107.915C278.871 108.261 279.247 108.737 279.15 109.73Z" fill="white"/>
<path d="M222.275 105.066H199.654C200.822 104.093 201.765 103.442 203.272 103.63C204.222 101.219 206.243 98.8665 208.833 98.8969C211.098 98.9244 213.1 101.112 212.927 103.371C213.268 102.847 213.957 102.578 214.561 102.733C215.167 102.888 215.643 103.454 215.692 104.076C216.677 103.623 217.704 103.16 218.789 103.164C219.875 103.169 221.997 104.018 222.275 105.066Z" fill="white"/>
<path d="M287.662 168.123H246.833C246.611 168.123 246.434 167.944 246.434 167.724V166.137C246.434 165.917 246.611 165.738 246.833 165.738H287.662C287.882 165.738 288.062 165.917 288.062 166.137V167.724C288.062 167.944 287.882 168.123 287.662 168.123Z" fill="#EAF2FC"/>
<path d="M287.662 171.984H246.833C246.611 171.984 246.434 171.806 246.434 171.585V169.998C246.434 169.778 246.611 169.6 246.833 169.6H287.662C287.882 169.6 288.062 169.778 288.062 169.998V171.585C288.062 171.806 287.882 171.984 287.662 171.984Z" fill="#EAF2FC"/>
<path d="M287.662 175.844H246.833C246.611 175.844 246.434 175.666 246.434 175.446V173.859C246.434 173.638 246.611 173.46 246.833 173.46H287.662C287.882 173.46 288.062 173.638 288.062 173.859V175.446C288.062 175.666 287.882 175.844 287.662 175.844Z" fill="#EAF2FC"/>
<path d="M287.662 179.707H246.833C246.611 179.707 246.434 179.528 246.434 179.308V177.721C246.434 177.501 246.611 177.322 246.833 177.322H287.662C287.882 177.322 288.062 177.501 288.062 177.721V179.308C288.062 179.528 287.882 179.707 287.662 179.707Z" fill="#EAF2FC"/>
<path d="M266.966 183.566H246.716C246.559 183.566 246.434 183.441 246.434 183.284V181.463C246.434 181.308 246.559 181.183 246.716 181.183H266.966C267.122 181.183 267.248 181.308 267.248 181.463V183.284C267.248 183.441 267.122 183.566 266.966 183.566Z" fill="#EAF2FC"/>
<path d="M200.675 171.547L201.424 173.066C201.463 173.145 201.54 173.2 201.628 173.213L203.303 173.456C203.524 173.49 203.613 173.762 203.453 173.918L202.24 175.1C202.176 175.162 202.147 175.25 202.163 175.338L202.45 177.008C202.487 177.228 202.256 177.397 202.058 177.293L200.558 176.504C200.48 176.462 200.386 176.462 200.307 176.504L198.808 177.293C198.611 177.397 198.379 177.228 198.417 177.008L198.703 175.338C198.718 175.25 198.689 175.162 198.625 175.1L197.413 173.918C197.253 173.762 197.341 173.49 197.562 173.456L199.239 173.213C199.325 173.2 199.402 173.145 199.441 173.066L200.19 171.547C200.29 171.346 200.576 171.346 200.675 171.547Z" fill="#6880E4"/>
<path d="M209.532 171.547L210.281 173.066C210.32 173.145 210.397 173.2 210.483 173.213L212.16 173.456C212.381 173.49 212.469 173.762 212.309 173.918L211.097 175.1C211.033 175.162 211.004 175.25 211.019 175.338L211.305 177.008C211.343 177.228 211.111 177.397 210.914 177.293L209.415 176.504C209.336 176.462 209.242 176.462 209.164 176.504L207.664 177.293C207.466 177.397 207.235 177.228 207.272 177.008L207.559 175.338C207.575 175.25 207.546 175.162 207.482 175.1L206.269 173.918C206.109 173.762 206.198 173.49 206.419 173.456L208.094 173.213C208.182 173.2 208.259 173.145 208.298 173.066L209.047 171.547C209.147 171.346 209.432 171.346 209.532 171.547Z" fill="#6880E4"/>
<path d="M218.387 171.547L219.137 173.066C219.177 173.145 219.252 173.2 219.34 173.213L221.016 173.456C221.238 173.49 221.326 173.762 221.165 173.918L219.953 175.1C219.89 175.162 219.861 175.25 219.875 175.338L220.162 177.008C220.199 177.228 219.968 177.397 219.77 177.293L218.271 176.504C218.193 176.462 218.099 176.462 218.019 176.504L216.521 177.293C216.323 177.397 216.091 177.228 216.129 177.008L216.415 175.338C216.431 175.25 216.401 175.162 216.337 175.1L215.125 173.918C214.965 173.762 215.053 173.49 215.274 173.456L216.95 173.213C217.039 173.2 217.114 173.145 217.154 173.066L217.904 171.547C218.002 171.346 218.288 171.346 218.387 171.547Z" fill="#6880E4"/>
<path d="M227.243 171.547L227.992 173.066C228.032 173.145 228.108 173.2 228.196 173.213L229.871 173.456C230.093 173.49 230.182 173.762 230.022 173.918L228.808 175.1C228.745 175.162 228.716 175.25 228.732 175.338L229.018 177.008C229.056 177.228 228.824 177.397 228.626 177.293L227.127 176.504C227.048 176.462 226.954 176.462 226.876 176.504L225.377 177.293C225.179 177.397 224.948 177.228 224.985 177.008L225.272 175.338C225.286 175.25 225.257 175.162 225.194 175.1L223.982 173.918C223.821 173.762 223.909 173.49 224.131 173.456L225.807 173.213C225.895 173.2 225.97 173.145 226.009 173.066L226.76 171.547C226.858 171.346 227.145 171.346 227.243 171.547Z" fill="#6880E4"/>
<path d="M236.099 171.547L236.848 173.066C236.887 173.145 236.964 173.2 237.051 173.213L238.727 173.456C238.949 173.49 239.037 173.762 238.878 173.918L237.664 175.1C237.6 175.162 237.572 175.25 237.586 175.338L237.872 177.008C237.911 177.228 237.68 177.397 237.482 177.293L235.982 176.504C235.904 176.462 235.81 176.462 235.732 176.504L234.232 177.293C234.034 177.397 233.802 177.228 233.841 177.008L234.128 175.338C234.142 175.25 234.113 175.162 234.049 175.1L232.836 173.918C232.677 173.762 232.765 173.49 232.986 173.456L234.663 173.213C234.75 173.2 234.826 173.145 234.865 173.066L235.615 171.547C235.714 171.346 235.999 171.346 236.099 171.547Z" fill="#D4DFFF"/>
<path d="M209.21 158.9H193.496C193.568 157.766 194.633 156.897 195.768 156.961C195.249 155.55 196.483 153.907 197.973 153.704C199.463 153.503 200.936 154.474 201.684 155.777C201.608 154.84 202.843 154.096 203.636 154.604C202.363 153.435 202.541 151.14 203.861 150.024C205.182 148.911 207.295 149.013 208.647 150.089L209.21 158.9Z" fill="#6880E4"/>
<path d="M272.269 152.626C273.241 151.418 275.024 150.944 276.467 151.511C276.719 151.609 276.967 151.742 277.133 151.955C277.308 152.179 277.374 152.47 277.416 152.75C277.526 153.476 277.507 154.223 277.361 154.942C277.83 154.22 278.925 154.085 279.657 154.54C280.387 154.994 280.758 155.894 280.752 156.754C281.329 155.857 282.658 155.63 283.591 156.147C284.524 156.662 285.035 157.771 285.009 158.836H270.811C270.877 156.785 270.983 154.226 272.269 152.626Z" fill="#6880E4"/>
<path d="M255.921 111.932L235.198 130.65H276.278L255.921 111.932Z" fill="white"/>
<path d="M255.921 111.932H225.817L205.03 130.65H235.198L255.921 111.932Z" fill="#6880E4"/>
<path d="M251.196 130.651H235.198V158.873H273.624V130.651H251.196Z" fill="white"/>
<path d="M235.198 130.649V158.871H206.417V130.649H235.198Z" fill="#EAF2FC"/>
<path d="M255.739 137.26C255.513 137.26 255.294 137.275 255.075 137.299C257.993 137.629 260.262 140.104 260.262 143.111V158.873H261.588V143.111C261.588 139.88 258.97 137.26 255.739 137.26Z" fill="#6880E4"/>
<path d="M255.075 137.297C252.156 137.627 249.888 140.102 249.888 143.11V158.871H260.261V143.11C260.261 140.102 257.992 137.627 255.075 137.297Z" fill="#D4DFFF"/>
<path d="M215.097 140.461C215 140.452 214.903 140.446 214.804 140.446C213.121 140.446 211.757 141.812 211.757 143.495V148.809H212.34V143.495C212.34 141.91 213.55 140.608 215.097 140.461Z" fill="#6880E4"/>
<path d="M215.097 140.461C213.55 140.608 212.34 141.91 212.34 143.495V148.809H217.852V143.495C217.852 141.91 216.643 140.608 215.097 140.461Z" fill="#D4DFFF"/>
<path d="M225.571 140.461C225.474 140.452 225.377 140.446 225.279 140.446C223.595 140.446 222.231 141.812 222.231 143.495V148.809H222.814V143.495C222.814 141.91 224.025 140.608 225.571 140.461Z" fill="#6880E4"/>
<path d="M225.571 140.461C224.025 140.608 222.814 141.91 222.814 143.495V148.809H228.327V143.495C228.327 141.91 227.118 140.608 225.571 140.461Z" fill="#D4DFFF"/>
<path d="M273.624 130.65L254.411 113.298L255.921 111.932L276.278 130.65H273.624Z" fill="#EAF2FC"/>
<path d="M258.912 148.837C258.912 149.247 258.581 149.578 258.171 149.578C257.762 149.578 257.431 149.247 257.431 148.837C257.431 148.428 257.762 148.097 258.171 148.097C258.581 148.097 258.912 148.428 258.912 148.837Z" fill="#6880E4"/>
<path d="M212.165 155.125H209.938V154.15H212.165V155.125Z" fill="white"/>
<path d="M214.957 155.125H212.729V154.15H214.957V155.125Z" fill="white"/>
<path d="M221.922 151.244H219.694V150.271H221.922V151.244Z" fill="white"/>
<path d="M231.589 137.299H229.361V136.324H231.589V137.299Z" fill="white"/>
<path d="M241.682 151.73H239.454V150.755H241.682V151.73Z" fill="#EAF2FC"/>
<path d="M244.352 151.73H242.124V150.755H244.352V151.73Z" fill="#EAF2FC"/>
<path d="M239.161 156.324H236.934V155.349H239.161V156.324Z" fill="#EAF2FC"/>
<path d="M246.932 139.814H244.706V138.841H246.932V139.814Z" fill="#EAF2FC"/>
<path d="M238.956 144.365H236.729V143.392H238.956V144.365Z" fill="#EAF2FC"/>
<path d="M236.312 144.365H235.198V143.392H236.312V144.365Z" fill="#EAF2FC"/>
<path d="M269.035 136.324H266.809V135.351H269.035V136.324Z" fill="#EAF2FC"/>
<path d="M271.708 136.324H269.48V135.351H271.708V136.324Z" fill="#EAF2FC"/>
<path d="M265.647 148.584H263.421V147.61H265.647V148.584Z" fill="#EAF2FC"/>
<path d="M268.361 145.734H266.134V144.761H268.361V145.734Z" fill="#EAF2FC"/>
<path d="M255.525 130.135H253.298V129.161H255.525V130.135Z" fill="#EAF2FC"/>
<path d="M244.352 130.135H242.124V129.161H244.352V130.135Z" fill="#EAF2FC"/>
<path d="M247.4 130.135H245.173V129.161H247.4V130.135Z" fill="#EAF2FC"/>
<path d="M264.535 126.688H262.308V125.714H264.535V126.688Z" fill="#EAF2FC"/>
<path d="M251.386 123.799H249.16V122.825H251.386V123.799Z" fill="#EAF2FC"/>
<path d="M271.073 148.521H268.846V147.548H271.073V148.521Z" fill="#EAF2FC"/>
<path d="M272.186 149.812H269.959V148.838H272.186V149.812Z" fill="#EAF2FC"/>
<path d="M265.088 155.006H262.86V154.031H265.088V155.006Z" fill="#EAF2FC"/>
<path d="M249.159 151.73H246.932V150.755H249.159V151.73Z" fill="#EAF2FC"/>
<path d="M232.704 155.125H230.477V154.15H232.704V155.125Z" fill="white"/>
<path d="M232.704 153.459H230.477V152.484H232.704V153.459Z" fill="white"/>
<path d="M229.901 155.125H227.675V154.15H229.901V155.125Z" fill="white"/>
<path d="M228.788 137.299H226.561V136.324H228.788V137.299Z" fill="white"/>
<path d="M218.145 134.707H215.918V133.734H218.145V134.707Z" fill="white"/>
<path d="M213.127 137.299H210.901V136.324H213.127V137.299Z" fill="white"/>
<path d="M226.128 137.299H223.9V136.324H226.128V137.299Z" fill="white"/>
<path d="M210.404 137.299H208.177V136.324H210.404V137.299Z" fill="white"/>
<path d="M190.451 95.4403C189.875 95.4403 189.408 95.909 189.408 96.4847V157.617C189.408 158.193 189.875 158.662 190.451 158.662H291.087C291.663 158.662 292.131 158.193 292.131 157.617V96.4847C292.131 95.909 291.663 95.4403 291.087 95.4403H190.451ZM291.087 159.084H190.451C189.642 159.084 188.985 158.426 188.985 157.617V96.4847C188.985 95.6761 189.642 95.0179 190.451 95.0179H291.087C291.895 95.0179 292.554 95.6761 292.554 96.4847V157.617C292.554 158.426 291.895 159.084 291.087 159.084Z" fill="white"/>
<path d="M197.347 140.543H155.454C154.705 140.543 154.099 139.937 154.099 139.189V114.915C154.099 114.167 154.705 113.559 155.454 113.559H197.347C198.096 113.559 198.702 114.167 198.702 114.915V139.189C198.702 139.937 198.096 140.543 197.347 140.543Z" fill="white"/>
<path d="M171.549 127.363H156.202C156.065 127.363 155.955 127.253 155.955 127.117V116.265C155.955 116.129 156.065 116.019 156.202 116.019H171.549C171.685 116.019 171.795 116.129 171.795 116.265V127.117C171.795 127.253 171.685 127.363 171.549 127.363Z" fill="#EAF2FC"/>
<mask id="mask0_3426_135087" style="mask-type:luminance" maskUnits="userSpaceOnUse" x="155" y="116" width="17" height="12">
<path d="M171.549 127.363H156.202C156.065 127.363 155.955 127.253 155.955 127.117V116.265C155.955 116.129 156.065 116.019 156.202 116.019H171.549C171.685 116.019 171.795 116.129 171.795 116.265V127.117C171.795 127.253 171.685 127.363 171.549 127.363Z" fill="white"/>
</mask>
<g mask="url(#mask0_3426_135087)">
<path d="M154.958 126.534L160.848 120.871C161.121 120.608 161.557 120.615 161.823 120.887L166.586 125.769L169.065 123.657C169.333 123.43 169.727 123.438 169.985 123.677L172.701 126.206V128.227H154.958V126.534Z" fill="#D4DFFF"/>
<path d="M167.513 120.505C167.513 121.161 166.981 121.691 166.326 121.691C165.67 121.691 165.14 121.161 165.14 120.505C165.14 119.85 165.67 119.318 166.326 119.318C166.981 119.318 167.513 119.85 167.513 120.505Z" fill="#D4DFFF"/>
</g>
<path d="M196.545 117.688H174.045C173.954 117.688 173.88 117.614 173.88 117.523V116.185C173.88 116.093 173.954 116.02 174.045 116.02H196.545C196.636 116.02 196.71 116.093 196.71 116.185V117.523C196.71 117.614 196.636 117.688 196.545 117.688Z" fill="#EAF2FC"/>
<path d="M196.545 120.912H174.045C173.954 120.912 173.88 120.838 173.88 120.747V119.409C173.88 119.318 173.954 119.244 174.045 119.244H196.545C196.636 119.244 196.71 119.318 196.71 119.409V120.747C196.71 120.838 196.636 120.912 196.545 120.912Z" fill="#EAF2FC"/>
<path d="M196.545 124.137H174.045C173.954 124.137 173.88 124.063 173.88 123.972V122.634C173.88 122.543 173.954 122.469 174.045 122.469H196.545C196.636 122.469 196.71 122.543 196.71 122.634V123.972C196.71 124.063 196.636 124.137 196.545 124.137Z" fill="#EAF2FC"/>
<path d="M196.545 127.363H174.045C173.954 127.363 173.88 127.289 173.88 127.2V125.862C173.88 125.771 173.954 125.697 174.045 125.697H196.545C196.636 125.697 196.71 125.771 196.71 125.862V127.2C196.71 127.289 196.636 127.363 196.545 127.363Z" fill="#EAF2FC"/>
<path d="M196.5 130.131H156.168C156.051 130.131 155.955 130.037 155.955 129.92V128.799C155.955 128.681 156.051 128.586 156.168 128.586H196.5C196.617 128.586 196.711 128.681 196.711 128.799V129.92C196.711 130.037 196.617 130.131 196.5 130.131Z" fill="#EAF2FC"/>
<path d="M196.5 132.912H156.168C156.051 132.912 155.955 132.817 155.955 132.699V131.578C155.955 131.461 156.051 131.367 156.168 131.367H196.5C196.617 131.367 196.711 131.461 196.711 131.578V132.699C196.711 132.817 196.617 132.912 196.5 132.912Z" fill="#EAF2FC"/>
<path d="M196.5 135.695H156.168C156.051 135.695 155.955 135.6 155.955 135.483V134.362C155.955 134.244 156.051 134.15 156.168 134.15H196.5C196.617 134.15 196.711 134.244 196.711 134.362V135.483C196.711 135.6 196.617 135.695 196.5 135.695Z" fill="#EAF2FC"/>
<path d="M181.988 138.477H156.126C156.032 138.477 155.955 138.4 155.955 138.307V137.102C155.955 137.008 156.032 136.932 156.126 136.932H181.988C182.082 136.932 182.157 137.008 182.157 137.102V138.307C182.157 138.4 182.082 138.477 181.988 138.477Z" fill="#EAF2FC"/>
<path d="M54.9927 176.794C54.2756 176.156 57.6971 170.975 57.8106 170.489C57.9242 170.003 51.7627 175.989 51.5184 175.06C51.2742 174.131 56.2692 169.405 56.4089 169.002C56.5486 168.597 51.4572 171.707 51.2362 171.131C51.0153 170.554 57.2595 165.391 57.5338 164.866C57.8082 164.342 53.0637 165.356 52.9245 164.878C52.4975 163.409 61.3293 161.224 61.3293 161.224L61.1242 161.51C62.2738 159.867 64.5535 157.325 64.5535 157.325C64.5535 157.325 69.6957 161.235 69.9907 161.58C70.208 161.833 67.3932 163.955 65.6468 165.128V165.129C65.2496 167.347 62.4782 169.332 62.1813 169.75C61.8845 170.169 60.8597 176.904 60.2569 176.849C59.4656 176.778 60.4289 170.999 59.7413 171.387C59.2167 171.684 55.3899 177.147 54.9927 176.794Z" fill="#FE8E9C"/>
<path d="M57.5332 164.867C57.5332 164.867 59.0545 166.316 59.9242 166.419C60.7938 166.521 63.5433 165.301 63.5433 165.301C63.5433 165.301 60.9506 167.146 60.0073 166.906C59.064 166.666 57.3184 165.12 57.3184 165.12L57.5332 164.867Z" fill="#E57492"/>
<path d="M174.649 191.125C174.649 188.3 146.829 148.385 146.829 148.385C146.478 147.643 146.083 147.055 145.639 146.652L119.456 148.045C119.456 148.045 114.024 160.163 118.481 170.61C122.938 181.056 123.216 191.125 123.216 191.125H148.818C148.818 191.125 148.896 190.056 148.998 188.246C150.676 189.994 151.796 191.125 151.796 191.125H174.649Z" fill="#1B3D9E"/>
<mask id="mask1_3426_135087" style="mask-type:luminance" maskUnits="userSpaceOnUse" x="116" y="146" width="59" height="46">
<path d="M174.649 191.125C174.649 188.3 146.829 148.385 146.829 148.385C146.478 147.643 146.083 147.055 145.639 146.652L119.456 148.045C119.456 148.045 114.024 160.163 118.481 170.61C122.938 181.056 123.216 191.125 123.216 191.125H148.818C148.818 191.125 148.896 190.056 148.998 188.246C150.676 189.994 151.796 191.125 151.796 191.125H174.649Z" fill="white"/>
</mask>
<g mask="url(#mask1_3426_135087)">
<path d="M125.128 155.829C125.128 155.829 125.114 165.575 120.627 168.889L121.331 169.912C121.331 169.912 127.218 166.731 126.577 155.761L125.128 155.829Z" fill="#1C056D"/>
<path d="M138.52 191.268H138.518C138.438 191.266 138.374 191.201 138.376 191.121C138.636 175.304 132.073 152.746 132.007 152.52C131.984 152.444 132.028 152.364 132.105 152.341C132.181 152.318 132.262 152.363 132.284 152.439C132.351 152.665 138.926 175.264 138.665 191.126C138.664 191.205 138.599 191.268 138.52 191.268Z" fill="#1C056D"/>
<path d="M166.913 193.027C166.86 193.027 166.808 192.998 166.783 192.946C161.303 181.723 143.706 151.072 143.528 150.764C143.489 150.694 143.512 150.606 143.581 150.565C143.651 150.526 143.739 150.55 143.779 150.619C143.956 150.927 161.557 181.587 167.044 192.819C167.078 192.891 167.048 192.978 166.977 193.013C166.957 193.023 166.935 193.027 166.913 193.027Z" fill="#1C056D"/>
</g>
<path d="M148.998 188.246C148.998 188.246 145.687 170.302 144.553 161.281L155.955 191.125H151.796L148.998 188.246Z" fill="#1C056D"/>
<path d="M211.365 70.9521C210.843 70.1464 205.202 72.7386 204.704 72.7777C204.206 72.8153 211.06 67.6366 210.179 67.2533C209.299 66.8714 203.868 71.0881 203.447 71.1648C203.026 71.2414 206.875 66.6834 206.339 66.3767C205.803 66.07 199.749 71.457 199.189 71.6479C198.629 71.8389 200.355 67.3039 199.902 67.0927C198.516 66.4476 195.012 74.8448 195.012 74.8448L195.327 74.6857C193.528 75.5724 190.668 77.4384 190.668 77.4384C190.668 77.4384 193.75 83.1161 194.045 83.4604C194.262 83.7136 196.788 81.2544 198.214 79.7066C200.466 79.6517 202.85 77.2142 203.308 76.9842C203.767 76.7557 210.579 76.7672 210.617 76.164C210.668 75.3713 204.81 75.4436 205.299 74.8231C205.67 74.3486 211.653 71.3991 211.365 70.9521Z" fill="#FE8E9C"/>
<path d="M199.189 71.6482C199.189 71.6482 200.391 73.3725 200.359 74.2477C200.327 75.1228 198.703 77.6543 198.703 77.6543C198.703 77.6543 200.922 75.3731 200.828 74.4039C200.734 73.4347 199.471 71.4747 199.471 71.4747L199.189 71.6482Z" fill="#E57492"/>
<path d="M118.234 87.1937C118.234 87.1937 102.763 100.761 103.693 109.495C104.622 118.231 117.564 145.929 118.955 150.087C120.01 153.239 143.216 154.285 146.311 148.524C149.408 142.763 146.619 104.107 142.532 97.7868C138.443 91.4683 130.076 89.4258 130.076 89.4258L118.234 87.1937Z" fill="#1B3D9E"/>
<path d="M124.568 87.1922C125.019 87.5278 157.762 90.1388 160.335 89.3707C162.909 88.6026 189.744 70.771 191.215 71.8733C192.686 72.977 198.567 83.3154 198.2 85.0397C197.833 86.764 169.893 105.698 165.666 105.882C161.438 106.065 140.024 107.353 138.278 106.616C136.532 105.882 124.568 87.1922 124.568 87.1922Z" fill="#1B3D9E"/>
<mask id="mask2_3426_135087" style="mask-type:luminance" maskUnits="userSpaceOnUse" x="124" y="71" width="75" height="36">
<path d="M124.568 87.1922C125.019 87.5278 157.762 90.1388 160.335 89.3707C162.909 88.6026 189.744 70.771 191.215 71.8733C192.686 72.977 198.567 83.3154 198.2 85.0397C197.833 86.764 169.893 105.698 165.666 105.882C161.438 106.065 140.024 107.353 138.278 106.616C136.532 105.882 124.568 87.1922 124.568 87.1922Z" fill="white"/>
</mask>
<g mask="url(#mask2_3426_135087)">
<path d="M162.863 90.8281C160.511 90.8281 139.876 89.9804 139.668 89.9718C139.588 89.9689 139.526 89.9023 139.529 89.8213C139.533 89.7418 139.601 89.681 139.68 89.6839C139.888 89.6911 160.517 90.5388 162.863 90.5388C164.71 90.5388 183.576 78.9911 193.295 72.8852C193.363 72.8418 193.452 72.862 193.494 72.93C193.536 72.998 193.516 73.0877 193.449 73.1296C192.298 73.8529 165.254 90.8281 162.863 90.8281Z" fill="#1C056D"/>
</g>
<path d="M116.124 61.0578C117.197 59.0384 122.069 56.0166 126.505 55.8806C129.005 55.804 131.295 57.2809 132.336 59.5548C134.694 64.7045 139.819 76.9495 136.23 78.9588C134.631 79.8528 132.528 79.8875 130.408 79.4665C130.737 82.8428 130.818 90.6758 130.756 91.739C130.668 93.2333 120.245 90.5268 118.31 89.1193C116.376 87.7133 121.567 75.0242 121.567 75.0242C120.163 72.9976 114.632 63.867 116.124 61.0578Z" fill="#FE8E9C"/>
<mask id="mask3_3426_135087" style="mask-type:luminance" maskUnits="userSpaceOnUse" x="115" y="55" width="23" height="38">
<path d="M116.124 61.0578C117.197 59.0384 122.069 56.0166 126.505 55.8806C129.005 55.804 131.295 57.2809 132.336 59.5548C134.694 64.7045 139.819 76.9495 136.23 78.9588C134.631 79.8528 132.528 79.8875 130.408 79.4665C130.737 82.8428 130.818 90.6758 130.756 91.739C130.668 93.2333 120.245 90.5268 118.31 89.1193C116.376 87.7133 121.567 75.0242 121.567 75.0242C120.163 72.999 114.632 63.867 116.124 61.0578Z" fill="white"/>
</mask>
<g mask="url(#mask3_3426_135087)">
<path d="M133.755 60.3477C133.755 60.3477 130.702 61.8897 128.273 61.1028C128.273 61.1028 124.866 63.6501 120.495 62.354C120.495 62.354 122.316 66.6416 121.668 67.6469C121.668 67.6469 118.23 61.1679 118.69 60.6095C119.149 60.0526 130.873 56.9005 131.543 57.0654C132.212 57.2289 133.755 60.3477 133.755 60.3477Z" fill="#E57492"/>
</g>
<path d="M134.472 71.826C134.472 71.826 131.778 73.3217 128.585 71.826C128.585 71.826 130.401 74.3126 132.343 74.1868C134.904 74.0204 134.472 71.826 134.472 71.826Z" fill="white"/>
<path d="M128.824 62.4196C128.824 62.4196 134.984 67.4912 134.135 68.4068C133.286 69.3211 129.688 68.618 129.688 68.618C129.833 69.0549 130.22 69.363 130.677 69.4079C132.001 69.5366 134.544 69.6841 134.809 68.5877C135.276 66.6623 128.824 62.4196 128.824 62.4196Z" fill="#E57492"/>
<path d="M130.408 79.4669C130.408 79.4669 127.891 78.7146 126.256 77.433C126.256 77.433 126.927 82.5813 130.652 83.7559L130.408 79.4669Z" fill="#E57492"/>
<path d="M131.576 52.0951C132.2 51.9895 132.753 51.829 133.13 51.5932C135.022 50.4114 127.835 48.1895 120.79 51.1679C116.513 52.9761 111.454 58.3674 113.421 60.2262C111.846 61.6742 110.391 66.3942 112.982 69.2324C115.88 72.4046 120.995 75.0865 121.567 75.0243C122.139 74.9621 121.684 70.3853 121.684 70.3853C117.517 70.6746 118.256 66.3002 118.88 66.1556C119.505 66.0109 121.428 68.2227 121.668 67.6455C121.853 67.2029 120.343 63.3464 119.628 61.5671C120.811 62.0141 123.142 62.4886 126.256 61.1447C127.895 60.4388 128.164 59.9774 127.832 59.6765C128.993 59.5796 130.495 59.2223 132.374 58.3558C135.169 57.0669 133.897 56.4782 132.001 56.2106C133.215 56.037 134.662 55.6537 136.298 54.9043C139.78 53.3059 135.451 52.4438 131.576 52.0951Z" fill="#1B3D9E"/>
<path d="M106.121 101.38C106.121 101.38 87.928 126.682 86.2225 128.104C84.5169 129.526 59.7859 152.837 60.6387 154.827C61.4915 156.816 70.0091 166.003 74.087 165.098C78.1649 164.191 98.0769 143.346 99.1085 142.213C100.14 141.081 116.699 119.051 117.506 116.106C118.312 113.159 110.742 102.689 106.121 101.38Z" fill="#1B3D9E"/>
<mask id="mask4_3426_135087" style="mask-type:luminance" maskUnits="userSpaceOnUse" x="60" y="101" width="58" height="65">
<path d="M106.121 101.38C106.121 101.38 87.928 126.682 86.2225 128.104C84.5169 129.526 59.7859 152.837 60.6387 154.826C61.4915 156.816 70.009 166.003 74.087 165.098C78.1649 164.191 98.0769 143.346 99.1085 142.213C100.14 141.081 116.699 119.051 117.506 116.105C118.312 113.159 110.742 102.689 106.121 101.38Z" fill="white"/>
</mask>
<g mask="url(#mask4_3426_135087)">
<path d="M61.8741 159.018C61.8364 159.018 61.7986 159.003 61.7703 158.974C61.7146 158.916 61.7162 158.824 61.7735 158.769C62.0304 158.52 87.4728 133.848 88.9669 131.295C90.4722 128.723 107.209 102.174 107.378 101.905C107.421 101.839 107.51 101.817 107.578 101.86C107.645 101.902 107.666 101.992 107.623 102.06C107.454 102.327 90.7194 128.873 89.2167 131.441C87.7026 134.029 63.0246 157.959 61.9748 158.977C61.9467 159.005 61.9104 159.018 61.8741 159.018Z" fill="#1C056D"/>
</g>
<path d="M109.721 127.998L117.505 116.106C117.505 116.106 116.758 132.766 112.144 133.893L109.721 127.998Z" fill="#1C056D"/>
<path d="M145.147 106.795C145.147 106.795 144.129 99.664 142.532 97.7849C142.532 97.7849 160.066 105.712 165.666 105.881C165.666 105.881 148.866 107.342 145.147 106.795Z" fill="#1C056D"/>
<path d="M130.756 91.741C130.756 91.741 131.679 100.053 128.825 99.2501C125.971 98.4472 115.635 93.6433 117.564 87.8007L130.756 91.741Z" fill="white"/>
<path d="M130.756 91.7393C130.756 91.7393 134.817 95.4772 136.014 94.9029C137.211 94.3286 133.91 88.1114 133.91 88.1114L130.653 87.7989L130.756 91.7393Z" fill="white"/>
<path d="M130.755 91.74C130.755 91.74 129.773 93.4947 130.45 94.5102C131.128 95.5271 132.531 96.0594 132.966 95.7686C133.402 95.4779 134.466 94.3337 133.934 93.5511C133.402 92.7685 130.755 91.74 130.755 91.74Z" fill="#FC476A"/>
<path d="M132.341 95.184C132.341 95.184 131.253 123.967 134.221 128.505C137.188 133.043 140.875 134.744 140.875 134.744C140.875 134.744 143.852 128.93 143.143 126.094C142.434 123.259 133.458 94.9641 133.458 94.9641L132.341 95.184Z" fill="#FC476A"/>
<path d="M118.955 150.085C118.955 150.085 122.902 156.259 140.661 152.648C140.661 152.648 146.478 151.644 146.83 148.387L147.055 145.955C147.055 145.955 135.966 153.285 118.149 148.014L118.955 150.085Z" fill="white"/>
<path d="M141.783 148.304C141.783 148.304 142.694 152.122 142.158 152.275C141.622 152.428 138.954 153.279 138.568 153.04C138.181 152.801 137.575 149.409 137.754 149.146C137.934 148.883 140.932 148.371 141.783 148.304Z" fill="#FC476A"/>
<path d="M197.418 45.4816C197.418 45.4816 201.021 83.2422 201.804 83.4766H205.603C205.797 83.4766 205.95 83.3102 205.933 83.1164C205.577 79.202 202.427 44.699 201.692 44.5978C200.913 44.4907 197.418 45.4816 197.418 45.4816Z" fill="#1B3D9E"/>
<mask id="mask5_3426_135087" style="mask-type:luminance" maskUnits="userSpaceOnUse" x="197" y="44" width="9" height="40">
<path d="M197.418 45.4816C197.418 45.4816 201.021 83.2422 201.804 83.4766H205.603C205.797 83.4766 205.95 83.3102 205.933 83.1164C205.577 79.202 202.427 44.699 201.692 44.5978C200.913 44.4907 197.418 45.4816 197.418 45.4816Z" fill="white"/>
</mask>
<g mask="url(#mask5_3426_135087)">
<path d="M199.767 44.5885C199.724 44.6956 199.767 73.3994 204.066 84.6708C204.828 86.6671 200.83 84.5074 200.83 84.5074C200.83 84.5074 195.704 45.4695 197.418 44.5885C199.134 43.709 199.767 44.5885 199.767 44.5885Z" fill="#1C056D"/>
</g>
<path d="M157.028 27.5411C157.028 27.5411 233.028 18.1458 235.571 18.8141C238.115 19.4809 242.397 47.4672 239.733 50.3733C238.179 52.0687 161.782 60.2648 160.379 59.6399C158.974 59.0164 153.488 30.547 157.028 27.5411Z" fill="#68A9FD"/>
<path d="M166.216 49.3984C166.125 49.4389 166.024 49.4548 165.912 49.4475C165.8 49.4388 165.694 49.4128 165.591 49.3694C165.49 49.3275 165.4 49.2711 165.322 49.2031C165.243 49.1365 165.195 49.0584 165.178 48.9716C164.793 47.1128 164.498 45.3191 164.292 43.5934C164.086 41.8662 163.916 40.1607 163.783 38.4769C163.803 38.4089 163.883 38.3467 164.02 38.2932C164.158 38.2383 164.305 38.2006 164.462 38.1775C164.616 38.1544 164.757 38.15 164.881 38.1645C165.004 38.1789 165.069 38.2122 165.076 38.2629C165.896 38.0806 166.711 37.9374 167.522 37.8332C168.334 37.7291 169.16 37.6293 169.997 37.5338C170.201 37.5671 170.363 37.6495 170.482 37.7783C170.602 37.9084 170.671 38.0488 170.69 38.2021C170.709 38.3554 170.677 38.503 170.594 38.6462C170.512 38.7894 170.372 38.895 170.173 38.9644C169.35 39.0585 168.526 39.138 167.703 39.2031C166.88 39.2668 166.064 39.3897 165.259 39.5705C165.29 39.8251 165.329 40.1 165.377 40.3936C165.425 40.6873 165.473 40.9824 165.52 41.2789C165.568 41.5769 165.614 41.8676 165.661 42.1541C165.707 42.4405 165.746 42.7081 165.776 42.9554C166.034 42.886 166.325 42.8209 166.65 42.7587C166.975 42.6965 167.307 42.6401 167.644 42.5924C167.982 42.5432 168.313 42.4969 168.642 42.452C168.969 42.4086 169.264 42.3696 169.525 42.3378C169.729 42.371 169.89 42.4549 170.01 42.588C170.13 42.7211 170.201 42.8701 170.221 43.0336C170.241 43.197 170.211 43.3547 170.129 43.5051C170.048 43.6556 169.907 43.7655 169.709 43.8335C169.447 43.8668 169.152 43.8957 168.823 43.9217C168.493 43.9463 168.156 43.9738 167.811 44.0013C167.469 44.0288 167.133 44.0635 166.805 44.1025C166.478 44.143 166.189 44.198 165.938 44.266C165.895 44.3962 165.891 44.6045 165.925 44.888C165.962 45.1716 166.012 45.4941 166.079 45.8558C166.145 46.2174 166.216 46.5949 166.29 46.9884C166.365 47.3819 166.419 47.7478 166.453 48.0834C166.487 48.419 166.489 48.7084 166.461 48.9528C166.432 49.1958 166.351 49.3448 166.216 49.3984Z" fill="white"/>
<path d="M176.653 38.0219C176.276 38.0754 175.924 38.1911 175.599 38.3676C175.273 38.5455 174.987 38.7509 174.738 38.9838C174.489 39.2182 174.284 39.467 174.12 39.7317C173.957 39.995 173.853 40.2409 173.806 40.468C173.725 40.8325 173.692 41.2332 173.705 41.6672C173.718 42.1011 173.772 42.538 173.867 42.9777C173.961 43.4175 174.099 43.8442 174.279 44.2579C174.46 44.6716 174.682 45.042 174.943 45.3674C175.205 45.6944 175.506 45.9591 175.845 46.1659C176.184 46.3713 176.562 46.4813 176.978 46.4972C177.55 46.5218 178.05 46.4104 178.478 46.1616C178.905 45.9142 179.26 45.5801 179.54 45.1606C179.822 44.7425 180.029 44.2637 180.162 43.7256C180.295 43.1875 180.353 42.6421 180.337 42.0852C180.32 41.5297 180.231 40.9873 180.069 40.4608C179.909 39.9342 179.675 39.4771 179.368 39.0894C179.061 38.7018 178.682 38.4067 178.228 38.2041C177.774 38.0016 177.249 37.9409 176.653 38.0219ZM172.344 40.2047C172.544 39.3079 172.874 38.5875 173.335 38.0421C173.796 37.4982 174.337 37.1019 174.958 36.856C175.577 36.61 176.254 36.503 176.986 36.5392C177.719 36.5739 178.455 36.7243 179.197 36.9876C179.608 37.1366 179.967 37.3767 180.273 37.708C180.58 38.0392 180.838 38.4269 181.043 38.871C181.25 39.3151 181.407 39.7982 181.516 40.3204C181.624 40.8441 181.691 41.3692 181.716 41.8986C181.74 42.4281 181.726 42.9459 181.669 43.4508C181.613 43.9571 181.522 44.4142 181.394 44.8206C181.305 45.1128 181.176 45.4152 181.008 45.7276C180.839 46.0415 180.606 46.3337 180.307 46.6071C180.007 46.8805 179.628 47.125 179.167 47.342C178.706 47.5575 178.137 47.7137 177.462 47.8121C176.728 47.9177 176.077 47.8815 175.507 47.7036C174.939 47.5271 174.446 47.2508 174.026 46.8776C173.607 46.5044 173.261 46.0531 172.989 45.5251C172.717 44.9971 172.512 44.433 172.376 43.8327C172.239 43.2323 172.169 42.6205 172.166 41.9955C172.162 41.3721 172.221 40.7747 172.344 40.2047Z" fill="white"/>
<path d="M187.742 36.865C187.353 36.7652 186.963 36.7305 186.576 36.7594C186.188 36.7884 185.831 36.8506 185.507 36.946C185.183 37.0415 184.898 37.1514 184.655 37.273C184.411 37.3959 184.238 37.4972 184.137 37.5753C184.088 38.1958 184.098 38.8106 184.166 39.424C184.234 40.0358 184.322 40.6651 184.432 41.3088C184.756 41.2394 185.1 41.1873 185.466 41.154C185.831 41.1193 186.2 41.0615 186.57 40.979C186.94 40.8965 187.302 40.7692 187.653 40.5957C188.005 40.4235 188.329 40.1588 188.625 39.8044C188.857 39.5252 188.993 39.2272 189.032 38.9119C189.069 38.5965 189.039 38.3 188.938 38.0208C188.837 37.7402 188.68 37.4957 188.471 37.2845C188.259 37.0748 188.016 36.9345 187.742 36.865ZM186.645 42.2664L186.628 42.2577L186.611 42.2491C186.488 42.2795 186.336 42.3185 186.153 42.3662C185.971 42.4154 185.783 42.4588 185.592 42.4964C185.401 42.5355 185.216 42.5572 185.035 42.5659C184.856 42.5731 184.707 42.5471 184.588 42.4878C184.648 42.8494 184.711 43.1893 184.781 43.5061C184.849 43.8229 184.915 44.1368 184.979 44.4464C185.044 44.7559 185.106 45.0698 185.167 45.3881C185.229 45.7049 185.286 46.0419 185.336 46.3978C185.352 46.6393 185.299 46.8216 185.177 46.9446C185.054 47.0661 184.91 47.1326 184.74 47.1413C184.573 47.1514 184.405 47.1022 184.24 46.9937C184.075 46.8838 183.964 46.7146 183.906 46.486C183.764 45.6383 183.625 44.8022 183.486 43.9762C183.347 43.1503 183.223 42.3228 183.113 41.494C183.003 40.6651 182.913 39.8333 182.844 38.9987C182.775 38.1655 182.731 37.3163 182.714 36.4542C182.72 36.3862 182.837 36.2908 183.065 36.1664C183.294 36.0419 183.593 35.9161 183.962 35.7902C184.331 35.663 184.75 35.5516 185.223 35.4575C185.696 35.3621 186.177 35.31 186.668 35.3013C187.159 35.2926 187.637 35.3462 188.106 35.4619C188.575 35.5776 188.994 35.7787 189.362 36.0665C189.715 36.3486 190.004 36.6712 190.229 37.0343C190.455 37.3988 190.603 37.7821 190.671 38.1828C190.739 38.585 190.717 38.9886 190.604 39.395C190.491 39.8001 190.276 40.182 189.958 40.5393C189.699 40.83 189.412 41.0788 189.103 41.2871C188.792 41.4954 188.478 41.6632 188.161 41.792C188.442 42.0306 188.703 42.2896 188.945 42.5702C189.187 42.8523 189.424 43.1344 189.66 43.4193C189.894 43.7057 190.134 43.9878 190.378 44.267C190.624 44.5476 190.891 44.8037 191.177 45.0337C191.339 45.2073 191.41 45.3881 191.39 45.579C191.368 45.77 191.294 45.9291 191.165 46.0564C191.037 46.1822 190.872 46.2603 190.672 46.2878C190.472 46.3168 190.279 46.2575 190.091 46.1114C189.746 45.8351 189.441 45.5298 189.174 45.1928C188.906 44.8558 188.644 44.5129 188.387 44.1643C188.129 43.8157 187.865 43.4772 187.591 43.1488C187.318 42.819 187.003 42.5254 186.645 42.2664Z" fill="white"/>
<path d="M204.983 36.0565C205.065 36.246 205.065 36.4109 204.983 36.5497C204.899 36.6886 204.776 36.7913 204.61 36.8564C204.445 36.9215 204.257 36.9418 204.047 36.9201C203.837 36.8984 203.651 36.8231 203.487 36.6958C203.444 36.4716 203.361 36.2474 203.237 36.0218C203.114 35.7975 202.959 35.5994 202.777 35.4301C202.593 35.2609 202.385 35.1278 202.151 35.0309C201.916 34.934 201.676 34.905 201.43 34.9426C201.089 34.9991 200.795 35.1263 200.545 35.3231C200.296 35.5198 200.113 35.7614 199.991 36.0449C199.871 36.3299 199.822 36.6409 199.841 36.9794C199.861 37.3164 199.972 37.6506 200.175 37.9804C200.25 38.1106 200.422 38.1974 200.69 38.2379C200.956 38.2784 201.274 38.3189 201.642 38.3594C202.008 38.3984 202.402 38.4548 202.826 38.5286C203.249 38.6024 203.659 38.7369 204.056 38.9308C204.454 39.126 204.812 39.4023 205.135 39.7582C205.454 40.114 205.7 40.5914 205.871 41.1917C206.007 41.6995 206.014 42.1609 205.891 42.5746C205.768 42.9883 205.557 43.3528 205.256 43.6682C204.954 43.9821 204.588 44.2425 204.154 44.4464C203.722 44.6519 203.262 44.7936 202.777 44.8717C202.291 44.9498 201.805 44.9628 201.318 44.9079C200.83 44.8529 200.385 44.7256 199.978 44.5231C199.573 44.322 199.23 44.0414 198.948 43.6812C198.668 43.3196 198.491 42.874 198.418 42.3432C198.4 42.1985 198.39 42.0567 198.389 41.9208C198.386 41.7833 198.403 41.6575 198.441 41.5418C198.478 41.426 198.541 41.3248 198.626 41.2366C198.711 41.1483 198.831 41.0832 198.989 41.0427C199.134 41.0167 199.261 41.0268 199.371 41.0731C199.479 41.1194 199.57 41.1874 199.646 41.2771C199.719 41.3682 199.773 41.4796 199.808 41.6127C199.842 41.7443 199.863 41.8875 199.867 42.0423C199.87 42.3678 199.949 42.6368 200.106 42.8509C200.26 43.0635 200.457 43.2328 200.694 43.3543C200.93 43.4773 201.192 43.5554 201.477 43.5901C201.762 43.6262 202.035 43.619 202.295 43.5727C202.556 43.5264 202.816 43.4555 203.078 43.3601C203.34 43.2646 203.571 43.1359 203.774 42.9738C203.975 42.8133 204.128 42.6151 204.232 42.3808C204.336 42.145 204.354 41.8658 204.284 41.5418C204.248 41.3696 204.176 41.1931 204.069 41.0138C203.962 40.8359 203.83 40.6724 203.671 40.5263C203.512 40.3788 203.338 40.2515 203.147 40.1415C202.956 40.0316 202.758 39.9607 202.554 39.926C202.253 39.8739 201.94 39.8276 201.617 39.7871C201.295 39.7452 200.979 39.6916 200.673 39.6265C200.364 39.56 200.071 39.4747 199.792 39.3691C199.513 39.2635 199.261 39.1203 199.035 38.9409C198.81 38.7615 198.622 38.5359 198.47 38.2625C198.318 37.9891 198.214 37.6535 198.156 37.2528C198.089 36.7667 198.124 36.3154 198.261 35.8988C198.399 35.4822 198.603 35.1177 198.875 34.8023C199.145 34.4884 199.462 34.2338 199.822 34.0371C200.182 33.8418 200.548 33.7203 200.918 33.674C201.429 33.6118 201.903 33.6205 202.342 33.6986C202.78 33.7782 203.175 33.9214 203.525 34.1297C203.876 34.338 204.176 34.6056 204.423 34.934C204.67 35.2609 204.857 35.6355 204.983 36.0565Z" fill="white"/>
<path d="M210.786 34.1203C210.68 34.1029 210.586 34.1811 210.504 34.3546C210.421 34.5268 210.349 34.7582 210.285 35.0461C210.22 35.3354 210.164 35.6638 210.113 36.0326C210.063 36.4015 210.013 36.7733 209.967 37.1479C209.921 37.524 209.879 37.8813 209.84 38.2227C209.799 38.5641 209.759 38.8563 209.714 39.0979C210.028 39.0661 210.319 39.0386 210.586 39.0125C210.852 38.9865 211.116 38.9633 211.375 38.9431C211.635 38.9214 211.898 38.8997 212.166 38.878C212.432 38.8563 212.72 38.8303 213.026 38.7999C212.798 38.392 212.6 37.9927 212.429 37.6036C212.26 37.2145 212.093 36.8268 211.931 36.4406C211.769 36.0543 211.597 35.6681 211.418 35.2833C211.237 34.9 211.026 34.5123 210.786 34.1203ZM207.709 43.5142C207.802 43.1916 207.879 42.7924 207.938 42.3164C207.997 41.8391 208.052 41.3169 208.1 40.7498C208.148 40.1813 208.201 39.5882 208.258 38.9662C208.314 38.3471 208.38 37.7338 208.457 37.1291C208.534 36.5245 208.631 35.9473 208.748 35.3976C208.865 34.8465 209.011 34.3575 209.188 33.9294C209.364 33.5012 209.577 33.1511 209.824 32.8806C210.071 32.6101 210.366 32.4539 210.708 32.4105C210.904 32.3874 211.114 32.4814 211.337 32.694C211.558 32.9067 211.787 33.2003 212.021 33.5735C212.255 33.9482 212.498 34.385 212.749 34.887C212.999 35.3889 213.251 35.9155 213.504 36.4681C213.757 37.0206 214.011 37.5848 214.266 38.1591C214.522 38.7333 214.772 39.2801 215.017 39.7966C215.263 40.313 215.501 40.786 215.736 41.2156C215.97 41.6452 216.195 41.991 216.412 42.2513C216.495 42.4408 216.508 42.6159 216.454 42.7735C216.399 42.9312 216.31 43.0556 216.184 43.1453C216.058 43.235 215.906 43.2769 215.728 43.2726C215.55 43.2697 215.38 43.2032 215.216 43.0759C215.008 42.8285 214.813 42.5609 214.629 42.2716C214.447 41.9852 214.285 41.7046 214.144 41.434C214.003 41.1635 213.886 40.9176 213.792 40.6963C213.699 40.475 213.632 40.3043 213.596 40.1828C213.232 40.2276 212.882 40.2681 212.546 40.3057C212.212 40.3434 211.879 40.3824 211.552 40.4229C211.224 40.4634 210.894 40.5025 210.563 40.5401C210.232 40.5762 209.879 40.6153 209.507 40.6529C209.461 40.9986 209.431 41.301 209.413 41.557C209.397 41.8145 209.381 42.0618 209.367 42.3005C209.352 42.5392 209.326 42.7866 209.292 43.0412C209.257 43.2972 209.198 43.5923 209.112 43.9279C209.002 44.1044 208.862 44.2215 208.696 44.2794C208.529 44.3373 208.372 44.343 208.221 44.2996C208.072 44.2548 207.945 44.1651 207.84 44.0306C207.734 43.8961 207.691 43.7239 207.709 43.5142Z" fill="white"/>
<path d="M216.73 32.3346C216.748 32.1249 216.829 31.9643 216.969 31.85C217.111 31.7372 217.273 31.6721 217.455 31.6576C217.639 31.6417 217.818 31.6793 217.996 31.7676C218.173 31.8573 218.303 31.9961 218.385 32.1856C218.486 33.0015 218.576 33.7884 218.654 34.5478C218.734 35.3073 218.81 36.0595 218.884 36.8088C218.958 37.5566 219.035 38.3132 219.113 39.0755C219.192 39.8378 219.279 40.6277 219.372 41.445C219.787 41.4522 220.226 41.4348 220.691 41.3929C221.155 41.3495 221.625 41.2974 222.101 41.2352C222.578 41.173 223.046 41.105 223.507 41.0341C223.967 40.9618 224.405 40.901 224.82 40.8504C225.024 40.8837 225.18 40.9589 225.292 41.0746C225.402 41.1904 225.464 41.3177 225.477 41.4565C225.49 41.5954 225.451 41.7299 225.36 41.8587C225.269 41.9888 225.124 42.0872 224.926 42.1566C224.467 42.2131 223.974 42.2883 223.446 42.3838C222.918 42.4778 222.382 42.566 221.838 42.6485C221.294 42.7295 220.757 42.7975 220.228 42.8524C219.699 42.906 219.204 42.9291 218.745 42.919C218.582 42.9754 218.416 42.958 218.245 42.864C218.074 42.77 217.954 42.5949 217.886 42.3375C217.781 41.4782 217.679 40.6349 217.585 39.8075C217.49 38.98 217.399 38.1569 217.308 37.3353C217.218 36.5151 217.125 35.692 217.031 34.8646C216.936 34.0372 216.836 33.1938 216.73 32.3346Z" fill="white"/>
<path d="M227.938 42.1172C227.693 42.1172 227.504 42.0521 227.369 41.9204C227.268 41.8814 227.177 41.8177 227.096 41.7281C227.015 41.6369 226.957 41.514 226.922 41.3549C226.539 39.496 226.244 37.7023 226.037 35.9766C225.832 34.2494 225.662 32.5439 225.529 30.8602C225.55 30.7922 225.629 30.73 225.767 30.6765C225.904 30.6215 226.05 30.5839 226.206 30.5607C226.362 30.5376 226.503 30.5332 226.627 30.5477C226.75 30.5622 226.815 30.5955 226.821 30.6461C227.641 30.4638 228.457 30.3206 229.268 30.2165C230.08 30.1123 230.904 30.0125 231.743 29.917C231.947 29.9503 232.108 30.0327 232.228 30.1615C232.348 30.2917 232.416 30.432 232.435 30.5853C232.453 30.7387 232.423 30.8862 232.34 31.0294C232.258 31.1726 232.118 31.2782 231.92 31.3477C231.095 31.4417 230.272 31.5212 229.449 31.5849C228.625 31.65 227.81 31.7729 227.005 31.9538C227.036 32.2083 227.076 32.4817 227.123 32.7768C227.171 33.069 227.217 33.3656 227.265 33.6621C227.313 33.9601 227.36 34.2509 227.407 34.5373C227.453 34.8237 227.492 35.0913 227.522 35.3387C227.78 35.2692 228.071 35.2041 228.396 35.1419C228.722 35.0797 229.053 35.0233 229.39 34.9741C229.728 34.9264 230.059 34.8787 230.386 34.8353C230.715 34.7904 231.008 34.7528 231.272 34.721C231.474 34.7543 231.636 34.8382 231.756 34.9713C231.876 35.1043 231.947 35.2519 231.967 35.4168C231.988 35.5802 231.956 35.7379 231.875 35.8884C231.794 36.0388 231.653 36.1473 231.455 36.2167C231.193 36.2485 230.898 36.2789 230.569 36.3035C230.239 36.3296 229.902 36.357 229.558 36.3845C229.213 36.412 228.878 36.4453 228.551 36.4858C228.223 36.5263 227.935 36.5813 227.684 36.6492C227.729 37.0123 227.77 37.3494 227.809 37.6589C227.846 37.9685 227.883 38.2723 227.916 38.5717C227.949 38.8711 227.984 39.1764 228.023 39.4903C228.062 39.8027 228.108 40.1484 228.162 40.526C228.979 40.322 229.815 40.1412 230.667 39.9835C231.52 39.8273 232.365 39.6928 233.201 39.5828C233.405 39.6176 233.555 39.7043 233.654 39.8432C233.752 39.9821 233.8 40.1354 233.794 40.3018C233.788 40.4696 233.735 40.6316 233.632 40.7878C233.529 40.944 233.379 41.0583 233.181 41.1263C232.293 41.2435 231.415 41.3809 230.543 41.54C229.672 41.6991 228.804 41.8915 227.938 42.1172Z" fill="white"/>
<path d="M117.505 116.248C117.44 116.248 117.382 116.205 117.365 116.14C115.785 109.964 112.8 106.319 110.574 104.346C108.162 102.209 106.096 101.524 106.076 101.516C106 101.492 105.958 101.411 105.983 101.334C106.007 101.259 106.089 101.217 106.165 101.242C106.251 101.269 108.298 101.947 110.754 104.119C113.014 106.118 116.045 109.814 117.645 116.069C117.665 116.145 117.618 116.225 117.541 116.244L117.505 116.248Z" fill="#1C056D"/>
<path d="M143.285 99.2598C143.22 99.2598 143.161 99.2164 143.144 99.1498C141.406 92.2021 138.385 88.5944 138.355 88.5582C138.303 88.4975 138.31 88.4063 138.371 88.3543C138.432 88.3036 138.523 88.3109 138.575 88.3716C138.606 88.4078 141.669 92.0618 143.425 99.0804C143.444 99.1571 143.398 99.2366 143.32 99.2554L143.285 99.2598Z" fill="#1C056D"/>
<path d="M75.5284 162.032C75.5284 162.535 75.1205 162.943 74.6172 162.943C74.1139 162.943 73.7061 162.535 73.7061 162.032C73.7061 161.529 74.1139 161.121 74.6172 161.121C75.1205 161.121 75.5284 161.529 75.5284 162.032Z" fill="#1C056D"/>
<path d="M78.1612 160.079C78.1612 160.582 77.7533 160.99 77.2501 160.99C76.7468 160.99 76.3389 160.582 76.3389 160.079C76.3389 159.577 76.7468 159.169 77.2501 159.169C77.7533 159.169 78.1612 159.577 78.1612 160.079Z" fill="#1C056D"/>
<path d="M80.8253 158.138C80.8253 158.639 80.4174 159.049 79.9142 159.049C79.411 159.049 79.0029 158.639 79.0029 158.138C79.0029 157.634 79.411 157.226 79.9142 157.226C80.4174 157.226 80.8253 157.634 80.8253 158.138Z" fill="#1C056D"/>
<path d="M190.332 88.5633C190.332 89.0667 189.924 89.4746 189.421 89.4746C188.918 89.4746 188.51 89.0667 188.51 88.5633C188.51 88.0599 188.918 87.652 189.421 87.652C189.924 87.652 190.332 88.0599 190.332 88.5633Z" fill="#1C056D"/>
<path d="M192.964 86.6102C192.964 87.1136 192.556 87.5215 192.053 87.5215C191.549 87.5215 191.142 87.1136 191.142 86.6102C191.142 86.1068 191.549 85.6988 192.053 85.6988C192.556 85.6988 192.964 86.1068 192.964 86.6102Z" fill="#1C056D"/>
<path d="M195.628 84.6668C195.628 85.1702 195.22 85.5781 194.717 85.5781C194.214 85.5781 193.806 85.1702 193.806 84.6668C193.806 84.1649 194.214 83.7569 194.717 83.7569C195.22 83.7569 195.628 84.1649 195.628 84.6668Z" fill="#1C056D"/>
<path d="M227.742 236.559L227.745 234.855H250.327L250.306 235.501L227.742 236.559ZM250.591 226.768H227.761H232.661V216.969L248.05 201.638H252.34C252.376 207.34 252.823 213.064 253.6 218.717L250.85 218.828L250.591 226.768ZM336.066 163.404C344.283 159.231 352.341 154.704 359.95 149.6C356.419 154.519 351.067 159.077 342.977 162.011C342.977 162.011 340.213 162.906 336.066 163.404Z" fill="#C9D1F5"/>
<path d="M330.77 163.727C324.569 163.727 317.055 162.349 310.856 157.129L309.252 158.727C309.136 152.83 308.862 146.847 306.978 141.262C306.052 142.458 305.149 143.675 304.271 144.908V104.412C304.802 103.809 305.355 103.219 305.932 102.645C312.872 95.7317 321.948 92.2773 331.026 92.2773C340.147 92.2773 349.271 95.7679 356.218 102.743C362.768 109.318 366.21 117.815 366.553 126.411C366.579 125.995 366.591 125.612 366.583 125.267C366.583 125.267 368.005 138.376 359.95 149.601C352.342 154.706 344.284 159.232 336.067 163.405C334.479 163.595 332.688 163.727 330.77 163.727ZM348.551 105.204C347.229 105.204 345.907 105.707 344.897 106.712C342.871 108.73 342.865 112.008 344.883 114.035C345.894 115.05 347.222 115.558 348.551 115.558C349.871 115.558 351.193 115.055 352.203 114.049C354.229 112.031 354.235 108.753 352.217 106.727C351.206 105.711 349.879 105.204 348.551 105.204Z" fill="#C3CDF5"/>
<path d="M253.601 218.719C252.824 213.066 252.377 207.342 252.341 201.639H266.174L265.434 202.379L263.956 218.295L253.601 218.719ZM304.272 163.688V144.909C305.15 143.675 306.052 142.458 306.978 141.262C308.863 146.847 309.136 152.83 309.252 158.728L304.272 163.688Z" fill="#BBC9F3"/>
<path d="M232.661 226.77H227.761L227.769 221.843L232.661 216.971V226.77Z" fill="#3755B7"/>
<path d="M266.173 201.639H248.05L258.603 191.127H276.727L266.173 201.639ZM297.373 170.56V152.504L301.796 148.098C299.891 145.358 298.417 142.41 297.373 139.348V116.329C298.834 112.047 301.134 107.989 304.271 104.412V144.908V163.687L297.373 170.56Z" fill="#6880E4"/>
<path d="M276.727 191.125H258.604L264.114 185.635H282.238L276.727 191.125ZM292.343 175.569V164.454C292.343 163.696 291.729 163.082 290.972 163.082H286.754L290.769 159.083H291.087C291.896 159.083 292.554 158.424 292.554 157.616V157.305L297.373 152.502V170.558L292.343 175.569ZM297.373 139.346C294.834 131.898 294.834 123.774 297.373 116.327V139.346Z" fill="#ADBDF5"/>
<path d="M250.327 234.855H227.745L227.761 226.769H250.591L250.327 234.855Z" fill="#6880E4"/>
<path d="M282.238 185.637H264.114L266.191 183.568H266.965C267.121 183.568 267.247 183.442 267.247 183.286V182.517L270.066 179.707H287.662C287.882 179.707 288.061 179.528 288.061 179.308V177.721C288.061 177.501 287.882 177.322 287.662 177.322H272.46L273.943 175.845H287.662C287.882 175.845 288.061 175.667 288.061 175.447V173.86C288.061 173.639 287.882 173.461 287.662 173.461H276.337L277.819 171.984H287.662C287.882 171.984 288.061 171.806 288.061 171.585V169.998C288.061 169.778 287.882 169.6 287.662 169.6H280.213L281.696 168.123H287.662C287.882 168.123 288.061 167.944 288.061 167.724V166.137C288.061 165.917 287.882 165.738 287.662 165.738H284.089L286.754 163.084H290.971C291.729 163.084 292.343 163.697 292.343 164.455V175.57L282.238 185.637Z" fill="#C9D1F5"/>
<path d="M287.662 168.123H281.695L284.089 165.738H287.662C287.882 165.738 288.061 165.917 288.061 166.137V167.724C288.061 167.944 287.882 168.123 287.662 168.123Z" fill="#BBC9F3"/>
<path d="M287.662 171.984H277.819L280.213 169.6H287.662C287.882 169.6 288.061 169.778 288.061 169.998V171.585C288.061 171.806 287.882 171.984 287.662 171.984Z" fill="#BBC9F3"/>
<path d="M287.662 175.844H273.942L276.336 173.46H287.662C287.882 173.46 288.061 173.638 288.061 173.859V175.446C288.061 175.666 287.882 175.844 287.662 175.844Z" fill="#BBC9F3"/>
<path d="M291.197 158.656L292.124 157.733C292.071 158.218 291.683 158.604 291.197 158.656Z" fill="#ADBDF5"/>
<path d="M287.662 179.707H270.066L272.46 177.322H287.662C287.882 177.322 288.061 177.501 288.061 177.721V179.308C288.061 179.528 287.882 179.707 287.662 179.707Z" fill="#BBC9F3"/>
<path d="M266.965 183.566H266.191L267.247 182.515V183.284C267.247 183.441 267.121 183.566 266.965 183.566Z" fill="#BBC9F3"/>
<path d="M291.087 159.084H290.769L291.198 158.656C291.684 158.604 292.072 158.218 292.125 157.733L292.553 157.306V157.617C292.553 158.426 291.895 159.084 291.087 159.084Z" fill="#C9D1F5"/>
<path d="M350.074 104.057C352.092 106.083 352.086 109.36 350.061 111.378C348.035 113.396 344.757 113.391 342.74 111.365C340.722 109.339 340.729 106.061 342.754 104.043C344.779 102.025 348.057 102.032 350.074 104.057ZM353.977 150.363C367.89 136.503 367.935 113.986 354.075 100.072C340.216 86.1578 317.702 86.1144 303.789 99.9752C291.393 112.323 290.007 131.543 299.654 145.429L225.629 219.173L225.6 233.891L248.164 232.833L247.704 215.236L261.812 215.625L263.29 199.709L308.712 154.459C322.543 164.008 341.64 162.653 353.977 150.363Z" fill="#F9C438"/>
<path d="M308.713 154.459C308.713 154.459 322.494 161.253 340.287 156.695C358.081 152.137 364.574 129.538 364.441 122.597C364.441 122.597 367.383 149.718 340.835 159.342C340.835 159.342 321.83 165.506 308.713 154.459Z" fill="#F6AB36"/>
<path d="M225.6 233.891C225.6 233.891 246.723 231.407 246.515 230.885C246.305 230.363 247.704 215.236 247.704 215.236C247.704 215.236 260.82 214.49 260.924 214.072C261.03 213.655 263.29 199.709 263.29 199.709L261.812 215.625L248.708 216.16L248.164 232.833L225.6 233.891Z" fill="#F6AB36"/>
<path d="M225.6 233.891L263.29 199.709L228.137 233.587L225.6 233.891Z" fill="#F6AB36"/>
<path d="M330.939 93.6032C330.939 93.6032 309.316 94.7315 300.766 113.781C300.766 113.781 294.23 130.259 306.467 145.961C306.467 145.961 294.419 126.694 306.131 109.026C306.131 109.026 314.512 98.2973 330.939 93.6032Z" fill="#F6AB36"/>
<path d="M266.133 99.8438C260.954 99.8438 256.156 98.2149 252.222 95.4405H254.344C257.494 96.9449 261.019 97.7853 264.742 97.7853C268.465 97.7853 271.99 96.9449 275.14 95.4405H280.045C276.111 98.2149 271.313 99.8438 266.133 99.8438Z" fill="#ADBDF5"/>
<path d="M290.286 76.5195H288.736C288.85 75.5677 288.909 74.6 288.909 73.6178C288.909 71.27 288.574 69.0004 287.95 66.8552C288.163 66.8045 288.371 66.7539 288.579 66.7033C289.69 69.4778 290.301 72.5054 290.301 75.6762C290.301 75.9583 290.295 76.2389 290.286 76.5195Z" fill="#C3CDF5"/>
<path d="M289.381 82.3027H287.301C288.007 80.4729 288.496 78.5345 288.736 76.5194H290.286C290.217 78.5186 289.906 80.4555 289.381 82.3027Z" fill="#6880E4"/>
<path d="M280.625 95.0176H275.982C281.134 92.3053 285.188 87.7863 287.3 82.3024H289.38C287.916 87.4464 284.792 91.8901 280.625 95.0176ZM253.502 95.0176H251.642C249.157 93.153 247.043 90.8197 245.431 88.1494C247.574 90.9933 250.33 93.3483 253.502 95.0176Z" fill="#ADBDF5"/>
<path d="M280.045 95.4395H275.14C275.424 95.3035 275.704 95.1632 275.982 95.0171H280.625C280.434 95.1603 280.24 95.302 280.045 95.4395ZM254.344 95.4395H252.222C252.026 95.302 251.833 95.1603 251.642 95.0171H253.502C253.779 95.1632 254.061 95.3035 254.344 95.4395Z" fill="#C9D1F5"/>
<path d="M288.908 73.6177C288.908 86.965 278.087 97.7852 264.741 97.7852C251.395 97.7852 240.574 86.965 240.574 73.6177C240.574 60.269 251.395 49.4488 264.741 49.4488C278.087 49.4488 288.908 60.269 288.908 73.6177Z" fill="#EAF2FC"/>
<path d="M264.684 68.9934C264.684 68.9934 279.991 82.941 277.757 85.4768C275.52 88.0126 272.114 89.4707 271.324 88.555C270.536 87.6379 259.26 70.9593 259.26 70.9593L264.684 68.9934Z" fill="#1B3D9E"/>
<mask id="mask6_3426_135087" style="mask-type:luminance" maskUnits="userSpaceOnUse" x="259" y="68" width="19" height="21">
<path d="M264.684 68.9934C264.684 68.9934 279.991 82.941 277.757 85.4768C275.52 88.0126 272.114 89.4707 271.324 88.555C270.536 87.6379 259.26 70.9593 259.26 70.9593L264.684 68.9934Z" fill="white"/>
</mask>
<g mask="url(#mask6_3426_135087)">
<path d="M270.038 72.9507C270.038 72.9507 260.487 76.2691 259.93 75.5371C259.374 74.8052 257.688 71.9005 257.688 71.9005C257.688 71.9005 267.388 66.4644 267.993 67.3367C268.596 68.2089 270.038 72.9507 270.038 72.9507Z" fill="#1C056D"/>
</g>
<path d="M249.522 72.5348C248.936 71.5569 249.068 70.3114 249.845 69.4782C256.016 62.8632 281.959 35.1951 283.96 35.402C286.232 35.6377 301.113 58.6783 300.173 62.4393C299.337 65.7765 260.785 72.3135 252.127 73.7412C251.094 73.9119 250.062 73.4331 249.522 72.5348Z" fill="#68A9FD"/>
<mask id="mask7_3426_135087" style="mask-type:luminance" maskUnits="userSpaceOnUse" x="249" y="35" width="52" height="39">
<path d="M249.522 72.5348C248.936 71.5569 249.068 70.3114 249.845 69.4782C256.016 62.8632 281.959 35.1951 283.96 35.402C286.232 35.6377 301.113 58.6783 300.173 62.4393C299.337 65.7765 260.785 72.3135 252.127 73.7412C251.094 73.9119 250.062 73.4331 249.522 72.5348Z" fill="white"/>
</mask>
<g mask="url(#mask7_3426_135087)">
<path d="M255.367 60.7769C255.367 60.7769 254.988 68.5015 262.921 75.1498C262.921 75.1498 248.375 77.2256 247.494 75.7588C246.614 74.2905 245.13 73.0971 245.582 71.8386C246.034 70.5801 255.367 60.7769 255.367 60.7769Z" fill="#1B3D9E"/>
<path d="M260.11 72.3809C259.538 71.7154 259.036 71.0515 258.594 70.3977C264.705 69.3547 274.733 66.978 280.038 62.1017C286.378 56.2736 294.322 54.8979 297.303 54.5782C299.033 57.8619 300.213 60.6581 300.215 62.0366C300.215 62.1871 300.202 62.3216 300.173 62.4373C299.598 64.7301 281.23 68.5316 266.977 71.1499C264.57 71.5925 262.278 72.0019 260.211 72.3635C260.178 72.3693 260.143 72.3751 260.11 72.3809Z" fill="#5682DB"/>
<path d="M254.75 73.3008L253.442 71.1093C253.442 71.1093 255.524 70.9212 258.593 70.3976C259.036 71.0514 259.538 71.7154 260.109 72.3808C258.067 72.7381 256.247 73.0491 254.75 73.3008Z" fill="#1B3092"/>
</g>
<path d="M289.036 50.8439C293.567 58.3978 298.547 63.7384 300.161 62.7692C301.775 61.8015 299.412 54.8928 294.881 47.3375C290.351 39.7836 285.37 34.443 283.755 35.4107C282.141 36.3799 284.506 43.2886 289.036 50.8439Z" fill="#1B3D9E"/>
<mask id="mask8_3426_135087" style="mask-type:luminance" maskUnits="userSpaceOnUse" x="283" y="35" width="18" height="28">
<path d="M289.036 50.8442C293.567 58.3981 298.547 63.7373 300.161 62.7695C301.775 61.8018 299.412 54.8931 294.881 47.3378C290.351 39.7839 285.37 34.4433 283.755 35.411C282.141 36.3802 284.506 43.2889 289.036 50.8442Z" fill="white"/>
</mask>
<g mask="url(#mask8_3426_135087)">
<path d="M286.986 49.599C286.986 49.599 291.457 44.6026 293.387 47.7604C295.318 50.9168 295.545 52.1363 288.949 54.377L286.986 49.599Z" fill="white"/>
<path d="M285.732 35.5421C285.732 35.5421 284.216 36.708 285.722 40.7062C287.024 44.1635 295.876 61.3296 301.444 62.0008C301.444 62.0008 300.963 64.4484 299.399 64.6061C297.836 64.7623 291.385 59.3696 289.391 55.3959C287.4 51.4222 280.978 40.55 280.677 38.5856C280.376 36.6197 284.248 33.9234 285.732 35.5421Z" fill="#1C056D"/>
</g>
</g>
<defs>
<clipPath id="clip0_3426_135087">
<rect width="446" height="234" fill="white"/>
</clipPath>
</defs>
</svg>
