<svg width="96" height="80" viewBox="0 0 96 80" fill="none" xmlns="http://www.w3.org/2000/svg">
<g clip-path="url(#clip0_2722_184134)">
<path d="M73.7578 64.916H79.0125H95.838" stroke="#3C3C3B" stroke-width="2" stroke-miterlimit="10"/>
<path d="M66.7452 64.916H53.9985H48.1521H42.3834H29.5664" stroke="#3C3C3B" stroke-width="2" stroke-miterlimit="10"/>
<path d="M0 64.916H17.3654H22.5461" stroke="#3C3C3B" stroke-width="2" stroke-miterlimit="10"/>
<path d="M48.1484 32.0723V47.6494V64.9166" stroke="#3C3C3B" stroke-width="2" stroke-miterlimit="10"/>
<path d="M54.2504 53.8337V63.1521C54.2504 63.7486 54.1657 64.3421 53.999 64.9139H42.3802C42.2122 64.3422 42.1262 63.7488 42.125 63.1521V53.8337C42.1288 52.2015 42.7636 50.6367 43.8914 49.4791C45.0192 48.3214 46.5491 47.6643 48.1489 47.6504H48.1859C49.7931 47.6524 51.3339 48.3044 52.4707 49.4634C53.6075 50.6225 54.2475 52.194 54.2504 53.8337Z" stroke="#3C3C3B" stroke-width="2" stroke-miterlimit="10"/>
<path d="M64.432 60.8438L63.2561 58.7613L61.3258 55.366L59.7763 52.5893L58.2158 49.8429L56.2633 46.3947L54.7361 43.686L53.1571 40.9018L51.2453 37.5517L49.6663 34.7637L48.139 32.0588L46.6118 34.7524L45.0291 37.5404L43.1321 40.9055L41.5493 43.6973L40.0221 46.3985L38.0659 49.8542L36.5128 52.5893L34.9597 55.3358L33.0368 58.7311L31.8571 60.8136L29.557 64.8805H66.7358L64.432 60.8438ZM48.1612 2.96438C31.9496 2.81348 18.7481 14.1426 13.6302 25.2756C9.98403 33.1981 9.97663 41.9241 9.97663 41.9241C9.9615 50.1919 12.5416 58.2473 17.3392 64.9107H22.5162L24.8459 60.7985L25.996 58.7613L28.3256 54.6492L29.4831 52.6044L31.4319 49.1562L32.1419 47.8962L34.5418 43.6633L36.0949 40.9169L38.0215 37.5215L38.469 36.7255L39.5784 34.775L41.5087 31.3797L44.6186 25.8868L48.1242 19.6921L51.6335 25.8868L54.7435 31.3797L56.6701 34.775L57.8017 36.767L58.2232 37.5215L60.1535 40.9169L61.7029 43.6633L63.2561 46.4098L64.8092 49.1562L66.7765 52.5893L67.9265 54.6341L70.2562 58.7462L71.4136 60.7834L73.7396 64.8956H78.9943C83.7938 58.2379 86.3802 50.1885 86.3754 41.9241C86.3754 29.6292 72.7486 3.19828 48.1797 2.96438H48.1612Z" stroke="#3C3C3B" stroke-width="2" stroke-miterlimit="10"/>
<path d="M73.7592 64.9128H66.7443L64.4405 60.8421L63.2645 58.7596L61.3342 55.3492L59.7848 52.6027L58.2243 49.8563L56.2718 46.4081L54.7445 43.6994L53.1655 40.9152L51.2648 37.55L49.6858 34.7621L48.1586 32.0571L48.1512 32.0684L46.6239 34.7621L45.0412 37.55L43.1442 40.9152L41.5615 43.7069L40.0343 46.4081L38.0781 49.8638L36.5213 52.6027L34.9681 55.3492L33.0452 58.7596L31.8656 60.8421L29.5655 64.9128H22.5469L24.8766 60.7968L26.0266 58.7596L28.3563 54.6475L29.5137 52.6027L31.4625 49.1546L32.1725 47.8945L34.5725 43.6616L36.1256 40.9152L38.0522 37.5085L38.4996 36.7125L39.6053 34.7621L41.5356 31.3516L44.6456 25.8587L48.1512 19.6641L51.6642 25.8587L54.7704 31.3516L56.697 34.7621L57.8286 36.754L58.2502 37.5047L60.1805 40.9152L61.7299 43.6616L63.283 46.4081L64.8398 49.1546L66.796 52.6027L67.9461 54.6475L70.2758 58.7596L71.4332 60.7968L73.7592 64.9128Z" stroke="#3C3C3B" stroke-width="2" stroke-miterlimit="10"/>
<path d="M13.4306 32.7301C10.4279 24.6039 24.7277 7.69503 33.5102 10.0416C37.8516 11.1998 41.7307 17.2963 40.27 20.8879C39.4861 22.8119 37.027 24.3624 34.8452 24.1625C32.2049 23.9248 31.7907 21.2953 29.4204 21.1142C26.7394 20.9143 23.4039 23.9889 22.8566 27.29C22.2094 31.1909 25.7298 33.4808 24.4984 35.8651C23.6183 37.5666 20.9152 37.9853 19.118 37.6873C16.241 37.2082 14.1332 34.6352 13.4306 32.7301Z" stroke="#3C3C3B" stroke-width="2" stroke-miterlimit="10"/>
<path d="M84.5901 47.9264C82.804 53.1704 78.2038 59.2443 74.4578 58.4294C72.7679 58.0521 71.2776 56.3016 70.8117 54.5361C69.902 51.1067 73.2634 49.228 72.4683 45.7534C71.8397 42.9919 68.959 40.849 67.4873 41.3206C66.5517 41.6299 66.7477 42.8296 65.3277 44.5386C64.731 45.2558 64.0448 45.8899 63.2864 46.4249L61.7333 43.6785L60.1839 40.932L58.2536 37.5367L57.832 36.7821C58.0487 35.8579 58.4531 34.9904 59.0191 34.2356C61.5004 30.995 66.5702 31.1572 67.4873 31.1836C71.1223 31.3005 71.995 32.9605 75.1308 32.5417C78.8287 32.0362 79.5683 29.4369 81.4358 29.8292C84.7787 30.5121 87.2822 40.0266 84.5901 47.9264Z" stroke="#3C3C3B" stroke-width="2" stroke-miterlimit="10"/>
<path d="M12.9806 55.2047C10.784 51.9036 10.6768 46.5541 12.8068 45.3393C15.2326 43.9585 21.312 47.5048 21.4599 52.0055C21.5486 54.7256 19.4778 57.9889 17.0224 58.0794C14.9442 58.1586 13.4354 55.8875 12.9806 55.2047Z" stroke="#3C3C3B" stroke-width="2" stroke-miterlimit="10"/>
<path d="M38.4998 36.7149L38.0523 37.4996L36.1257 40.895L34.5726 43.6414L32.1726 47.8743C32.1061 47.8328 32.0432 47.7913 31.9841 47.746C30.2867 46.5048 30.4568 43.7659 30.5049 42.9435C30.7527 38.9634 33.8774 34.6702 36.2921 35.0399C37.0761 35.1832 37.8489 35.8057 38.4998 36.7149Z" stroke="#3C3C3B" stroke-width="2" stroke-miterlimit="10"/>
<path d="M67.7189 25.184C64.8012 21.2152 66.3691 13.7568 69.15 12.9985C71.8273 12.2628 76.9156 17.3974 76.2352 22.1546C75.8986 24.505 74.0645 27.3986 71.6498 27.5193C69.5124 27.6249 67.9555 25.5085 67.7189 25.184Z" stroke="#3C3C3B" stroke-width="2" stroke-miterlimit="10"/>
<path d="M46.1039 5.5672C45.7082 7.49501 47.2983 9.80385 49.2027 10.4263C52.3016 11.4336 55.9551 7.8685 55.6223 5.8992C55.2266 3.59036 49.04 1.96436 46.8767 4.09211C46.4829 4.49587 46.2142 5.00884 46.1039 5.5672Z" stroke="#3C3C3B" stroke-width="2" stroke-miterlimit="10"/>
<path d="M9.21094 69.1895H10.5385V78.8322H9.21094V69.1895ZM10.0356 73.4412H15.2829V74.7276H10.0356V73.4412ZM14.5803 69.1895H15.9042V78.8322H14.5803V69.1895Z" fill="#3C3C3B"/>
<path d="M19.7404 78.4075C19.5255 78.2051 19.3584 77.9558 19.2514 77.6781C19.1445 77.4004 19.1005 77.1016 19.1228 76.8042C19.1025 76.5222 19.1426 76.2392 19.2403 75.9747C19.338 75.7102 19.491 75.4706 19.6886 75.2725C20.1784 74.8962 20.7858 74.7151 21.3971 74.7632H23.3163L23.4087 75.8497H21.4045C21.1255 75.8261 20.8481 75.911 20.6279 76.0874C20.5374 76.1812 20.4678 76.2937 20.4238 76.4174C20.3798 76.5411 20.3624 76.673 20.3727 76.8042C20.361 76.9524 20.386 77.1013 20.4454 77.2371C20.5049 77.3729 20.5969 77.4913 20.713 77.5813C21.0242 77.7726 21.3859 77.8609 21.7484 77.8341C22.1337 77.8532 22.5191 77.7969 22.8836 77.6681C22.9906 77.6324 23.0839 77.5633 23.1503 77.4706C23.2167 77.3778 23.2528 77.2661 23.2534 77.1512L23.3902 78.117C23.2776 78.2984 23.1305 78.4549 22.9576 78.5773C22.7753 78.7001 22.574 78.7907 22.3622 78.8451C22.1144 78.9083 21.8596 78.9387 21.6041 78.9357C20.9417 78.985 20.283 78.7983 19.7404 78.4075ZM23.2571 74.4727C23.2669 74.281 23.2392 74.0892 23.1758 73.9085C23.1123 73.7278 23.0142 73.5618 22.8873 73.4201C22.7551 73.2897 22.5977 73.1888 22.4252 73.1238C22.2527 73.0588 22.0687 73.0313 21.8852 73.0429C21.6167 73.0427 21.3498 73.0847 21.0938 73.1674C20.8481 73.2442 20.6168 73.3628 20.4097 73.5182L19.452 72.8467C19.7236 72.5209 20.0706 72.2694 20.4615 72.1148C20.905 71.9352 21.3785 71.8455 21.8556 71.8507C22.3514 71.8376 22.8436 71.9409 23.2941 72.1525C23.6786 72.3415 23.9964 72.6472 24.2038 73.0278C24.4209 73.4549 24.5278 73.9314 24.5144 74.4123V78.8338H23.2534L23.2571 74.4727Z" fill="#3C3C3B"/>
<path d="M27.3398 71.9484H30.3795V73.167H27.3398V71.9484ZM28.4122 78.4034C28.1369 78.0074 28.006 77.5256 28.0424 77.0415V69.9414H29.3663V77.049C29.36 77.1823 29.395 77.3143 29.4661 77.4263C29.4985 77.4716 29.5416 77.5078 29.5914 77.5316C29.6412 77.5553 29.696 77.5658 29.7509 77.5621H30.3869V78.8485H29.6141C29.3938 78.8708 29.1716 78.8423 28.9636 78.7653C28.7556 78.6882 28.5672 78.5646 28.4122 78.4034Z" fill="#3C3C3B"/>
<path d="M33.8224 78.4016C33.6076 78.1992 33.4404 77.9498 33.3335 77.6721C33.2265 77.3945 33.1825 77.0957 33.2049 76.7982C33.1845 76.5163 33.2246 76.2333 33.3223 75.9688C33.42 75.7043 33.573 75.4646 33.7707 75.2665C34.2617 74.89 34.8704 74.7089 35.4828 74.7572H37.3983L37.4907 75.8437H35.4865C35.2077 75.8224 34.9311 75.9071 34.7099 76.0814C34.6195 76.1752 34.5499 76.2878 34.5058 76.4115C34.4618 76.5352 34.4444 76.6671 34.4548 76.7982C34.444 76.9464 34.4695 77.0949 34.5289 77.2305C34.5883 77.3662 34.6797 77.4847 34.795 77.5754C35.1074 77.7672 35.4704 77.8555 35.8341 77.8281C36.2182 77.8473 36.6024 77.791 36.9657 77.6621C37.0733 77.6275 37.1672 77.5587 37.2338 77.4657C37.3003 77.3727 37.3359 77.2604 37.3354 77.1453L37.4723 78.1111C37.3618 78.2942 37.2143 78.4511 37.0396 78.5714C36.8587 78.6942 36.6586 78.7847 36.4479 78.8392C36.1988 78.9024 35.9428 78.9328 35.6862 78.9297C35.0237 78.979 34.365 78.7924 33.8224 78.4016ZM37.3391 74.4667C37.3623 74.0824 37.2361 73.7042 36.9878 73.4142C36.8547 73.284 36.6966 73.1833 36.5235 73.1184C36.3505 73.0535 36.1661 73.0257 35.982 73.0369C35.7135 73.0368 35.4466 73.0788 35.1906 73.1614C34.9452 73.2391 34.7141 73.3576 34.5065 73.5123L33.5377 72.837C33.8093 72.5112 34.1563 72.2597 34.5472 72.1051C34.9909 71.9261 35.4643 71.8365 35.9413 71.841C36.4372 71.8275 36.9294 71.9308 37.3798 72.1428C37.7643 72.3318 38.0821 72.6375 38.2895 73.0181C38.5066 73.4452 38.6135 73.9217 38.6001 74.4026V78.8241H37.3391V74.4667Z" fill="#3C3C3B"/>
<path d="M48.8792 69.1895H50.1217V78.8322H48.8274V71.6115L48.894 72.0378L46.568 77.4892H45.6435L43.3176 72.166L43.3804 71.6077V78.8285H42.0898V69.1895H43.3286L46.1058 75.5576L48.8792 69.1895Z" fill="#3C3C3B"/>
<path d="M53.9552 78.4016C53.7404 78.1992 53.5732 77.9498 53.4663 77.6721C53.3593 77.3945 53.3154 77.0957 53.3377 76.7982C53.3173 76.5163 53.3574 76.2333 53.4551 75.9688C53.5528 75.7043 53.7058 75.4646 53.9035 75.2665C54.3932 74.8903 55.0006 74.7092 55.6119 74.7572H57.5422L57.631 75.8437H55.6193C55.3403 75.8202 55.0629 75.9051 54.8427 76.0814C54.7516 76.1749 54.6813 76.2873 54.6366 76.411C54.592 76.5347 54.574 76.6668 54.5839 76.7982C54.5729 76.9468 54.5986 77.0958 54.6587 77.2315C54.7188 77.3673 54.8113 77.4855 54.9278 77.5754C55.2389 77.7671 55.6007 77.8554 55.9632 77.8281C56.3485 77.847 56.7338 77.7906 57.0985 77.6621C57.2055 77.6265 57.2988 77.5574 57.3652 77.4646C57.4315 77.3719 57.4676 77.2601 57.4682 77.1453L57.6051 78.1111C57.4924 78.2924 57.3453 78.4489 57.1724 78.5713C56.9901 78.6942 56.7889 78.7847 56.5771 78.8392C56.328 78.9026 56.072 78.933 55.8153 78.9297C55.1539 78.9797 54.4962 78.793 53.9552 78.4016ZM57.4719 74.4667C57.4817 74.2751 57.4541 74.0833 57.3906 73.9026C57.3271 73.7219 57.2291 73.5559 57.1022 73.4142C56.9697 73.2841 56.8123 73.1834 56.6398 73.1185C56.4673 73.0536 56.2835 73.0258 56.1 73.0369C55.8315 73.0368 55.5646 73.0788 55.3087 73.1614C55.0626 73.2375 54.8312 73.3562 54.6246 73.5123L53.6557 72.837C53.9274 72.5112 54.2743 72.2596 54.6652 72.1051C55.1087 71.9255 55.5822 71.8358 56.0593 71.841C56.554 71.8276 57.045 71.9308 57.4941 72.1428C57.8791 72.3325 58.1978 72.638 58.4075 73.0181C58.6246 73.4452 58.7315 73.9217 58.7181 74.4026V78.8241H57.4571L57.4719 74.4667Z" fill="#3C3C3B"/>
<path d="M61.5586 71.9484H64.602V73.167H61.5586V71.9484ZM62.6347 78.4034C62.3593 78.0074 62.2285 77.5256 62.2649 77.0415V69.9414H63.5924V77.049C63.5868 77.1817 63.6203 77.3132 63.6886 77.4263C63.7222 77.4711 63.7661 77.507 63.8163 77.5306C63.8666 77.5543 63.9217 77.5651 63.977 77.5621H64.6131V78.8485H63.8291C63.6101 78.8696 63.3892 78.8406 63.1826 78.7636C62.976 78.6866 62.7888 78.5635 62.6347 78.4034Z" fill="#3C3C3B"/>
<path d="M68.0412 78.4015C67.8263 78.1991 67.6591 77.9498 67.5522 77.6721C67.4452 77.3944 67.4013 77.0956 67.4236 76.7982C67.4033 76.5162 67.4433 76.2332 67.541 75.9687C67.6388 75.7042 67.7918 75.4646 67.9894 75.2665C68.4791 74.8902 69.0866 74.7091 69.6978 74.7572H71.6171L71.7095 75.8437H69.7052C69.4263 75.8201 69.1489 75.905 68.9287 76.0814C68.8382 76.1752 68.7686 76.2877 68.7246 76.4114C68.6805 76.5351 68.6631 76.667 68.6735 76.7982C68.6618 76.9464 68.6868 77.0953 68.7462 77.2311C68.8057 77.3669 68.8977 77.4853 69.0137 77.5753C69.325 77.7666 69.6867 77.8549 70.0491 77.8281C70.4345 77.8472 70.8198 77.7909 71.1844 77.6621C71.2914 77.6264 71.3847 77.5573 71.4511 77.4646C71.5175 77.3718 71.5535 77.2601 71.5542 77.1452L71.691 78.111C71.5784 78.2924 71.4313 78.4489 71.2584 78.5713C71.0761 78.6941 70.8748 78.7847 70.663 78.8391C70.4151 78.9023 70.1604 78.9327 69.9049 78.9297C69.2425 78.979 68.5838 78.7923 68.0412 78.4015ZM71.5579 74.4667C71.5677 74.275 71.54 74.0832 71.4765 73.9025C71.4131 73.7218 71.315 73.5558 71.1881 73.4141C71.0559 73.2837 70.8985 73.1827 70.726 73.1178C70.5534 73.0528 70.3695 73.0253 70.186 73.0369C69.9175 73.0367 69.6506 73.0787 69.3946 73.1614C69.1488 73.2382 68.9176 73.3568 68.7105 73.5122L67.7416 72.8369C68.0133 72.5111 68.3603 72.2596 68.7512 72.105C69.1946 71.9254 69.6682 71.8357 70.1453 71.8409C70.6411 71.8279 71.1332 71.9311 71.5838 72.1428C71.9683 72.3317 72.2861 72.6374 72.4935 73.018C72.7105 73.4451 72.8174 73.9216 72.8041 74.4025V78.824H71.5431L71.5579 74.4667Z" fill="#3C3C3B"/>
<path d="M75.6523 71.9484H78.6957V73.167H75.6523V71.9484ZM76.7284 78.4034C76.4531 78.0074 76.3222 77.5256 76.3586 77.0415V69.9414H77.6825V77.049C77.6762 77.1823 77.7112 77.3143 77.7823 77.4263C77.8147 77.4716 77.8578 77.5078 77.9076 77.5316C77.9574 77.5553 78.0122 77.5658 78.0671 77.5621H78.7031V78.8485H77.9376C77.7139 78.8743 77.4873 78.8476 77.2752 78.7704C77.063 78.6933 76.871 78.5677 76.7136 78.4034H76.7284Z" fill="#3C3C3B"/>
<path d="M82.131 78.4015C81.9162 78.1991 81.749 77.9497 81.6421 77.6721C81.5351 77.3944 81.4911 77.0956 81.5135 76.7981C81.4931 76.5162 81.5332 76.2332 81.6309 75.9687C81.7286 75.7042 81.8816 75.4646 82.0792 75.2665C82.5703 74.8899 83.1789 74.7089 83.7914 74.7572H85.7069L85.7993 75.8437H83.7951C83.5163 75.8223 83.2397 75.907 83.0185 76.0814C82.9281 76.1751 82.8584 76.2877 82.8144 76.4114C82.7704 76.5351 82.753 76.667 82.7634 76.7981C82.7526 76.9463 82.7781 77.0948 82.8375 77.2305C82.8968 77.3661 82.9883 77.4846 83.1036 77.5753C83.416 77.7671 83.779 77.8554 84.1427 77.8281C84.5268 77.8473 84.911 77.7909 85.2742 77.6621C85.3819 77.6275 85.4758 77.5586 85.5423 77.4656C85.6089 77.3726 85.6445 77.2604 85.644 77.1452L85.7808 78.111C85.6704 78.2941 85.5229 78.4511 85.3482 78.5713C85.1673 78.6941 84.9672 78.7847 84.7565 78.8391C84.5074 78.9023 84.2514 78.9327 83.9947 78.9297C83.3323 78.979 82.6736 78.7923 82.131 78.4015ZM85.644 74.4667C85.6538 74.275 85.6262 74.0832 85.5627 73.9025C85.4992 73.7218 85.4011 73.5558 85.2742 73.4141C85.1411 73.2839 84.983 73.1832 84.8099 73.1183C84.6369 73.0534 84.4525 73.0257 84.2684 73.0369C83.9999 73.0367 83.733 73.0787 83.4771 73.1614C83.2316 73.239 83.0004 73.3576 82.7929 73.5122L81.8241 72.8369C82.0957 72.5111 82.4427 72.2596 82.8336 72.105C83.2784 71.9256 83.7531 71.8359 84.2314 71.8409C84.726 71.8279 85.217 71.9312 85.6662 72.1427C86.0507 72.3317 86.3685 72.6374 86.5759 73.018C86.793 73.4451 86.8999 73.9216 86.8865 74.4025V78.824H85.644V74.4667Z" fill="#3C3C3B"/>
</g>
<defs>
<clipPath id="clip0_2722_184134">
<rect width="95.8416" height="80" fill="white"/>
</clipPath>
</defs>
</svg>
